<svg width="101" height="19" viewBox="0 0 101 19" fill="none" xmlns="http://www.w3.org/2000/svg">
<path d="M8.40318 1.18426L6.14929 6.53088L0.782875 7.08779C-0.161613 7.53332 0.0315774 8.31305 0.246234 8.64722L4.21738 12.323L3.35875 17.8924C3.44461 18.6944 4.1816 18.7464 4.53936 18.6721L9.2618 15.776C10.5497 16.63 13.2759 18.4048 13.8769 18.6721C14.478 18.9395 14.7713 18.2637 14.8429 17.8924L13.8769 12.1002L17.6334 8.64722C18.3203 7.84523 17.7765 7.27343 17.4187 7.08779L11.8377 6.53088L9.58379 1.18426C9.06861 0.560489 8.58206 0.924356 8.40318 1.18426Z" fill="#F9D978"/>
<path d="M70.2162 1.18426L67.9623 6.53088L62.5959 7.08779C61.6514 7.53332 61.8446 8.31305 62.0592 8.64722L66.0304 12.323L65.1717 17.8924C65.2576 18.6944 65.9946 18.7464 66.3524 18.6721L71.0748 15.776C72.3627 16.63 75.0889 18.4048 75.6899 18.6721C76.2909 18.9395 76.5843 18.2637 76.6559 17.8924L75.6899 12.1002L79.4464 8.64722C80.1333 7.84523 79.5895 7.27343 79.2317 7.08779L73.6507 6.53088L71.3968 1.18426C70.8816 0.560489 70.395 0.924356 70.2162 1.18426Z" fill="#F9D978"/>
<path d="M49.8273 1.18426L47.3685 6.53088L41.5142 7.08779C40.4839 7.53332 40.6946 8.31305 40.9288 8.64722L45.2609 12.323L44.3242 17.8924C44.4179 18.6944 45.2219 18.7464 45.6122 18.6721L50.7639 15.776C52.169 16.63 55.1429 18.4048 55.7986 18.6721C56.4543 18.9395 56.7743 18.2637 56.8524 17.8924L55.7986 12.1002L59.8966 8.64722C60.6459 7.84523 60.0527 7.27343 59.6624 7.08779L53.574 6.53088L51.1152 1.18426C50.5532 0.560489 50.0224 0.924356 49.8273 1.18426Z" fill="#F9D978"/>
<path d="M28.6808 1.18426L26.222 6.53088L20.3677 7.08779C19.3374 7.53332 19.5481 8.31305 19.7823 8.64722L24.1144 12.323L23.1778 17.8924C23.2714 18.6944 24.0754 18.7464 24.4657 18.6721L29.6175 15.776C31.0225 16.63 33.9964 18.4048 34.6521 18.6721C35.3078 18.9395 35.6278 18.2637 35.7059 17.8924L34.6521 12.1002L38.7501 8.64722C39.4995 7.84523 38.9062 7.27343 38.5159 7.08779L32.4275 6.53088L29.9687 1.18426C29.4067 0.560489 28.8759 0.924356 28.6808 1.18426Z" fill="#F9D978"/>
<path d="M88.0434 6.98397L88.3321 6.95445L88.4497 6.68904L90.7558 1.48232C90.8038 1.4217 90.8824 1.36185 90.9663 1.34508C91.0237 1.33358 91.1731 1.32313 91.4193 1.53601L93.8197 6.6974L93.9404 6.9569L94.2253 6.98427L99.9772 7.53682C100.065 7.57074 100.157 7.61647 100.237 7.67045C100.338 7.73763 100.391 7.79805 100.412 7.83691C100.425 7.85965 100.426 7.86707 100.417 7.89115C100.402 7.93519 100.342 8.04826 100.128 8.21649L100.118 8.22492L100.107 8.23392L96.0366 11.8096L95.8244 11.996L95.8745 12.2739L96.905 17.994C96.8866 18.0559 96.8494 18.1239 96.7954 18.1672C96.7531 18.2011 96.6328 18.2764 96.3289 18.201L91.6182 15.4413L91.3768 15.2999L91.13 15.4317L85.9638 18.1891C85.8818 18.1993 85.762 18.1967 85.6478 18.1561C85.5513 18.1218 85.4512 18.059 85.3727 17.9272L86.3911 12.2739L86.4428 11.987L86.2186 11.8007L81.9871 8.28472C81.9127 8.13506 81.8845 7.97318 81.9154 7.86798C81.9305 7.81695 82.002 7.61775 82.5836 7.54193L88.0434 6.98397Z" stroke="#F9D978"/>
</svg>
