<svg width="101" height="19" viewBox="0 0 101 19" fill="none" xmlns="http://www.w3.org/2000/svg">
<path d="M8.40318 0.81805L6.14929 6.16467L0.782875 6.72158C-0.161613 7.16711 0.0315774 7.94683 0.246234 8.28101L4.21738 11.9568L3.35875 17.5262C3.44461 18.3282 4.1816 18.3802 4.53936 18.3059L9.2618 15.4098C10.5497 16.2638 13.2759 18.0386 13.8769 18.3059C14.478 18.5732 14.7713 17.8975 14.8429 17.5262L13.8769 11.734L17.6334 8.28101C18.3203 7.47901 17.7765 6.90722 17.4187 6.72158L11.8377 6.16467L9.58379 0.81805C9.06861 0.194278 8.58206 0.558145 8.40318 0.81805Z" fill="#F9D978"/>
<path d="M70.2162 0.81805L67.9623 6.16467L62.5959 6.72158C61.6514 7.16711 61.8446 7.94683 62.0592 8.28101L66.0304 11.9568L65.1717 17.5262C65.2576 18.3282 65.9946 18.3802 66.3524 18.3059L71.0748 15.4098C72.3627 16.2638 75.0889 18.0386 75.6899 18.3059C76.2909 18.5732 76.5843 17.8975 76.6559 17.5262L75.6899 11.734L79.4464 8.28101C80.1333 7.47901 79.5895 6.90722 79.2317 6.72158L73.6507 6.16467L71.3968 0.81805C70.8816 0.194278 70.395 0.558145 70.2162 0.81805Z" fill="#F9D978"/>
<path d="M49.8273 0.81805L47.3685 6.16467L41.5142 6.72158C40.4839 7.16711 40.6946 7.94683 40.9288 8.28101L45.2609 11.9568L44.3242 17.5262C44.4179 18.3282 45.2219 18.3802 45.6122 18.3059L50.7639 15.4098C52.169 16.2638 55.1429 18.0386 55.7986 18.3059C56.4543 18.5732 56.7743 17.8975 56.8524 17.5262L55.7986 11.734L59.8966 8.28101C60.6459 7.47901 60.0527 6.90722 59.6624 6.72158L53.574 6.16467L51.1152 0.81805C50.5532 0.194278 50.0224 0.558145 49.8273 0.81805Z" fill="#F9D978"/>
<path d="M28.6808 0.81805L26.222 6.16467L20.3677 6.72158C19.3374 7.16711 19.5481 7.94683 19.7823 8.28101L24.1144 11.9568L23.1778 17.5262C23.2714 18.3282 24.0754 18.3802 24.4657 18.3059L29.6175 15.4098C31.0225 16.2638 33.9964 18.0386 34.6521 18.3059C35.3078 18.5732 35.6278 17.8975 35.7059 17.5262L34.6521 11.734L38.7501 8.28101C39.4995 7.47901 38.9062 6.90722 38.5159 6.72158L32.4275 6.16467L29.9687 0.81805C29.4067 0.194278 28.8759 0.558145 28.6808 0.81805Z" fill="#F9D978"/>
<path d="M88.0434 6.61775L88.3321 6.58824L88.4497 6.32283L90.7558 1.11611C90.8038 1.05549 90.8824 0.995639 90.9663 0.97887C91.0237 0.967374 91.1731 0.956921 91.4193 1.1698L93.8197 6.33119L93.9404 6.59069L94.2253 6.61805L99.9772 7.17061C100.065 7.20453 100.157 7.25026 100.237 7.30424C100.338 7.37142 100.391 7.43184 100.412 7.4707C100.425 7.49344 100.426 7.50086 100.417 7.52494C100.402 7.56898 100.342 7.68205 100.128 7.85028L100.118 7.85871L100.107 7.86771L96.0366 11.4434L95.8244 11.6298L95.8745 11.9077L96.905 17.6278C96.8866 17.6897 96.8494 17.7577 96.7954 17.801C96.7531 17.8349 96.6328 17.9102 96.3289 17.8348L91.6182 15.0751L91.3768 14.9337L91.13 15.0655L85.9638 17.8229C85.8818 17.8331 85.762 17.8305 85.6478 17.7899C85.5513 17.7556 85.4512 17.6928 85.3727 17.5609L86.3911 11.9077L86.4428 11.6208L86.2186 11.4345L81.9871 7.91851C81.9127 7.76884 81.8845 7.60697 81.9154 7.50177C81.9305 7.45073 82.002 7.25154 82.5836 7.17572L88.0434 6.61775Z" stroke="#F9D978"/>
<path d="M91.1628 15.4905V0.473633C90.7981 0.473633 90.2131 0.772477 90.1372 0.921899L87.858 6.18903L82.1599 6.74936C81.1571 7.01832 81.3622 7.83267 81.5901 8.20622L85.7333 11.7924L84.8216 17.6198C84.9128 18.5163 85.7687 18.4043 86.1486 18.2922L91.1628 15.4905Z" fill="#F9D978"/>
<path d="M91.1628 15.4905V0.473633C90.7981 0.473633 90.2131 0.772477 90.1372 0.921899L87.858 6.18903L82.1599 6.74936C81.1571 7.01832 81.3622 7.83267 81.5901 8.20622L85.7333 11.7924L84.8216 17.6198C84.9128 18.5163 85.7687 18.4043 86.1486 18.2922L91.1628 15.4905Z" stroke="#F9D978"/>
</svg>
