<svg width="1440" height="256" viewBox="0 0 1440 256" fill="none" xmlns="http://www.w3.org/2000/svg">
<path d="M-442 182.805L-428.644 195.87C-415.076 208.935 -388.364 235.064 -361.864 243.276C-335.364 251.489 -309.076 241.783 -282.576 241.559C-256.076 241.261 -229.364 250.518 -202.864 253.878C-176.364 257.237 -150.076 254.699 -123.576 246.785C-97.076 238.797 -70.364 225.359 -43.864 226.106C-17.364 226.852 8.92398 241.783 35.424 250.369C61.924 258.954 88.6359 253.206 115.136 243.65C141.636 234.019 167.924 210.905 194.424 205.679C220.924 200.453 247.636 221.104 274.136 220.282C300.636 219.387 326.924 206.695 353.424 200.125C379.924 193.481 406.636 193.033 433.136 200.573C459.636 208.188 476.568 221.552 502.644 226.255C528.72 231.033 543 190.868 569.5 190.047C596 189.151 620.72 212.716 647.644 211.223C674.568 209.73 712 194.864 738.5 197.85C765 200.837 790.5 214.31 817 219.163C843.5 224.015 877.5 211.921 904 200.573C930.5 189.3 962.924 203.186 989.424 193.108C1015.92 183.029 1042.64 181.835 1069.14 190.047C1095.64 198.259 1121.92 215.878 1148.42 219.163C1174.92 222.373 1201.64 211.174 1228.14 207.218C1254.64 203.186 1284.5 231.726 1311 231.726C1337.5 231.726 1360.64 212.145 1387.14 207.218C1413.64 202.216 1482.07 222.522 1495 219.163L1466 179.819V0.644897H1452.86C1439.92 0.644897 1413.64 0.644897 1387.14 0.644897C1360.64 0.644897 1333.92 0.644897 1307.42 0.644897C1280.92 0.644897 1254.64 0.644897 1228.14 0.644897C1201.64 0.644897 1174.92 0.644897 1148.42 0.644897C1121.92 0.644897 1095.64 0.644897 1069.14 0.644897C1042.64 0.644897 1015.92 0.644897 989.424 0.644897C962.924 0.644897 936.636 0.644897 910.136 0.644897C883.636 0.644897 856.924 0.644897 830.424 0.644897C803.924 0.644897 777.636 0.644897 751.136 0.644897C724.636 0.644897 697.924 0.644897 671 0.644897C644.076 0.644897 617.364 0.644897 590.864 0.644897C564.364 0.644897 538.076 0.644897 512 0.644897C485.924 0.644897 459.636 0.644897 433.136 0.644897C406.636 0.644897 379.924 0.644897 353.424 0.644897C326.924 0.644897 300.636 0.644897 274.136 0.644897C247.636 0.644897 220.924 0.644897 194.424 0.644897C167.924 0.644897 141.636 0.644897 115.136 0.644897C88.6359 0.644897 61.924 0.644897 35.424 0.644897C8.92398 0.644897 -17.364 0.644897 -43.864 0.644897C-70.364 0.644897 -97.076 0.644897 -123.576 0.644897C-150.076 0.644897 -176.364 0.644897 -202.864 0.644897C-229.364 0.644897 -256.076 0.644897 -282.576 0.644897C-309.076 0.644897 -335.364 0.644897 -361.864 0.644897C-388.364 0.644897 -415.076 0.644897 -428.644 0.644897H-442V182.805Z" fill="#DADADA"/>
</svg>
