<svg width="1440" height="288" viewBox="0 0 1440 288" fill="none" xmlns="http://www.w3.org/2000/svg">
<path opacity="0.82" d="M-3.97778 266.909L-4.69221 219.5C25.0722 206.592 21.6933 250.129 41 246.164C60.3067 242.2 70.1933 261.135 89.5 271C108.807 280.865 130.193 266.241 149.5 262C168.807 257.667 182.313 277.346 201.62 274.304C220.926 271.169 241.873 251.881 261.18 254.462C280.486 257.044 320.213 277.235 339.52 278.894C358.827 280.554 378.133 259.256 397.44 257.966C416.747 256.767 412.693 243.398 432 246.164C451.307 248.93 480.693 240.798 500 232.5C519.307 224.202 551.893 248.008 571.2 246.164C590.507 244.32 609.813 265.526 629.12 267.831C648.427 270.135 667.733 253.54 687.04 257.966C706.347 262.483 719.693 272.533 739 278.894C758.307 285.163 783.573 269.029 802.88 267.831C822.187 266.54 841.493 278.341 860.8 275.667C880.107 273.086 899.413 251.957 918.72 242C938.027 231.951 957.333 250.498 976.64 247.824C995.947 245.242 1015.25 244.32 1034.56 255.2C1053.87 266.171 1065.19 256.014 1084.5 268C1103.81 279.986 1116.69 264.986 1136 266C1155.31 267.106 1174.19 292.879 1193.5 282C1212.81 271.029 1224.69 261.838 1244 255.2C1263.31 248.561 1304.85 268.937 1324.16 279.632C1343.47 290.419 1378.86 288.298 1398.17 281.199C1417.48 274.192 1420.69 262.114 1430.35 249.115L1440 243.859V0H1430.35C1420.69 0 1401.39 0 1382.08 0C1362.77 0 1343.47 0 1324.16 0C1304.85 0 1285.55 0 1266.24 0C1246.93 0 1227.63 0 1208.32 0C1189.01 0 1169.71 0 1150.4 0C1131.09 0 1111.79 0 1092.48 0C1073.17 0 1053.87 0 1034.56 0C1015.25 0 995.947 0 976.64 0C957.333 0 938.027 0 918.72 0C899.413 0 880.107 0 860.8 0C841.493 0 822.187 0 802.88 0C783.573 0 764.267 0 744.96 0C725.653 0 706.347 0 687.04 0C667.733 0 648.427 0 629.12 0C609.813 0 590.507 0 571.2 0C551.893 0 532.587 0 513.28 0C493.973 0 474.667 0 455.36 0C436.053 0 416.747 0 397.44 0C378.133 0 358.827 0 339.52 0C320.213 0 300.907 0 281.6 0C262.293 0 242.987 0 223.68 0C204.373 0 185.067 0 165.76 0C146.453 0 127.147 0 107.84 0C88.5333 0 69.2267 0 49.92 0C30.6133 0 11.3067 0 1.65333 0H-8L-3.97778 266.909Z" fill="#DADADA"/>
</svg>
