<svg id="visual" viewBox="0 0 900 450" width="900" height="450" xmlns="http://www.w3.org/2000/svg" xmlns:xlink="http://www.w3.org/1999/xlink" version="1.1"><path d="M0 380L5.2 378C10.3 376 20.7 372 31 376C41.3 380 51.7 392 62 396.8C72.3 401.7 82.7 399.3 93 393.7C103.3 388 113.7 379 124 379.7C134.3 380.3 144.7 390.7 155 391.3C165.3 392 175.7 383 186 379.7C196.3 376.3 206.7 378.7 217 383.5C227.3 388.3 237.7 395.7 248 395.5C258.3 395.3 268.7 387.7 279 385.3C289.3 383 299.7 386 310 390.2C320.3 394.3 330.7 399.7 341 397.8C351.3 396 361.7 387 372 380.8C382.3 374.7 392.7 371.3 403 372.2C413.3 373 423.7 378 434.2 384.5C444.7 391 455.3 399 465.8 397.2C476.3 395.3 486.7 383.7 497 383.8C507.3 384 517.7 396 528 397.7C538.3 399.3 548.7 390.7 559 386.3C569.3 382 579.7 382 590 380.8C600.3 379.7 610.7 377.3 621 381C631.3 384.7 641.7 394.3 652 392.5C662.3 390.7 672.7 377.3 683 372.5C693.3 367.7 703.7 371.3 714 376.8C724.3 382.3 734.7 389.7 745 393.8C755.3 398 765.7 399 776 398.7C786.3 398.3 796.7 396.7 807 391.5C817.3 386.3 827.7 377.7 838 378.2C848.3 378.7 858.7 388.3 869 393.2C879.3 398 889.7 398 894.8 398L900 398L900 451L894.8 451C889.7 451 879.3 451 869 451C858.7 451 848.3 451 838 451C827.7 451 817.3 451 807 451C796.7 451 786.3 451 776 451C765.7 451 755.3 451 745 451C734.7 451 724.3 451 714 451C703.7 451 693.3 451 683 451C672.7 451 662.3 451 652 451C641.7 451 631.3 451 621 451C610.7 451 600.3 451 590 451C579.7 451 569.3 451 559 451C548.7 451 538.3 451 528 451C517.7 451 507.3 451 497 451C486.7 451 476.3 451 465.8 451C455.3 451 444.7 451 434.2 451C423.7 451 413.3 451 403 451C392.7 451 382.3 451 372 451C361.7 451 351.3 451 341 451C330.7 451 320.3 451 310 451C299.7 451 289.3 451 279 451C268.7 451 258.3 451 248 451C237.7 451 227.3 451 217 451C206.7 451 196.3 451 186 451C175.7 451 165.3 451 155 451C144.7 451 134.3 451 124 451C113.7 451 103.3 451 93 451C82.7 451 72.3 451 62 451C51.7 451 41.3 451 31 451C20.7 451 10.3 451 5.2 451L0 451Z" fill="#FFFFFF" stroke-linecap="round" stroke-linejoin="miter"></path></svg>