<svg width="96" height="40" viewBox="0 0 96 40" fill="none" xmlns="http://www.w3.org/2000/svg">
<path fill-rule="evenodd" clip-rule="evenodd" d="M4.15065 28.4714L0 39.0417H2.42502L3.20086 36.8692H6.67265L7.50647 39.0417H10.028L5.89681 28.4714H4.15065ZM6.05126 34.9296H3.85971L4.59656 32.835C4.75203 32.4861 4.84901 32.1176 4.92649 31.7677H4.94599C5.08197 32.2146 5.17895 32.5825 5.27593 32.835L6.05126 34.9296ZM21.4316 33.8053C21.4316 32.9905 21.2766 32.2921 20.9857 31.6138C20.6948 30.9924 20.2684 30.45 19.764 29.9651C19.2406 29.4992 18.6197 29.1503 17.9408 28.9178C17.262 28.7044 16.5636 28.5679 15.8073 28.5679H12.2965V39.0417H15.8073C16.5636 39.0417 17.262 38.9052 17.9408 38.6918C18.6197 38.4593 19.2406 38.1104 19.764 37.6445C20.2684 37.1596 20.6948 36.6172 20.9857 35.9958C21.2766 35.3175 21.4316 34.6191 21.4316 33.8053ZM18.6197 32.4471C18.7942 32.874 18.8911 33.3199 18.8911 33.8048C18.891 34.2707 18.7987 34.7319 18.6197 35.162C18.4555 35.5289 18.2022 35.8488 17.8828 36.0928C17.5919 36.3643 17.2425 36.5587 16.8161 36.6752L15.5163 36.8686H14.7215V30.7404H15.5163L16.8161 30.9339C17.243 31.0503 17.5919 31.2443 17.8828 31.5163C18.2018 31.7607 18.455 32.0806 18.6197 32.4471ZM25.5823 28.5679L27.2309 33.1839C27.4444 33.8433 27.7158 34.6191 27.9293 35.4919C28.1382 34.7135 28.3775 33.9436 28.6466 33.1839L30.2953 28.5679H32.7198L28.8796 39.0997H26.8045L22.9643 28.5679H25.5823ZM37.0449 28.4714L32.9138 39.0417H35.3383L36.1141 36.8692H39.5664L40.4197 39.0417H42.9412L38.7906 28.4714H37.0449ZM38.965 34.9296H36.754L37.5103 32.835C37.6658 32.4861 37.7628 32.1176 37.8208 31.7677H37.8592C37.9952 32.2146 38.0922 32.5825 38.1892 32.835L38.965 34.9296ZM47.4982 28.5679L51.0475 32.4866L52.7542 34.4842H52.7932C52.7535 33.8256 52.7342 33.1659 52.7352 32.5061V28.5684H55.2757V39.1777H53.9959L49.9228 34.7171L47.9832 32.4091H47.9442L48.0021 34.6201V39.0427H45.4612V28.5689H47.4982V28.5679ZM57.7002 28.5679H66.5639V30.6039H63.4025V39.0417H60.881V30.566H57.7002V28.5679ZM69.2203 28.5679H71.7418V39.0417H69.2203V28.5679ZM75.0001 31.4188C75.3311 30.7404 75.777 30.178 76.3188 29.6931C76.8822 29.2472 77.4836 28.8973 78.162 28.6648C78.8403 28.4324 79.5197 28.3159 80.2375 28.3159L81.9442 28.5094C82.4291 28.6063 82.855 28.7618 83.2049 28.9553L83.0105 31.1468L81.9822 30.7399L80.528 30.5075C80.0431 30.5075 79.5972 30.5654 79.1702 30.7399C78.7444 30.8954 78.3944 31.1278 78.065 31.4183C77.7746 31.7087 77.5216 32.0586 77.3676 32.4466C77.1727 32.8725 77.0733 33.3359 77.0762 33.8043C77.0762 34.2882 77.1732 34.7351 77.3676 35.1615C77.5221 35.5494 77.7746 35.8788 78.1045 36.1708C78.431 36.459 78.805 36.6885 79.2098 36.8492C79.6557 37.0046 80.1406 37.0626 80.626 37.0626L82.1192 36.9071C82.5261 36.8102 82.895 36.6547 83.1854 36.4612L82.992 38.7492C82.3326 39.0992 81.4408 39.2926 80.2381 39.2926C79.5207 39.2926 78.8408 39.1762 78.1625 38.9437C77.4841 38.7113 76.8827 38.3613 76.3193 37.8774C75.777 37.3925 75.3311 36.8491 75.0006 36.1708C74.6707 35.4524 74.5167 34.6766 74.5167 33.8048C74.5162 32.9325 74.6702 32.1176 75.0001 31.4188ZM89.0617 28.4714L84.9306 39.0417H87.3551L88.1309 36.8692H91.5837L92.4175 39.0417H94.939L90.8079 28.4714H89.0617ZM90.9628 34.9296H88.7713L89.5081 32.835C89.6826 32.4861 89.7796 32.1176 89.8381 31.7677H89.8771C89.9935 32.2146 90.0905 32.5825 90.187 32.835L90.9628 34.9296Z" fill="#304497"/>
<path fill-rule="evenodd" clip-rule="evenodd" d="M81.0806 0.13841C64.9562 1.52076 48.858 3.22844 32.7783 5.65294C25.6633 6.72588 18.4791 8.70192 11.5894 9.7646C8.85187 10.1869 6.34526 11.6842 4.28508 13.0891C2.24028 14.4833 2.0376 15.3243 2.0376 16.9021C2.0376 18.0931 4.03467 18.5965 5.00499 18.6478C14.1663 19.1337 23.2198 18.3989 32.5073 17.9689C32.8645 17.9525 33.2124 17.7072 33.5931 17.6975C44.1424 17.4163 54.6963 18.3943 65.4011 19.0357C67.118 19.1383 68.6882 19.5365 70.793 19.5781C73.591 19.634 76.4045 19.6638 79.2185 19.614C85.0501 19.5129 95.8637 14.0533 95.995 8.67472C96.0551 6.1948 95.6081 2.7774 92.5545 1.83172C87.6147 0.303122 86.1687 -0.297231 81.0806 0.13841Z" fill="#D5D2E1"/>
<path fill-rule="evenodd" clip-rule="evenodd" d="M80.8422 0.210682C64.8384 1.58226 48.8593 3.27762 32.8991 5.68416C25.837 6.74889 18.7061 8.71056 11.8677 9.76503C9.15022 10.1837 6.66208 11.6703 4.61729 13.0644C2.58737 14.4488 2.38623 15.2832 2.38623 16.8492C2.38623 18.0314 4.36842 18.5307 5.33156 18.5815C14.4241 19.0638 23.4104 18.3342 32.6292 17.9078C32.9837 17.8914 33.3291 17.6481 33.7073 17.6384C44.1775 17.3598 54.654 18.3306 65.2792 18.9669C66.9828 19.0685 68.5411 19.4636 70.6311 19.5056C73.4081 19.5611 76.2005 19.5903 78.9934 19.541C84.782 19.4405 95.5155 14.0214 95.6458 8.68286C95.7058 6.2214 95.262 2.82915 92.2305 1.89116C87.3271 0.373855 85.8934 -0.222394 80.8422 0.210682Z" fill="#CCCBDE"/>
<path fill-rule="evenodd" clip-rule="evenodd" d="M80.6043 0.282178C64.7186 1.64401 48.86 3.32654 33.0189 5.71512C26.0096 6.77164 18.9326 8.71895 12.145 9.76572C9.44856 10.1813 6.9789 11.6566 4.94899 13.0405C2.93498 14.4141 2.73486 15.2423 2.73486 16.797C2.73486 17.97 4.70218 18.4662 5.65812 18.517C14.6824 18.9958 23.602 18.2712 32.7515 17.8484C33.1035 17.832 33.4463 17.5908 33.8214 17.5811C44.2137 17.304 54.6111 18.2676 65.1563 18.8993C66.848 19.0004 68.3951 19.3924 70.4681 19.434C73.2251 19.4894 75.996 19.5186 78.7684 19.4694C84.5138 19.3693 95.1673 13.9913 95.2966 8.69278C95.3556 6.2498 94.9148 2.8832 91.9064 1.95137C87.0415 0.444838 85.6165 -0.147305 80.6043 0.282178Z" fill="#C3C6DC"/>
<path fill-rule="evenodd" clip-rule="evenodd" d="M80.366 0.354058C64.6003 1.70562 48.8623 3.37533 33.1397 5.74544C26.1833 6.79427 19.1591 8.7272 12.4228 9.76525C9.7464 10.1783 7.29572 11.6423 5.2812 13.0154C3.28207 14.3787 3.0835 15.2008 3.0835 16.7437C3.0835 17.908 5.03593 18.4001 5.98469 18.4504C14.9418 18.925 23.7936 18.2066 32.8739 17.7864C33.2233 17.7705 33.5635 17.5308 33.9355 17.5211C44.2498 17.2461 54.5687 18.203 65.0349 18.8296C66.7133 18.9296 68.2491 19.3191 70.3062 19.3601C73.0411 19.415 75.792 19.4438 78.5434 19.395C84.2457 19.296 94.8181 13.958 94.9474 8.69949C95.0064 6.27447 94.5687 2.93353 91.5828 2.00888C86.7538 0.51518 85.3407 -0.0718337 80.366 0.354058Z" fill="#BDC2DB"/>
<path fill-rule="evenodd" clip-rule="evenodd" d="M80.127 0.425813C64.4819 1.76712 48.8625 3.42399 33.2599 5.77666C26.3564 6.81727 19.3856 8.73533 12.7006 9.76619C10.0442 10.1757 7.612 11.6283 5.61339 12.9917C3.62966 14.3448 3.43262 15.1607 3.43262 16.6918C3.43262 17.8474 5.37017 18.3359 6.31175 18.3856C15.2006 18.8567 23.9847 18.1439 32.9967 17.7268C33.3431 17.7109 33.6807 17.4728 34.0507 17.4635C44.2859 17.1906 54.5273 18.1398 64.9129 18.7617C66.5785 18.8613 68.103 19.2477 70.1453 19.2887C72.8592 19.3426 75.589 19.3713 78.3193 19.3231C83.9785 19.2246 94.4709 13.9276 94.5981 8.70864C94.6571 6.30261 94.2235 2.9863 91.2598 2.06935C86.4672 0.585909 85.0648 0.00299954 80.127 0.425813Z" fill="#B4BCDA"/>
<path fill-rule="evenodd" clip-rule="evenodd" d="M79.8897 0.49813C64.3636 1.82917 48.8637 3.47373 33.3807 5.80792C26.53 6.84084 19.6126 8.74402 12.979 9.76667C10.343 10.1731 7.92931 11.6149 5.94558 12.9675C3.97672 14.3104 3.78174 15.1196 3.78174 16.6389C3.78174 17.7858 5.70441 18.2701 6.63881 18.3194C15.4594 18.7874 24.1768 18.0798 33.119 17.6662C33.4628 17.6503 33.7984 17.4143 34.1648 17.4045C44.322 17.1341 54.485 18.0762 64.7915 18.693C66.4443 18.7915 67.9565 19.1753 69.9828 19.2158C72.6767 19.2697 75.3855 19.2979 78.0958 19.2502C83.7109 19.1522 94.1227 13.8958 94.2489 8.71733C94.3069 6.32926 93.8769 3.03911 90.9357 2.12832C86.1806 0.656684 84.7885 0.0783959 79.8897 0.49813Z" fill="#AEBAD9"/>
<path fill-rule="evenodd" clip-rule="evenodd" d="M79.6513 0.569885C64.2458 1.89066 48.8649 3.5224 33.5015 5.83915C26.7037 6.86385 19.8396 8.75214 13.2573 9.7671C10.6414 10.1704 8.24662 11.601 6.27828 12.9433C4.32482 14.2759 4.13086 15.0789 4.13086 16.5865C4.13086 17.7246 6.03865 18.2054 6.96586 18.2542C15.7187 18.718 24.3689 18.0161 33.2424 17.6056C33.5836 17.5902 33.9161 17.3557 34.2799 17.3464C44.3587 17.0781 54.4431 18.0125 64.6706 18.6251C66.3101 18.7232 67.8115 19.1039 69.8219 19.1439C72.4947 19.1973 75.1825 19.2255 77.8717 19.1783C83.4437 19.0813 93.7755 13.8654 93.9007 8.72649C93.9587 6.35689 93.5307 3.09188 90.6136 2.18879C85.8944 0.727413 84.5131 0.153229 79.6513 0.569885Z" fill="#A5B3D8"/>
<path fill-rule="evenodd" clip-rule="evenodd" d="M79.4139 0.64175C64.1274 1.95227 48.8661 3.57117 33.6223 5.86945C26.8768 6.88646 20.0666 8.76038 13.5351 9.76764C10.9397 10.1679 8.56393 11.5872 6.61047 12.9192C4.67189 14.241 4.47998 15.0379 4.47998 16.5342C4.47998 17.6631 6.37289 18.1403 7.29292 18.189C15.9775 18.6493 24.5605 17.953 33.3652 17.5456C33.7039 17.5302 34.0338 17.2977 34.3951 17.2885C44.3953 17.0222 54.4007 17.9494 64.5487 18.5569C66.1763 18.6539 67.6654 19.0321 69.6599 19.0716C72.3128 19.125 74.9795 19.1527 77.6472 19.106C83.1751 19.0095 93.4278 13.8341 93.552 8.73524C93.6089 6.38411 93.1851 3.14425 90.29 2.24783C85.6073 0.79774 84.2373 0.228686 79.4139 0.64175Z" fill="#9CAED8"/>
<path fill-rule="evenodd" clip-rule="evenodd" d="M79.1755 0.713769C64.0091 2.01402 48.8684 3.6201 33.7431 5.90041C27.0509 6.90921 20.2936 8.76826 13.8129 9.76782C11.238 10.1645 8.88023 11.573 6.94268 12.8943C5.01949 14.2058 4.82861 14.9965 4.82861 16.481C4.82861 17.6012 6.70664 18.0743 7.61949 18.123C16.2358 18.5797 24.7516 17.8885 33.4876 17.4847C33.8237 17.4693 34.1505 17.2389 34.5092 17.2291C44.4309 16.9649 54.3583 17.8849 64.4273 18.4878C66.0416 18.5843 67.5189 18.9589 69.4985 18.9984C72.1303 19.0512 74.776 19.0784 77.4227 19.0317C82.9074 18.9363 93.0791 13.8015 93.2033 8.7426C93.2602 6.40995 92.8395 3.19523 89.966 2.3065C85.3207 0.868732 83.9609 0.303783 79.1755 0.713769Z" fill="#8FA4D1"/>
<path fill-rule="evenodd" clip-rule="evenodd" d="M78.9366 0.786071C63.8908 2.07606 48.8686 3.66931 33.8634 5.93167C27.2241 6.93277 20.5201 8.77693 14.0907 9.76829C11.5359 10.1624 9.19705 11.5596 7.27489 12.8701C5.36659 14.1714 5.17725 14.956 5.17725 16.4286C5.17725 17.5401 7.0404 18.0096 7.94606 18.0578C16.4947 18.5109 24.9433 17.8253 33.6099 17.4246C33.9429 17.4092 34.2677 17.1803 34.6233 17.1711C44.4676 16.9089 54.3154 17.8218 64.3044 18.4201C65.9069 18.516 67.3724 18.8875 69.3366 18.927C71.9474 18.9794 74.573 19.0066 77.1976 18.9604C82.6403 18.8654 92.7304 13.7712 92.854 8.75231C92.91 6.43812 92.4923 3.24906 89.6429 2.367C85.0341 0.939495 83.6851 0.379164 78.9366 0.786071Z" fill="#829CCB"/>
<path fill-rule="evenodd" clip-rule="evenodd" d="M78.6992 0.857348C63.7725 2.13708 48.8698 3.71801 33.9841 5.96241C27.3977 6.9553 20.7471 8.7851 14.369 9.76824C11.8347 10.1587 9.51433 11.5447 7.60706 12.8454C5.71466 14.1365 5.52686 14.9149 5.52686 16.3757C5.52686 17.4779 7.37564 17.9438 8.2736 17.9916C16.754 18.441 25.1348 17.7612 33.7327 17.363C34.0637 17.3476 34.3854 17.1208 34.7379 17.1115C44.5032 16.8514 54.2735 17.7571 64.183 18.3502C65.7726 18.4452 67.2268 18.8141 69.1741 18.8531C71.7649 18.9049 74.3685 18.9321 76.9741 18.8859C82.3721 18.7915 92.3827 13.7383 92.5043 8.75944C92.5612 6.46373 92.1466 3.29981 89.3193 2.42443C84.7474 1.01026 83.4097 0.454034 78.6992 0.857348Z" fill="#7794C7"/>
<path fill-rule="evenodd" clip-rule="evenodd" d="M78.4608 0.92896C63.6536 2.19843 48.8711 3.76653 34.1049 5.99297C27.5713 6.97816 20.9741 8.79308 14.6473 9.76853C12.1335 10.1559 9.83164 11.5311 7.93976 12.8211C6.06173 14.1018 5.87598 14.8736 5.87598 16.3226C5.87598 17.4161 7.70988 17.8784 8.60117 17.9256C17.0138 18.3715 25.3274 17.6968 33.8561 17.3022C34.1839 17.2868 34.5036 17.0621 34.8536 17.0528C44.5403 16.7947 54.2327 17.6932 64.0621 18.2823C65.6384 18.3767 67.0818 18.742 69.0137 18.781C71.5824 18.8328 74.166 18.859 76.7506 18.8139C82.1055 18.7205 92.036 13.7073 92.1561 8.76845C92.212 6.49121 91.8015 3.35295 88.9962 2.48423C84.4613 1.08033 83.1333 0.529237 78.4608 0.92896Z" fill="#6A8DC5"/>
<path fill-rule="evenodd" clip-rule="evenodd" d="M78.2219 1.00147C63.5348 2.26067 48.8718 3.81595 34.2247 6.02443C27.744 7.00142 21.2001 8.80196 14.9246 9.76971C12.4314 10.154 10.148 11.5179 8.27097 12.7977C6.40885 14.0676 6.22412 14.8337 6.22412 16.271C6.22412 17.3557 8.04314 17.8139 8.92725 17.8612C17.2717 18.3035 25.5181 17.6343 33.9779 17.2428C34.3032 17.228 34.6198 17.0047 34.9672 16.9955C44.576 16.7395 54.1893 17.6308 63.9397 18.2142C65.5032 18.3076 66.9343 18.6703 68.8513 18.7088C71.3989 18.7601 73.9625 18.7868 76.525 18.7417C81.8369 18.6493 91.6873 13.6761 91.8064 8.77785C91.8613 6.51857 91.4533 3.40596 88.6727 2.54443C84.1742 1.1513 82.8575 0.604313 78.2219 1.00147Z" fill="#5C89C6"/>
<path fill-rule="evenodd" clip-rule="evenodd" d="M77.9846 1.07328C63.4165 2.32222 48.873 3.86518 34.346 6.05519C27.9181 7.02448 21.4276 8.80963 15.2029 9.76969C12.7297 10.1509 10.4653 11.5035 8.60367 12.773C6.75643 14.0327 6.57324 14.7926 6.57324 16.2181C6.57324 17.2941 8.37738 17.7487 9.25431 17.7949C17.5305 18.2337 25.7102 17.5702 34.1007 17.1817C34.4235 17.1669 34.7381 16.9457 35.0824 16.9365C44.6126 16.6825 54.148 17.5661 63.8188 18.1454C65.3689 18.2383 66.7882 18.598 68.6893 18.6365C71.217 18.6873 73.7595 18.7134 76.301 18.6683C81.5698 18.5764 91.3401 13.6443 91.4582 8.78552C91.5131 6.54522 91.1082 3.45776 88.3491 2.60341C83.8875 1.22209 82.5816 0.679715 77.9846 1.07328Z" fill="#4D86C6"/>
<path fill-rule="evenodd" clip-rule="evenodd" d="M77.7462 1.1451C63.2987 2.38378 48.8748 3.91391 34.4668 6.08647C28.0918 7.04755 21.6546 8.81834 15.4813 9.77018C13.0285 10.1489 10.7821 11.4902 8.93637 12.7494C7.10401 13.9988 6.92236 14.7521 6.92236 16.1657C6.92236 17.233 8.71162 17.6836 9.58137 17.7297C17.7898 18.1649 25.9018 17.5065 34.2231 17.1217C34.5433 17.1068 34.8552 16.8872 35.1965 16.878C44.6482 16.626 54.1056 17.5029 63.6963 18.0771C65.2347 18.169 66.6417 18.5261 68.5279 18.5641C71.0345 18.6144 73.556 18.6405 76.0764 18.5959C81.3021 18.5051 90.9919 13.6135 91.1094 8.79422C91.1633 6.57189 90.7625 3.51008 88.0255 2.66292C83.6009 1.29237 82.3047 0.754613 77.7462 1.1451Z" fill="#3D82C4"/>
<path fill-rule="evenodd" clip-rule="evenodd" d="M77.5088 1.21706C63.1803 2.44547 48.876 3.96278 34.5876 6.11687C28.2654 7.07025 21.8816 8.82667 15.7595 9.7703C13.3268 10.1454 11.0994 11.4759 9.26905 12.7244C7.45208 13.9635 7.27197 14.7107 7.27197 16.113C7.27197 17.1711 9.04635 17.6185 9.90891 17.6642C18.0491 18.0957 26.0938 17.4425 34.3469 17.0613C34.6645 17.0464 34.9734 16.8288 35.3121 16.8196C44.6858 16.5702 54.0642 17.4394 63.5764 18.009C65.102 18.0998 66.4976 18.4539 68.367 18.4913C70.8535 18.5416 73.354 18.5673 75.8534 18.5232C81.036 18.4328 90.6447 13.5818 90.7622 8.80256C90.8156 6.59921 90.4184 3.56203 87.7045 2.72205C83.3142 1.36381 82.0294 0.82965 77.5088 1.21706Z" fill="#327BBF"/>
<path fill-rule="evenodd" clip-rule="evenodd" d="M77.2704 1.28867C63.0625 2.50682 48.8772 4.01181 34.7084 6.14794C28.439 7.09312 22.1086 8.83466 16.0374 9.77111C13.6252 10.1431 11.4162 11.4624 9.60126 12.7005C7.79917 13.9295 7.62061 14.6699 7.62061 16.0605C7.62061 17.1098 9.3801 17.5536 10.2355 17.5988C18.3074 18.0267 26.2855 17.3792 34.4693 17.0005C34.7838 16.9861 35.0906 16.7701 35.4262 16.7614C44.7214 16.5141 54.0218 17.3756 63.4535 17.9405C64.9667 18.0308 66.3506 18.3818 68.205 18.4193C70.6706 18.4685 73.15 18.4942 75.6294 18.4511C80.7678 18.3613 90.2965 13.5513 90.412 8.81157C90.4658 6.62617 90.0713 3.61517 87.3804 2.78186C83.0281 1.43388 81.754 0.904854 77.2704 1.28867Z" fill="#2E72B8"/>
<path fill-rule="evenodd" clip-rule="evenodd" d="M77.0315 1.36068C62.9427 2.56857 48.878 4.06073 34.8282 6.17891C28.6117 7.11638 22.3347 8.84304 16.3147 9.77128C13.923 10.1402 11.7325 11.4482 9.93247 12.6756C8.14629 13.8942 7.96875 14.629 7.96875 16.0078C7.96875 17.0484 9.71337 17.4876 10.5616 17.5328C18.5658 17.9571 26.4761 17.3152 34.5911 16.9396C34.9031 16.9252 35.2074 16.7113 35.5399 16.7025C44.7566 16.4568 53.9789 17.3116 63.3316 17.8714C64.832 17.9612 66.2041 18.3096 68.0431 18.3461C70.4876 18.3953 72.946 18.421 75.4044 18.3779C80.4997 18.2891 89.9483 13.5191 90.0623 8.81995C90.1156 6.65303 89.7246 3.66717 87.0559 2.84104C82.741 1.50487 81.4772 0.979946 77.0315 1.36068Z" fill="#2969B1"/>
<path fill-rule="evenodd" clip-rule="evenodd" d="M76.7941 1.43249C62.8243 2.63012 48.8792 4.10946 34.9494 6.21018C28.7853 7.13945 22.5616 8.85123 16.5935 9.77177C14.2218 10.1371 12.0503 11.4343 10.2657 12.6514C8.49436 13.8593 8.31836 14.5874 8.31836 15.9549C8.31836 16.9863 10.0486 17.4224 10.8891 17.4671C18.8251 17.8878 26.6681 17.251 34.7139 16.879C35.0238 16.8647 35.325 16.6527 35.655 16.644C44.7937 16.4008 53.937 17.248 63.2107 17.8032C64.6977 17.8919 66.058 18.2373 67.8812 18.2737C70.3057 18.3225 72.743 18.3476 75.1803 18.305C80.2325 18.2173 89.6011 13.4878 89.714 8.82813C89.7674 6.67969 89.3795 3.71897 86.7333 2.90003C82.4544 1.57566 81.2018 1.05535 76.7941 1.43249Z" fill="#2D5FA9"/>
<path fill-rule="evenodd" clip-rule="evenodd" d="M76.5552 1.50432C62.706 2.69169 48.8805 4.15819 35.0692 6.24045C28.958 7.16202 22.7882 8.85943 16.8703 9.77176C14.5192 10.1345 12.3661 11.4199 10.5969 12.6268C8.84045 13.8244 8.6665 14.5464 8.6665 15.9015C8.6665 16.9247 10.3814 17.3567 11.2152 17.4009C19.0834 17.818 26.8593 17.1869 34.8363 16.818C35.1431 16.8036 35.4418 16.5932 35.7691 16.5845C44.8294 16.3433 53.8937 17.1833 63.0878 17.7339C64.562 17.8221 65.911 18.1639 67.7187 18.2003C70.1212 18.2485 72.5385 18.2737 74.9548 18.2311C79.9639 18.1439 89.2509 13.455 89.3643 8.83582C89.4167 6.70585 89.0318 3.77027 86.4087 2.95851C82.1678 1.64594 80.926 1.13026 76.5552 1.50432Z" fill="#2D55A2"/>
<path fill-rule="evenodd" clip-rule="evenodd" d="M76.3178 1.57658C62.5877 2.75369 48.8817 4.20737 35.19 6.27217C29.1321 7.18553 23.0152 8.86858 17.1486 9.7727C14.818 10.1324 12.6834 11.407 10.9291 12.6031C9.18803 13.7904 9.01562 14.5063 9.01562 15.8501C9.01562 16.8641 10.7156 17.2925 11.5422 17.3361C19.3422 17.7497 27.0509 17.1237 34.9586 16.7584C35.2629 16.7445 35.559 16.5357 35.8838 16.5274C44.8655 16.2878 53.8518 17.1206 62.9664 17.6666C64.4278 17.7538 65.7655 18.0935 67.5573 18.1289C69.9387 18.1766 72.335 18.2018 74.7308 18.1597C79.6957 18.0735 88.9027 13.4246 89.0151 8.84549C89.0664 6.73398 88.6851 3.82406 86.0857 3.01897C81.8811 1.71667 80.6496 1.20508 76.3178 1.57658Z" fill="#2E4C9C"/>
<path fill-rule="evenodd" clip-rule="evenodd" d="M76.0795 1.64839C62.4699 2.81472 48.8829 4.2566 35.3108 6.30242C29.3052 7.20808 23.2417 8.87625 17.4264 9.77267C15.1159 10.1288 13.0002 11.3926 11.2613 12.5784C9.53564 13.755 9.36426 14.4647 9.36426 15.7967C9.36426 16.8019 11.0499 17.2268 11.8688 17.2699C19.6005 17.6799 27.242 17.0595 35.081 16.6968C35.3827 16.6829 35.6767 16.4761 35.9979 16.4679C44.9016 16.2308 53.8089 17.0559 62.844 17.5973C64.293 17.684 65.619 18.0201 67.3949 18.056C69.7563 18.1032 72.131 18.1279 74.5062 18.0863C79.4281 18.0006 88.555 13.3928 88.6664 8.85316C88.7177 6.76013 88.3395 3.87535 85.7621 3.07795C81.5935 1.78745 80.3738 1.28049 76.0795 1.64839Z" fill="#304497"/>
</svg>
