<svg width="156" height="45" viewBox="0 0 156 45" fill="none" xmlns="http://www.w3.org/2000/svg">
<path fill-rule="evenodd" clip-rule="evenodd" d="M23.0879 33.904C21.3562 33.904 19.9341 34.5103 19.9144 34.973C19.8948 35.4356 21.2673 36.0419 22.9981 36.0402C24.7289 36.0402 26.1519 35.4339 26.1715 34.9713C26.1912 34.5086 24.8196 33.904 23.0879 33.904ZM23.0135 35.7708C21.8342 35.7708 20.9021 35.4065 20.9192 34.9576C20.9363 34.5069 21.8958 34.1426 23.0751 34.1426C24.2543 34.1426 25.1864 34.5069 25.1693 34.9559C25.1522 35.4048 24.1927 35.7708 23.0135 35.7708ZM29.0525 15.3661L29.3724 16.2658C36.6967 17.0782 42.1714 19.3024 42.0499 21.8225C41.9849 23.154 40.3696 24.4033 37.7691 25.4047C36.7095 24.4273 34.5409 23.4558 31.6821 22.7709L31.972 23.5858C33.9953 24.2451 35.3661 25.1242 35.7253 26.0846C34.9043 26.3197 34.0201 26.5352 33.0871 26.7259C32.2509 26.8965 31.4099 27.043 30.5653 27.1655C27.9831 27.5328 25.378 27.716 22.7698 27.7136C21.1441 27.7136 19.5553 27.6435 18.0314 27.5135C16.8867 27.4176 15.7458 27.281 14.6108 27.1039C13.1772 26.8861 11.7575 26.5849 10.359 26.2017C10.8217 24.9737 12.927 23.8697 15.9158 23.1677L16.1458 22.4741C12.4208 23.1788 9.54834 24.3597 8.29128 25.5287C5.60184 24.5085 3.97962 23.2138 4.04632 21.8285C4.17288 19.1972 10.3607 16.8866 18.2358 16.1674L18.5265 15.29C8.07065 16.093 0.126328 19.3486 0.00147672 21.9174C-0.0754865 23.5191 2.86109 25.3893 7.59861 26.767C7.60288 28.0009 9.90323 29.4496 13.5068 30.4381C14.5487 30.7223 15.6049 30.9516 16.6709 31.1248L16.853 31.1547L16.794 31.3369C17.4431 32.1903 19.9298 33.0891 22.9502 33.0891C26.3007 33.0891 29.0867 31.9817 29.422 31.0598C30.2592 30.9144 31.0562 30.746 31.8053 30.557C32.6119 30.3561 33.4084 30.1163 34.192 29.8387C36.8139 28.8997 38.4438 27.7358 38.4882 26.7216C38.4891 26.6951 38.4882 26.6669 38.4874 26.6395C43.0881 25.2799 46.0093 23.4815 46.0845 21.932C46.2059 19.4341 38.9945 16.282 29.0525 15.3661ZM23.1187 29.1084C25.6473 29.1084 27.5945 29.7301 27.9699 30.5484C26.3965 30.7836 24.6682 30.9161 22.8604 30.9161C21.275 30.9199 19.6912 30.8139 18.1203 30.5989C18.5094 29.7566 20.5395 29.1101 23.1187 29.1084ZM16.8855 30.4013C15.7311 30.1876 14.6869 29.9173 13.7847 29.6009C12.1317 29.0211 10.9593 28.2917 10.4907 27.493C11.6759 27.7487 12.9373 27.9736 14.2619 28.1609C16.8742 28.5212 19.5069 28.714 22.1438 28.7381C19.9247 28.8835 18.0648 29.4915 17.1814 30.1414L17.0865 30.4356C17.0194 30.4247 16.9524 30.4133 16.8855 30.4013ZM22.9707 32.623C20.6097 32.6247 18.7549 32.0834 18.2144 31.3437C19.6664 31.519 21.216 31.6174 22.8279 31.6191C24.5912 31.6191 26.2878 31.5002 27.8733 31.295C27.3149 32.0561 25.3831 32.623 22.9707 32.623L33.8379 28.8416C33.1932 29.1836 32.4116 29.4966 31.5171 29.7702C30.8073 29.9875 30.0257 30.1782 29.1902 30.3398C28.4873 29.6035 26.4674 28.8664 23.9618 28.7295C26.2973 28.6858 28.6285 28.5102 30.9441 28.2036C31.7892 28.0913 32.6317 27.9604 33.4711 27.8111C34.1771 27.6846 34.8805 27.5438 35.5807 27.3887C35.2712 27.9077 34.6717 28.3994 33.8371 28.8416L22.9707 32.623Z" fill="#B0AAA7"/>
<path fill-rule="evenodd" clip-rule="evenodd" d="M26.4906 16.0272L26.1768 15.1703C24.8 15.1084 23.4216 15.0918 22.0438 15.1207L21.7719 15.9605C23.345 15.9159 24.9194 15.9381 26.4906 16.0272ZM28.9911 22.8623L28.7542 22.2141C26.9342 21.9524 25.0977 21.8218 23.259 21.8233C22.0815 21.8233 20.933 21.8764 19.8264 21.9721L19.6357 22.5622C20.8286 22.4426 22.0268 22.383 23.2257 22.3835C25.3028 22.3826 27.2619 22.5571 28.9911 22.8623Z" fill="#B0AAA7"/>
<path fill-rule="evenodd" clip-rule="evenodd" d="M13.5075 30.4381L9.63885 42.1143L7.00928 42.6941V43.5723L13.2835 42.1861L16.7956 31.336L16.8546 31.1539L16.6724 31.1239C15.6061 30.9515 14.5496 30.7225 13.5075 30.4381ZM13.7846 29.6009C14.6868 29.9165 15.7309 30.1875 16.8854 30.4013L17.0863 30.4364L17.7003 28.5388C16.5507 28.447 15.404 28.3213 14.2618 28.1617L13.7846 29.6009ZM36.5358 36.4387L34.1918 29.8378C33.4675 30.0969 32.6688 30.3389 31.8051 30.5561L34.4347 37.7445L38.5326 36.8372V35.9974L36.5358 36.4387ZM23.5949 0L14.6115 27.1039C15.7466 27.2802 16.8875 27.4168 18.0321 27.5135L23.9754 9.15264L30.5652 27.1663C31.4099 27.0447 32.2509 26.8981 33.087 26.7268L23.5949 0ZM33.4718 27.8111C32.656 27.9565 31.8128 28.0882 30.9449 28.2036L31.5169 29.7702C32.4106 29.4966 33.193 29.1836 33.8378 28.8416L33.4718 27.8111ZM86.4755 26.1393H86.5354C87.0818 24.6231 88.2944 22.971 89.9628 22.971C90.995 22.971 91.8134 23.5773 91.8134 24.8583C91.8134 25.7014 91.0249 26.1059 90.3887 26.1059C89.8405 26.1059 89.2043 25.4312 89.2043 24.7582C89.2043 24.488 89.3266 24.1836 89.3266 24.0502C89.3266 23.8483 89.1445 23.8483 89.053 23.8483C89.023 23.8483 87.9926 24.3195 87.3247 25.8357C86.8336 26.9873 86.5758 28.225 86.5662 29.4769V35.882H88.9025V36.6567H82.1365V35.882H84.1991V24.0827H82.1365V23.3079H83.0789C84.2 23.3079 85.3835 23.2737 86.4764 22.9701V26.1393H86.4755ZM103.145 30.0157C103.145 34.0947 100.476 37.0937 97.2906 37.0937C94.1052 37.0937 91.4345 34.0939 91.4345 30.0157C91.4345 25.9375 94.1052 22.971 97.2906 22.971C100.476 22.971 103.145 25.9366 103.145 30.0157ZM94.1958 30.0157C94.1958 32.8471 94.2275 36.4207 97.2906 36.4207C100.354 36.4207 100.384 32.8462 100.384 30.0157C100.384 27.2185 100.354 23.6457 97.2906 23.6457C94.2275 23.6457 94.1958 27.2176 94.1958 30.0157Z" fill="#006C83"/>
<path fill-rule="evenodd" clip-rule="evenodd" d="M104.83 24.0827H103.039V23.308H103.677C104.253 23.308 104.83 23.3079 105.405 23.2395C105.988 23.204 106.567 23.1141 107.133 22.971V25.5997L107.193 25.5664C107.983 23.9142 109.378 22.971 110.896 22.971C113.231 22.971 116.538 24.9934 116.538 30.3202C116.538 33.6219 114.535 37.0946 110.775 37.0946C109.136 37.0946 108.013 36.2865 107.256 34.8362H107.194V43.4997H109.258V44.2745H103.039V43.4997H104.83V24.0827ZM107.195 30.6554C107.195 32.8805 107.317 33.4543 107.803 34.4651C108.319 35.5776 109.683 36.4208 110.564 36.4208C112.111 36.4208 113.78 36.3524 113.78 30.2175C113.78 25.3637 112.901 23.7791 110.655 23.7791C110.078 23.7791 107.774 24.2854 107.318 27.5555C107.165 28.668 107.195 29.6779 107.195 30.6554ZM129.746 30.0157C129.746 34.0948 127.075 37.0938 123.89 37.0938C120.705 37.0938 118.036 34.0939 118.036 30.0157C118.036 25.9375 120.705 22.971 123.89 22.971C127.075 22.971 129.746 25.9367 129.746 30.0157ZM120.795 30.0157C120.795 32.8471 120.827 36.4208 123.89 36.4208C126.955 36.4208 126.985 32.8463 126.985 30.0157C126.985 27.2185 126.955 23.6457 123.89 23.6457C120.827 23.6457 120.795 27.2177 120.795 30.0157ZM138.84 23.308V27.0826H138.174C137.719 25.1269 136.688 23.7458 134.867 23.6449C132.379 23.5765 132.015 25.7007 132.015 26.1051C132.015 27.0826 132.258 27.588 136.9 28.6338C139.235 29.1734 140.055 30.3527 140.055 32.4751C140.055 35.3749 138.082 37.0929 135.686 37.0929C134.412 37.0929 133.077 36.52 132.197 35.4408L131.531 36.6551H130.863V32.2058H131.561C132.137 34.6327 133.623 36.4199 135.868 36.4199C137.233 36.4199 138.811 35.2723 138.811 33.5201C138.811 32.2058 137.142 31.5995 134.624 30.8914C132.623 30.3518 130.863 30.0482 130.863 27.1151C130.863 25.7006 131.653 22.9693 134.958 22.9693C135.899 22.9693 136.839 23.3738 137.779 24.217L138.327 23.3071H138.84V23.308ZM76.3797 22.9702C74.8626 22.9702 73.467 23.9143 72.6786 25.5655L72.6179 25.5989V22.9702C72.0714 23.1036 71.4959 23.2053 70.8888 23.2387C70.3132 23.3071 69.736 23.3071 69.1596 23.3071H68.5234V24.0819H70.3132V36.0018H68.266L60.6886 13.9492L52.7271 36.0018H50.0693V36.7098H56.6275V36.0018H53.7353L59.3853 20.0285H59.4529L64.8677 36.0018H62.144V36.7098H70.3124V43.498H68.5226V44.2727H74.7412V43.498H72.6777V34.8345H72.7384C73.4969 36.284 74.6198 37.0929 76.2574 37.0929C80.02 37.0929 82.0211 33.6202 82.0211 30.3184C82.0211 24.9934 78.7159 22.9702 76.3797 22.9702ZM76.0453 36.4208C75.1662 36.4208 73.8005 35.5776 73.2849 34.4651C72.8 33.4543 72.6786 32.8796 72.6786 30.6554C72.6786 29.6779 72.6478 28.668 72.8 27.5555C73.2549 24.2854 75.5604 23.7791 76.1368 23.7791C78.3815 23.7791 79.2624 25.3646 79.2624 30.2175C79.2624 36.3524 77.5923 36.4208 76.0453 36.4208Z" fill="#006C83"/>
<path fill-rule="evenodd" clip-rule="evenodd" d="M110.647 40.0936H111.387V42.778H112.281V40.0936H113.02V39.3351H110.647V40.0936ZM114.851 42.778H116.811V42.0194H115.747V41.4268H116.756V40.6683H115.747V40.0936H116.811V39.3351H114.851V42.778ZM119.155 39.8012C118.829 40.1389 118.647 40.5909 118.649 41.0608C118.649 41.5722 118.823 42.0194 119.202 42.3615C119.557 42.6856 120.013 42.8677 120.493 42.8677C120.772 42.8677 120.985 42.7993 121.281 42.7087V41.6372C121.096 41.8595 120.803 42.0015 120.512 42.0015C119.956 42.0015 119.581 41.609 119.581 41.066C119.581 40.5315 119.951 40.1125 120.498 40.1125C120.803 40.1125 121.101 40.2442 121.281 40.4913V39.4189C121.024 39.3065 120.747 39.2475 120.466 39.2453C119.982 39.2453 119.495 39.454 119.155 39.8012ZM125.483 40.6649H124.191V39.3351H123.296V42.778H124.191V41.3661H125.483V42.778H126.378V39.3351H125.483V40.6649ZM131.01 41.4397H131.003L129.364 39.3351H128.47V42.778H129.364V40.6683H129.372L131.01 42.778H131.906V39.3351H131.01V41.4397ZM135.499 39.2214C134.509 39.2214 133.596 39.9517 133.596 40.9916C133.596 42.1058 134.395 42.8908 135.499 42.8908C136.605 42.8908 137.403 42.1058 137.403 40.9916C137.402 39.9517 136.489 39.2214 135.499 39.2214ZM135.499 42.0246C134.966 42.0246 134.527 41.5902 134.527 40.9975C134.527 40.5229 134.966 40.0894 135.499 40.0894C136.033 40.0894 136.471 40.5238 136.471 40.9975C136.47 41.5902 136.033 42.0246 135.499 42.0246ZM139.991 39.3351H139.098V42.778H141.063V42.0194H139.991V39.3351ZM144.364 39.2214C143.374 39.2214 142.462 39.9517 142.462 40.9916C142.462 42.1058 143.26 42.8908 144.364 42.8908C145.47 42.8908 146.269 42.1058 146.269 40.9916C146.268 39.9517 145.354 39.2214 144.364 39.2214ZM144.364 42.0246C143.831 42.0246 143.392 41.5902 143.392 40.9975C143.392 40.5229 143.831 40.0894 144.364 40.0894C144.899 40.0894 145.337 40.5238 145.337 40.9975C145.336 41.5902 144.899 42.0246 144.364 42.0246ZM149.62 41.5585H150.35C150.313 41.9562 150.016 42.1563 149.628 42.1563C149.039 42.1563 148.72 41.6132 148.72 41.0788C148.72 40.5546 149.026 39.9927 149.616 39.9927C149.977 39.9927 150.236 40.2117 150.359 40.5409L151.207 40.1851C150.911 39.5404 150.364 39.2214 149.656 39.2214C148.547 39.2214 147.79 39.956 147.79 41.0754C147.79 42.1563 148.543 42.8908 149.624 42.8908C150.201 42.8908 150.707 42.6856 151.044 42.2161C151.349 41.7868 151.386 41.3576 151.396 40.8547H149.621V41.5585H149.62ZM154.928 39.3351L154.285 40.2724L153.64 39.3351H152.568L153.838 41.1258V42.778H154.733V41.1258L156 39.3351H154.928ZM143.048 22.8419H142.068V25.2637H141.637V22.8419H140.654V22.5366H143.049V22.8419H143.048ZM145.227 24.8814C145.411 24.4607 145.602 24.0699 145.79 23.6885L146.361 22.5366H147.051V25.2637H146.63V24.0579C146.63 23.65 146.635 23.2447 146.646 22.8051H146.626C146.429 23.2498 146.227 23.6552 146.027 24.0613L145.438 25.2637H144.988L144.399 24.0545C144.201 23.6449 144.003 23.2447 143.807 22.8034H143.791C143.798 23.249 143.802 23.6517 143.802 24.0579V25.2637H143.394V22.5366H144.085L144.653 23.6885C144.846 24.0759 145.034 24.465 145.209 24.8814H145.227Z" fill="#006C83"/>
</svg>
