<svg width="100" height="30" viewBox="0 0 100 30" fill="none" xmlns="http://www.w3.org/2000/svg">
<path fill-rule="evenodd" clip-rule="evenodd" d="M98.1415 17.5179L49.4361 22.097L0 17.4521L98.1415 17.5179Z" fill="#CC2229"/>
<path fill-rule="evenodd" clip-rule="evenodd" d="M75.3813 24.8845H75.2488C74.9168 24.8845 74.6517 25.0828 74.3866 25.349C74.1204 25.6142 73.9879 26.0786 73.9879 26.7414C73.9879 26.8082 74.0547 26.9408 74.0547 27.0076V27.3385C74.1204 27.6704 74.3198 28.0691 74.5192 28.3343C74.7185 28.6662 75.0494 28.7987 75.5139 28.7987C75.8458 28.7987 76.1777 28.6662 76.4429 28.4C76.708 28.0691 76.8405 27.6047 76.8405 27.0076V26.8082V26.6089C76.7745 26.1819 76.6164 25.7745 76.3771 25.4148C76.1783 25.0828 75.8458 24.8845 75.3813 24.8845ZM75.4481 24.6184C76.1777 24.6184 76.7748 24.8177 77.173 25.2822C77.5049 25.7467 77.7043 26.2769 77.7043 26.8745C77.7043 27.4726 77.5049 28.0029 77.0404 28.4674C76.6428 28.865 76.1115 29.0644 75.4481 29.0644C74.7185 29.0644 74.1204 28.865 73.7222 28.4005C73.5316 28.2085 73.3808 27.9808 73.2784 27.7304C73.1759 27.48 73.1238 27.2119 73.1252 26.9413C73.1252 26.2775 73.3245 25.6804 73.789 25.2822C74.254 24.8177 74.7843 24.6184 75.4481 24.6184ZM55.4741 24.8177H55.3416C55.0764 24.8845 54.7445 25.0171 54.5462 25.2822C54.28 25.5473 54.1475 26.0118 54.1475 26.6757V26.9408C54.1475 27.0734 54.2143 27.1402 54.2143 27.2727C54.28 27.6704 54.4126 28.0023 54.6788 28.3343C54.7869 28.4786 54.9271 28.5957 55.0884 28.6763C55.2496 28.7569 55.4275 28.7989 55.6077 28.7987C56.0054 28.7987 56.3373 28.6662 56.6025 28.3343C56.8676 28.0691 57.0001 27.6047 57.0001 26.9408V26.7414C56.9344 26.6757 56.9344 26.6089 56.9344 26.5431C56.9344 26.1444 56.735 25.7467 56.5367 25.349C56.2705 25.0171 55.9386 24.8177 55.4741 24.8177ZM55.6077 24.5521C56.3373 24.5521 56.8676 24.8172 57.2669 25.2159C57.6645 25.6794 57.8639 26.2107 57.8639 26.8082C57.8639 27.4721 57.6645 28.0023 57.2 28.4005C56.7748 28.819 56.2043 29.0568 55.6077 29.0644C54.8771 29.0644 54.28 28.7993 53.8818 28.4005C53.4841 27.9371 53.2848 27.4058 53.2848 26.8745C53.2848 26.2117 53.4841 25.6804 53.9476 25.2165C54.3468 24.752 54.9439 24.5521 55.6077 24.5521ZM77.173 13.9352C79.2308 13.9352 80.6901 13.3381 81.5522 12.0772C82.4155 10.75 82.8799 9.224 82.8799 7.36605C82.8799 5.37501 82.4155 3.71643 81.5522 2.45553C80.6901 1.12835 79.2303 0.531303 77.173 0.531303C75.1819 0.531303 73.7227 1.12835 72.7938 2.45553C71.9316 3.71643 71.4671 5.37501 71.4671 7.36605C71.4671 9.224 71.9316 10.75 72.7938 12.0772C73.7227 13.3381 75.1819 13.9352 77.173 13.9352ZM77.173 14.4654C75.1819 14.4654 73.3251 13.8021 71.666 12.5412C70.0068 11.2803 69.2104 9.48912 69.2104 7.16615C69.2104 4.90999 70.0068 3.18513 71.666 1.85795C73.3251 0.597044 75.1819 0 77.173 0C79.164 0 81.022 0.597044 82.6811 1.85795C84.3402 3.18513 85.1366 4.90999 85.1366 7.16615C85.1366 9.48912 84.3402 11.2803 82.6811 12.5412C81.022 13.8021 79.1635 14.4654 77.173 14.4654ZM4.77818 6.50282H9.22422C10.1532 6.43654 11.0159 6.17089 11.7455 5.8395C12.4756 5.44129 12.8738 4.64541 12.8738 3.51706C12.8738 2.65437 12.4756 1.99104 11.7455 1.52656C11.0159 1.06207 9.82126 0.862695 8.16268 0.862695H4.77818V6.50282ZM4.77818 9.82105C4.77818 11.3471 4.84499 12.3423 4.97755 12.8068C5.17639 13.3376 5.64088 13.5364 6.37048 13.5364H6.83497C7.03434 13.6032 7.1669 13.6032 7.36573 13.6032H9.28996C9.62189 13.6032 10.0196 13.5364 10.4841 13.5364C11.5456 13.4701 12.4083 13.2045 13.0721 12.6742C13.8017 12.2098 14.1337 11.4133 14.1337 10.4181C14.1337 9.15719 13.6692 8.29449 12.7402 7.83054C11.745 7.43233 10.7497 7.16668 9.62189 7.1004C9.22368 7.03412 8.82547 7.03412 8.49355 7.03412H4.77765V9.82105H4.77818ZM2.65458 10.0867V3.25141C2.65458 2.45499 2.65458 1.92423 2.52202 1.52602C2.45574 1.12781 2.19009 0.795884 1.79189 0.597048H1.65933L1.52623 0.464489V0.39821C1.59251 0.331396 1.65933 0.331396 1.72561 0.331396C1.79188 0.265117 1.8587 0.265117 1.99126 0.265117H6.56985C8.95857 0.265117 10.8833 0.464487 12.4756 0.862161C14.0679 1.25983 14.7981 2.12307 14.7981 3.51653C14.7981 4.24667 14.5987 4.84371 14.0685 5.24192C13.5372 5.70641 13.0064 6.0378 12.4093 6.23717C12.0111 6.43601 11.6129 6.50229 11.2153 6.5691C10.8171 6.63538 10.5514 6.70166 10.3526 6.70166C10.6182 6.76847 11.0164 6.76847 11.4141 6.83475C11.8123 6.90103 12.2105 6.96731 12.6087 7.09987C13.4714 7.29924 14.2678 7.63064 14.9974 8.09512C15.7276 8.62589 16.1252 9.28975 16.1252 10.285C16.1252 11.1477 15.7933 11.8773 15.13 12.4749C14.5103 13.0285 13.7891 13.4566 13.0064 13.7358L12.21 13.9346C11.9443 13.9346 11.6792 14.0009 11.4798 14.0009C10.9491 14.0009 10.4183 14.0009 9.95382 14.0677H7.36627C7.16743 14.0677 6.96806 14.0677 6.70294 14.0009H2.32319C2.12435 14.0677 1.92498 14.0677 1.79242 14.0677H1.12803C1.06175 14.0009 1.12803 13.9346 1.19484 13.9346C1.26112 13.8683 1.39421 13.8683 1.52677 13.8021C1.8587 13.669 2.12435 13.4039 2.32319 12.8731C2.52202 12.3423 2.65458 11.4133 2.65458 10.0867ZM20.7038 6.56964H25.3493C26.3445 6.50282 27.2072 6.30399 28.0036 5.90578C28.8663 5.50757 29.264 4.71169 29.264 3.51706C29.264 2.58809 28.9321 1.92476 28.2025 1.45974C27.4729 1.06153 26.6764 0.862695 25.8137 0.795881H20.7033V6.56964H20.7038ZM20.7038 10.153C20.7038 11.0157 20.7701 11.8121 20.9032 12.5417C21.0363 13.2713 21.3014 13.6695 21.7659 13.8026L21.8327 13.8689C21.899 13.8689 21.9653 13.8689 22.0316 13.9352C22.0978 13.9352 22.0978 13.9352 22.0978 14.0014L21.9653 14.0682H21.1683C21.0358 14.0014 20.8364 14.0014 20.6376 14.0014H18.7796C18.5145 14.0014 18.3151 14.0014 18.1158 14.0682H17.4519C17.4519 14.0014 17.4519 13.9352 17.5182 13.9352C17.5845 13.9352 17.6507 13.8689 17.7175 13.8026H17.7838C18.1158 13.6032 18.4477 13.205 18.5802 12.5417C18.7796 11.9441 18.8459 10.9494 18.8459 9.55593V2.45553V2.18988V1.92423C18.7791 1.65858 18.7128 1.39346 18.5802 1.12781C18.514 0.862161 18.3146 0.729605 18.0495 0.597048C17.9169 0.530769 17.8506 0.530768 17.7838 0.464489L17.7175 0.39821C17.7175 0.331396 17.7175 0.331396 17.7838 0.265117H24.4197C27.2729 0.265117 29.1309 0.597046 30.1267 1.26037C31.0557 1.92423 31.5201 2.72011 31.5201 3.64962C31.5201 4.4455 31.2545 5.10936 30.6574 5.57385C30.0599 6.03834 29.4634 6.37026 28.7327 6.56964C28.2682 6.70219 27.8705 6.83529 27.4723 6.83529C27.0741 6.90157 26.7422 6.96785 26.4771 6.96785C26.6001 6.97034 26.7181 7.01745 26.809 7.1004C26.9421 7.1004 27.0746 7.16668 27.2072 7.16668C28.1362 7.49861 28.8663 7.83054 29.3971 8.29503C29.9278 8.69324 30.3923 9.48965 30.7905 10.5512L30.9899 11.1482L31.2556 11.7453C31.3881 12.1435 31.5875 12.5417 31.7863 12.8731C31.9852 13.205 32.1845 13.5364 32.4497 13.6695C32.5827 13.7363 32.649 13.8026 32.7816 13.8026L32.9147 13.8689C32.981 13.9352 32.981 14.0014 32.981 14.0014H30.3929C30.194 14.0014 30.0609 14.0014 29.9947 13.9352C29.8616 13.9352 29.7953 13.8689 29.729 13.6695L29.6627 13.6032C29.6627 13.5364 29.5959 13.4701 29.5959 13.4701C29.5296 13.2045 29.4634 12.9394 29.3308 12.608L28.9989 11.7453C28.9989 11.679 28.9321 11.6122 28.9321 11.5459C28.9321 11.4796 28.8658 11.4133 28.8658 11.3471L28.4013 10.2187C28.2682 9.88679 28.1356 9.5554 28.0031 9.28975V9.22293C27.6049 8.29396 27.0741 7.69691 26.4108 7.43126C25.8137 7.16561 24.6854 7.03306 23.0263 7.03306H20.7038V10.153ZM35.236 2.45553V2.18988C35.236 2.05732 35.236 1.99104 35.1692 1.85795C35.1663 1.58056 35.0982 1.30775 34.9704 1.06153C34.9041 0.862161 34.7047 0.663327 34.4396 0.597048C34.4396 0.597048 34.3728 0.597047 34.3728 0.530768C34.3065 0.530768 34.3065 0.530768 34.3065 0.464489V0.39821V0.331396C34.3728 0.265117 34.5059 0.265117 34.6385 0.265117C34.7053 0.265117 34.7716 0.265117 34.8378 0.331396H37.2266C37.3591 0.265117 37.4922 0.265117 37.6248 0.265117H37.8236C37.8236 0.331396 37.8904 0.331396 37.8904 0.331396C37.9567 0.331396 37.9567 0.39821 37.9567 0.39821V0.530768C37.9567 0.530768 37.8904 0.530769 37.8236 0.597048C37.4917 0.663861 37.2928 0.928975 37.1603 1.26037C37.094 1.65858 37.0277 2.05679 37.0277 2.455V9.95361C37.0277 10.9489 37.094 11.7453 37.1603 12.4749C37.2266 13.2045 37.4922 13.669 38.023 13.8683C38.0898 13.8683 38.1561 13.9346 38.2223 13.9346V14.0009C38.2223 14.0677 38.2223 14.0677 38.1561 14.0677H33.9746C33.9083 14.0677 33.9083 14.0677 33.9083 14.0009C33.9083 14.0009 33.9746 14.0009 34.0409 13.9346C34.0409 13.9346 34.1072 13.8683 34.2403 13.8021C34.5722 13.6027 34.771 13.2713 34.9041 12.7405C35.0367 12.276 35.1692 11.7453 35.1692 11.2145C35.1692 11.0157 35.236 10.153 35.236 9.95414V2.45553ZM47.379 8.02938L44.6583 7.49861C44.4595 7.49861 43.5305 7.29924 43.3312 7.23296C42.6011 6.97285 41.9093 6.61581 41.2744 6.17143C40.6768 5.70694 40.3454 5.04361 40.3454 4.18092C40.3454 2.78746 40.9424 1.7922 42.1371 1.06207C43.3317 0.331929 44.7252 0.000534214 46.4506 0.000534214H47.4458C47.844 0.0668132 48.1754 0.0668138 48.5073 0.133093C49.1712 0.266185 49.7682 0.398745 50.3653 0.597582C50.9623 0.796419 51.4936 0.995789 52.0244 1.32772L51.4274 3.05311C51.3447 3.14421 51.2976 3.26206 51.2948 3.38504C51.228 3.45132 51.228 3.5176 51.1622 3.5176V3.45132H51.0954C51.0954 3.38504 51.0954 3.31822 51.0297 3.25195C51.0297 3.18567 51.0297 3.11939 50.9629 3.05257C50.7646 2.45553 50.3658 1.99104 49.8351 1.59284C49.2466 1.26007 48.6234 0.992995 47.9766 0.796416C47.5784 0.730137 46.0523 0.531303 45.7867 0.531303C45.6541 0.531303 44.9903 0.531303 44.8577 0.597582C44.1939 0.664395 43.5968 0.92951 42.9998 1.394C42.469 1.79221 42.2034 2.45553 42.2034 3.31822C42.2034 3.98155 42.469 4.51285 42.9998 4.91053C43.5305 5.24246 44.1276 5.50757 44.7252 5.70694C45.0571 5.77375 46.1186 5.97259 46.3175 6.03887L48.8393 6.43708C49.7491 6.63388 50.6079 7.01797 51.3611 7.56489C52.0239 8.09566 52.4226 8.89207 52.4226 9.95414C52.4226 11.082 51.9581 12.0109 51.0949 12.6748C50.2327 13.3381 49.2375 13.8026 48.2422 14.0682C47.7777 14.2013 47.3132 14.3339 46.8488 14.4002C46.3843 14.4002 45.9861 14.4659 45.5884 14.4659C45.1902 14.4659 44.792 14.4002 44.3938 14.4002C43.9293 14.3334 43.5311 14.2671 43.0666 14.2008C42.4033 14.0677 41.7394 13.8689 41.1424 13.6695C40.4785 13.4701 39.9477 13.205 39.417 13.0062C39.3507 12.9399 39.2844 12.9399 39.2181 12.9399V12.8068V12.7405L39.9477 10.5506C39.9477 10.5506 39.9477 10.4838 40.0145 10.4838C40.0145 10.4176 40.0808 10.4176 40.0808 10.4176C40.1476 10.4176 40.1476 10.4176 40.2134 10.4838C40.2134 10.4838 40.2134 10.5506 40.2802 10.6169C40.3465 11.4796 40.7447 12.143 41.4743 12.608C42.2201 13.1106 43.0527 13.4705 43.9298 13.6695C44.2457 13.7994 44.5836 13.867 44.9251 13.8689C45.257 13.9352 45.5889 13.9352 45.854 13.9352C46.0534 13.9352 46.9818 13.8689 47.2475 13.8026C48.1102 13.6695 48.8398 13.3381 49.5699 12.8736C50.2338 12.4091 50.5657 11.6795 50.5657 10.8163C50.5657 9.88733 50.2338 9.224 49.6368 8.89207C48.9729 8.49386 48.2433 8.22875 47.3806 8.09566V8.02938H47.379ZM67.3525 0.398744L68.0163 2.72118V2.85374C68.0821 2.92055 68.0821 2.92055 68.0821 2.98683V3.05311H68.0163C67.9495 3.05311 67.9495 3.05311 67.8838 2.98683L67.7502 2.85374C67.4193 2.32297 67.0206 1.99158 66.4235 1.65965C65.8933 1.394 65.2962 1.19516 64.6987 1.12888C64.3667 1.0626 64.1016 0.996322 63.8354 0.996322C63.5035 0.929508 63.2384 0.929508 62.9733 0.929508C62.6413 0.929508 62.3094 0.996322 62.1111 1.0626C61.8449 1.12888 61.7124 1.39453 61.7124 1.79274V9.82158C61.7124 11.215 61.7792 12.144 61.9785 12.7411C62.1111 13.3381 62.3762 13.67 62.7739 13.8026C62.9064 13.8689 63.0401 13.8689 63.1058 13.9352C63.2384 13.9352 63.3052 14.0014 63.3052 14.0014C63.3052 14.0682 63.1726 14.2008 63.1726 14.2008C63.1058 14.2008 58.3289 14.2008 58.3289 14.134C58.2621 14.134 58.1964 14.0009 58.1964 14.0009C58.1964 13.9346 58.2621 13.9346 58.2621 13.9346C58.3289 13.8683 58.3947 13.8683 58.4615 13.8683H58.594C58.6598 13.8683 58.7266 13.8021 58.7934 13.8021C59.1911 13.669 59.4562 13.2045 59.6556 12.4086C59.7881 11.5459 59.9207 10.6169 59.9207 9.48912V1.79167C59.9207 1.39346 59.7881 1.12781 59.523 1.06153C59.2579 0.995254 58.9917 0.92844 58.594 0.92844C58.3289 0.92844 58.0627 0.92844 57.7976 0.995253C57.5325 0.995253 57.2006 1.06153 56.9355 1.12781C56.3384 1.19409 55.7414 1.39346 55.2095 1.65858C54.6125 1.99051 54.2148 2.3219 53.8829 2.85267C53.8161 2.91948 53.7503 2.91948 53.7503 2.98576C53.6835 3.05204 53.6178 3.05204 53.6178 3.05204H53.551V2.98576V2.85267L53.6178 2.78639L54.2806 0.397676H67.3525V0.398744ZM86.7952 14.0677H86.6626C86.5958 14.0677 86.5958 14.0009 86.5958 14.0009C86.5958 13.9346 86.5958 13.9346 86.6626 13.8683C86.7284 13.8683 86.7952 13.8021 86.8609 13.8021C87.3922 13.669 87.7899 13.3376 87.9893 12.8068C88.1219 12.276 88.2544 11.4133 88.2544 10.1524V2.65437C88.2544 1.92423 88.1887 1.39346 88.0561 1.12835C87.9882 0.998739 87.8942 0.88464 87.7799 0.793275C87.6656 0.701911 87.5336 0.635275 87.3923 0.597582C87.3254 0.597582 87.3254 0.531303 87.3254 0.531303H87.2597C87.2597 0.531303 87.1929 0.531302 87.1929 0.465023C87.1929 0.398744 87.2597 0.331931 87.2597 0.331931C87.3254 0.331931 87.458 0.265651 87.5916 0.265651C87.6574 0.265651 87.7242 0.265652 87.7899 0.331931H88.1219C88.2544 0.331931 88.387 0.331931 88.5863 0.398744H89.7147C89.913 0.331931 90.1124 0.331931 90.2449 0.331931H90.7094C90.842 0.265652 90.9745 0.265651 91.0413 0.265651H91.1739L91.2407 0.331931C91.3064 0.331931 91.3064 0.398744 91.3064 0.398744C91.3064 0.465023 91.3064 0.465023 91.2407 0.465023C91.2407 0.531302 91.2407 0.531303 91.1739 0.531303C91.1739 0.597582 91.1071 0.597582 91.1071 0.597582C90.7094 0.664395 90.4443 0.92951 90.3117 1.2609C90.1812 1.64574 90.1139 2.04917 90.1124 2.45553V8.49386C90.1124 10.8826 90.2449 12.3423 90.51 12.8068C90.7762 13.2713 91.439 13.5364 92.5011 13.5364C92.8998 13.5364 93.3632 13.4701 93.8945 13.4701C94.4916 13.4701 95.0229 13.4039 95.5536 13.2713C96.3501 13.2045 97.1465 12.9394 97.8098 12.6742C98.5394 12.4086 99.1375 12.0104 99.5357 11.4796C99.6015 11.4133 99.6683 11.3471 99.6683 11.2803C99.734 11.214 99.8008 11.214 99.8677 11.214H99.9334C100 11.2803 100 11.2803 100 11.3471L99.9334 11.4133V11.6122L99.0044 14.134L86.7952 14.0677ZM3.05279 28.1354V25.349C3.05279 25.2165 3.05279 25.1497 2.98651 25.1497C2.98651 25.0828 2.92023 25.0828 2.85342 25.0828H2.52202C2.25637 25.0828 2.05754 25.0828 1.92498 25.1497C1.79189 25.2165 1.65933 25.2822 1.59305 25.4816C1.59305 25.5473 1.52677 25.5473 1.52677 25.5473C1.52677 25.6142 1.52677 25.6141 1.46049 25.6799H1.32793C1.32793 25.6799 1.26112 25.6799 1.26112 25.6142C1.26112 25.6142 1.32793 25.5473 1.32793 25.4816V25.4148C1.39421 25.2165 1.39421 25.0828 1.46049 24.9503C1.46049 24.8177 1.52677 24.752 1.52677 24.6852V24.6184H1.65986V24.6852C1.65986 24.752 1.72614 24.752 1.79242 24.8177H5.17692C5.2432 24.752 5.30948 24.752 5.37576 24.6852V24.6184H5.50885V24.6852C5.50885 24.752 5.50885 24.8177 5.44257 24.8845V25.6799L5.37576 25.7467H5.30948H5.2432V25.6799C5.17692 25.4816 5.11064 25.2822 4.97809 25.2165C4.91127 25.1497 4.64616 25.0828 4.31423 25.0828H3.9823C3.84974 25.0828 3.84974 25.0828 3.78346 25.1497V28.1354C3.78346 28.4674 3.78346 28.6667 3.84974 28.7993C3.91602 28.865 3.9823 28.865 4.11539 28.865L4.38104 28.9318V29.1312C4.18167 29.1312 3.98283 29.0644 3.85027 29.0644H2.98758C2.78821 29.0644 2.58937 29.1312 2.39 29.1312V28.9987V28.9318L2.65565 28.865H2.72193C2.85502 28.865 2.9213 28.7993 2.98758 28.7325C2.98651 28.6667 3.05279 28.4674 3.05279 28.1354ZM12.3431 28.1354V25.7467C12.3431 25.4148 12.3431 25.2165 12.2763 25.1497C12.2763 25.0828 12.1437 25.0171 12.0111 25.0171L11.878 24.9503V24.8177H14.8643V25.0171C14.9306 25.0828 14.9306 25.2165 14.9306 25.349V25.5473C14.9306 25.6142 14.9306 25.6141 14.9974 25.6799C14.9306 25.6799 14.9306 25.7467 14.9306 25.7467H14.7981H14.7318V25.6799C14.6655 25.4816 14.6655 25.349 14.5987 25.2822C14.5324 25.2165 14.4656 25.1497 14.333 25.1497C14.333 25.1497 14.2668 25.0828 14.2005 25.0828H13.4035C13.2704 25.0828 13.2042 25.0828 13.1379 25.1497V26.6757C13.1379 26.7414 13.2042 26.7414 13.2704 26.7414H13.6024C13.8675 26.7414 14.0669 26.7414 14.1331 26.6757C14.1994 26.6757 14.2657 26.6089 14.332 26.4763V26.2112H14.5313V27.6047H14.3983C14.3983 27.6047 14.332 27.6047 14.332 27.5378V27.2727C14.2657 27.1402 14.1994 27.0734 14.1331 27.0734C14.0669 27.0076 13.8675 27.0076 13.6024 27.0076H13.2704C13.2042 27.0076 13.1379 27.0076 13.1379 27.0734V28.4668C13.1379 28.5336 13.2042 28.6662 13.2042 28.6662C13.2704 28.7319 13.3367 28.7987 13.4035 28.7987H13.9343C14.3325 28.8645 14.5976 28.7987 14.7307 28.7319C14.8633 28.6662 14.9964 28.4668 15.0626 28.2674C15.0626 28.2674 15.1289 28.2674 15.1289 28.2017V28.1349H15.3283V28.3343C15.3283 28.4668 15.262 28.5336 15.262 28.5994V28.7319C15.1957 28.7319 15.1957 28.7987 15.1957 28.8645C15.1957 28.9313 15.1289 28.9313 15.1289 28.9981C15.1289 29.0639 15.1289 29.0639 15.0626 29.1307C14.9296 29.1307 14.7307 29.0639 14.4651 29.0639H12.0111C11.9443 29.0639 11.878 29.1307 11.8118 29.1307C11.745 29.1307 11.745 29.0639 11.745 29.0639V28.9981V28.9313L12.0106 28.8645C12.1432 28.8645 12.2757 28.8645 12.2757 28.7987C12.3431 28.6667 12.3431 28.4674 12.3431 28.1354ZM25.0831 24.752V25.1497C25.0831 25.349 25.1499 25.5473 25.1499 25.8135H25.0831H24.9505V25.6799C24.8842 25.6799 24.8842 25.6142 24.8842 25.5473C24.7919 25.362 24.6551 25.2024 24.486 25.0828C24.2872 24.9503 24.0215 24.8845 23.6896 24.8845C23.2914 24.8845 22.8932 25.0171 22.5618 25.349C22.2299 25.6142 22.031 26.1444 22.031 26.7414C22.031 27.4721 22.2304 27.9366 22.5618 28.2674C22.8937 28.5994 23.2919 28.7987 23.6896 28.7987H23.7564C24.0883 28.7987 24.3535 28.7319 24.5528 28.5994C24.7522 28.4668 24.8848 28.2674 24.951 28.0691C25.0173 28.0691 25.0173 28.0023 25.0173 28.0023C25.0836 27.9366 25.0836 27.8698 25.0836 27.8698C25.0836 27.8698 25.1504 27.8698 25.1504 27.803H25.2167V27.8698H25.283C25.283 28.0023 25.283 28.1349 25.2167 28.2674C25.2167 28.4 25.1504 28.5336 25.1504 28.5994C25.0836 28.6662 25.0836 28.7319 25.0173 28.7319C25.0173 28.7987 25.0173 28.8645 24.951 28.8645H24.8848C24.8848 28.8645 24.8848 28.9313 24.8185 28.9313H24.7522H24.6191C24.6191 28.9981 24.5528 28.9981 24.486 28.9981C24.4197 28.9981 24.2872 28.9981 24.2204 29.0639H23.7559C23.424 29.0639 23.1588 29.0639 22.8269 28.9981C22.5671 28.928 22.3204 28.8159 22.0968 28.6662C21.8271 28.472 21.6012 28.2234 21.4334 27.9366C21.2341 27.6704 21.1678 27.2727 21.1678 26.874C21.1678 26.4763 21.2341 26.1444 21.4334 25.8793C21.5665 25.5473 21.7654 25.349 21.9642 25.1497C22.2299 24.9503 22.495 24.8177 22.8269 24.752C23.1588 24.6852 23.4245 24.6184 23.7559 24.6184H24.1541C24.2872 24.6184 24.4197 24.6852 24.5523 24.6852C24.6849 24.6852 24.8179 24.752 24.8842 24.752H25.0168V24.8177H25.0831V24.752ZM33.0462 27.0076C32.9136 27.0076 32.7805 27.0076 32.7805 27.0734C32.7142 27.0734 32.7142 27.1402 32.7142 27.2059V28.1349C32.7142 28.4668 32.7142 28.6662 32.7805 28.7319C32.8473 28.7987 32.9136 28.8645 33.0462 28.8645L33.2455 28.9313H33.3123V29.0639L33.2455 29.1307C33.113 29.1307 32.9136 29.0639 32.781 29.0639H31.8521C31.7195 29.0639 31.6527 29.1307 31.5201 29.1307V29.0639C31.4533 29.0639 31.4533 28.9981 31.4533 28.9981L31.5201 28.9313H31.6527C31.7858 28.8645 31.8521 28.8645 31.9184 28.7319C31.9184 28.6662 31.9846 28.4668 31.9846 28.1349V25.7462C31.9846 25.4142 31.9184 25.2159 31.9184 25.1491C31.8521 25.0823 31.7858 25.0166 31.6527 25.0166H31.5864L31.4533 24.9498V24.884V24.8172H33.1793L33.2455 24.884C33.2455 24.884 33.2455 24.9498 33.1793 24.9498L33.0462 25.0166C32.9136 25.0166 32.7805 25.0823 32.7805 25.1491C32.7142 25.2159 32.7142 25.4142 32.7142 25.7462V26.5426C32.7142 26.6083 32.7142 26.6751 32.7805 26.6751C32.7805 26.7409 32.9136 26.7409 33.0462 26.7409H34.5722C34.7716 26.7409 34.8378 26.7409 34.9041 26.6751V25.7462C34.9041 25.4142 34.9041 25.2159 34.8373 25.1491C34.8373 25.0823 34.7047 25.0166 34.5717 25.0166L34.4391 24.9498H34.3723V24.884V24.8172H36.165V24.9498L36.0325 25.0166H35.9656C35.8331 25.0166 35.7663 25.0823 35.7663 25.1491C35.7 25.2159 35.7 25.4142 35.7 25.7462V28.1349C35.7 28.4668 35.7 28.6662 35.7663 28.7319C35.7663 28.8645 35.8994 28.8645 36.0319 28.8645V28.9313H36.2308V29.0639C36.1645 29.0639 36.1645 29.1307 36.1645 29.1307C36.0982 29.1307 36.0319 29.0639 35.9651 29.0639H34.8368C34.7042 29.0639 34.5711 29.1307 34.4386 29.1307C34.4386 29.1307 34.4386 29.0639 34.3717 29.0639V28.9981V28.9313H34.4386L34.5711 28.8645C34.7042 28.8645 34.8368 28.8645 34.8368 28.7319C34.9036 28.6662 34.9036 28.4668 34.9036 28.1349V27.2059V27.0734C34.8368 27.0076 34.7705 27.0076 34.5717 27.0076H33.0462ZM46.1849 26.3438V28.8645C46.1849 28.9313 46.2512 28.9981 46.2512 29.0639C46.1849 29.0639 46.1849 29.1307 46.1186 29.1307H45.9855C45.9855 29.0639 45.853 28.9981 45.7862 28.8645C45.6536 28.7319 45.4542 28.5336 45.2554 28.2674L43.7294 26.5426C43.5305 26.2764 43.3974 26.0781 43.2649 26.0113C43.1323 25.8787 43.066 25.7462 42.9998 25.7462V28.2669C42.9998 28.4663 43.066 28.5988 43.066 28.6657C43.1323 28.7314 43.1986 28.7314 43.1986 28.7982C43.2649 28.7982 43.3317 28.7982 43.398 28.864H43.5974V28.9976L43.5311 29.0633C43.4648 28.9976 43.398 28.9976 43.3317 28.9976H42.9335H42.2691C42.2028 28.9976 42.2028 28.9976 42.136 29.0633V28.9976C42.0697 28.9976 42.0697 28.9308 42.0697 28.9308L42.136 28.864L42.2691 28.7982H42.4685C42.4685 28.7314 42.5347 28.7314 42.5347 28.6657C42.601 28.5988 42.601 28.4663 42.601 28.2012C42.6678 28.0018 42.6678 27.8024 42.6678 27.6041V25.8135C42.6678 25.6141 42.6678 25.4816 42.601 25.4148C42.601 25.2822 42.601 25.2165 42.5347 25.1497C42.5347 25.1497 42.4685 25.1497 42.4685 25.0828H42.4022C42.4022 25.0171 42.4022 25.0171 42.3354 25.0171C42.3354 25.0171 42.2691 25.0171 42.2691 24.9503H42.136H42.0697L42.0034 24.8845H41.9372V24.8177L42.0034 24.752H43.1986C43.2649 24.8177 43.3317 24.8845 43.398 25.0171C43.4648 25.1497 43.5974 25.2822 43.6636 25.4148H43.7299C43.7299 25.4816 43.7299 25.4816 43.7967 25.4816C43.863 25.6142 43.9961 25.7467 44.0624 25.8135C44.1286 25.9461 44.1949 26.0118 44.2617 26.0786L44.9251 26.7414L45.1244 26.9408C45.1907 27.0734 45.257 27.1402 45.3233 27.2059C45.4564 27.3385 45.5226 27.4721 45.6552 27.6047L45.8546 27.803V27.7372V26.3438V26.2112V26.0786V25.4816C45.8546 25.2822 45.7878 25.1497 45.7215 25.0828C45.7215 25.0171 45.6552 25.0171 45.6552 25.0171C45.5889 24.9503 45.5226 24.9503 45.4558 24.9503L45.2565 24.8845V24.752H46.7178L46.7841 24.8177V24.8845H46.7178L46.5847 24.9503H46.5184C46.5184 24.9503 46.4522 24.9503 46.3853 25.0171C46.3853 25.0171 46.3191 25.0171 46.3191 25.0828C46.2528 25.1497 46.2528 25.349 46.2528 25.5473C46.1865 25.7467 46.1865 25.9461 46.1865 26.2112V26.2769L46.1849 26.3438ZM64.897 25.6142V27.9371C64.897 28.0697 64.9638 28.2022 64.9638 28.3348C64.9638 28.4674 64.9638 28.5342 65.0295 28.5999C65.0963 28.5999 65.1631 28.6667 65.2289 28.6667C65.2957 28.7325 65.494 28.7325 65.7602 28.7325C66.0253 28.7325 66.2247 28.7325 66.3572 28.6667C66.423 28.6667 66.5555 28.5342 66.6881 28.4005C66.6881 28.3348 66.6881 28.3348 66.7549 28.268C66.7549 28.2022 66.8217 28.1354 66.8217 28.0029H67.02V28.268C67.02 28.3348 66.9543 28.4005 66.9543 28.4674V28.5999L66.8875 28.6667C66.8875 28.7325 66.8875 28.7993 66.8217 28.865C66.8217 28.9318 66.8217 28.9987 66.7549 28.9987H63.6371H63.5703V28.9318V28.865L63.6371 28.7993H63.9022C63.968 28.7325 64.1016 28.7325 64.1016 28.6667C64.1674 28.5342 64.1674 28.4005 64.1674 28.0697V25.6142C64.1674 25.349 64.1674 25.1497 64.1016 25.0828C64.1016 24.9503 63.968 24.9503 63.8354 24.8845H63.6371V24.8177H63.5703C63.5703 24.752 63.5703 24.752 63.6371 24.752V24.6852H65.4283V24.752C65.4283 24.752 65.494 24.752 65.494 24.8177C65.494 24.8177 65.4283 24.8177 65.4283 24.8845H65.2957H65.2289C65.1291 24.9338 65.0392 25.001 64.9638 25.0828C64.9638 25.1497 64.897 25.349 64.897 25.6142ZM94.8241 28.0029V27.6052C94.8241 27.5384 94.7572 27.4726 94.7572 27.4058V27.2064C94.7572 27.1407 94.6915 27.0739 94.6915 27.0081C94.6915 26.9413 94.6247 26.8745 94.5589 26.8088L93.8283 25.2828C93.7625 25.217 93.7625 25.217 93.7625 25.1502C93.7625 25.1502 93.6957 25.1502 93.6957 25.0834C93.6957 25.0176 93.63 25.0176 93.5631 24.9508C93.4974 24.9508 93.4306 24.8851 93.298 24.8851L93.1655 24.8183V24.6189C93.298 24.6189 93.4306 24.6857 93.5631 24.6857H94.6247C94.6915 24.6189 94.7572 24.6189 94.8241 24.6189C94.8241 24.6189 94.824 24.6857 94.8898 24.6857V24.8183H94.8241L94.6247 24.8851H94.5589C94.4921 24.8851 94.4921 24.9508 94.4921 24.9508C94.4921 24.9508 94.4921 25.0176 94.5589 25.0834C94.5589 25.0834 94.5589 25.1502 94.6247 25.2828C94.6915 25.4153 94.7572 25.4821 94.7572 25.6147C94.8241 25.7472 94.8898 25.8141 94.8898 25.9466C95.0234 26.0792 95.0892 26.2775 95.156 26.4111L95.3543 26.8088C95.4211 26.6762 95.4879 26.5437 95.6205 26.4111C95.6862 26.3443 95.753 26.2117 95.8188 26.0792V25.9466C95.8856 25.9466 95.8856 25.8798 95.8856 25.8798C95.9524 25.8141 95.9524 25.7472 96.0181 25.6804C96.0181 25.5479 96.085 25.4821 96.1507 25.4153C96.2175 25.2828 96.2175 25.217 96.2833 25.1502V24.8851H96.1507L95.9524 24.8183V24.6857V24.6189C96.1507 24.6189 96.2833 24.6857 96.3501 24.6857H96.9471C97.0797 24.6857 97.1465 24.6189 97.279 24.6189C97.279 24.6857 97.279 24.6857 97.3448 24.6857V24.8183H97.279L97.0797 24.8851C97.0128 24.8851 97.0129 24.8851 96.9471 24.9508C96.8803 24.9508 96.8146 24.9508 96.8146 25.0176C96.7477 25.0834 96.682 25.1502 96.6152 25.217L96.4158 25.6147C96.3501 25.7472 96.2832 25.8798 96.1507 25.9466L95.9524 26.3443V26.4111L95.8856 26.4768C95.8856 26.5437 95.8856 26.5437 95.8188 26.6094C95.8188 26.6094 95.8188 26.6762 95.753 26.6762C95.753 26.742 95.6862 26.8088 95.6862 26.8745C95.6862 26.9413 95.6205 27.0081 95.6205 27.0739C95.6205 27.1407 95.5536 27.2064 95.5536 27.2733V28.0029C95.5536 28.3348 95.5536 28.5342 95.6205 28.5999C95.6205 28.6667 95.753 28.7325 95.8856 28.7325H96.1507V28.7993C96.2175 28.7993 96.2175 28.7993 96.2175 28.865C96.2175 28.865 96.2175 28.9318 96.1507 28.9318H94.227C94.227 28.865 94.1602 28.865 94.1602 28.865L94.227 28.7993L94.4264 28.7325H94.4921C94.6247 28.7325 94.6915 28.6667 94.7572 28.5999C94.7572 28.5342 94.8241 28.3348 94.8241 28.0029ZM87.0603 27.7372V28.1349C87.0603 28.2674 87.0603 28.3343 87.1271 28.4668C87.1271 28.5336 87.1929 28.5994 87.1929 28.5994H87.2597V28.6662H87.1929C87.1929 28.6662 87.1271 28.7319 87.0603 28.7319H86.9278C86.7952 28.7987 86.7284 28.7987 86.6626 28.7987C86.5301 28.7987 86.4633 28.8645 86.3975 28.8645C86.2639 28.8645 86.1313 28.8645 85.9988 28.9313H85.6669C85.2692 28.9313 84.8715 28.8645 84.5396 28.7319C84.2076 28.6662 83.8757 28.4668 83.6764 28.2017C83.4781 28.0023 83.3455 27.803 83.2119 27.5378C83.1461 27.2727 83.0793 27.0076 83.0793 26.7414V26.6757V26.6089C83.0793 26.3438 83.1461 26.0786 83.2787 25.8793C83.3455 25.6141 83.4781 25.4148 83.6764 25.2165C83.9425 24.9503 84.2076 24.752 84.5396 24.6184C84.8715 24.4858 85.2692 24.4201 85.7337 24.4201H85.8662C85.8662 24.4201 85.933 24.4201 85.933 24.4858H86.2639C86.3307 24.4858 86.4633 24.4858 86.5301 24.5526H86.7284C86.7952 24.5526 86.8609 24.6184 86.9278 24.6184H86.9946C87.0603 24.6852 87.0603 24.752 87.0603 24.8845V25.2822C87.0603 25.349 87.0603 25.4148 87.1271 25.4816V25.6142L87.0603 25.6799H86.9278V25.6142C86.8609 25.349 86.6626 25.0828 86.4633 24.9503C86.2639 24.8177 85.9988 24.6852 85.6669 24.6852C85.0698 24.6852 84.6721 24.8845 84.407 25.2822C84.1067 25.6592 83.943 26.1269 83.9425 26.6089V26.8082C83.9802 26.8427 84.0036 26.89 84.0083 26.9408C84.0083 27.1402 84.0751 27.4053 84.1408 27.6047C84.2077 27.803 84.2734 27.9366 84.407 28.1349C84.5396 28.2017 84.6053 28.3343 84.7379 28.4L85.1366 28.5994C85.2024 28.5994 85.336 28.5994 85.4017 28.6662H85.6669C85.8662 28.6662 85.933 28.6662 86.0656 28.5994C86.1313 28.5994 86.1982 28.5336 86.2639 28.5336C86.2639 28.4668 86.2639 28.4668 86.3307 28.4V27.8698C86.3307 27.6704 86.3307 27.5378 86.2639 27.4721C86.2639 27.4053 86.1313 27.3385 85.933 27.3385H85.8662L85.6669 27.2727C85.6669 27.2727 85.6011 27.2727 85.6011 27.2059V27.1402C85.6011 27.0734 85.6669 27.0734 85.6669 27.0734H87.458V27.1402C87.5248 27.1402 87.5248 27.1402 87.5248 27.2059L87.458 27.2727H87.3254C87.1929 27.2727 87.1271 27.3385 87.1271 27.4053C87.0603 27.4721 87.0603 27.5378 87.0603 27.7372Z" fill="black"/>
<path fill-rule="evenodd" clip-rule="evenodd" d="M7.63135 26.7413C7.63135 26.3436 7.96328 26.0117 8.36148 26.0117C8.82597 26.0117 9.1579 26.3436 9.1579 26.7413C9.1579 27.1401 8.82597 27.472 8.36148 27.472C8.16827 27.4703 7.98345 27.3928 7.84687 27.2561C7.71028 27.1194 7.63288 26.9345 7.63135 26.7413ZM17.3861 26.7413C17.3861 26.3436 17.718 26.0117 18.1157 26.0117C18.5139 26.0117 18.8459 26.3436 18.8459 26.7413C18.8459 27.1401 18.5139 27.472 18.1157 27.472C17.9226 27.4702 17.7379 27.3926 17.6014 27.2559C17.465 27.1192 17.3876 26.9344 17.3861 26.7413ZM27.3392 26.7413C27.3392 26.3436 27.6711 26.0117 28.0693 26.0117C28.4675 26.0117 28.7989 26.3436 28.7989 26.7413C28.7989 27.1401 28.467 27.472 28.0693 27.472C27.8761 27.4703 27.6913 27.3928 27.5547 27.2561C27.4181 27.1194 27.3407 26.9345 27.3392 26.7413ZM38.0892 26.7413C38.0892 26.3436 38.4211 26.0117 38.8188 26.0117C39.217 26.0117 39.5489 26.3436 39.5489 26.7413C39.5489 27.1401 39.217 27.472 38.8188 27.472C38.6257 27.4702 38.441 27.3926 38.3045 27.2559C38.1681 27.1192 38.0907 26.9344 38.0892 26.7413ZM48.9055 26.7413C48.9055 26.3436 49.2374 26.0117 49.7019 26.0117C50.1001 26.0117 50.4321 26.3436 50.4321 26.7413C50.4302 26.9345 50.3528 27.1192 50.2162 27.2558C50.0797 27.3924 49.8951 27.47 49.7019 27.472C49.2374 27.472 48.9055 27.1401 48.9055 26.7413ZM59.3899 26.7413C59.3899 26.3436 59.7218 26.0117 60.1195 26.0117C60.5172 26.0117 60.8491 26.3436 60.8491 26.7413C60.8491 27.1401 60.5172 27.472 60.1195 27.472C59.7218 27.472 59.3899 27.1401 59.3899 26.7413ZM68.8785 26.7413C68.8785 26.3436 69.2104 26.0117 69.6081 26.0117C70.0068 26.0117 70.3377 26.3436 70.3377 26.7413C70.3377 27.1401 70.0068 27.472 69.6081 27.472C69.4149 27.4702 69.2303 27.3926 69.0938 27.2559C68.9573 27.1192 68.88 26.9344 68.8785 26.7413ZM79.5627 26.7413C79.5627 26.3436 79.8936 26.0117 80.2923 26.0117C80.69 26.0117 81.0219 26.3436 81.0219 26.7413C81.0219 27.1401 80.69 27.472 80.2923 27.472C80.0992 27.4703 79.9144 27.3928 79.7779 27.2561C79.6414 27.1194 79.5641 26.9345 79.5627 26.7413ZM89.8477 26.7413C89.8477 26.3436 90.1797 26.0117 90.5773 26.0117C91.0418 26.0117 91.3738 26.3436 91.3738 26.7413C91.3738 27.1401 91.0418 27.472 90.5773 27.472C90.3842 27.4702 90.1995 27.3926 90.0631 27.2559C89.9266 27.1192 89.8493 26.9344 89.8477 26.7413Z" fill="#CC2229" stroke="#CC2229" stroke-width="0.674428" stroke-miterlimit="2.613"/>
</svg>
