<svg width="146" height="43" viewBox="0 0 146 43" fill="none" xmlns="http://www.w3.org/2000/svg">
<path fill-rule="evenodd" clip-rule="evenodd" d="M52.3137 19.5343C56.0001 19.5343 57.2284 17.077 57.2284 13.698C57.2284 7.17104 52.3901 7.70871 52.007 7.70871H50.2402V19.5343H52.3137ZM52.5446 17.4609V9.85861C54.4643 9.85861 54.9255 12.2395 54.9255 13.698C54.9255 15.1565 54.3871 17.5374 52.5446 17.4609ZM64.14 7.70871V19.5343H68.901V17.3844H66.5201V14.6961H68.5936V12.4689H66.5201V9.93508H68.901V7.70871H64.14ZM80.8031 8.16913C80.1889 7.78519 79.4983 7.5542 78.8061 7.5542C76.7335 7.5542 75.6589 9.16721 75.6589 11.0096C75.6589 12.7764 76.5033 13.6207 77.8861 14.5423C78.5002 15.0028 79.2681 15.3102 79.2681 16.2318C79.2681 16.9997 78.654 17.5374 77.8861 17.5374C77.1939 17.5374 76.6578 17.3072 76.1194 16.9232V19.1504C76.657 19.5343 77.5014 19.6873 78.1163 19.6873C80.3435 19.6873 81.4953 18.1515 81.4953 16.0781C81.4953 12.8529 77.9626 12.7764 77.9626 10.7794C77.9626 10.088 78.4245 9.62762 79.1152 9.62762C79.8058 9.62762 80.3435 10.0116 80.8039 10.3955V8.16913H80.8031ZM88.5591 19.5343H90.8643V7.70871H88.5591V19.5343ZM101.998 13.0066V15.1565H103.456C103.456 16.0016 103.304 17.5374 102.075 17.5374C100.385 17.5374 100.308 14.8498 100.308 13.6207C100.308 12.5462 100.46 9.62762 102.075 9.70488C102.919 9.70488 103.15 10.6265 103.226 11.2406L105.53 10.319C104.993 8.70679 103.84 7.5542 101.998 7.5542C98.6968 7.5542 97.8509 11.0096 97.8509 13.698C97.8509 16.3091 98.8489 19.6873 101.998 19.6873C105.223 19.6873 105.837 16.3855 105.837 13.9282V13.0066H101.998ZM112.749 7.70871V19.5343H115.052V13.6207L114.899 12.4689L114.976 12.3924L117.817 19.5343H120.044V7.70871H117.742V13.0838C117.742 13.6215 117.741 14.2364 117.894 14.8506L114.977 7.7095H112.749V7.70871ZM127.34 7.70871V19.5343H132.099V17.3844H129.643V14.6961H131.793V12.4689H129.643V9.93508H132.024V7.70871H127.34ZM141.468 19.5343V14.0819H141.545L143.542 19.5343H146L144.003 14.1584C145.154 13.5443 145.615 12.3924 145.615 11.0861C145.615 7.93814 143.004 7.70793 141.468 7.70793H139.166V19.5335H141.468V19.5343ZM141.468 9.70488H141.777C143.005 9.62762 143.389 10.319 143.389 11.1642C143.389 12.085 142.927 12.8536 141.929 12.8536L141.468 12.7772V9.70488ZM50.394 26.9064V27.828H51.6995V35.1228H52.7748V27.828H54.0031V26.9064H50.394ZM60.1469 26.9064V35.1228H63.1419V34.2004H61.2223V31.3599H62.911V30.4391H61.2223V27.828H63.1419V26.9064H60.1469ZM72.6639 27.0601C72.3565 26.8299 72.1262 26.8299 71.7423 26.8299C69.5152 26.8299 69.285 29.5167 69.285 31.1297C69.285 32.8964 69.5924 35.2765 71.8196 35.2765C72.127 35.2765 72.4337 35.1985 72.6647 35.0463V34.0483C72.511 34.2004 72.2808 34.2004 72.0506 34.2004C70.5148 34.2004 70.4375 32.1278 70.4375 31.0532C70.4375 30.0551 70.4375 27.828 71.9733 27.828C72.2035 27.828 72.4337 27.9045 72.6647 28.0582V27.0601H72.6639ZM79.0379 26.9064V35.1228H80.1889V31.0532H81.8012V35.1228H82.8773V26.9064H81.8012V30.1316H80.1889V26.9064H79.0379ZM90.6325 28.8269L92.553 35.1228H93.5511V26.9064H92.4765V29.8249L92.7832 33.1259H92.7067L90.7863 26.9064H89.7882V35.1228H90.8643V32.1278L90.7098 29.363L90.6325 28.8269ZM102.382 26.8299C100.231 26.8299 100.231 29.5167 100.231 31.0532C100.231 32.5117 100.231 35.2765 102.382 35.2765C104.532 35.2765 104.532 32.5117 104.532 31.0532C104.532 29.5167 104.532 26.8299 102.382 26.8299ZM102.382 27.828C103.226 27.828 103.38 29.2865 103.38 31.0532C103.38 32.7419 103.226 34.2004 102.382 34.2004C101.537 34.2004 101.384 32.7419 101.384 31.0532C101.384 29.2873 101.537 27.828 102.382 27.828ZM111.137 26.9064V35.1228H114.132V34.2004H112.289V26.9064H111.137ZM122.271 26.8299C120.122 26.8299 120.122 29.5167 120.122 31.0532C120.122 32.5117 120.122 35.2765 122.271 35.2765C124.345 35.2765 124.421 32.5117 124.421 31.0532C124.421 29.5167 124.345 26.8299 122.271 26.8299ZM122.271 27.828C123.117 27.828 123.269 29.2865 123.269 31.0532C123.269 32.7419 123.117 34.2004 122.271 34.2004C121.426 34.2004 121.273 32.7419 121.273 31.0532C121.272 29.2873 121.426 27.828 122.271 27.828ZM133.022 30.823V31.7438H133.866V32.2043C133.866 34.1247 133.406 34.2012 132.945 34.2012C132.483 34.2012 132.023 33.8945 132.023 31.054C132.023 29.0571 132.099 27.8288 132.945 27.8288C133.636 27.8288 133.79 28.3657 133.866 28.9033L134.942 28.4429C134.634 27.3668 134.096 26.8307 132.945 26.8307C131.025 26.8307 130.871 28.7496 130.871 31.054C130.871 33.3568 131.101 35.2773 133.022 35.2773C135.249 35.2773 135.019 32.5125 135.019 30.9003V30.8238H133.022V30.823ZM140.931 26.9064L142.621 31.5901V35.1228H143.696V31.5901L145.232 26.9064H144.079L143.312 29.6712L143.159 30.7458L142.161 26.9064H140.931Z" fill="#334382"/>
<path fill-rule="evenodd" clip-rule="evenodd" d="M10.0019 34.2004C9.6944 33.9702 7.46725 30.823 7.00684 28.2104C24.6688 44.7212 45.4794 30.361 39.4129 17.9978C39.3356 17.7676 39.1827 17.5374 38.9517 17.2299C38.9517 16.7695 38.7988 15.3875 38.7215 14.9263L39.2592 15.4632C47.5521 25.2926 40.4875 36.4268 29.8909 39.3453C20.8294 41.4188 14.5326 38.1943 10.0019 34.2004Z" fill="#40AEAB"/>
<path fill-rule="evenodd" clip-rule="evenodd" d="M9.00352 15.6177C7.23756 17.6146 6.77637 20.072 6.77637 20.072C8.31212 27.9052 15.1473 29.594 15.1473 29.594C7.85171 24.0651 9.00352 15.6177 9.00352 15.6177Z" fill="#334382"/>
<path fill-rule="evenodd" clip-rule="evenodd" d="M7.4677 7.24756C3.55106 9.62844 2.16904 13.6208 2.78319 16.2319C1.70863 18.2288 1.47764 18.7665 0.633293 21.6842C-1.90054 12.6227 4.6264 7.70875 7.4677 7.24756Z" fill="#40AEAB"/>
<path fill-rule="evenodd" clip-rule="evenodd" d="M35.881 29.593C34.4989 30.8229 33.6538 31.5135 31.8878 32.7418C43.7134 9.85846 19.9077 -4.27154 10.7697 8.39918C10.4622 8.55291 7.92841 9.7812 7.23779 10.3189C13.611 -7.1901 37.0328 -0.355691 39.2599 15.4638C39.7203 19.9181 39.4901 23.9112 35.881 29.593Z" fill="#334382"/>
<path fill-rule="evenodd" clip-rule="evenodd" d="M26.0514 7.01714C27.2033 7.47755 28.1249 8.32268 29.0465 9.24429C12.3062 5.48139 5.08703 15.3873 5.01056 23.4508C4.93408 32.7418 13.1505 42.7249 24.4384 39.8844C24.5149 39.8844 25.0526 39.7307 25.36 39.5762C26.5883 39.4224 27.5872 39.3459 28.4315 39.1922C28.2778 39.2703 28.1241 39.4224 28.1241 39.4224C13.5344 48.0228 -0.59556 35.8133 0.0193652 22.6829C1.40139 11.5479 12.4591 2.71657 26.0514 7.01714Z" fill="#AC284A"/>
<path fill-rule="evenodd" clip-rule="evenodd" d="M10.0019 34.2005C9.6944 33.9703 7.46725 30.8231 7.00684 28.2104C14.7628 35.4288 23.133 36.7351 29.507 34.8919C29.9682 36.5041 30.4286 37.5787 29.8909 39.3454C20.8294 41.4188 14.5326 38.1944 10.0019 34.2005Z" fill="#40AEAB"/>
</svg>
