<svg width="88" height="41" viewBox="0 0 88 41" fill="none" xmlns="http://www.w3.org/2000/svg">
<path fill-rule="evenodd" clip-rule="evenodd" d="M61.4259 0.297804C59.689 2.06595 58.0955 3.64879 56.3381 5.47856C53.5528 5.35486 50.993 5.46829 48.9373 7.03059C46.4401 8.92197 45.0528 12.2319 45.8132 15.5619C46.4704 18.5016 48.8962 21.081 51.8985 21.7084C53.0902 22.0375 54.5396 21.8932 55.876 21.9343L61.7443 21.9035C59.7815 23.9391 58.2588 25.521 56.5014 27.2999C56.5014 27.2999 54.2726 27.362 53.2139 27.3307C52.5245 27.3414 51.9905 27.2285 51.4864 27.2388C51.4766 27.2079 51.4971 27.1977 51.5074 27.1869C47.5188 26.5195 43.8084 23.8266 41.9893 20.4033C40.1087 17.1965 39.6765 12.4172 41.1258 8.9019C42.3077 5.50983 45.0827 2.45711 48.4439 1.05912C49.1334 0.750577 49.8625 0.555465 50.593 0.349616V0.267464C50.9113 0.288002 51.4565 0.154503 51.8775 0.103158C52.3607 0.0312744 52.8638 0.031274 53.3582 0H61.6934L61.4259 0.297804ZM24.0217 0.0200711L18.6972 5.55044L13.0954 5.57098C9.6828 5.6634 6.83546 8.02763 5.76654 11.1214L24.0212 11.1009L18.7485 16.5486L5.81789 16.6308V16.7956C7.06185 20.0845 10.1043 22.0995 13.712 22.0585L24.0212 21.9754L18.7313 27.4264L18.4503 27.4339L12.1801 27.4031H11.2241C6.4443 26.6217 2.16863 22.9631 0.739825 18.3271C0.575053 17.8953 0.472362 17.3608 0.318326 17.0014C-0.103173 15.069 -0.0494939 12.4942 0.382274 10.5618C0.372005 10.5309 0.382274 10.5618 0.382274 10.5618C0.742159 9.17403 1.22247 7.82224 2.02439 6.64036C3.77901 3.56991 6.69823 1.46055 10.0721 0.497118C10.256 0.444839 12.1077 0.0826198 12.7967 0.103158L20.1969 0.0205394H24.0217V0.0200711ZM30.8058 21.9343L30.8572 21.9754L41.5674 21.9343C41.4129 22.1191 41.1972 22.3353 40.9713 22.5206L36.3558 27.2075C36.3255 27.2994 36.2531 27.3106 36.1607 27.3825L30.1477 27.3615C29.9423 27.2896 29.8499 27.3713 29.6543 27.3825C29.7575 27.1253 29.4079 27.3106 29.3257 27.1865C27.4343 26.6833 25.718 24.7714 25.5019 22.7666L25.4094 0.0200711H30.7648L30.8058 21.9343Z" fill="black"/>
<path fill-rule="evenodd" clip-rule="evenodd" d="M76.7922 0.369693C76.8851 0.338885 77.0905 0.524196 77.2865 0.493388C77.4714 0.555003 77.6558 0.626887 77.8518 0.667963C81.7265 1.83957 84.7895 4.89229 86.2701 8.51075C86.6295 9.28139 86.9194 10.3643 87.0772 11.0393C87.1701 11.6559 87.3325 12.9428 87.298 13.6196C87.3801 14.6475 87.1747 15.5931 87.1029 16.5281L87.0053 16.9295C85.9158 22.0384 81.6038 26.0149 76.5257 27.0843L76.1047 27.2075C74.9022 27.2794 73.0851 27.4189 71.7996 27.2332C71.6974 27.2033 71.3356 27.1258 71.3146 27.1356C70.3381 26.7757 69.2687 26.5293 68.3034 26.097C66.1348 25.1826 64.3559 23.4761 62.9066 21.6052C60.5633 18.3266 59.7311 13.3209 61.1799 9.25059C61.6743 7.91421 62.3002 6.58809 63.1227 5.42675C65.1784 2.65176 68.3338 0.636689 71.808 0.195118C73.4618 -0.041071 75.1786 -0.0205326 76.7922 0.369693ZM77.2861 6.31083C75.1272 5.19056 72.033 5.28298 69.9572 6.53721C67.2742 8.12005 65.5574 11.0803 65.8356 14.4519C66.0615 17.5872 68.3944 20.4859 71.2628 21.4624C72.0853 21.7187 72.9483 21.8736 73.8529 21.9035C77.1624 21.9035 80.2044 19.7554 81.3559 16.7746C82.4561 13.9688 81.8292 10.4432 79.8963 8.31517C79.7521 8.14013 79.4851 7.96555 79.3828 7.79098C78.7046 7.24625 78.1183 6.61937 77.2861 6.31083ZM74.5512 32.8298C75.2332 32.778 75.4801 32.8508 75.7546 32.933C76.029 33.0151 77.1731 33.2513 77.8303 33.529L77.7272 35.0297C76.5966 34.1251 74.8192 33.817 73.4104 34.4337C72.6192 34.7319 71.9718 35.595 71.8379 36.4076C71.7557 36.7833 71.7557 37.1723 71.8379 37.548C72.0848 37.9802 72.1977 38.5044 72.5982 38.8536C73.6578 39.8399 75.4563 39.9019 76.7717 39.368C76.8128 38.8638 76.7815 38.3396 76.7918 37.8155L76.7199 37.7646H74.6231V36.6854L78.2724 36.6546L78.3233 40.1601C78.1281 40.3244 77.378 40.561 77.1619 40.6021C75.9282 41.0231 74.26 41.1566 73.0375 40.6833L72.7943 40.6021C71.3856 40.006 70.1621 38.7103 70.1831 37.0247C70.1421 35.391 71.3673 33.8824 72.5469 33.4072C73.7269 32.9302 73.8702 32.8816 74.5512 32.8298ZM34.9994 33.5701L40.1596 37.97L40.1801 33.2L41.7116 33.1799L41.7424 34.7105L41.763 40.9499C41.4857 41.053 41.3209 40.6007 41.0437 40.6516C40.9718 40.6105 41.074 40.5797 41.074 40.5284C39.3063 39.0379 37.4971 37.4752 35.6678 35.9647L35.6473 40.7235H34.1363L34.1158 32.9526C34.5573 32.8298 34.6292 33.4362 34.9994 33.5701ZM21.1436 33.0557C21.6062 33.2929 22.2125 33.375 22.6956 33.6728C22.613 34.1251 22.5719 34.6082 22.5206 35.0806C21.7602 34.4332 20.7015 34.0122 19.5397 34.2171C18.44 34.3921 17.3608 35.2244 17.1139 36.3348C16.8982 37.3734 17.1961 38.3695 17.9364 39.0281C18.9334 39.8707 20.5265 39.9426 21.7088 39.3465C22.1098 39.1724 22.4183 38.8942 22.7675 38.6272C22.7572 39.1206 22.8086 39.7577 22.6956 40.2618C22.4179 40.4061 22.0888 40.5078 21.8834 40.7039C21.5852 40.6829 21.3079 40.8369 21.0199 40.878C20.1255 41.1142 19.0772 40.9811 18.2552 40.7039H18.0288L18.0596 40.6829C17.597 40.4159 17.0523 40.1279 16.6513 39.7885C15.6851 38.8942 15.202 37.4248 15.5413 36.037C15.9731 34.5055 17.3912 33.4572 18.8713 33.0557V33.0767C18.9432 32.9115 19.1696 33.2 19.2415 33.0357C19.8688 32.9017 20.5886 33.0669 21.1436 33.0557ZM55.7215 39.5416H59.5752V40.7039H54.1181V33.2C54.7552 33.2308 55.1254 33.1589 55.6799 33.2L55.7215 39.5416ZM80.6165 33.2C81.3456 34.2175 82.2194 35.174 83.0624 36.1402L85.6012 33.2312L87.3278 33.2004C86.1352 34.506 85.0047 35.8937 83.7505 37.2301V40.7043H82.1466V37.3221L78.8372 33.2826C78.8162 33.2518 78.755 33.2107 78.8162 33.1804L80.6165 33.2ZM31.8953 40.6007C32.0083 40.6208 31.8542 40.6619 31.8748 40.7239H30.3433L30.2919 40.6521H30.3125L30.3433 37.394L30.2714 37.3529L25.9747 37.3739L25.9542 40.7552H24.3914C24.3503 40.6931 24.3503 40.6623 24.3914 40.6012L24.4222 33.2513H25.9537V36.1915L30.3115 36.2125L30.3629 33.2312H31.8738L31.8953 40.6007ZM14.113 34.4127H10.4334L10.382 34.4845V36.2634L10.4539 36.3143L13.5683 36.2835V37.394L10.4129 37.4448V39.6448H14.1545V40.8061L8.88183 40.8271V33.3232C10.7009 33.3442 12.3761 33.2933 14.1135 33.3031V34.4127H14.113ZM7.66821 34.4127H4.63603L4.61549 40.8271L3.03218 40.8472C2.9603 40.6521 3.07326 40.4061 3.03218 40.1587V34.4332L0 34.3921V33.3227H7.66821V34.4127ZM51.9999 35.2048C52.5651 36.0982 52.6169 37.4966 52.1441 38.4629C51.2707 40.3024 49.3178 41.1142 47.2103 40.9298C46.3477 40.8495 45.5658 40.4056 45.4113 40.2614C44.3326 39.6653 43.6025 38.6169 43.4382 37.4243C43.2118 35.7285 44.1267 34.4019 45.4113 33.5697C45.8743 33.2714 46.3976 33.1584 46.9227 33.0044V32.9526C47.0357 32.9428 47.2919 33.0044 47.3638 32.9115C49.1427 32.7789 51.0957 33.4469 51.9999 35.2048ZM47.7863 34.2175C46.7678 34.2586 45.7194 34.8248 45.3193 35.77C44.8983 36.5612 45.0113 37.5998 45.4426 38.3602C46.09 39.4286 47.4166 39.8296 48.6699 39.5939C49.5745 39.368 50.2424 38.7205 50.6439 37.8873C50.9211 37.168 50.86 36.2125 50.4488 35.5745C49.8522 34.6185 48.8958 34.1765 47.7863 34.2175ZM65.3725 32.8816C65.8085 32.9302 66.1437 33.0968 66.504 33.2508C67.9734 33.775 69.0839 35.2346 69.166 36.859C69.0941 38.5348 68.1176 39.9421 66.5549 40.5284C66.5138 40.7235 66.2776 40.5592 66.1847 40.6824C65.0953 41.1137 63.6459 40.9293 62.5873 40.5592V40.5074C61.2308 39.8189 60.0074 38.4727 60.1414 36.7358C60.2847 35.019 61.4157 33.7036 62.9574 33.1794C63.2034 33.0963 63.279 32.9951 63.6977 32.9115C64.115 32.8289 64.9375 32.8326 65.3725 32.8816ZM65.2703 34.2385C64.15 34.0845 63.0606 34.3926 62.3819 35.174C61.7545 35.9143 61.6005 37.2086 62.0416 38.1133C62.556 39.1005 63.5731 39.6658 64.7036 39.6448C65.773 39.6448 66.7593 39.0076 67.2224 38.0932C67.6537 37.2908 67.4894 36.2223 67.0683 35.4722C66.6468 34.8346 66.0204 34.4337 65.2703 34.2385Z" fill="black"/>
</svg>
