<svg width="78" height="37" viewBox="0 0 78 37" fill="none" xmlns="http://www.w3.org/2000/svg">
<path fill-rule="evenodd" clip-rule="evenodd" d="M3.87774 32.4177H6.2922V31.6994H0.597656V32.4177H3.00159V36.9997H3.87774V32.4177ZM7.76912 36.9997H12.8725V36.2709H8.64527V34.5857H11.2018V33.8876H8.64527V32.4076H12.8318V31.6994H7.76912V36.9997ZM19.4121 32.4177V33.6201L20.2883 33.4557V32.9522C20.2883 31.9656 20.0133 31.6994 19.0661 31.6994H16.1219C15.1747 31.6994 14.8893 31.977 14.8893 32.9522V35.7469C14.8893 36.7226 15.1743 36.9997 16.1219 36.9997H19.0661C20.0133 36.9997 20.2883 36.7327 20.2883 35.7469V35.1198L19.4121 34.9348V36.2595H15.7654V32.4173H19.4121V32.4177ZM22.6005 36.9997H23.4767V34.5958H27.6229V36.9997H28.4986V31.6994H27.6229V33.867H23.4767V31.6994H22.6005V36.9997ZM31.2288 36.9997H32.0334V33.8771C32.0334 33.4864 32.0233 33.1062 31.972 32.7159C32.1453 33.0141 32.3487 33.168 32.5018 33.3118L36.5462 36.9997H37.0351V31.699H36.2304V34.6059C36.2304 34.9861 36.2304 35.418 36.312 35.9113C36.098 35.6338 35.8941 35.4079 35.7108 35.2435L31.7787 31.6994H31.2288V36.9997ZM39.6938 32.9522V35.7469C39.6938 36.7327 39.9894 36.9997 40.9265 36.9997H44.5631C45.5103 36.9997 45.7852 36.7222 45.7852 35.7469V32.9522C45.7852 31.9766 45.5103 31.6994 44.5631 31.6994H40.9265C39.9894 31.6994 39.6938 31.9656 39.6938 32.9522ZM40.57 36.26V32.4177H44.9192V36.26H40.57ZM48.454 36.9997H53.3136V36.26H49.3302V31.6994H48.454V36.9997ZM54.8414 32.9522V35.7469C54.8414 36.7327 55.137 36.9997 56.0741 36.9997H59.7107C60.6579 36.9997 60.9328 36.7222 60.9328 35.7469V32.9522C60.9328 31.9766 60.6579 31.6994 59.7107 31.6994H56.0741C55.137 31.6994 54.8414 31.9656 54.8414 32.9522ZM55.7176 36.26V32.4177H60.0668V36.26H55.7176ZM68.5222 32.4177V33.1987L69.3983 33.0242V32.8904C69.3983 31.9551 69.0721 31.699 68.1657 31.699H64.7628C63.8257 31.699 63.5302 31.9652 63.5302 32.9518V35.7465C63.5302 36.7322 63.8257 36.9993 64.7628 36.9993H68.1657C69.1129 36.9993 69.3983 36.7217 69.3983 35.7465V34.0301H66.3928V34.7085H68.5218V36.2595H64.4063V32.4173H68.5222V32.4177ZM73.5546 36.9997H74.4299V34.6677L77.0688 31.6994H75.9989L74.0326 34.0621L71.9755 31.6994H70.8849L73.5546 34.6883V36.9997Z" fill="#008ED1"/>
<path d="M6.78075 15.6721V10.6458H17.1354C20.6023 10.6458 20.6023 15.6721 17.1354 15.6721H6.78075ZM0 0.000438273H18.2746C21.7411 0.000438273 21.7411 5.02669 18.2746 5.02669H4.98328V20.4812H18.2746C21.7411 20.4812 21.7411 25.5071 18.2746 25.5071H0V0.000438273ZM59.0341 11.2909H67.39L65.2992 5.02625H60.0532L53.0216 23.8775C51.8013 27.1493 47.1486 25.3816 48.3686 22.1099L56.7819 0H68.5543L76.273 22.198C77.3785 25.5136 72.6662 27.0997 71.5625 23.7885L69.0682 16.3167H57.1581L59.0341 11.2909ZM27.904 22.9939C27.904 26.4911 22.9203 26.4911 22.9203 22.9939V2.51312C22.9203 1.25678 24.1661 0 25.4123 0H40.5919C42.7306 0 44.6741 0.880975 46.0813 2.30001C47.5434 3.77139 48.3634 5.76191 48.362 7.83625C48.362 9.99374 47.4885 11.9535 46.0813 13.3725C45.2551 14.2073 44.2509 14.8444 43.1437 15.2362L45.6015 22.1498C46.7724 25.443 42.0798 27.1269 40.9107 23.839L38.0065 15.6725H29.7554V10.6458H40.5915C41.3554 10.6458 42.0518 10.3288 42.5569 9.81877C43.0816 9.2923 43.3766 8.57954 43.3774 7.83625C43.3765 7.09298 43.0816 6.38025 42.5569 5.85373C42.3005 5.5925 41.9947 5.38482 41.6573 5.24277C41.3199 5.10072 40.9576 5.02712 40.5915 5.02625H27.904V22.9939Z" fill="#008ED1"/>
</svg>
