<svg width="102" height="38" viewBox="0 0 102 38" fill="none" xmlns="http://www.w3.org/2000/svg">
<rect width="102" height="37.4131" rx="8" fill="white"/>
<path d="M77.0725 18.4433H74.6755C73.1324 18.4433 72.3057 19.5971 72.3057 21.5199V28.4706H67.7595V18.4426H65.8302C64.2871 18.4426 63.4611 19.5964 63.4611 21.5192V28.4699H58.9142V14.7343H63.4611V16.8223C64.2054 15.2014 65.2249 14.7343 66.7407 14.7343H72.3064V16.8223C73.0507 15.2014 74.0701 14.7343 75.586 14.7343H77.0732V18.4433H77.0725ZM57.922 22.6737H48.4435C48.6914 24.2123 49.6557 25.0915 51.2812 25.0915C52.4933 25.0915 53.3479 24.5965 53.6237 23.718L57.6462 24.844C56.6548 27.2339 54.2019 28.6902 51.2812 28.6902C46.3488 28.6902 44.0893 24.8711 44.0893 21.6028C44.0893 18.3889 46.073 14.5426 51.0053 14.5426C56.2407 14.5426 57.9765 18.4433 57.9765 21.3281C57.9799 21.7773 57.9618 22.2263 57.922 22.6737ZM53.5134 20.0091C53.4031 18.8274 52.5484 17.7294 51.006 17.7294C49.5726 17.7294 48.7193 18.3603 48.4435 20.0091H53.5134ZM36.1546 28.4699H40.1492L45.1367 14.7357H40.5633L38.1383 22.7287L35.6582 14.735H31.1113L36.1546 28.4699ZM17.5278 28.4699H22.0468V18.4433H26.3465V28.4706H30.8376V14.735H22.0468V13.8838C22.0468 12.9496 22.708 12.373 23.7554 12.373H26.3458V8.66406H23.0118C19.7322 8.66406 17.5278 10.6698 17.5278 13.6084V14.735H14.9653V18.4439H17.5278V28.4699Z" fill="#252525"/>
<path d="M79.8773 28.9042C81.4255 28.9042 82.6806 27.6487 82.6806 26.1002C82.6806 24.5517 81.4255 23.2969 79.8773 23.2969C78.329 23.2969 77.0732 24.5524 77.0732 26.1009C77.0732 27.6494 78.329 28.9042 79.8773 28.9042Z" fill="#1DBF73"/>
<path d="M87.7469 12.6693C87.7469 10.4664 86.0113 8.66406 83.8084 8.66406C81.6723 8.66406 79.9033 10.433 79.9033 12.6693C79.9033 14.8722 81.6389 16.6745 83.8084 16.6745C86.0113 16.7079 87.7469 14.9056 87.7469 12.6693ZM83.8084 15.5731C82.3065 15.5731 81.1383 14.3048 81.1383 12.6693C81.1383 11.0672 82.3065 9.79888 83.8084 9.79888C85.3438 9.79888 86.5453 11.0672 86.5453 12.6693C86.5453 14.3048 85.3438 15.5731 83.8084 15.5731Z" fill="#252525"/>
<path d="M84.8766 13.0029C85.0769 12.9361 85.5108 12.6357 85.5108 12.0015C85.5108 11.2339 85.0101 10.7666 84.1757 10.7666H82.4067V14.5382H83.5749V13.2699H83.8753L84.4094 14.5382H85.6777L84.9768 13.2365C84.91 13.0362 84.8766 13.0029 84.8766 13.0029ZM83.8753 12.4688H83.5749V11.5676H83.8753C84.1423 11.5676 84.2759 11.7012 84.2759 12.0015C84.3092 12.3019 84.1423 12.4688 83.8753 12.4688Z" fill="#252525"/>
</svg>
