<svg width="102" height="38" viewBox="0 0 102 38" fill="none" xmlns="http://www.w3.org/2000/svg">
<rect width="102" height="37.4131" rx="8" fill="white"/>
<path d="M19.2236 12.0016L7 11.3723L14.9664 19.2801L19.2236 12.0016ZM13.1083 11.1582L18.7467 11.5305L11.7592 9L13.1083 11.1582ZM20.1669 11.5305L23.1712 9L25.1966 11.6886L20.1669 11.5305ZM19.8288 12.0313L15.4042 19.5931L19.423 23.6853L23.9437 19.7809L25.1931 12.2817L19.8288 12.0313ZM15.6427 20.7792L13.5141 29L19.0492 24.1236L15.6427 20.7792ZM23.812 9.12521L25.9726 11.6886L36 9.12521H23.812Z" fill="#29B2FE"/>
<path d="M33.676 13C33.6795 13.6533 33.6372 14.3032 33.549 14.9497C32.847 14.9734 31.9686 14.7297 31.9933 15.8873C33.0728 15.8636 33.3621 15.8873 33.3621 15.8873C33.3621 15.8873 33.3127 17.9352 31.7041 17.8573C31.1255 20.9884 30.5752 23.7335 30.5752 23.7335H28L29.404 14.9768C29.404 14.9768 29.7286 13.1963 31.4113 13.0068L33.676 13ZM32.5472 23.7403L33.9018 15.7485H36.2618L36.4452 16.3511C36.4452 16.3511 37.0379 15.5556 38.8194 15.7485C38.3925 17.6983 38.3184 17.9894 38.3184 17.9894C38.3184 17.9894 36.3606 17.7964 36.2089 18.3989C36.0572 19.0014 35.2811 23.7437 35.2811 23.7437L32.5472 23.7403ZM53.4486 17.1905C52.923 16.2766 51.967 15.4405 49.7093 15.7147C47.4516 15.9889 45.8324 18.1214 45.9452 21.0155C46.1745 23.4221 47.956 23.8486 48.5804 23.9299C52.8207 24.4105 52.8736 22.2916 52.8983 21.4961C52.0199 21.4961 51.6072 21.513 51.2403 21.5198C51.1344 21.8515 49.4165 21.6891 49.4165 21.6891C49.4165 21.6891 48.7639 21.6417 48.7145 20.5348H53.4592C53.4557 20.5348 53.9777 18.1078 53.4486 17.1905ZM51.0145 19.1402C50.5383 19.1876 48.9332 19.1402 48.9332 19.1402C49.5611 16.7572 51.2897 17.793 51.0145 19.1402ZM86.771 17.1905C86.2453 16.2766 85.2893 15.4405 83.0316 15.7147C80.7739 15.9889 79.1547 18.1214 79.2676 21.0155C79.4969 23.4221 81.2784 23.8486 81.9028 23.9299C86.143 24.4105 86.1959 22.2916 86.2206 21.4961C85.3422 21.4961 84.9295 21.513 84.5626 21.5198C84.4568 21.8515 82.7388 21.6891 82.7388 21.6891C82.7388 21.6891 82.0862 21.6417 82.0368 20.5348H86.7745C86.771 20.5348 87.286 18.1078 86.771 17.1905ZM84.3369 19.1402C83.8606 19.1876 82.2555 19.1402 82.2555 19.1402C82.8729 16.7572 84.605 17.793 84.3263 19.1402H84.3369Z" fill="black"/>
<path d="M45.4448 17.0594C44.9236 16.1313 43.9758 15.2823 41.7374 15.5608C39.499 15.8392 37.8936 18.0047 38.0055 20.9435C38.2328 23.3874 39.9991 23.8205 40.6182 23.903C44.8222 24.3911 44.8747 22.2394 44.8992 21.4316C44.0283 21.4316 43.6191 21.4488 43.2553 21.4557C43.1504 21.7925 41.4471 21.6275 41.4471 21.6275C41.4471 21.6275 40.8 21.5794 40.7511 20.4554H45.4483C45.4448 20.4554 45.9694 17.9909 45.4448 17.0594ZM43.028 19.0393C42.5558 19.0874 40.9644 19.0393 40.9644 19.0393C41.5975 16.6194 43.3043 17.6712 43.028 19.0393ZM54.8882 13L53.1709 23.7071H55.9094L57.7491 13H54.8882ZM64.0692 23.7105L65.4612 15.5642H67.899V16.1863C67.899 16.1863 68.7454 15.2823 70.9839 15.5642C73.2223 15.8426 72.1031 19.7508 72.1031 19.7508L71.505 23.7174H68.8189C68.8189 23.7174 69.4414 19.7164 69.5639 18.6543C69.4379 17.4547 67.9969 17.5062 67.6472 18.3621C67.4723 19.4139 66.6784 23.7174 66.6784 23.7174L64.0692 23.7105ZM76.1847 17.8912H78.647L78.8743 16.3032C78.8743 16.3032 79.1716 15.5711 78.1293 15.5573C77.0871 15.5436 75.5167 15.5573 75.5167 15.5573C75.5167 15.5573 72.4563 15.9835 72.6312 21.8784C72.7921 22.9302 73.607 23.7724 74.6668 23.9786C74.8941 24.0267 76.475 23.9786 76.475 23.9786C76.475 23.9786 78.2413 23.7552 77.9929 21.5828C76.1532 21.631 75.3803 21.7066 75.2788 21.191C75.1739 20.6788 75.4887 18.0871 76.1847 17.8912ZM86.7823 18.2796L90 15.5539L88.7724 23.7105H86.0548L86.7823 18.2796Z" fill="black"/>
<path d="M91.3715 16.0603L91 20L95 16L91.3715 16.0603Z" fill="#29B2FE"/>
<path d="M62.8805 16.0047C60.4097 15.9884 59.8402 16.021 58.9189 16.0047C57.9934 15.9884 57.3694 17.0587 57.428 18.1942H61.218C61.218 18.1942 61.6032 18.1486 61.6367 18.4063C61.6535 18.6543 61.6535 18.9023 61.6367 19.1503H58.8895C58.8895 19.1503 55.0159 19.4277 56.2387 23.0726C56.4774 23.6306 57.6667 24.0189 58.3242 23.9993C58.9817 23.9797 60.6191 23.5131 60.8871 23.3271L60.9164 23.7676L63.8353 23.7448C63.8353 23.7448 64.8194 18.9872 64.9367 18.5923C65.054 18.1975 65.2633 16.6736 62.8805 16.0047ZM60.326 22.0545C59.1743 22.0545 59.0152 21.1865 59.9323 20.7231C60.8452 20.4132 61.4022 20.5991 61.4022 20.5991C61.4022 20.5991 61.4441 22.0871 60.326 22.0545Z" fill="black"/>
</svg>
