<svg width="144" height="29" viewBox="0 0 144 29" fill="none" xmlns="http://www.w3.org/2000/svg">
<path fill-rule="evenodd" clip-rule="evenodd" d="M34.3469 9.82056L26.1279 28.3992H32.1587L38.1024 15.5458L34.3469 9.82056Z" fill="black"/>
<path fill-rule="evenodd" clip-rule="evenodd" d="M48.7747 28.3992L45.5513 22.9713L37.7502 22.9803L41.2054 15.5332L35.8315 6.57642L38.5149 0.432373L55.3448 28.3992H48.7747ZM80.1061 9.82054L71.887 28.3992H77.9178L83.8624 15.5458L80.1061 9.82054Z" fill="black"/>
<path fill-rule="evenodd" clip-rule="evenodd" d="M94.5359 28.3992L91.3116 22.9713L83.5104 22.9803L86.9657 15.5332L81.5918 6.57642L84.2752 0.432373L101.106 28.3992H94.5359ZM115.875 28.3992L99.3922 0.456637L105.616 0.432373L122.445 28.3992H115.875ZM130.75 7.9172L125.699 0.432373L119.479 0.456637L127.099 13.053L130.75 7.9172Z" fill="black"/>
<path fill-rule="evenodd" clip-rule="evenodd" d="M111.394 6.10643L114.841 0.432373L121.064 0.456637L114.674 11.3383L111.394 6.10643ZM133.741 27.9579H129.29L129.178 14.3794L137.778 0.432373L144 0.456637L133.855 17.1175L133.741 27.9579ZM109.015 20.9754L104.582 28.3992H98.0107L105.637 15.6563L109.015 20.9754ZM55.91 0.432373V28.3992H62.5357V0.432373H55.91ZM64.776 28.3992H70.7565V21.6243H64.776V28.3992ZM13.6934 11.7958H27.9585V17.8005H13.6934V11.7958Z" fill="black"/>
<path fill-rule="evenodd" clip-rule="evenodd" d="M20.4262 8.21632C19.0693 6.17999 16.66 5.93286 14.4916 5.93286C10.7262 5.93286 6.16202 8.10129 6.16202 14.9481C6.16202 21.794 10.613 23.0503 14.2642 23.0503C17.9154 23.0503 19.5141 21.7958 20.1989 20.198H26.4741C26.4741 22.9371 22.4796 28.6417 14.834 28.6417C7.18917 28.6417 0 23.8492 0 15.064C0 8.78607 5.01984 0 13.4653 0C21.9099 0 23.9633 3.19559 25.1055 4.56513L20.4262 8.21632Z" fill="black"/>
</svg>
