<svg width="73" height="25" viewBox="0 0 73 25" fill="none" xmlns="http://www.w3.org/2000/svg">
<path d="M8.95258 0.485352H9.599C11.8432 0.534138 14.0507 1.43668 15.6363 3.03442C15.0508 3.63205 14.4532 4.20528 13.88 4.80291C12.9896 3.99794 11.9163 3.37592 10.7455 3.15638C9.01357 2.79049 7.1475 3.1198 5.69612 4.10771C4.11058 5.14441 3.03728 6.90071 2.80555 8.77897C2.54942 10.6328 3.07387 12.5843 4.28133 14.0235C5.43999 15.4261 7.20848 16.3042 9.03796 16.3652C10.7455 16.4628 12.5262 15.9383 13.7702 14.7431C14.7459 13.9015 15.1972 12.6209 15.3435 11.3768C13.3189 11.3768 11.2943 11.389 9.26969 11.3768V8.86434H17.795C18.2341 11.5598 17.5999 14.5967 15.5509 16.5237C14.1849 17.8898 12.2944 18.6947 10.3674 18.8533C8.50131 19.0362 6.57427 18.6825 4.91554 17.78C2.92751 16.7189 1.34197 14.926 0.561394 12.816C-0.170396 10.8768 -0.182593 8.6814 0.500411 6.72996C1.12243 4.94927 2.31769 3.37592 3.85445 2.27824C5.33022 1.19275 7.12311 0.59512 8.95258 0.485352Z" fill="#3780FF"/>
<path d="M57.8604 1.12012H60.4704V18.5367C59.6044 18.5367 58.7263 18.5489 57.8604 18.5245C57.8725 12.7312 57.8604 6.92565 57.8604 1.12012Z" fill="#38B137"/>
<path d="M23.6004 7.15702C25.2104 6.85211 26.9545 7.19361 28.2839 8.15713C29.4913 9.01089 30.3329 10.3525 30.589 11.8161C30.9183 13.5114 30.5037 15.3653 29.406 16.7069C28.2229 18.207 26.2837 19.012 24.3932 18.89C22.6613 18.7925 20.9782 17.9265 19.9537 16.5117C18.795 14.9506 18.5145 12.804 19.1487 10.9745C19.7829 9.01089 21.5758 7.51072 23.6004 7.15702ZM23.9663 9.47435C23.3077 9.64511 22.6979 10.0232 22.2588 10.5598C21.0758 11.9746 21.1489 14.2798 22.454 15.597C23.198 16.3532 24.32 16.7069 25.3567 16.4995C26.3203 16.3288 27.1618 15.6824 27.6253 14.8286C28.4303 13.3772 28.1985 11.377 26.9667 10.2427C26.1739 9.51094 25.0152 9.20603 23.9663 9.47435Z" fill="#FA3913"/>
<path d="M36.5287 7.15694C38.3704 6.80324 40.3828 7.3155 41.761 8.60832C44.0052 10.6207 44.2491 14.3895 42.3343 16.7068C41.1756 18.1704 39.2973 18.9753 37.4435 18.89C35.675 18.8412 33.9309 17.963 32.882 16.5117C31.6989 14.9139 31.4428 12.7185 32.1136 10.8525C32.7844 8.94983 34.5407 7.49844 36.5287 7.15694ZM36.8946 9.47428C36.236 9.64503 35.6262 10.0231 35.1871 10.5476C34.0163 11.938 34.065 14.2065 35.3213 15.5359C36.0653 16.3287 37.2239 16.719 38.2972 16.4995C39.2486 16.3165 40.1023 15.6823 40.5658 14.8285C41.3585 13.365 41.1268 11.3647 39.8828 10.2305C39.09 9.49867 37.9313 9.20595 36.8946 9.47428Z" fill="#FCBD06"/>
<path d="M47.4935 7.86472C48.8961 6.98657 50.7621 6.74264 52.2745 7.49882C52.7502 7.70616 53.1405 8.05986 53.5185 8.41356C53.5307 8.08425 53.5185 7.74275 53.5307 7.40125C54.3479 7.41345 55.1651 7.40125 55.9944 7.41345V18.1708C55.9822 19.7929 55.5676 21.5126 54.3967 22.6957C53.1161 24.0007 51.1524 24.4032 49.3839 24.1348C47.4935 23.8543 45.8469 22.4761 45.1152 20.732C45.8469 20.3783 46.6153 20.0978 47.3715 19.7685C47.7984 20.7686 48.6643 21.6224 49.7498 21.8175C50.8353 22.0127 52.0916 21.7443 52.799 20.8418C53.5551 19.9149 53.5551 18.6464 53.5185 17.5121C52.9575 18.061 52.3111 18.5489 51.5305 18.7318C49.8352 19.2075 47.9691 18.622 46.6641 17.4756C45.3469 16.3291 44.5663 14.5606 44.6395 12.8043C44.6761 10.8163 45.7982 8.90142 47.4935 7.86472ZM50.0182 9.42587C49.2742 9.54783 48.579 9.96252 48.1033 10.5358C46.9568 11.9018 46.9568 14.0849 48.1155 15.4265C48.7741 16.2193 49.8352 16.6584 50.8597 16.5486C51.8232 16.4511 52.7136 15.8412 53.1892 14.9997C53.9942 13.5727 53.86 11.6334 52.7746 10.3894C52.1038 9.62101 51.0305 9.24292 50.0182 9.42587Z" fill="#3780FF"/>
<path d="M63.6051 8.48654C65.0687 7.12053 67.325 6.65706 69.2033 7.37666C70.984 8.04747 72.1183 9.74278 72.6915 11.4869C70.0448 12.5846 67.4104 13.6701 64.7638 14.7677C65.1297 15.4629 65.6907 16.0972 66.4469 16.3533C67.508 16.7314 68.7764 16.5972 69.6668 15.8898C70.0205 15.6215 70.301 15.2678 70.5693 14.9263C71.2401 15.3776 71.9109 15.8166 72.5817 16.2679C71.6304 17.6949 70.0326 18.695 68.3129 18.8536C66.4103 19.0853 64.3857 18.3535 63.1538 16.8655C61.1292 14.5238 61.3244 10.5965 63.6051 8.48654ZM64.9101 10.7429C64.4954 11.3405 64.3247 12.0723 64.3369 12.7919C66.1054 12.0601 67.8739 11.3283 69.6424 10.5843C69.3496 9.90133 68.6423 9.48665 67.9227 9.37688C66.764 9.16954 65.5565 9.79156 64.9101 10.7429Z" fill="#FA3913"/>
</svg>
