<svg width="102" height="38" viewBox="0 0 102 38" fill="none" xmlns="http://www.w3.org/2000/svg">
<rect width="102" height="37.4131" rx="8" fill="white"/>
<path d="M61.8794 12.8271V17.7721C61.8794 19.4614 59.8522 20.8742 57.4258 20.8742C54.9994 20.8742 52.9723 19.4614 52.9723 17.7721V12.8886H51.1602V17.7414C51.1602 20.4442 53.9858 22.6556 57.4258 22.6556C60.8965 22.6556 63.6915 20.4442 63.6915 17.7414V12.8271H61.8794Z" fill="black"/>
<path d="M87.1879 12.8271V17.7721C87.1879 19.4614 85.1608 20.8742 82.7344 20.8742C80.308 20.8742 78.2809 19.4614 78.2809 17.7721V12.8886H76.4688V17.7414C76.4688 20.4442 79.2944 22.6556 82.7344 22.6556C86.2051 22.6556 89 20.4442 89 17.7414V12.8271H87.1879Z" fill="black"/>
<path d="M66.8551 22.6864H65.043V12.8271H66.8551V16.82C69.6808 13.1343 74.8407 12.8271 74.9022 12.8271L74.9944 14.6393C74.6565 14.67 66.8552 15.1307 66.8552 22.6864H66.8551Z" fill="black"/>
<path d="M48.2426 12.8271V14.3014C47.1062 13.4107 45.5398 12.8271 43.7891 12.8271C40.3184 12.8271 37.5234 15.0386 37.5234 17.7414C37.5234 20.4442 40.3491 22.6556 43.7891 22.6556C45.5398 22.6556 47.1062 22.1028 48.2426 21.1813V22.5021C48.2426 24.1913 46.2155 25.6042 43.7891 25.6042C41.8541 25.6042 40.1648 24.6827 39.5813 23.4542L37.8306 24.007C38.6291 26.0035 41.0248 27.447 43.7891 27.447C47.1677 27.447 49.9319 25.3278 50.0548 22.6864V12.8271H48.2426ZM43.7891 20.8435C41.3627 20.8435 39.3356 19.4307 39.3356 17.7414C39.3356 16.0521 41.3627 14.6393 43.7891 14.6393C46.2155 14.6393 48.2426 16.0521 48.2426 17.7414C48.2426 19.4307 46.2155 20.8435 43.7891 20.8435Z" fill="black"/>
<path d="M26.3127 20.4124C27.1727 20.6273 28.002 20.9038 28.8006 21.303C29.5991 21.6716 30.3056 22.1323 30.9813 22.6545C31.657 23.1766 32.2713 23.7602 32.8548 24.4052C33.4384 25.0502 33.9298 25.7259 34.3598 26.4937H31.1348C30.6434 25.9101 30.1213 25.388 29.5377 24.9273C28.9541 24.4666 28.3092 24.0673 27.6334 23.7295C26.9577 23.3916 26.2513 23.1459 25.5142 22.9616C24.7771 22.7774 24.0092 22.6852 23.1799 22.6852C22.3506 22.6852 21.5828 22.7774 20.8149 22.9616C20.0471 23.1458 19.3407 23.3916 18.6957 23.7295C18.0199 24.0673 17.4057 24.4666 16.8221 24.9273C16.2385 25.388 15.6857 25.9101 15.225 26.4937H12C12.43 25.7259 12.9214 25.0502 13.505 24.3745C14.0885 23.7295 14.7028 23.1459 15.4093 22.6238C16.1157 22.1016 16.8528 21.6716 17.6207 21.303C18.4192 20.9345 19.2485 20.6274 20.1085 20.4124C19.3407 20.2281 18.6342 19.9823 17.9892 19.6752C17.3135 19.3681 16.6993 18.9995 16.085 18.5695C15.4707 18.1395 14.9178 17.6788 14.3957 17.1567C13.8735 16.6345 13.4129 16.0509 12.9829 15.4674C13.1978 15.1295 13.4129 14.8224 13.6893 14.5152C13.935 14.2081 14.2114 13.9317 14.4878 13.6553C14.7643 13.3788 15.0407 13.0717 15.3785 12.826C15.6857 12.5803 15.9928 12.3345 16.3 12.1195C16.3306 11.8431 16.3922 11.5974 16.5149 11.3824C16.6378 11.1675 16.7913 10.9524 16.9756 10.7681C17.1598 10.5839 17.3749 10.4303 17.6206 10.3381C17.8663 10.2459 18.112 10.1846 18.3884 10.1846C18.6956 10.1846 18.972 10.2459 19.2177 10.3688C19.4634 10.4917 19.7091 10.6452 19.8934 10.8295C20.0777 11.0138 20.262 11.2595 20.3541 11.5053C20.5384 11.7817 20.5999 12.0581 20.5999 12.3652C20.5999 12.6724 20.5385 12.9488 20.4156 13.1945C20.2927 13.4402 20.1392 13.6859 19.9549 13.8702C19.7707 14.0545 19.5249 14.2081 19.2792 14.3309C19.0335 14.4232 18.757 14.4845 18.4499 14.4845C18.3886 14.4845 18.327 14.4845 18.235 14.4845C18.1737 14.4845 18.0814 14.4845 18.0201 14.4538C17.9587 14.4538 17.8972 14.4231 17.8052 14.3925C17.7438 14.3618 17.6516 14.3311 17.5903 14.3003C17.4674 14.3925 17.3445 14.4845 17.2524 14.5767C17.1602 14.6689 17.0375 14.7609 16.9145 14.8531C16.7916 14.9453 16.6688 15.0373 16.5767 15.1295C16.4845 15.2218 16.3618 15.3138 16.2695 15.4367C16.7303 15.8667 17.191 16.2659 17.7131 16.6038C18.2352 16.9724 18.7881 17.2795 19.3717 17.4945C19.9552 17.7402 20.5695 17.9245 21.2145 18.0474C21.8595 18.1703 22.5352 18.2623 23.1802 18.2623C23.8559 18.2623 24.5009 18.2009 25.1459 18.0474C25.7909 17.9245 26.4052 17.7095 26.9887 17.4945C27.5723 17.2488 28.1252 16.9417 28.6473 16.6038C29.1694 16.2352 29.6301 15.8359 30.0908 15.4367H30.1215C30.1215 15.406 30.1215 15.3753 30.1215 15.3445C30.1215 15.3138 30.1215 15.2831 30.1215 15.2522C30.1215 15.2216 30.1215 15.1909 30.1215 15.16C30.1215 15.1293 30.1215 15.0987 30.1215 15.0678C30.1215 14.7606 30.1828 14.4842 30.2751 14.2077C30.3673 13.9313 30.5515 13.6856 30.7358 13.4706C30.9507 13.2557 31.1965 13.102 31.4729 13.0099C31.7494 12.9177 32.0258 12.8563 32.3329 12.8563C32.6401 12.8563 32.9165 12.9177 33.1929 13.0099C33.4693 13.1021 33.6843 13.2863 33.8993 13.4706C34.0836 13.6855 34.2679 13.9313 34.3601 14.2077C34.483 14.4842 34.5443 14.7606 34.5443 15.0678C34.5443 15.3749 34.483 15.6513 34.3601 15.9277C34.2372 16.2041 34.0836 16.4192 33.8993 16.6342C33.7151 16.8184 33.4693 17.0027 33.1929 17.0949C32.9165 17.2178 32.6401 17.2791 32.3329 17.2791C32.2716 17.2791 32.2407 17.2791 32.21 17.2791C32.1794 17.2791 32.1487 17.2791 32.0871 17.2791C32.0565 17.2791 31.9949 17.2791 31.9642 17.2484C31.9336 17.2484 31.9029 17.2178 31.8413 17.2178C31.4728 17.5863 31.0735 17.9242 30.6435 18.262C30.2135 18.5999 29.7528 18.9071 29.2921 19.1528C28.8314 19.4292 28.3399 19.6749 27.8178 19.8899C27.3878 20.1356 26.8349 20.2892 26.3128 20.412L26.3127 20.4124Z" fill="black"/>
<path d="M21.8285 12.6724C21.8285 12.6417 21.8285 12.611 21.8285 12.5801C21.8285 12.5495 21.8285 12.5188 21.8285 12.4879C21.8285 12.4572 21.8285 12.4266 21.8285 12.3957C21.8285 12.365 21.8285 12.3343 21.8285 12.3034C21.8285 12.1192 21.7978 11.9349 21.7978 11.7506C21.7671 11.5664 21.7365 11.3513 21.6749 11.1978C21.6136 11.0135 21.5213 10.8292 21.4292 10.6756C21.337 10.522 21.2143 10.3378 21.1221 10.2149C21.2756 10.1842 21.4292 10.1535 21.6135 10.1535C21.7977 10.1535 21.982 10.1229 22.1663 10.1229C22.3506 10.1229 22.5349 10.0922 22.7192 10.0922C22.8728 10 23.057 10 23.2106 10C23.8863 10 24.5313 10.0613 25.1763 10.1535C25.8213 10.2458 26.4356 10.3993 27.0499 10.6143C27.6642 10.7985 28.2477 11.0443 28.8006 11.3514C29.3534 11.6278 29.9063 11.9657 30.3977 12.3343C30.2134 12.4572 30.0598 12.6107 29.9063 12.7642C29.7527 12.9178 29.6298 13.1021 29.507 13.2864C29.4147 13.4706 29.2921 13.6549 29.1998 13.8699C29.1076 14.0849 29.0463 14.3 29.0156 14.515C28.6163 14.2078 28.1863 13.9314 27.7256 13.6857C27.2649 13.4399 26.7735 13.2557 26.3128 13.0714C25.8213 12.9178 25.3299 12.7949 24.8078 12.7028C24.2857 12.6415 23.7328 12.5799 23.2107 12.5799C23.0878 12.5799 22.965 12.5799 22.8421 12.5799C22.7192 12.5799 22.5964 12.5799 22.4735 12.5799C22.3506 12.5799 22.2278 12.5799 22.1357 12.6106C22.0434 12.6106 21.9514 12.6412 21.8285 12.6719L21.8285 12.6724Z" fill="#2777C6"/>
<path d="M21.1836 15.6206C21.1836 15.3135 21.2449 15.0371 21.3678 14.7914C21.4907 14.5457 21.6443 14.2999 21.8285 14.1157C22.0128 13.9314 22.2585 13.7471 22.5042 13.655C22.75 13.5321 23.0264 13.4707 23.3335 13.4707C23.6407 13.4707 23.9171 13.5321 24.1935 13.655C24.47 13.7779 24.685 13.9314 24.9 14.1157C25.0842 14.2999 25.2378 14.5457 25.3607 14.7914C25.4529 15.0371 25.5142 15.3135 25.5142 15.6206C25.5142 15.9278 25.4529 16.2042 25.3607 16.4499C25.2684 16.6956 25.1149 16.9414 24.9 17.1256C24.7157 17.3099 24.47 17.4942 24.1935 17.5863C23.9171 17.7093 23.6407 17.7706 23.3335 17.7706C23.0264 17.7706 22.75 17.7093 22.5042 17.5863C22.2585 17.4634 22.0128 17.3099 21.8285 17.1256C21.6443 16.9414 21.46 16.6956 21.3678 16.4499C21.2449 16.2042 21.1836 15.9278 21.1836 15.6206Z" fill="black"/>
</svg>
