<svg width="103" height="44" viewBox="0 0 103 44" fill="none" xmlns="http://www.w3.org/2000/svg">
<path fill-rule="evenodd" clip-rule="evenodd" d="M38.0818 0H43.8369V6.08183H38.0818V0ZM6.93848 44L38.0818 27.2652V7.42832H43.8369V24.1631L46.2861 22.8566V11.7957C46.2861 9.30586 47.96 7.42832 50.4904 7.42832H73.2258V14.6123L55.7551 23.7145H72.9809V28.368H46.9391L43.8369 30V39.1434C43.8369 44 41.8781 44 38.0818 44H6.93848ZM38.0818 33.0203L26.4086 39.1434H37.0615C37.6332 39.1434 38.0818 38.6941 38.0818 38.1225V33.0203ZM0 7.42832H5.75508V28.368H0V7.42832ZM0 0H5.75508V6.08183H0V0ZM53.9187 12.7348C52.7353 12.7348 51.7969 13.6738 51.7969 14.816V19.9182L65.1434 12.7348H53.9187ZM75.1846 7.42832H97.1439C99.675 7.42832 101.716 9.46953 101.716 11.9594V28.368H95.9199V14.7348C95.9191 14.2047 95.7083 13.6965 95.3335 13.3216C94.9587 12.9467 94.4506 12.7357 93.9205 12.7348H81.0627V28.368H75.1852V7.42832H75.1846ZM8.08183 7.42832V28.368H14.0006V12.7348H26.8578C27.388 12.7355 27.8963 12.9465 28.2712 13.3214C28.6461 13.6963 28.857 14.2046 28.8578 14.7348V28.3674H34.6135V11.9594C34.6135 9.46953 32.5728 7.42832 30.083 7.42832H8.08183Z" fill="black"/>
<path fill-rule="evenodd" clip-rule="evenodd" d="M44.2456 30.653H49.4296V32.0413H47.7151V36.2044H46.0013V32.0413H44.2462V30.653H44.2456ZM49.9189 30.653H54.4899V31.837H51.5915V32.7349H54.2862V33.8782H51.5915V34.9392H54.5718V36.2044H49.9189V30.653ZM58.8985 33.9595L60.4087 34.4075C60.2862 34.8161 60.1231 35.1835 59.9189 35.469C59.7144 35.7503 59.4301 35.9637 59.1028 36.0814C58.7767 36.2444 58.3681 36.3263 57.8788 36.3263C57.2665 36.3263 56.7761 36.2444 56.4099 36.0407C56.0413 35.8782 55.6739 35.5509 55.4296 35.1429C55.144 34.6942 54.981 34.1226 54.981 33.4284C54.981 32.4899 55.2259 31.7964 55.7157 31.3065C56.2067 30.8167 56.8991 30.5718 57.7981 30.5718C58.4917 30.5718 59.0634 30.6937 59.4302 30.9792C59.8382 31.2653 60.1649 31.7145 60.328 32.2856L58.8179 32.653C58.7772 32.4487 58.736 32.3269 58.6548 32.245C58.5729 32.1226 58.4505 32.0407 58.3286 31.9595C58.1773 31.8806 58.0094 31.8386 57.8388 31.837C57.4714 31.837 57.1452 32.0001 56.9409 32.3269C56.7767 32.5718 56.7355 32.9392 56.7355 33.4284C56.7355 34.0413 56.8173 34.4493 56.9815 34.6942C57.1858 34.8985 57.4302 35.0204 57.7975 35.0204C58.1237 35.0204 58.3686 34.9386 58.5323 34.7349C58.6948 34.5718 58.8173 34.2862 58.8985 33.9595ZM60.9392 30.653H62.6542V32.6124H64.5312V30.653H66.245V36.2038H64.5312V33.9595H62.6542V36.2038H60.9392V30.653ZM67.1023 30.653H68.6948L70.8167 33.7552V30.653H72.4093V36.2038H70.8167L68.7354 33.1835V36.2038H67.1023V30.653ZM73.0628 33.4284C73.0628 32.5306 73.3077 31.837 73.7976 31.3472C74.328 30.8167 75.0216 30.5718 75.9194 30.5718C76.8173 30.5718 77.5526 30.8167 78.0413 31.3065C78.5323 31.7964 78.8179 32.4899 78.8179 33.3878C78.8179 34.0413 78.6954 34.5718 78.4505 34.9798C78.2462 35.4284 77.9189 35.7151 77.512 35.9595C77.1028 36.2038 76.613 36.3263 76.0007 36.3263C75.3478 36.3263 74.8579 36.2038 74.4499 36.0001C74.0013 35.7964 73.6745 35.5103 73.4296 35.0616C73.1847 34.613 73.0628 34.0819 73.0628 33.4284ZM74.7767 33.4696C74.7767 34.0007 74.8585 34.4081 75.0622 34.6536C75.2665 34.8985 75.5521 35.021 75.9194 35.021C76.2868 35.021 76.5724 34.8985 76.7767 34.6536C76.9809 34.4081 77.1028 34.0007 77.1028 33.3878C77.1028 32.8573 76.9804 32.4899 76.7767 32.245C76.5729 32.0001 76.2868 31.8776 75.9194 31.8776C75.5521 31.8776 75.3071 32.0001 75.0622 32.245C74.8579 32.4899 74.7767 32.898 74.7767 33.4696ZM79.4296 30.653H81.1435V34.8573H83.8382V36.2038H79.4296V30.653ZM83.9606 33.4284C83.9606 32.5306 84.2056 31.837 84.736 31.3472C85.2259 30.8167 85.9194 30.5718 86.8173 30.5718C87.7558 30.5718 88.4505 30.8167 88.9403 31.3065C89.4708 31.7964 89.7157 32.4899 89.7157 33.3878C89.7157 34.0413 89.5933 34.5718 89.3895 34.9798C89.1446 35.4284 88.8591 35.7151 88.4511 35.9595C88.0419 36.2038 87.5114 36.3263 86.8991 36.3263C86.2868 36.3263 85.7563 36.2038 85.3483 36.0001C84.9403 35.7964 84.6136 35.5103 84.328 35.0616C84.0831 34.6124 83.9606 34.0819 83.9606 33.4284ZM85.6745 33.4696C85.6745 34.0007 85.797 34.4081 86.0007 34.6536C86.205 34.8985 86.4905 35.021 86.8167 35.021C87.1841 35.021 87.4696 34.8985 87.6739 34.6536C87.8782 34.4081 88.0001 34.0007 88.0001 33.3878C88.0001 32.8573 87.8776 32.4899 87.6739 32.245C87.4702 32.0001 87.1841 31.8776 86.8167 31.8776C86.4905 31.8776 86.2044 32.0001 86.0007 32.245C85.797 32.4899 85.6745 32.898 85.6745 33.4696ZM93.1435 34.2044V33.061H95.797V35.4284C95.2665 35.7552 94.8173 35.9995 94.4505 36.122C94.0002 36.2586 93.5321 36.3274 93.0616 36.3263C92.3681 36.3263 91.8376 36.2038 91.4296 35.9595C91.012 35.7525 90.68 35.4059 90.4911 34.9798C90.2462 34.5311 90.1237 34.0001 90.1237 33.4284C90.1237 32.8161 90.2462 32.3269 90.4911 31.8776C90.736 31.4284 91.1034 31.061 91.5927 30.8573C91.9601 30.6524 92.4905 30.5718 93.1028 30.5718C93.7163 30.5718 94.2056 30.6118 94.4917 30.7343C94.8179 30.8573 95.0628 31.0198 95.2671 31.2653C95.4714 31.4696 95.5933 31.7958 95.7157 32.1226L94.0413 32.4487C94.0007 32.2444 93.8794 32.0814 93.7157 31.9589C93.5515 31.8364 93.3472 31.7958 93.0616 31.7958C92.6942 31.7958 92.4087 31.9183 92.1638 32.1632C91.9595 32.4487 91.8376 32.8567 91.8376 33.4284C91.8376 34.0413 91.9601 34.4493 92.205 34.6942C92.4093 34.9798 92.7355 35.1022 93.1435 35.1022C93.3065 35.1022 93.5108 35.0616 93.6751 35.0204C93.837 34.9386 94.0413 34.8573 94.2874 34.7349V34.2044H93.1435ZM95.9606 30.653H97.8376L98.9815 32.5306L100.083 30.653H102.001L99.8382 33.8782V36.2044H98.1231V33.8782L95.9606 30.653Z" fill="black"/>
</svg>
