<svg width="90" height="35" viewBox="0 0 90 35" fill="none" xmlns="http://www.w3.org/2000/svg">
<path fill-rule="evenodd" clip-rule="evenodd" d="M15.7931 5.4313H3.3486L0 33.4015H12.49L15.7931 5.4313ZM39.6291 0H25.8271L14.6506 17.1527L20.4429 29.7805C20.4429 29.7805 21.8005 33.1752 25.8394 33.4133H36.1115L27.9994 16.2934L39.6291 0Z" fill="#949698"/>
<path fill-rule="evenodd" clip-rule="evenodd" d="M14.9946 11.8474H9.19559L7.63574 24.8808H13.4552L14.9946 11.8474ZM26.1009 9.31714H19.6705L14.4615 17.3094L17.1602 23.1934C17.1602 23.1934 17.7932 24.7748 19.6751 24.8859H24.4612L20.6819 16.909L26.1009 9.31714ZM41.683 22.097L40.3121 24.8808H27.9798C27.9798 24.8808 26.6991 24.8495 26.7754 23.6574L28.0192 13.2183C28.0192 13.2183 28.3147 11.9739 29.7696 11.8474H42.0205C42.0205 11.8474 42.7794 11.8894 42.7999 13.0073L42.0205 19.6927H33.1218L34.7671 17.1619L36.3772 17.1645C36.3772 17.1645 36.7495 17.1307 36.8519 16.7354L37.0992 14.8975C37.0992 14.8975 37.2022 14.3889 36.5119 14.3941L34.4297 14.3572C34.4297 14.3572 33.4936 14.4443 33.4382 15.0455L32.5815 21.6069C32.5815 21.6069 32.5503 22.097 33.2698 22.097H41.683ZM46.4957 24.8839H50.3974L51.4487 15.0183C51.4487 15.0183 51.5439 14.4335 52.0438 14.3966L52.3817 14.3782C52.3817 14.3782 55.0385 14.5759 55.8942 11.8474H46.3856L44.9722 22.8355C44.9722 22.8355 44.8037 24.7118 46.4957 24.8839ZM70.9601 11.8551H58.5617C57.4336 11.9688 57.3066 12.8757 57.3066 12.8757L56.0422 23.7997C55.9582 24.9602 56.9333 24.8808 56.9333 24.8808H69.8796C70.9079 24.8746 70.9079 23.8848 70.9079 23.8848L72.1512 13.4032C72.1722 11.9478 70.9601 11.8551 70.9601 11.8551ZM65.6712 21.3171C65.6712 21.3171 65.6153 21.9864 64.9399 21.9864H62.4096C62.4096 21.9864 61.7777 21.9926 61.7777 21.3335L62.4158 15.3358C62.4158 15.3358 62.4706 14.4135 63.357 14.4135H65.7413C65.7413 14.4135 66.4475 14.3874 66.3533 15.2416L65.6712 21.3171ZM76.4631 11.8474H89.9999C89.9999 11.8474 89.6946 14.1964 87.2253 14.4099H81.5503C81.5503 14.4099 80.7749 14.3382 80.6648 15.0577L80.5937 15.556L80.5455 16.1178C80.5455 16.1178 80.4277 17.1538 81.2174 17.1614H88.1128C88.1128 17.1614 89.0832 17.3729 89.1042 18.4688L88.4712 23.9308C88.4712 23.9308 88.3033 24.8803 87.6068 24.8803H73.8371L75.2294 22.0965H82.6308C82.6308 22.0965 83.2571 22.1754 83.3897 21.4006L83.4706 20.8306L83.5336 20.2304C83.5336 20.2304 83.5336 19.7245 82.9042 19.6922H75.7528C75.7528 19.6922 74.7855 19.7972 74.9544 18.5528L75.5664 12.9853C75.5679 12.9863 75.7149 11.9959 76.4631 11.8474ZM48.308 31.7531H50.8137L50.9658 30.4908C51.0528 29.6909 50.4045 29.6597 49.8914 29.6597H48.7382C48.3433 29.6679 47.9961 29.6679 47.7037 29.9567C47.4789 30.1835 47.4436 30.4749 47.4159 30.712L47.2239 32.3041C47.1927 32.7292 47.1717 32.893 47.357 33.0902C47.6013 33.357 47.9864 33.357 48.244 33.3493H49.4853C50.4265 33.3565 50.6227 32.976 50.6954 32.659L49.726 32.658H48.2L48.308 31.7531ZM48.3807 31.1468L48.4785 30.3408H50.0056L49.9088 31.1468L49.1069 31.136L48.7679 31.727L48.308 31.7531L48.3807 31.1468ZM47.0129 28.5115H46.0046L45.5145 32.5771L45.4213 33.3073L44.3326 33.3012L44.4258 32.5771L44.9159 28.5115H43.9086L42.8798 28.5095L42.9766 27.7716H48.1231L48.0299 28.5105L47.0129 28.5115ZM54.1008 30.3699H52.7796L52.5067 32.6262H53.8289L54.8229 32.6242L54.7389 33.3181H52.7294C52.5026 33.3181 52.1375 33.3181 51.8661 33.1921C51.4651 32.995 51.4799 32.7051 51.4902 32.3748L51.695 30.6834C51.8072 30.0002 52.0822 29.6771 53.029 29.6771H55.1773L55.0964 30.3761L54.1008 30.3699ZM57.2794 29.6776H58.4757C58.7328 29.6776 59.0497 29.6704 59.3119 29.7887C59.7052 29.969 59.695 30.2988 59.6612 30.582L59.4154 32.6262L59.3293 33.3135L58.2852 33.3186L58.6401 30.3699H57.196L56.924 32.6262L56.8462 33.3135H55.7959L55.8901 32.6262L56.3914 28.4624L56.4713 27.77H57.5094L57.2794 29.6776ZM64.3489 32.6262L64.2649 33.3186H63.207L63.5618 30.3699H62.1443L61.8724 32.6262L61.7936 33.3186L60.7622 33.3135L60.8513 32.6262L61.1232 30.3699L61.2103 29.6776H63.5956C63.9029 29.6776 64.0888 29.6858 64.3028 29.8046C64.6541 30.0166 64.629 30.3075 64.5927 30.5968L64.3489 32.6262ZM66.7962 30.3459H68.3223L68.0442 32.6503H66.5182L66.7962 30.3459ZM65.496 32.446C65.4801 32.6662 65.4422 33.0523 65.8929 33.249C66.1279 33.3432 66.4239 33.3432 66.7112 33.3432H67.9613C68.2485 33.335 68.7944 33.3119 69.0213 32.8162C69.0495 32.7532 69.0884 32.6662 69.1401 32.2411L69.3362 30.6127C69.3885 30.1805 69.412 29.6535 68.2972 29.6535H67.0671C66.8101 29.6535 66.553 29.6535 66.3041 29.7554C65.8069 29.9526 65.7449 30.3766 65.7121 30.6598L65.496 32.446ZM70.7942 28.4706L70.871 27.7705H71.9136L71.3283 32.6262L71.2474 33.3186H70.2099L70.2938 32.6262L70.7942 28.4706ZM73.7838 30.3459H75.3109L75.0328 32.6503H73.5057L73.7838 30.3459ZM72.4846 32.446C72.4687 32.6662 72.4314 33.0523 72.8815 33.249C73.1155 33.3432 73.4125 33.3432 73.6998 33.3432H74.9498C75.2371 33.335 75.782 33.3119 76.0099 32.8162C76.037 32.7532 76.078 32.6662 76.1287 32.2411L76.3248 30.6127C76.3771 30.1805 76.4006 29.6535 75.2858 29.6535H74.0557C73.7986 29.6535 73.5405 29.6535 73.2917 29.7554C72.7944 29.9526 72.7335 30.3766 72.6997 30.6598L72.4846 32.446ZM78.2744 30.3699H79.8409L79.5689 32.6262H78.0035L78.2744 30.3699ZM80.947 29.6776H78.8346C77.7694 29.6776 77.3162 29.8517 77.2205 30.6526L77.0074 32.4147C76.9926 32.5397 76.9573 32.7517 77.0443 32.9248C77.2425 33.3181 77.7725 33.3181 78.2267 33.3181H79.486L79.3892 34.1241H76.9409C76.9368 34.2711 76.9598 34.4401 77.074 34.5732C77.2922 34.8165 77.6681 34.8165 77.9154 34.8165H79.1275C80.1799 34.8165 80.3709 34.4473 80.4508 33.7841L80.863 30.3694L80.947 29.6776ZM85.4811 30.3699L82.6134 34.8298H81.5584L83.0133 32.5802L82.0951 30.3699L81.8043 29.6766L82.8694 29.6776L83.6248 31.7629L84.903 29.6776H85.9271L85.4811 30.3699Z" fill="#26244D"/>
</svg>
