<svg width="191" height="39" viewBox="0 0 191 39" fill="none" xmlns="http://www.w3.org/2000/svg">
<path fill-rule="evenodd" clip-rule="evenodd" d="M35.2031 30.5347H36.2465V36.0447H40.5177V36.859H35.2031V30.5347ZM47.3089 35.0176H43.865L42.9693 36.859H41.8477L45.0267 30.5347H46.2177L49.3956 36.859H48.2046L47.3089 35.0176ZM45.5761 31.4033L44.258 34.2023H46.9256L45.5761 31.4033ZM53.7548 33.7767L52.4758 34.7962V36.859H51.4324V30.5347H52.4758V33.7159L56.4028 30.5347H57.8783L54.5419 33.1567L58.065 36.859H56.6286L53.7548 33.7767ZM60.142 30.5347H65.7921V31.3501H61.1854V33.1828H65.6542V33.9982H61.1854V36.0447H65.8898V36.859H60.142V30.5347ZM73.6852 30.5347H74.8068L71.7266 36.859H70.6138L67.4847 30.5347H68.666L71.1946 35.8862L73.6852 30.5347ZM76.824 30.5347H77.8674V36.859H76.824V30.5347ZM80.7511 30.5347H86.4001V31.3501H81.7945V33.1828H86.2622V33.9982H81.7945V36.0447H86.4978V36.859H80.7511V30.5347ZM93.5549 31.6161H93.5354L91.5963 36.859H90.4454L88.1329 30.5347H89.2642L91.0654 35.6723H91.0849L92.9643 30.5347H94.2042L96.1346 35.6723H96.153L97.9456 30.5347H99.0269L96.646 36.859H95.5038L93.5549 31.6161ZM107.471 31.3501H104.814V30.5347H111.171V31.3501H108.514V36.859H107.471V31.3501ZM112.925 30.5347H118.572V31.3501H113.966V33.1828H118.436V33.9982H113.966V36.0447H118.672V36.859H112.925V30.5347ZM126.615 32.8126C126.456 31.9342 125.688 31.1916 124.212 31.1916C122.55 31.1916 121.496 32.0504 121.496 33.7778C121.496 34.9742 122.215 36.2043 124.153 36.2043C125.383 36.2043 126.317 35.6734 126.615 34.4411H127.656C127.491 35.8406 126.15 37.0186 124.145 37.0186C122.372 37.0186 120.454 36.1414 120.454 33.6801C120.454 31.8387 121.733 30.3762 124.135 30.3762C125.543 30.3762 127.481 30.9158 127.657 32.8126H126.615ZM135.668 33.8831H130.886V36.859H129.843V30.5347H130.886V33.0688H135.668V30.5347H136.711V36.859H135.668V33.8831ZM140.313 31.8278H140.295V36.859H139.252V30.5347H140.462L144.979 35.567H144.998V30.5347H146.042V36.859H144.83L140.313 31.8278ZM152.104 30.3762C154.929 30.3762 156.013 32.0764 156.013 33.6985C156.013 35.3206 154.929 37.0197 152.104 37.0197C149.279 37.0197 148.198 35.3206 148.198 33.6985C148.198 32.0764 149.279 30.3762 152.104 30.3762ZM152.104 31.1905C150.501 31.1905 149.239 32.0232 149.239 33.6974C149.239 35.3716 150.501 36.2043 152.104 36.2043C153.71 36.2043 154.97 35.3716 154.97 33.6974C154.97 32.0232 153.709 31.1905 152.104 31.1905ZM158.167 30.5347H159.21V36.0447H163.48V36.859H158.167V30.5347ZM168.835 30.3762C171.66 30.3762 172.744 32.0764 172.744 33.6985C172.744 35.3206 171.66 37.0197 168.835 37.0197C166.01 37.0197 164.929 35.3206 164.929 33.6985C164.929 32.0764 166.01 30.3762 168.835 30.3762ZM168.835 31.1905C167.232 31.1905 165.972 32.0232 165.972 33.6974C165.972 35.3716 167.232 36.2043 168.835 36.2043C170.439 36.2043 171.7 35.3716 171.7 33.6974C171.7 32.0232 170.438 31.1905 168.835 31.1905ZM178.707 33.4499H181.937V36.8601H181.188L181.01 35.9568C180.548 36.4443 179.8 37.0197 178.316 37.0197C175.499 37.0197 174.605 35.1957 174.605 33.8049C174.605 31.3599 176.465 30.3773 178.286 30.3773C179.733 30.3773 181.376 30.7844 181.819 32.5292H180.716C180.392 31.6519 179.664 31.1927 178.335 31.1927C176.475 31.1927 175.648 32.3794 175.648 33.7257C175.648 35.5138 176.918 36.2054 178.384 36.2054C179.911 36.2054 180.903 35.39 181.012 34.2652H178.709V33.4499H178.707ZM189.542 30.5347H190.812L187.711 34.2121V36.859H186.669V34.2555L183.588 30.5347H184.917L187.21 33.4141L189.542 30.5347Z" fill="#ACAEB0"/>
<path fill-rule="evenodd" clip-rule="evenodd" d="M18.8569 0L7.81738 11.0396C7.81738 11.0396 11.498 9.10373 15.8202 11.7735C15.8202 11.7735 19.7765 14.0709 19.592 18.9479H37.8961L18.8569 0Z" fill="#323B92"/>
<path fill-rule="evenodd" clip-rule="evenodd" d="M19.0402 38.9999L30.0776 27.9603C30.0776 27.9603 26.397 29.8929 22.0759 27.2242C22.0759 27.2242 18.1206 24.9279 18.3041 20.0498H0L19.0402 38.9999Z" fill="#ACAEB0"/>
</svg>
