<svg width="151" height="42" viewBox="0 0 151 42" fill="none" xmlns="http://www.w3.org/2000/svg">
<path d="M72.0754 32.8035C65.1979 32.8035 59.027 28.9124 59.027 23.4715C59.027 18.0287 65.1984 14.1335 72.1246 14.1335C75.1359 14.1335 77.9479 14.8906 81.0059 16.5897L78.8502 19.3484C76.8907 18.4045 74.5826 17.8388 72.1246 17.8388C69.213 17.8388 65.8507 19.4627 65.8507 23.471C65.8507 27.4769 69.1637 29.0998 72.1246 29.0998C74.5826 29.0998 76.9405 28.6093 78.9473 27.7384L81.1065 30.6495C78.5475 32.0129 75.4351 32.8035 72.0754 32.8035ZM111.359 32.7324C118.283 32.7324 124.457 28.8397 124.457 23.4009C124.457 17.9575 118.283 14.0624 111.359 14.0624C104.433 14.0624 98.2585 17.957 98.2585 23.4009C98.2585 28.8402 104.433 32.7324 111.359 32.7324ZM117.633 23.4009C117.633 27.4062 114.271 29.0291 111.359 29.0291C108.446 29.0291 105.085 27.4062 105.085 23.4009C105.085 19.391 108.446 17.7681 111.359 17.7681C114.271 17.7681 117.633 19.391 117.633 23.4009ZM127.244 32.2819H133.713V21.1687C133.713 19.6681 134.883 17.9019 136.976 17.8904C138.438 17.9019 139.841 18.899 139.841 20.1636L139.828 32.2819H146.314V19.8204C146.314 16.5381 142.782 13.7983 138.568 13.7983C138.527 13.7983 138.487 13.8039 138.446 13.8049C138.404 13.8039 138.364 13.7983 138.324 13.7983C136.646 13.7973 135.002 14.2665 133.58 15.1522C133.568 15.1041 133.205 13.9126 127.244 13.9126V32.2819ZM49.5799 32.2819H55.9167V14.5188H49.5799V32.2819ZM84.1278 32.2819H90.4671V21.5099C90.4671 19.8084 92.4724 18.447 94.6316 18.447C95.6869 18.447 96.6797 18.6575 97.5136 19.0253V14.354C96.7633 14.2404 96.0057 14.1818 95.2468 14.1786C93.5478 14.1786 91.8437 14.6692 90.449 15.4934C90.3454 15.2834 89.5683 14.2909 84.1278 14.2909V32.2819ZM37.4908 25.2016L37.4897 32.2834H43.9789V19.3539C42.0989 21.2855 39.9306 23.2526 37.4908 25.2016Z" fill="#104076"/>
<path d="M44.0484 19.3642C51.1705 12.0115 54.1206 5.17696 51.8242 1.88736C49.4271 -1.54821 41.9801 -0.156228 32.327 4.94772C31.9467 5.1312 31.5801 5.34193 31.2302 5.57826C30.764 5.9023 31.0357 6.13756 31.3801 6.01266C31.7921 5.86699 32.1956 5.69818 32.5886 5.50703C39.8246 2.07296 45.4685 1.45697 47.6746 3.8537C51.0367 7.50446 44.1516 19.4685 32.2292 28.318C30.6377 29.4989 28.1814 31.2284 26.5818 32.189C26.4735 32.2562 26.3668 32.3225 26.2625 32.3887C25.8394 32.6661 25.463 32.9239 25.1667 33.1561C24.878 33.3804 24.9336 33.7375 25.4539 33.5133C25.7713 33.3779 26.1562 33.1727 26.5663 32.9214C26.659 32.8647 26.7503 32.813 26.8475 32.7533C28.6451 31.6613 31.3139 29.8174 33.137 28.5433C34.6542 27.4833 36.1364 26.3741 37.5814 25.2176C40.0136 23.2673 42.1746 21.2969 44.0484 19.3642Z" fill="#104076"/>
<path d="M12.1334 41.6553H18.6254V34.9462C20.4404 33.8722 22.2202 32.7402 23.9621 31.5519C24.3591 31.28 24.7108 31.009 24.966 30.7767C25.3861 30.3933 25.0817 30.1966 24.7576 30.3667C24.424 30.5423 24.0295 30.7792 23.6023 31.0501C13.574 37.4472 6.80373 39.3992 4.30395 36.0145C2.13223 33.0759 5.69171 27.3945 12.1339 20.9784V35.8705C13.9614 35.2518 16.1216 34.2647 18.6244 32.8767L18.6229 19.0595L20.0509 22.0899C21.6163 25.4359 24.4567 27.4366 28.0685 27.4366C31.6788 27.4366 34.5193 25.4359 36.0847 22.0899L37.5127 19.0595L37.5112 22.5847C39.8344 20.3376 41.8179 18.0945 43.3219 15.9247C43.5096 15.6567 43.493 15.4309 43.3908 15.183C42.8847 14.1282 42.0894 13.2378 41.097 12.615C40.1045 11.9922 38.9555 11.6624 37.7829 11.6639C35.3344 11.6639 33.208 13.08 32.1886 15.1283L29.4714 20.8765C29.1906 21.436 28.6734 21.7467 28.068 21.7467C27.4642 21.7467 26.9439 21.436 26.6632 20.8765L23.947 15.1293C23.4278 14.0886 22.6283 13.2127 21.6379 12.5997C23.625 11.0271 25.5562 9.62252 27.4577 8.47138C27.8329 8.24098 28.1951 7.99003 28.5425 7.71967C28.8364 7.49637 28.7821 7.13908 28.2582 7.35837C27.9397 7.49135 27.5276 7.69358 27.115 7.94398C25.1723 9.1177 23.1862 10.3185 21.2877 11.6127C21.0573 11.7692 20.8298 11.9263 20.6024 12.0834C19.8851 11.8055 19.1222 11.6634 18.3527 11.6644C17.5356 11.6635 16.7265 11.8234 15.9715 12.1349C15.2165 12.4463 14.5305 12.9032 13.9529 13.4795C13.3752 14.0557 12.9172 14.7399 12.6051 15.4929C12.293 16.2459 12.1328 17.0529 12.1339 17.8677V18.7213C2.96247 26.8771 -1.85244 34.9522 0.663452 38.5476C2.51062 41.1841 6.89078 40.5754 12.1334 38.3037V41.6553ZM148.861 16.1766H149.096C149.364 16.1766 149.59 16.0798 149.59 15.8299C149.59 15.6517 149.461 15.4736 149.096 15.4736C148.99 15.4736 148.918 15.4816 148.861 15.4891V16.1766ZM148.861 17.3007H148.536V15.2714C148.707 15.2483 148.868 15.2237 149.113 15.2237C149.42 15.2237 149.622 15.2879 149.744 15.3772C149.865 15.4661 149.93 15.6025 149.93 15.7962C149.93 16.0632 149.752 16.2248 149.533 16.29V16.3056C149.711 16.3377 149.833 16.5008 149.873 16.7983C149.923 17.113 149.97 17.2354 150.003 17.3002H149.663C149.614 17.2354 149.565 17.0498 149.526 16.7828C149.477 16.5234 149.347 16.427 149.087 16.427H148.861V17.3007ZM149.201 14.7063C148.399 14.7063 147.743 15.3923 147.743 16.2413C147.743 17.106 148.4 17.7844 149.209 17.7844C150.02 17.7934 150.668 17.1055 150.668 16.2489C150.668 15.3923 150.02 14.7063 149.209 14.7063H149.201ZM149.209 14.4223C150.205 14.4223 151 15.2307 151 16.2408C151 17.268 150.206 18.0679 149.201 18.0679C148.205 18.0679 147.395 17.268 147.395 16.2408C147.395 15.2307 148.205 14.4223 149.201 14.4223H149.209Z" fill="#104076"/>
</svg>
