<svg width="200" height="37" viewBox="0 0 200 37" fill="none" xmlns="http://www.w3.org/2000/svg">
<path fill-rule="evenodd" clip-rule="evenodd" d="M99.3175 13.1416H98.3582L97.9121 13.1257L96.8742 13.1576H96.6683C96.6899 12.9231 96.7798 12.6534 96.9414 12.3462C98.4834 12.3063 99.4017 12.2756 99.6908 12.2449C99.8979 11.7373 100.074 11.3254 100.219 11.0181C100.577 10.2154 100.901 9.39754 101.188 8.56687C101.286 8.27851 101.401 7.9965 101.533 7.72248C101.808 7.70102 102.083 7.69115 102.358 7.69289C102.617 7.69289 102.865 7.71224 103.102 7.75776L103.133 8.01153C103.133 8.21409 102.662 9.38054 101.72 11.5132C101.615 11.7567 101.526 12.007 101.454 12.262C101.754 12.3052 101.927 12.3257 101.98 12.3257H102.305L102.832 12.3439L104.314 12.3109C104.314 12.658 104.256 12.9368 104.149 13.1587C103.734 13.2008 103.189 13.2213 102.512 13.2213C102.299 13.2159 102.085 13.2223 101.872 13.2406C101.343 13.2907 101.035 13.3453 100.952 13.4L98.3445 19.626C98.0623 20.2189 97.5707 21.3557 96.8731 23.024C96.8731 23.0889 96.9061 23.1594 96.9698 23.2437L97.1758 23.2744C97.4603 23.2744 97.8154 23.09 98.241 22.7259C99.2036 21.8936 100.079 20.9655 100.854 19.956C101.029 20.0516 101.187 20.1654 101.32 20.2894C100.272 21.5788 99.5349 22.4254 99.1093 22.8363C98.6848 23.2448 98.1431 23.6715 97.491 24.1119C96.8367 24.5546 96.4429 24.8004 96.3075 24.8539C96.0756 24.9487 95.8275 24.9978 95.5769 24.9985C95.3163 24.9985 95.1251 24.9404 94.9999 24.8277C94.877 24.7185 94.8145 24.5546 94.8145 24.343C94.8145 24.0323 95.0671 23.3188 95.5735 22.191L96.2415 20.7127L98.5869 15.0648C98.8885 14.3354 99.132 13.6924 99.3175 13.1416ZM105.389 18.9784C105.046 19.9113 104.869 20.8968 104.866 21.8906C104.866 22.6064 105.035 23.1822 105.375 23.6135C105.479 23.7555 105.617 23.8701 105.775 23.9472C105.933 24.0243 106.108 24.0617 106.284 24.0562C106.515 24.0562 106.725 24.0118 106.905 23.9139C107.298 23.7159 107.636 23.4804 107.916 23.2118C108.198 22.9387 108.492 22.5847 108.8 22.1466C109.109 21.7062 109.358 21.2157 109.549 20.6729H109.771C109.9 20.6729 110.042 20.682 110.2 20.7059C109.88 21.8815 109.1 23.0377 107.849 24.1711C107.063 24.8755 106.254 25.2249 105.415 25.2249C104.853 25.2249 104.377 24.9734 103.983 24.4647C103.466 23.7979 103.205 22.8772 103.205 21.7017C103.205 21.193 103.282 20.5864 103.434 19.8763C103.59 19.1651 103.765 18.5733 103.967 18.0965C104.275 17.3752 104.631 16.6753 105.033 16.0014L106.252 14.2216C107.048 13.3761 107.493 12.9095 107.588 12.8253C107.922 12.5289 108.299 12.2849 108.706 12.1015C109.082 11.9388 109.468 11.8568 109.872 11.8568C110.393 11.8568 110.845 12.073 111.237 12.5089C111.631 12.9425 111.826 13.4887 111.826 14.1442C111.826 14.7291 111.675 15.3038 111.373 15.8706C111.072 16.4373 110.746 16.8549 110.398 17.1189L109.078 17.9781C108.929 18.051 108.532 18.1898 107.884 18.3844C107.063 18.6241 106.23 18.8224 105.389 18.9784ZM105.663 18.1659C106.003 18.1761 106.532 18.0453 107.254 17.771C107.645 17.6242 108.163 17.3306 108.812 16.897C109.068 16.7275 109.357 16.4407 109.688 16.0321C110.015 15.6247 110.266 15.2003 110.435 14.7633C110.605 14.3229 110.688 13.87 110.688 13.4045C110.698 13.126 110.602 12.8541 110.42 12.6432C110.24 12.444 110.037 12.3462 109.816 12.3462C109.529 12.3462 109.189 12.5089 108.797 12.8344C108.139 13.4045 107.447 14.3616 106.728 15.7078C106.186 16.7354 105.831 17.5537 105.663 18.1659ZM120.607 14.5266C120.473 14.4248 120.35 14.3083 120.241 14.1795C120.19 14.1089 120.087 13.9064 119.94 13.5775C119.794 13.2475 119.682 13.046 119.607 12.9709C119.502 12.8644 119.36 12.8025 119.211 12.798C118.84 12.798 118.444 13.0256 118.022 13.4819C117.239 14.3172 116.448 15.7033 115.652 17.6265C114.857 19.5531 114.454 21.1543 114.454 22.4254C114.454 22.9034 114.523 23.2345 114.659 23.4257C114.713 23.4946 114.783 23.5495 114.862 23.586C114.942 23.6224 115.029 23.6392 115.116 23.6351C115.527 23.6351 115.977 23.4087 116.472 22.9592C117.132 22.3617 117.805 21.5276 118.487 20.4612C118.697 20.4191 118.851 20.3964 118.961 20.3964L119.203 20.4123C119.161 20.6012 118.865 21.1053 118.316 21.9258C117.521 23.0923 116.789 23.906 116.125 24.3703C115.458 24.8323 114.844 25.0633 114.284 25.0633C113.795 25.0633 113.42 24.8881 113.156 24.5387C112.806 24.0835 112.633 23.3631 112.633 22.381C112.633 21.5321 112.838 20.5033 113.242 19.2823C113.671 18.0267 114.278 16.8394 115.045 15.7568C115.84 14.6256 116.488 13.8131 116.99 13.318C117.533 12.7998 118.157 12.3746 118.839 12.0594C119.337 11.8159 119.802 11.693 120.237 11.693C120.682 11.693 121.077 11.8853 121.422 12.2711C121.765 12.6568 121.938 13.1064 121.938 13.623C121.938 13.9394 121.853 14.1852 121.691 14.3581C121.618 14.4403 121.529 14.506 121.428 14.551C121.328 14.5959 121.22 14.619 121.11 14.6188C120.939 14.6142 120.769 14.5831 120.607 14.5266ZM126.404 4.17874L126.469 3.85101C128.263 3.66779 129.345 3.57788 129.718 3.57788C129.834 3.57788 129.998 3.5813 130.216 3.59268L130.139 3.89538L129.719 4.96055L128.801 7.61892C128.585 8.2391 128.382 8.86402 128.194 9.49321C127.766 10.9294 127.266 12.3434 126.697 13.73C126.142 15.0719 125.651 16.4395 125.225 17.8279C125.391 17.614 125.605 17.3192 125.864 16.938C127.377 14.7963 128.644 13.3351 129.667 12.5521C130.36 12.0241 131.04 11.7567 131.712 11.7567C132.257 11.7567 132.721 11.9854 133.11 12.4406C133.5 12.897 133.693 13.5946 133.693 14.5402C133.693 15.7431 133.393 17.1702 132.795 18.818C132.195 20.4647 131.482 21.8007 130.661 22.8294C129.841 23.8559 129.137 24.5159 128.552 24.8118C127.967 25.11 127.437 25.259 126.966 25.259C126.556 25.259 126.244 25.1452 126.035 24.9256C125.718 24.5967 125.56 24.2565 125.56 23.906C125.56 23.7501 125.644 23.5987 125.814 23.4565C125.983 23.3142 126.205 23.2425 126.478 23.2425C126.688 23.2425 126.856 23.2869 126.982 23.3779C127.109 23.4644 127.304 23.7023 127.567 24.096C127.745 24.2622 127.892 24.3452 128.01 24.3452C128.21 24.3452 128.483 24.121 128.83 23.6647C129.518 22.7554 130.286 21.0291 131.139 18.4788C131.824 16.4623 132.166 14.9328 132.166 13.8984C132.166 13.3271 132.084 12.9413 131.926 12.7422C131.848 12.6434 131.748 12.5644 131.633 12.5118C131.519 12.4592 131.394 12.4344 131.268 12.4395C131.119 12.4395 130.948 12.4873 130.757 12.5817C130.179 12.8674 129.554 13.359 128.882 14.0577C128.208 14.753 127.146 16.0993 125.694 18.0942C125.383 18.5414 124.869 19.5588 124.15 21.1463C123.427 22.7338 122.939 23.8513 122.678 24.5023C122.545 24.8243 122.417 25.0292 122.294 25.1225C122.172 25.2135 122.007 25.2579 121.8 25.2579C121.576 25.2579 121.413 25.2135 121.315 25.1293C121.217 25.0451 121.168 24.9245 121.168 24.7652C121.168 24.5763 121.25 24.2826 121.417 23.8787L122.533 21.0337C122.595 20.9005 122.652 20.7605 122.703 20.6228L127.095 7.78735L127.729 5.94492C127.897 5.47038 127.985 5.14719 127.985 4.97194C127.985 4.84334 127.954 4.74434 127.889 4.67378C127.824 4.60436 127.705 4.55087 127.53 4.51901C127.145 4.44119 126.768 4.32726 126.404 4.17874ZM139.149 13.697C139.128 13.615 139.1 13.5593 139.062 13.5274C139.025 13.4966 138.977 13.4805 138.929 13.4819C138.38 13.4819 137.525 14.3559 136.364 16.1004C136.28 16.1112 136.195 16.1173 136.11 16.1186C136.045 16.1186 135.942 16.1141 135.793 16.1004C136.017 15.6543 136.382 15.0922 136.886 14.4139C137.345 13.7805 137.885 13.2104 138.493 12.7183C139.06 12.2677 139.598 11.9331 140.107 11.7055C140.278 11.6326 140.431 11.5962 140.569 11.5962C140.622 11.5962 140.7 11.5996 140.809 11.6099C140.998 11.8022 141.093 11.9979 141.093 12.1982C141.093 12.3257 141.082 12.452 141.054 12.5795C141.008 12.7775 140.953 12.9731 140.888 13.1655C140.667 13.8078 140.434 14.4456 140.188 15.0785L139.276 17.4228C139.053 17.9872 138.846 18.5579 138.656 19.1343C138.74 19.0274 138.816 18.9272 138.878 18.8316C139.864 17.3943 140.931 16.0136 142.072 14.6961C143.215 13.3795 144.157 12.4987 144.899 12.0537C145.43 11.7294 145.937 11.5598 146.415 11.5598C146.774 11.5598 147.057 11.66 147.257 11.8591C147.358 11.9581 147.438 12.0772 147.49 12.2087C147.543 12.3402 147.567 12.4812 147.562 12.6227C147.562 12.8128 147.541 13.0005 147.497 13.1792C147.422 13.5832 147.257 14.1431 147.001 14.8623C146.743 15.5815 146.068 17.1451 144.979 19.544L143.374 23.2095L143.309 23.4166C143.309 23.4792 143.347 23.5725 143.423 23.6966C144.018 23.5703 144.91 22.628 146.103 20.8675L146.758 20.8857C146.427 21.4775 145.884 22.2388 145.129 23.1731C144.546 23.8843 143.921 24.4329 143.251 24.8266C142.891 25.0473 142.477 25.1635 142.055 25.1623C141.799 25.1623 141.608 25.1088 141.482 25.0019C141.355 24.8972 141.29 24.7822 141.29 24.6548C141.29 24.0972 141.561 23.2277 142.102 22.0544L144.411 17.0165L145.302 14.9067C145.502 14.4401 145.628 14.1158 145.668 13.936C145.71 13.7592 145.731 13.5782 145.731 13.3965C145.738 13.2734 145.699 13.152 145.622 13.0563C145.586 13.0157 145.543 12.9835 145.493 12.9618C145.444 12.9402 145.391 12.9297 145.337 12.9311C145.166 12.9311 144.968 12.9994 144.748 13.1371C143.965 13.6059 143.103 14.4082 142.161 15.5394C140.809 17.1747 139.909 18.3457 139.467 19.057C138.369 20.7848 137.394 22.588 136.549 24.4533C136.423 24.7538 136.27 24.9734 136.09 25.1134C135.921 25.1402 135.751 25.1565 135.581 25.1623C135.367 25.1537 135.154 25.1262 134.945 25.0804C134.909 25.0139 134.888 24.9406 134.882 24.8653C134.882 24.7834 134.936 24.5899 135.04 24.294C135.274 23.6067 135.845 22.1535 136.754 19.94L137.118 19.0843L139.149 13.697ZM158.888 15.6828C158.888 18.1443 158.146 20.3258 156.659 22.2342C155.172 24.1415 153.632 25.0952 152.034 25.0952C151.178 25.0952 150.485 24.7754 149.956 24.137C149.427 23.4929 149.163 22.4903 149.163 21.1236C149.163 20.2006 149.37 19.1366 149.783 17.9338C150.194 16.7309 150.73 15.7306 151.386 14.9363C151.532 14.7576 151.701 14.5414 151.892 14.2853C152.447 13.5595 153.123 12.935 153.89 12.4395C154.664 11.9399 155.45 11.693 156.255 11.693C156.995 11.693 157.622 12.0025 158.127 12.6227C158.635 13.2406 158.888 14.2626 158.888 15.6828ZM150.627 22.9409C150.627 23.4326 150.74 23.7944 150.969 24.0277C151.195 24.2633 151.564 24.3794 152.074 24.3794C152.572 24.3794 153.074 24.137 153.583 23.6454C154.495 22.7498 155.406 21.2112 156.319 19.0262C157.228 16.8424 157.686 15.1195 157.686 13.862C157.686 13.4136 157.572 13.0597 157.352 12.8002C157.13 12.5385 156.874 12.4076 156.59 12.4076C155.963 12.4076 155.309 12.7741 154.631 13.5103C153.477 14.7473 152.479 16.4498 151.644 18.6245C150.964 20.3964 150.627 21.8348 150.627 22.9409ZM166.312 4.21061L166.358 3.75542C167.648 3.64617 168.625 3.59268 169.29 3.59268H169.987V3.78955L169.496 5.32813C169.475 5.37137 169.085 6.34891 168.334 8.26758L166.189 13.8574C165.804 14.9055 165.169 16.526 164.277 18.7201L163.752 20.1005C163.383 21.1054 163.085 21.7836 162.863 22.1341C162.509 22.7054 162.339 23.1321 162.339 23.4075L162.401 23.6636C162.751 23.6351 163.18 23.3927 163.698 22.9455C164.449 22.3207 165.136 21.5162 165.752 20.5409C165.95 20.5011 166.103 20.476 166.211 20.476L166.391 20.492C165.991 21.2635 165.564 21.8963 165.104 22.381C164.382 23.1412 163.882 23.6237 163.607 23.8263C163.063 24.2496 162.472 24.6078 161.846 24.8938C161.514 25.0449 161.155 25.1251 160.79 25.1293C160.608 25.1293 160.47 25.0804 160.379 24.9871C160.288 24.8938 160.241 24.772 160.241 24.6252C160.241 24.1267 161.088 21.9452 162.781 18.068C163.363 16.7394 163.904 15.3937 164.404 14.0327C165.386 11.3868 166.144 9.50003 166.676 8.37796C167.205 7.25362 167.592 6.24194 167.834 5.34292C167.854 5.26936 167.864 5.19368 167.865 5.1176C167.865 4.96625 167.792 4.82513 167.645 4.69312C167.459 4.5338 167.013 4.37107 166.312 4.21061ZM177.499 15.6828C177.499 18.1443 176.755 20.3258 175.27 22.2342C173.783 24.1415 172.241 25.0952 170.645 25.0952C169.789 25.0952 169.094 24.7754 168.567 24.137C168.038 23.4929 167.774 22.4903 167.774 21.1236C167.774 20.2006 167.981 19.1366 168.392 17.9338C168.803 16.7309 169.341 15.7306 169.994 14.9363C170.143 14.7576 170.312 14.5414 170.503 14.2853C171.057 13.5584 171.734 12.9338 172.503 12.4395C173.273 11.9399 174.061 11.693 174.866 11.693C175.606 11.693 176.23 12.0025 176.739 12.6227C177.245 13.2406 177.499 14.2626 177.499 15.6828ZM169.235 22.9409C169.235 23.4326 169.349 23.7944 169.578 24.0277C169.806 24.2633 170.173 24.3794 170.683 24.3794C171.182 24.3794 171.685 24.137 172.194 23.6454C173.105 22.7498 174.017 21.2112 174.927 19.0262C175.841 16.8424 176.296 15.1195 176.296 13.862C176.296 13.4136 176.183 13.0597 175.961 12.8002C175.739 12.5385 175.485 12.4076 175.198 12.4076C174.571 12.4076 173.922 12.7741 173.244 13.5103C172.086 14.7473 171.09 16.4498 170.252 18.6245C169.575 20.3964 169.235 21.8348 169.235 22.9409ZM180.032 25.4878C179.216 24.8278 178.694 24.3566 178.461 24.0698C178.377 23.9725 178.331 23.8487 178.33 23.7205C178.33 23.5623 178.388 23.4178 178.501 23.2915C178.61 23.1651 178.881 23.0092 179.314 22.8317C179.746 22.6496 180.45 22.2422 181.428 21.6072C181.184 21.3148 180.926 21.0338 180.656 20.7651L180.145 20.2097C179.992 19.9124 179.873 19.5986 179.791 19.2743C179.687 18.8919 179.633 18.4975 179.631 18.101C179.63 17.4756 179.732 16.8542 179.933 16.262C180.22 15.3846 180.575 14.6415 180.992 14.0327C181.412 13.425 181.838 12.9527 182.277 12.6136C182.572 12.3803 182.932 12.1914 183.359 12.0435C184.017 11.809 184.572 11.693 185.03 11.693C185.573 11.693 186.115 11.8238 186.656 12.0878C187.033 12.2656 187.447 12.3543 187.864 12.3473C188.046 12.3473 188.262 12.3291 188.508 12.2972C188.757 12.2654 188.93 12.2494 189.026 12.2494C189.11 12.2494 189.238 12.2585 189.408 12.2813C189.439 12.5954 189.455 12.8207 189.455 12.9607C189.451 13.0786 189.413 13.1929 189.346 13.2896C189.223 13.3052 189.1 13.3147 188.977 13.318C188.737 13.318 188.364 13.2497 187.863 13.1155C187.663 13.0608 187.483 13.0165 187.322 12.9743C187.616 13.6185 187.765 14.3354 187.765 15.1138C187.765 16.6489 187.236 18.0953 186.184 19.4473C185.131 20.8026 183.911 21.6231 182.526 21.9099C181.772 22.0567 181.185 22.3014 180.763 22.6417C180.682 22.6983 180.616 22.7743 180.572 22.8627C180.528 22.9511 180.506 23.0492 180.509 23.1481C180.509 23.502 180.782 23.8946 181.33 24.3282C182.008 24.6661 182.634 24.9643 183.21 25.2238C184.835 25.7928 186.059 26.4289 186.89 27.1333C187.512 27.6762 187.828 28.4113 187.828 29.3365C187.828 29.8281 187.701 30.2719 187.445 30.6702C187.189 31.0731 186.778 31.4486 186.205 31.7969C185.825 32.0324 185.202 32.2498 184.337 32.4455C183.523 32.6375 182.689 32.7368 181.852 32.7414C180.411 32.7414 179.364 32.6743 178.72 32.532C177.545 32.2896 176.622 31.9937 175.955 31.6432C175.286 31.2916 174.757 30.8546 174.366 30.3232C174.144 30.0182 174.033 29.7029 174.033 29.3854C174.033 28.9189 174.248 28.5115 174.686 28.1609C175.314 27.6625 177.094 26.7703 180.032 25.4878ZM182.384 21.1918C182.937 21.1099 183.403 20.9073 183.786 20.5921C183.965 20.4521 184.27 20.0254 184.695 19.3141C185.117 18.6006 185.432 17.9588 185.633 17.3852C186.099 16.0652 186.332 14.9829 186.332 14.134C186.332 13.565 186.19 13.1223 185.91 12.8105C185.776 12.6591 185.611 12.539 185.425 12.4588C185.24 12.3785 185.039 12.3401 184.837 12.3462C184.368 12.3462 183.919 12.5408 183.484 12.9391C183.05 13.3351 182.523 14.3047 181.915 15.8478C181.304 17.3921 180.999 18.5927 180.999 19.4484C180.999 19.8934 181.132 20.278 181.399 20.6069C181.664 20.9324 181.993 21.127 182.384 21.1918ZM176.303 30.5803C176.895 31.1254 177.686 31.5112 178.67 31.7559C178.839 31.8003 178.997 31.8469 179.146 31.9004C179.335 31.9539 179.659 32.0142 180.113 32.0734C180.68 32.1052 181.248 32.1222 181.816 32.1246C182.767 32.1246 183.672 31.9687 184.537 31.6626C185.399 31.3542 185.964 31.0355 186.225 30.7067C186.407 30.495 186.496 30.2196 186.496 29.877C186.496 29.2967 186.158 28.7129 185.48 28.1279C184.974 27.7035 183.941 27.1971 182.384 26.603C181.809 26.376 181.238 26.1419 180.67 25.9009C179.963 26.1342 179.038 26.5586 177.907 27.1743C177.302 27.5009 176.846 27.8104 176.533 28.0949C176.22 28.384 176.048 28.557 176.015 28.6218C175.892 28.8644 175.827 29.1326 175.826 29.4048C175.827 29.86 175.987 30.2515 176.303 30.5803Z" fill="black"/>
<path fill-rule="evenodd" clip-rule="evenodd" d="M184.098 31.3203C184.32 31.5649 184.511 31.7231 184.676 31.7914C184.841 31.8597 185.118 31.8961 185.511 31.8961C186.071 31.8961 186.731 31.7402 187.489 31.425C188.242 31.112 188.804 30.7854 189.163 30.4451C189.841 29.99 190.625 29.2514 191.514 28.2317C191.987 27.6809 192.401 26.9754 192.745 26.1208C193.088 25.2582 193.343 24.1714 193.508 22.8627C193.673 21.554 193.755 20.4262 193.755 19.4817C193.755 18.9286 193.729 17.9169 193.675 16.4421C193.622 15.4349 193.54 14.7453 193.428 14.3732C193.317 14.0022 193.172 13.737 192.99 13.5789C192.889 13.4916 192.759 13.446 192.626 13.4514C192.381 13.4514 192.171 13.5572 191.987 13.7655C191.621 14.2218 191.253 15.0799 190.894 16.3476L190.767 16.3783C190.661 16.3783 190.527 16.3226 190.369 16.2054C190.74 14.8181 191.008 13.9533 191.167 13.6153C191.496 12.937 191.785 12.4648 192.03 12.2019C192.179 12.0437 192.423 11.8832 192.765 11.7273C192.931 11.7034 193.065 11.6943 193.161 11.6943C193.779 11.6943 194.273 12.0926 194.646 12.8892C195.159 13.9931 195.411 15.493 195.411 17.3934C195.411 18.2503 195.35 19.3178 195.228 20.5935C195.104 21.8646 194.972 22.8023 194.835 23.4078C194.648 24.2704 194.548 24.7995 194.527 25.001C194.579 24.9452 194.639 24.8701 194.703 24.7586C195.339 23.8164 195.924 22.8408 196.456 21.8362C196.836 21.1363 197.181 20.2999 197.494 19.3246C197.806 18.3416 198.051 17.3386 198.228 16.3226C198.335 15.7092 198.389 15.0321 198.389 14.3038C198.389 14.0375 198.382 13.8087 198.373 13.6198C198.356 13.467 198.346 13.3137 198.34 13.1601C198.34 12.64 198.442 12.2474 198.642 11.9834C198.736 11.8343 198.918 11.7592 199.193 11.7592C199.466 11.7592 199.671 11.8343 199.802 11.9834C199.933 12.1325 200 12.3749 200 12.714C200 13.2227 199.702 14.4915 199.098 16.5149C198.275 19.3121 197.428 21.4777 196.553 23.0049C195.217 25.3276 193.675 27.3771 191.926 29.1592C190.737 30.3575 189.505 31.2349 188.227 31.7891C186.949 32.3376 185.838 32.6142 184.898 32.6142C183.622 32.6142 182.753 32.456 182.288 32.1362C181.822 31.8187 181.588 31.4967 181.588 31.1712C181.588 30.9618 181.666 30.7843 181.824 30.6306C181.897 30.5578 181.983 30.5003 182.079 30.4614C182.174 30.4225 182.276 30.4031 182.379 30.4042C182.677 30.4042 182.988 30.4838 183.317 30.642C183.477 30.7251 183.738 30.9516 184.098 31.3203Z" fill="black"/>
<path fill-rule="evenodd" clip-rule="evenodd" d="M15.0511 4.15947H15.702L15.0352 3.85107L15.0511 4.15947Z" fill="#6D6E70"/>
<path fill-rule="evenodd" clip-rule="evenodd" d="M15.068 4.46789H16.3699L15.6677 4.14355H15.0498L15.068 4.46789Z" fill="#7C7D80"/>
<path fill-rule="evenodd" clip-rule="evenodd" d="M15.4632 4.77965H16.6946L16.69 4.61578L16.3418 4.45532H15.0684L15.074 4.58619L15.4632 4.77965Z" fill="#898A8D"/>
<path fill-rule="evenodd" clip-rule="evenodd" d="M16.0914 5.09036H16.7047L16.6945 4.76489H15.4336L16.0914 5.09036Z" fill="#989A9C"/>
<path fill-rule="evenodd" clip-rule="evenodd" d="M16.7048 5.07446H16.0596L16.7151 5.39993L16.7048 5.07446Z" fill="#A6A8AA"/>
<path fill-rule="evenodd" clip-rule="evenodd" d="M20.2064 6.46042H20.8926L20.2906 6.21802H20.2007V6.23395L20.2064 6.46042Z" fill="#6D6E70"/>
<path fill-rule="evenodd" clip-rule="evenodd" d="M20.2143 6.74142H21.5902L20.9802 6.49561H20.2075L20.2143 6.74142Z" fill="#7C7D80"/>
<path fill-rule="evenodd" clip-rule="evenodd" d="M20.6307 7.02494H21.7459V6.80531L21.6856 6.78027H20.2153L20.2165 6.81555L20.6307 7.02494Z" fill="#898A8D"/>
<path fill-rule="evenodd" clip-rule="evenodd" d="M21.1928 7.30725H21.7459V7.06372H20.708L21.1928 7.30725Z" fill="#989A9C"/>
<path fill-rule="evenodd" clip-rule="evenodd" d="M21.7459 7.58606V7.34595H21.269L21.7459 7.58606Z" fill="#A6A8AA"/>
<path fill-rule="evenodd" clip-rule="evenodd" d="M31.534 9.48845L27.3462 5.65112L31.5363 7.36836L31.7741 7.58572L31.534 9.48845Z" fill="#525355"/>
<path fill-rule="evenodd" clip-rule="evenodd" d="M27.2129 5.59668L31.5339 9.48636L31.5851 9.07668L28.2507 6.02115L27.2129 5.59668Z" fill="#525355"/>
<path fill-rule="evenodd" clip-rule="evenodd" d="M26.2559 5.27101L31.4737 9.96867L31.5328 9.49754L27.1925 5.58851L26.2639 5.20728L26.2605 5.2107L26.2559 5.27101ZM26.2207 5.77628L31.4122 10.45L31.4725 9.97891L26.2548 5.28125L26.2207 5.77628ZM26.1865 6.28155L31.3519 10.9314L31.4122 10.458L26.2207 5.78425L26.1865 6.28155Z" fill="#505052"/>
<path fill-rule="evenodd" clip-rule="evenodd" d="M26.1524 6.78588L31.2905 11.413L31.3508 10.9407L26.1866 6.29199L26.1524 6.78588ZM26.1183 7.29002L31.2313 11.8944L31.2905 11.4232L26.1513 6.79726L26.1183 7.29002ZM26.083 7.79529L31.171 12.3757L31.2302 11.9023L26.1171 7.3014L26.083 7.79529Z" fill="#4E4E50"/>
<path fill-rule="evenodd" clip-rule="evenodd" d="M26.0489 8.30085L31.1096 12.8574L31.1688 12.3851L26.082 7.80469L26.0489 8.30085ZM26.0137 8.80612L31.0493 13.3399L31.1085 12.8676L26.0478 8.3111L26.0137 8.80612Z" fill="#4C4C4E"/>
<path fill-rule="evenodd" clip-rule="evenodd" d="M25.9796 9.3124L30.9879 13.8212L31.0482 13.3478L26.0137 8.81396L25.9796 9.3124ZM25.9443 9.8154L30.9276 14.3025L30.9868 13.8303L25.9796 9.32151L25.9443 9.8154ZM25.9102 10.3218L30.8661 14.7839L30.9265 14.3128L25.9443 9.82792L25.9102 10.3218Z" fill="#4A494B"/>
<path fill-rule="evenodd" clip-rule="evenodd" d="M25.8756 10.8259L30.8054 15.2653L30.8646 14.7941L25.9086 10.332L25.8756 10.8259ZM25.8403 11.3323L30.7451 15.7466L30.8043 15.2744L25.8745 10.835L25.8403 11.3323Z" fill="#474749"/>
<path fill-rule="evenodd" clip-rule="evenodd" d="M25.8062 11.8363L30.6837 16.2278L30.744 15.7555L25.8392 11.3401L25.8062 11.8363ZM25.771 12.3404L30.6245 16.708L30.6837 16.2369L25.8051 11.8442L25.771 12.3404ZM25.7368 12.8468L30.5631 17.1928L30.6234 16.7183L25.771 12.3518L25.7368 12.8468Z" fill="#454546"/>
<path fill-rule="evenodd" clip-rule="evenodd" d="M25.7016 13.35L30.5028 17.6733L30.562 17.1999L25.7369 12.855L25.7016 13.35ZM25.6675 13.8553L30.4414 18.1535L30.5006 17.6847L25.7016 13.3614L25.6675 13.8553Z" fill="#434244"/>
<path fill-rule="evenodd" clip-rule="evenodd" d="M25.6334 14.3615L30.3812 18.6358L30.4403 18.1647L25.6676 13.8653L25.6334 14.3615ZM24.4226 13.8084L24.8357 14.1806L24.5671 13.5945L24.4226 13.8084ZM25.5981 14.8668L30.3208 19.1183L30.38 18.6449L25.6323 14.3706L25.5981 14.8668ZM24.1973 14.1419L25.2567 15.0944L24.8448 14.1976L24.418 13.8141L24.1973 14.1419ZM25.564 15.372L30.2594 19.5997L30.3197 19.1263L25.5981 14.8759L25.564 15.372Z" fill="#3F3F40"/>
<path fill-rule="evenodd" clip-rule="evenodd" d="M23.9732 14.4755L30.1992 20.0824L30.2584 19.6067L25.563 15.3813L25.5402 15.7136L25.2648 15.1116L24.194 14.1477L23.9732 14.4755ZM23.749 14.8077L30.1389 20.5626L30.1981 20.0915L23.9687 14.4823L23.749 14.8077Z" fill="#3B3B3C"/>
<path fill-rule="evenodd" clip-rule="evenodd" d="M23.5223 15.1424L30.0783 21.043L30.1375 20.5718L23.743 14.8147L23.5223 15.1424ZM23.2969 15.477L30.0168 21.5255L30.076 21.0521L23.5188 15.1481L23.2969 15.477ZM23.0728 15.8104L29.9565 22.0057L30.0157 21.5346L23.2935 15.4816L23.0728 15.8104Z" fill="#363637"/>
<path fill-rule="evenodd" clip-rule="evenodd" d="M22.8485 16.1423L29.895 22.49L29.9553 22.0166L23.0682 15.8157L22.8485 16.1423ZM22.6221 16.4769L29.8347 22.9703L29.8939 22.498L22.844 16.1491L22.6221 16.4769Z" fill="#323132"/>
<path fill-rule="evenodd" clip-rule="evenodd" d="M22.3979 16.8093L29.7733 23.4518L29.8336 22.9806L22.6176 16.4827L22.3979 16.8093ZM22.1715 17.1438L29.7141 23.932L29.7733 23.4609L22.3922 16.8172L22.1715 17.1438ZM22.4184 17.8995L29.6527 24.4145L29.7119 23.9411L22.1681 17.1495L22.1089 17.2372L22.4184 17.8995Z" fill="#2D2C2D"/>
<path fill-rule="evenodd" clip-rule="evenodd" d="M22.8498 18.8247L29.5913 24.8948L29.6516 24.4237L22.4253 17.9177L22.8498 18.8247ZM23.2788 19.7488L29.5321 25.3773L29.5901 24.9062L22.8589 18.8475L23.2788 19.7488ZM23.7101 20.674L29.4706 25.8598L29.531 25.3864L23.2879 19.767L23.7101 20.674Z" fill="#272728"/>
<path fill-rule="evenodd" clip-rule="evenodd" d="M24.1405 21.5969L28.4364 25.4638L29.4447 26.0613L29.4697 25.8678L23.7183 20.6899L24.1405 21.5969ZM24.5706 22.521L26.6919 24.4305L28.3989 25.4411L24.1496 21.6163L24.5706 22.521Z" fill="#212122"/>
<path fill-rule="evenodd" clip-rule="evenodd" d="M26.6589 24.41L24.5786 22.5369L24.9906 23.4211L26.6589 24.41Z" fill="#1B1B1B"/>
<path fill-rule="evenodd" clip-rule="evenodd" d="M21.7973 8.48956L22.1398 8.75016C23.2256 9.6131 24.1023 10.7102 24.7045 11.9596C25.3067 13.2089 25.6188 14.5782 25.6175 15.9651C25.6207 17.9482 24.9824 19.8791 23.7979 21.4696L23.7421 21.5424C22.5748 23.0825 20.9532 24.2171 19.1063 24.786C17.2594 25.355 15.2805 25.3295 13.4489 24.7132C11.6173 24.0969 10.0255 22.921 8.89814 21.3513C7.77083 19.7817 7.16494 17.8976 7.16602 15.9651C7.16575 14.2653 7.63512 12.5986 8.5223 11.1488C9.40949 9.69896 10.68 8.52245 12.1936 7.74911C13.7072 6.97576 15.4051 6.63565 17.0998 6.76631C18.7945 6.89698 20.4201 7.49333 21.7973 8.48956Z" fill="#FFF22D"/>
<path fill-rule="evenodd" clip-rule="evenodd" d="M20.9674 21.1166C20.7471 21.406 20.472 21.6493 20.1577 21.8324C19.8434 22.0156 19.4961 22.135 19.1357 22.1839C18.7752 22.2329 18.4087 22.2103 18.0569 22.1176C17.7052 22.0249 17.3752 21.8637 17.0857 21.6435C16.7962 21.4232 16.553 21.148 16.3698 20.8338C16.1867 20.5195 16.0673 20.1722 16.0183 19.8117C15.9694 19.4513 15.992 19.0847 16.0847 18.733C16.1774 18.3812 16.3385 18.0512 16.5588 17.7617C17.0037 17.1771 17.6626 16.7932 18.3906 16.6944C19.1185 16.5956 19.8559 16.79 20.4405 17.2348C21.0252 17.6797 21.4091 18.3386 21.5079 19.0666C21.6067 19.7945 21.4123 20.532 20.9674 21.1166Z" fill="#FFF232"/>
<path fill-rule="evenodd" clip-rule="evenodd" d="M20.8867 21.0541C20.6775 21.3397 20.4135 21.5809 20.1101 21.7634C19.8067 21.9459 19.47 22.0661 19.1196 22.1171C18.7693 22.1681 18.4123 22.1488 18.0694 22.0603C17.7266 21.9719 17.4048 21.816 17.1229 21.6019C16.8409 21.3877 16.6045 21.1195 16.4273 20.813C16.2501 20.5065 16.1357 20.1677 16.0908 19.8165C16.046 19.4653 16.0715 19.1087 16.1659 18.7674C16.2604 18.4262 16.4218 18.1072 16.6409 17.829C17.0734 17.2798 17.7043 16.9224 18.3978 16.8338C19.0912 16.7452 19.7917 16.9325 20.3485 17.3553C20.9052 17.7782 21.2735 18.4028 21.3742 19.0946C21.4749 19.7864 21.2998 20.4901 20.8867 21.0541Z" fill="#FFF239"/>
<path fill-rule="evenodd" clip-rule="evenodd" d="M20.8071 20.9914C20.3925 21.5241 19.7846 21.8719 19.1153 21.9594C18.446 22.0469 17.7692 21.8671 17.2316 21.4589C16.6941 21.0507 16.339 20.447 16.2436 19.7788C16.1481 19.1106 16.3199 18.4317 16.7216 17.8893C16.9253 17.621 17.1799 17.3955 17.4707 17.2256C17.7615 17.0557 18.083 16.9448 18.4167 16.8992C18.7504 16.8535 19.0899 16.874 19.4157 16.9596C19.7414 17.0451 20.0472 17.194 20.3154 17.3976C20.5837 17.6013 20.8092 17.8559 20.9791 18.1467C21.149 18.4376 21.2599 18.759 21.3055 19.0927C21.3512 19.4264 21.3307 19.7659 21.2451 20.0917C21.1596 20.4175 21.0107 20.7232 20.8071 20.9914Z" fill="#FFF23F"/>
<path fill-rule="evenodd" clip-rule="evenodd" d="M20.7253 20.9301C20.5297 21.1878 20.2853 21.4045 20.006 21.5677C19.7267 21.731 19.418 21.8377 19.0975 21.8816C18.777 21.9256 18.451 21.906 18.1381 21.824C17.8251 21.7419 17.5314 21.599 17.2737 21.4035C17.016 21.2079 16.7993 20.9636 16.636 20.6843C16.4728 20.405 16.3661 20.0963 16.3222 19.7758C16.2782 19.4553 16.2978 19.1292 16.3798 18.8163C16.4619 18.5034 16.6048 18.2097 16.8003 17.9519C17.1952 17.4315 17.7807 17.0892 18.428 17.0004C19.0753 16.9116 19.7314 17.0836 20.2519 17.4785C20.7723 17.8735 21.1146 18.459 21.2034 19.1063C21.2922 19.7536 21.1202 20.4096 20.7253 20.9301Z" fill="#FFF246"/>
<path fill-rule="evenodd" clip-rule="evenodd" d="M20.6422 20.8672C20.4565 21.1181 20.2229 21.3297 19.9549 21.4897C19.6868 21.6496 19.3897 21.7548 19.0807 21.799C18.7717 21.8432 18.4571 21.8257 18.1549 21.7473C17.8528 21.669 17.5692 21.5315 17.3206 21.3427C17.072 21.1539 16.8634 20.9177 16.7068 20.6476C16.5502 20.3776 16.4488 20.0792 16.4085 19.7697C16.3681 19.4602 16.3896 19.1457 16.4717 18.8446C16.5538 18.5434 16.6949 18.2616 16.8868 18.0154C17.0724 17.7645 17.306 17.5529 17.5741 17.3929C17.8421 17.233 18.1393 17.1278 18.4482 17.0836C18.7572 17.0394 19.0719 17.0569 19.3741 17.1353C19.6762 17.2136 19.9598 17.3511 20.2084 17.5399C20.457 17.7287 20.6656 17.9649 20.8222 18.235C20.9788 18.505 21.0802 18.8034 21.1205 19.1129C21.1609 19.4224 21.1394 19.7369 21.0573 20.038C20.9751 20.3392 20.8341 20.621 20.6422 20.8672Z" fill="#FFF24B"/>
<path fill-rule="evenodd" clip-rule="evenodd" d="M20.5603 20.8028C20.3812 21.0388 20.1575 21.2372 19.9018 21.3867C19.6461 21.5362 19.3634 21.6338 19.0699 21.6741C18.7765 21.7143 18.478 21.6964 18.1915 21.6213C17.9049 21.5462 17.636 21.4154 17.4 21.2364C17.1641 21.0573 16.9657 20.8336 16.8162 20.5779C16.6667 20.3222 16.569 20.0395 16.5287 19.746C16.4885 19.4526 16.5064 19.1541 16.5815 18.8676C16.6566 18.581 16.7874 18.3121 16.9665 18.0761C17.3353 17.6204 17.867 17.326 18.449 17.2554C19.031 17.1848 19.6176 17.3435 20.0847 17.6979C20.5518 18.0523 20.8626 18.5745 20.9514 19.154C21.0401 19.7335 20.8999 20.3249 20.5603 20.8028Z" fill="#FFF353"/>
<path fill-rule="evenodd" clip-rule="evenodd" d="M20.4792 20.7432C20.1266 21.1779 19.6187 21.4584 19.063 21.5253C18.5073 21.5922 17.9473 21.4403 17.5016 21.1018C17.0559 20.7632 16.7593 20.2646 16.6747 19.7113C16.5901 19.158 16.724 18.5935 17.0481 18.1372C17.3937 17.6822 17.9059 17.3831 18.472 17.3057C19.0381 17.2284 19.6117 17.3791 20.0667 17.7246C20.5217 18.0702 20.8207 18.5824 20.8981 19.1485C20.9755 19.7146 20.8248 20.2882 20.4792 20.7432Z" fill="#FFF358"/>
<path fill-rule="evenodd" clip-rule="evenodd" d="M20.3973 20.6811C20.2345 20.8956 20.031 21.0759 19.7985 21.2118C19.566 21.3477 19.309 21.4365 19.0421 21.473C18.7753 21.5096 18.5039 21.4933 18.2434 21.4249C17.9829 21.3566 17.7384 21.2376 17.5239 21.0748C17.3093 20.912 17.129 20.7085 16.9931 20.476C16.8572 20.2435 16.7684 19.9865 16.7319 19.7196C16.6953 19.4528 16.7117 19.1814 16.78 18.9209C16.8483 18.6604 16.9673 18.4159 17.1301 18.2014C17.4589 17.7681 17.9464 17.4832 18.4853 17.4094C19.0242 17.3355 19.5703 17.4788 20.0036 17.8076C20.4368 18.1364 20.7217 18.6239 20.7955 19.1628C20.8694 19.7017 20.7261 20.2478 20.3973 20.6811Z" fill="#FFF35F"/>
<path fill-rule="evenodd" clip-rule="evenodd" d="M20.3165 20.6183C20.1616 20.8223 19.9682 20.9938 19.7471 21.123C19.5259 21.2523 19.2816 21.3367 19.0278 21.3714C18.7741 21.4062 18.516 21.3906 18.2683 21.3257C18.0206 21.2607 17.7881 21.1476 17.5841 20.9927C17.3801 20.8379 17.2086 20.6444 17.0794 20.4233C16.9502 20.2022 16.8658 19.9578 16.831 19.7041C16.7963 19.4504 16.8118 19.1923 16.8768 18.9446C16.9418 18.6969 17.0549 18.4644 17.2097 18.2604C17.5224 17.8484 17.9859 17.5775 18.4984 17.5073C19.0108 17.4371 19.5301 17.5733 19.9421 17.886C20.354 18.1987 20.6249 18.6622 20.6952 19.1746C20.7654 19.687 20.6291 20.2064 20.3165 20.6183Z" fill="#FFF364"/>
<path fill-rule="evenodd" clip-rule="evenodd" d="M20.2325 20.5557C20.0858 20.7489 19.9026 20.9112 19.6933 21.0336C19.4839 21.1559 19.2525 21.2359 19.0122 21.2688C18.772 21.3017 18.5276 21.287 18.2931 21.2254C18.0585 21.1639 17.8384 21.0568 17.6452 20.9102C17.4521 20.7636 17.2897 20.5804 17.1673 20.371C17.045 20.1616 16.965 19.9302 16.9321 19.69C16.8992 19.4497 16.9139 19.2054 16.9755 18.9708C17.037 18.7363 17.1441 18.5161 17.2907 18.3229C17.5868 17.9328 18.0257 17.6764 18.5109 17.6099C18.9961 17.5434 19.4879 17.6724 19.878 17.9685C20.2681 18.2645 20.5246 18.7035 20.591 19.1887C20.6575 19.6739 20.5285 20.1656 20.2325 20.5557Z" fill="#FFF46B"/>
<path fill-rule="evenodd" clip-rule="evenodd" d="M20.1515 20.4965C20.0129 20.679 19.8397 20.8323 19.6418 20.9479C19.4439 21.0634 19.2252 21.1388 18.9982 21.1699C18.7712 21.2009 18.5402 21.1869 18.3186 21.1286C18.097 21.0704 17.889 20.9691 17.7065 20.8305C17.5241 20.6919 17.3707 20.5187 17.2551 20.3208C17.1396 20.1229 17.0642 19.9042 17.0331 19.6772C17.0021 19.4501 17.0161 19.2192 17.0744 18.9976C17.1326 18.7759 17.2339 18.568 17.3725 18.3855C17.6525 18.017 18.0673 17.7747 18.5258 17.7121C18.9844 17.6495 19.449 17.7716 19.8175 18.0515C20.186 18.3314 20.4283 18.7463 20.4909 19.2048C20.5535 19.6633 20.4314 20.128 20.1515 20.4965Z" fill="#FFF470"/>
<path fill-rule="evenodd" clip-rule="evenodd" d="M20.072 20.4363C19.8074 20.7813 19.4173 21.0078 18.9865 21.0665C18.5557 21.1251 18.1192 21.0111 17.7721 20.7493C17.6002 20.6191 17.4556 20.4563 17.3467 20.2701C17.2379 20.084 17.1668 19.8782 17.1376 19.6645C17.1085 19.4509 17.1217 19.2335 17.1767 19.025C17.2317 18.8165 17.3273 18.6209 17.458 18.4494C17.5879 18.2774 17.7504 18.1329 17.9364 18.0239C18.1223 17.915 18.3279 17.8438 18.5413 17.8145C18.7548 17.7852 18.972 17.7984 19.1804 17.8532C19.3887 17.9081 19.5842 18.0036 19.7556 18.1342C20.4771 18.6827 20.6194 19.7114 20.072 20.4363Z" fill="#FFF474"/>
<path fill-rule="evenodd" clip-rule="evenodd" d="M19.9891 20.3692C19.867 20.5302 19.7144 20.6656 19.54 20.7677C19.3656 20.8697 19.1728 20.9364 18.9726 20.9639C18.7724 20.9915 18.5687 20.9793 18.3732 20.9281C18.1777 20.8769 17.9942 20.7878 17.8332 20.6657C17.6722 20.5436 17.5368 20.391 17.4347 20.2165C17.3327 20.0421 17.266 19.8493 17.2385 19.6491C17.2109 19.4489 17.2231 19.2452 17.2743 19.0497C17.3255 18.8542 17.4147 18.6707 17.5368 18.5097C17.7833 18.1845 18.149 17.9706 18.5533 17.915C18.9576 17.8594 19.3675 17.9667 19.6927 18.2133C20.0179 18.4599 20.2318 18.8255 20.2874 19.2298C20.343 19.6342 20.2357 20.044 19.9891 20.3692Z" fill="#FFF57B"/>
<path fill-rule="evenodd" clip-rule="evenodd" d="M19.9071 20.3096C19.793 20.4597 19.6505 20.586 19.4876 20.6811C19.3247 20.7762 19.1447 20.8383 18.9578 20.8638C18.7709 20.8893 18.5808 20.8778 18.3984 20.8298C18.216 20.7819 18.0448 20.6985 17.8946 20.5844C17.7444 20.4703 17.6181 20.3277 17.523 20.1648C17.428 20.0019 17.3659 19.8219 17.3404 19.635C17.3148 19.4481 17.3264 19.2581 17.3743 19.0756C17.4223 18.8932 17.5057 18.722 17.6198 18.5718C17.8502 18.2685 18.1917 18.0691 18.5691 18.0176C18.9465 17.9661 19.329 18.0666 19.6323 18.297C19.9356 18.5274 20.135 18.8689 20.1865 19.2464C20.2381 19.6238 20.1376 20.0062 19.9071 20.3096Z" fill="#FFF581"/>
<path fill-rule="evenodd" clip-rule="evenodd" d="M19.8262 20.2474C19.6116 20.5284 19.2945 20.7131 18.9442 20.7611C18.5939 20.8091 18.2388 20.7164 17.9565 20.5034C17.6754 20.2894 17.4906 19.9727 17.4426 19.6226C17.3946 19.2726 17.4873 18.9178 17.7005 18.636C17.9197 18.3702 18.2332 18.1994 18.5754 18.1594C18.9177 18.1194 19.2621 18.2133 19.5367 18.4215C19.8113 18.6296 19.9948 18.9359 20.0487 19.2762C20.1027 19.6165 20.023 19.9645 19.8262 20.2474Z" fill="#FFF585"/>
<path fill-rule="evenodd" clip-rule="evenodd" d="M19.6622 20.1234C19.5725 20.2414 19.4605 20.3405 19.3325 20.4152C19.2045 20.4899 19.063 20.5387 18.9162 20.5587C18.7694 20.5787 18.62 20.5696 18.4767 20.5319C18.3334 20.4942 18.1989 20.4287 18.0809 20.339C17.9629 20.2494 17.8638 20.1373 17.7891 20.0093C17.7144 19.8814 17.6656 19.7399 17.6456 19.5931C17.6256 19.4462 17.6347 19.2969 17.6724 19.1536C17.7101 19.0103 17.7756 18.8758 17.8653 18.7578C17.9548 18.6397 18.0668 18.5405 18.1947 18.4658C18.3227 18.391 18.4642 18.3423 18.611 18.3223C18.7578 18.3023 18.9071 18.3115 19.0504 18.3493C19.1937 18.3871 19.3281 18.4529 19.4459 18.5427C19.5641 18.6322 19.6634 18.7441 19.7383 18.872C19.8131 18.9999 19.862 19.1413 19.882 19.2882C19.9021 19.435 19.893 19.5844 19.8553 19.7277C19.8176 19.871 19.7519 20.0055 19.6622 20.1234Z" fill="#FFF68E"/>
<path fill-rule="evenodd" clip-rule="evenodd" d="M19.5806 20.0607C19.4991 20.1678 19.3974 20.2579 19.2811 20.3257C19.1649 20.3935 19.0364 20.4378 18.9031 20.456C18.7697 20.4741 18.6341 20.4659 18.5039 20.4316C18.3737 20.3974 18.2516 20.3378 18.1444 20.2564C18.0373 20.1749 17.9472 20.0732 17.8794 19.9569C17.8116 19.8407 17.7673 19.7122 17.7491 19.5788C17.731 19.4455 17.7392 19.3099 17.7735 19.1797C17.8077 19.0495 17.8673 18.9274 17.9487 18.8202C18.0285 18.7087 18.1299 18.6142 18.2468 18.5426C18.3637 18.4709 18.4939 18.4234 18.6295 18.4029C18.7651 18.3824 18.9034 18.3893 19.0363 18.4232C19.1692 18.4572 19.294 18.5174 19.4032 18.6004C19.5124 18.6834 19.6038 18.7875 19.6721 18.9064C19.7403 19.0254 19.784 19.1569 19.8006 19.293C19.8171 19.4292 19.8062 19.5673 19.7684 19.6991C19.7306 19.831 19.6667 19.9539 19.5806 20.0607Z" fill="#FFF692"/>
<path fill-rule="evenodd" clip-rule="evenodd" d="M19.4998 19.9983C19.4265 20.0948 19.3348 20.1759 19.2301 20.2371C19.1253 20.2982 19.0096 20.3381 18.8894 20.3544C18.7693 20.3708 18.6471 20.3634 18.5298 20.3325C18.4125 20.3017 18.3025 20.248 18.2059 20.1746C18.1094 20.1013 18.0283 20.0096 17.9671 19.9049C17.906 19.8001 17.8662 19.6844 17.8498 19.5642C17.8334 19.4441 17.8408 19.3219 17.8717 19.2046C17.9025 19.0873 17.9562 18.9773 18.0296 18.8808C18.1777 18.6858 18.3973 18.5577 18.64 18.5246C18.8826 18.4915 19.1285 18.5562 19.3235 18.7044C19.5184 18.8525 19.6465 19.0721 19.6796 19.3148C19.7127 19.5574 19.648 19.8033 19.4998 19.9983Z" fill="#FFF798"/>
<path fill-rule="evenodd" clip-rule="evenodd" d="M19.4167 19.9367C19.3517 20.0225 19.2704 20.0947 19.1775 20.1492C19.0846 20.2036 18.9819 20.2392 18.8752 20.254C18.7685 20.2687 18.66 20.2623 18.5558 20.2351C18.4516 20.2079 18.3537 20.1604 18.2679 20.0954C18.182 20.0304 18.1098 19.9491 18.0554 19.8562C18.0009 19.7633 17.9653 19.6606 17.9506 19.5539C17.9358 19.4472 17.9423 19.3387 17.9695 19.2345C17.9967 19.1303 18.0441 19.0325 18.1091 18.9466C18.2404 18.7732 18.4352 18.6591 18.6507 18.6293C18.8661 18.5995 19.0846 18.6566 19.258 18.7879C19.4313 18.9191 19.5455 19.1139 19.5753 19.3294C19.605 19.5448 19.548 19.7633 19.4167 19.9367Z" fill="#FFF79B"/>
<path fill-rule="evenodd" clip-rule="evenodd" d="M19.3345 19.8763C19.2188 20.0269 19.0485 20.1258 18.8604 20.1515C18.6723 20.1773 18.4816 20.1279 18.3297 20.014C18.2545 19.9572 18.1912 19.8861 18.1436 19.8048C18.0959 19.7234 18.0647 19.6336 18.0517 19.5402C18.0388 19.4468 18.0443 19.3518 18.0681 19.2606C18.0919 19.1694 18.1334 19.0838 18.1903 19.0086C18.2471 18.9334 18.3182 18.8702 18.3995 18.8225C18.4808 18.7748 18.5707 18.7436 18.6641 18.7307C18.7575 18.7177 18.8524 18.7233 18.9437 18.7471C19.0349 18.7708 19.1205 18.8123 19.1957 18.8692C19.2711 18.9261 19.3346 18.9973 19.3825 19.0787C19.4303 19.1602 19.4616 19.2503 19.4745 19.3439C19.4874 19.4375 19.4817 19.5327 19.4576 19.6241C19.4336 19.7155 19.3918 19.8012 19.3345 19.8763Z" fill="#FFF7A1"/>
<path fill-rule="evenodd" clip-rule="evenodd" d="M19.2536 19.8136C19.2045 19.8779 19.1432 19.9318 19.0733 19.9724C19.0033 20.013 18.9261 20.0394 18.8459 20.0501C18.7658 20.0609 18.6843 20.0557 18.6061 20.0349C18.528 20.0142 18.4547 19.9782 18.3904 19.9291C18.3261 19.88 18.2722 19.8188 18.2316 19.7488C18.191 19.6789 18.1646 19.6016 18.1539 19.5215C18.1432 19.4413 18.1483 19.3598 18.1691 19.2817C18.1898 19.2035 18.2258 19.1302 18.2749 19.0659C18.374 18.9362 18.5207 18.8511 18.6826 18.8294C18.8444 18.8078 19.0083 18.8513 19.1381 18.9504C19.2678 19.0496 19.3529 19.1962 19.3746 19.3581C19.3963 19.52 19.3527 19.6838 19.2536 19.8136Z" fill="#FFF8A5"/>
<path fill-rule="evenodd" clip-rule="evenodd" d="M19.1729 19.7509C19.0906 19.8591 18.9688 19.9302 18.8341 19.9486C18.6994 19.9669 18.563 19.931 18.4548 19.8488C18.3466 19.7666 18.2755 19.6447 18.2571 19.51C18.2388 19.3754 18.2747 19.2389 18.3569 19.1307C18.442 19.0308 18.5621 18.9673 18.6925 18.9532C18.8229 18.9391 18.9538 18.9754 19.0583 19.0548C19.1627 19.1342 19.2328 19.2506 19.2541 19.3801C19.2754 19.5095 19.2464 19.6422 19.1729 19.7509Z" fill="#FFF8AA"/>
<path fill-rule="evenodd" clip-rule="evenodd" d="M19.0909 19.6897C18.9532 19.8695 18.696 19.9037 18.5151 19.7671C18.3341 19.6305 18.2989 19.3733 18.4366 19.1935C18.469 19.1504 18.5097 19.114 18.5563 19.0866C18.6028 19.0592 18.6544 19.0413 18.7079 19.0339C18.7614 19.0265 18.8159 19.0297 18.8681 19.0435C18.9204 19.0572 18.9694 19.0811 19.0124 19.1139C19.0987 19.1802 19.1553 19.2778 19.17 19.3857C19.1847 19.4935 19.1563 19.6027 19.0909 19.6897Z" fill="#FFF8AE"/>
<path fill-rule="evenodd" clip-rule="evenodd" d="M19.0093 19.6272C18.9601 19.6924 18.887 19.7353 18.8062 19.7467C18.7253 19.758 18.6432 19.7367 18.578 19.6875C18.5128 19.6383 18.4698 19.5652 18.4585 19.4843C18.4472 19.4034 18.4685 19.3214 18.5177 19.2562C18.567 19.1909 18.6401 19.1477 18.7211 19.136C18.802 19.1243 18.8843 19.145 18.9501 19.1936C19.0867 19.2983 19.1129 19.4895 19.0093 19.6272Z" fill="#FFF9B4"/>
<path fill-rule="evenodd" clip-rule="evenodd" d="M18.9261 19.5621C18.9104 19.5841 18.8905 19.6026 18.8675 19.6167C18.8445 19.6308 18.8189 19.64 18.7922 19.644C18.7655 19.6479 18.7383 19.6464 18.7123 19.6396C18.6862 19.6328 18.6617 19.6207 18.6404 19.6042C18.6187 19.588 18.6003 19.5676 18.5865 19.5442C18.5727 19.5208 18.5637 19.4949 18.56 19.468C18.5563 19.4411 18.558 19.4138 18.565 19.3875C18.5719 19.3613 18.584 19.3367 18.6006 19.3152C18.617 19.2938 18.6375 19.2758 18.6608 19.2623C18.6842 19.2488 18.71 19.2401 18.7367 19.2366C18.7635 19.2331 18.7907 19.2349 18.8167 19.242C18.8428 19.249 18.8672 19.2611 18.8885 19.2776C18.9795 19.3448 18.9955 19.4756 18.9261 19.5621Z" fill="#FFF9B8"/>
<path fill-rule="evenodd" clip-rule="evenodd" d="M18.8462 19.5031C18.8382 19.5138 18.8281 19.5227 18.8165 19.5295C18.805 19.5362 18.7922 19.5405 18.7789 19.5422C18.7657 19.5439 18.7522 19.5429 18.7393 19.5393C18.7265 19.5357 18.7144 19.5296 18.704 19.5213C18.6928 19.5137 18.6833 19.5039 18.6761 19.4925C18.6688 19.4812 18.664 19.4684 18.6619 19.4551C18.6598 19.4418 18.6604 19.4282 18.6637 19.4151C18.667 19.402 18.673 19.3898 18.6812 19.3791C18.6981 19.3577 18.7225 19.3437 18.7494 19.3399C18.7763 19.3361 18.8036 19.3428 18.8257 19.3586C18.847 19.3754 18.8611 19.3998 18.8649 19.4267C18.8687 19.4537 18.862 19.481 18.8462 19.5031Z" fill="#FFF9BE"/>
<path fill-rule="evenodd" clip-rule="evenodd" d="M20.3827 13.1187L19.1172 14.7175L17.2327 15.7759L17.2338 17.1005L16.361 18.2044L16.3496 15.3742L20.3827 13.1187Z" fill="#8D8E91"/>
<path fill-rule="evenodd" clip-rule="evenodd" d="M29.5972 24.7481L30.4188 23.7102L30.2151 25.4775L29.4424 26.0636L29.5972 24.7481Z" fill="#67686A"/>
<path fill-rule="evenodd" clip-rule="evenodd" d="M16.36 18.0829L17.234 16.9642V16.5579L16.3589 17.6641L16.36 18.0829ZM18.8875 14.8464L20.1268 13.26L19.6102 13.5491L18.3436 15.1514L18.8875 14.8464Z" fill="#8D8E91"/>
<path fill-rule="evenodd" clip-rule="evenodd" d="M16.3621 18.6314L17.235 17.515L17.2338 16.9027L16.3599 18.0203L16.3621 18.6314ZM19.6544 14.4162L20.8914 12.8333L20.0402 13.3089L18.8009 14.8953L19.6544 14.4162Z" fill="#8D8E91"/>
<path fill-rule="evenodd" clip-rule="evenodd" d="M16.3646 19.1821L17.2352 18.068V17.4512L16.3623 18.5653L16.3646 19.1821ZM20.4272 13.9838L21.662 12.4031L20.8062 12.881L19.5692 14.464L20.4272 13.9838Z" fill="#8B8C8F"/>
<path fill-rule="evenodd" clip-rule="evenodd" d="M16.3665 19.7316L17.2348 18.6198V18.0041L16.3643 19.1182L16.3665 19.7316ZM21.1939 13.5523L22.4264 11.9739L21.5729 12.4518L20.3382 14.0325L21.1939 13.5523Z" fill="#898A8D"/>
<path fill-rule="evenodd" clip-rule="evenodd" d="M16.3688 20.2805L17.236 19.1709V18.5552L16.3677 19.6671L16.3688 20.2805ZM21.9632 13.1213L23.1945 11.5452L22.3399 12.0243L21.1063 13.6027L21.9632 13.1213Z" fill="#898A8D"/>
<path fill-rule="evenodd" clip-rule="evenodd" d="M16.3714 20.8298L17.2363 19.7225V19.1091L16.3691 20.2209L16.3714 20.8298ZM22.7306 12.6897L23.9596 11.1169L23.1084 11.5926L21.8782 13.1676L22.7306 12.6897Z" fill="#898A8D"/>
<path fill-rule="evenodd" clip-rule="evenodd" d="M16.3737 21.3785L17.2374 20.2735V19.6624L16.3726 20.7697L16.3737 21.3785ZM23.501 12.2575L24.7277 10.687L23.8754 11.1627L22.6475 12.7366L23.501 12.2575Z" fill="#87898B"/>
<path fill-rule="evenodd" clip-rule="evenodd" d="M16.3769 21.9293L17.2373 20.8266V20.2132L16.3735 21.3182L16.3769 21.9293ZM24.269 11.8273L25.4935 10.2603L24.6411 10.7371L23.4143 12.3075L24.269 11.8273Z" fill="#87898B"/>
<path fill-rule="evenodd" clip-rule="evenodd" d="M16.3781 22.4789L17.2373 21.3785V20.7628L16.377 21.8656L16.3781 22.4789ZM25.0371 11.3948L26.2605 9.83008L25.4058 10.308L24.1814 11.8762L25.0371 11.3948Z" fill="#87898B"/>
<path fill-rule="evenodd" clip-rule="evenodd" d="M16.3802 23.0275L17.2371 21.9316V21.3137L16.3779 22.4141L16.3802 23.0275ZM25.8063 10.9636L27.0273 9.40112L26.1716 9.87908L24.9482 11.4438L25.8063 10.9636Z" fill="#858789"/>
<path fill-rule="evenodd" clip-rule="evenodd" d="M16.3836 23.5793L17.2383 22.4834V21.8654L16.3813 22.9636L16.3836 23.5793ZM26.5755 10.5321L27.7943 8.97192L26.9363 9.45216L25.7152 11.0146L26.5755 10.5321Z" fill="#838587"/>
<path fill-rule="evenodd" clip-rule="evenodd" d="M16.3859 24.1257L17.2394 23.0321V22.4164L16.3848 23.5123L16.3859 24.1257ZM27.3426 10.101L28.5591 8.54419L27.7022 9.02328L26.4834 10.5835L27.3426 10.101Z" fill="#838587"/>
<path fill-rule="evenodd" clip-rule="evenodd" d="M16.3885 24.6774L17.2409 23.5884V22.9704L16.3862 24.0641L16.3885 24.6774ZM28.1122 9.6695L29.3276 8.11499L28.4718 8.59296L27.2553 10.1509L28.1122 9.6695Z" fill="#838587"/>
<path fill-rule="evenodd" clip-rule="evenodd" d="M16.3905 25.2263L17.2405 24.1395V23.5215L16.3882 24.6129L16.3905 25.2263ZM28.88 9.23852L30.0931 7.68628L29.2396 8.16425L28.0242 9.71875L28.88 9.23852Z" fill="#828385"/>
<path fill-rule="evenodd" clip-rule="evenodd" d="M16.3929 25.7745L17.2418 24.6877L17.2407 24.0743L16.3906 25.1633L16.3929 25.7745ZM29.6483 8.80801L30.858 7.25806L30.0056 7.73488L28.7925 9.28712L29.6483 8.80801Z" fill="#828385"/>
<path fill-rule="evenodd" clip-rule="evenodd" d="M16.395 26.3267L17.2417 25.2422L17.2405 24.6242L16.3916 25.711L16.395 26.3267ZM30.4163 8.37589L31.6249 6.82935L30.7702 7.3073L29.5594 8.85726L30.4163 8.37589Z" fill="#808183"/>
<path fill-rule="evenodd" clip-rule="evenodd" d="M16.3973 26.8725L17.2428 25.7903L17.2417 25.1769L16.395 26.2614L16.3973 26.8725ZM31.1856 7.94417L32.3919 6.3999L31.5372 6.87786L30.3287 8.4244L31.1856 7.94417Z" fill="#808183"/>
<path fill-rule="evenodd" clip-rule="evenodd" d="M16.3997 27.4222L17.243 26.3423V25.7312L16.3975 26.8134L16.3997 27.4222ZM31.5772 7.99659L32.3317 7.03156L32.4046 6.39542L32.4034 6.39429L32.3033 6.45004L31.0959 7.99431L31.6114 7.7064L31.5772 7.99659Z" fill="#7E7F82"/>
<path fill-rule="evenodd" clip-rule="evenodd" d="M16.4022 27.9709L17.2432 26.8955V26.2821L16.3999 27.3598L16.4022 27.9709ZM31.5 8.64997L32.2579 7.6804L32.341 6.95776L31.5865 7.92392L31.5 8.64997Z" fill="#7E7F82"/>
<path fill-rule="evenodd" clip-rule="evenodd" d="M16.403 28.524L17.2428 27.4486V26.833L16.4019 27.9084L16.403 28.524ZM31.4234 9.30092L32.1825 8.32908L32.2656 7.60645L31.5088 8.57603L31.4234 9.30092Z" fill="#7C7D80"/>
<path fill-rule="evenodd" clip-rule="evenodd" d="M16.4056 29.0712L17.2432 28.0004V27.3847L16.4033 28.4601L16.4056 29.0712ZM31.3464 9.94944L32.1089 8.97304L32.1919 8.24927L31.4329 9.22111L31.3464 9.94944Z" fill="#7C7D80"/>
<path fill-rule="evenodd" clip-rule="evenodd" d="M16.409 29.6221L17.2443 28.5513V27.9333L16.4067 29.0065L16.409 29.6221ZM31.269 10.5993L32.0337 9.61952L32.1168 8.89575L31.3544 9.87102L31.269 10.5993Z" fill="#7A7B7E"/>
<path fill-rule="evenodd" clip-rule="evenodd" d="M16.4113 30.1717L17.2454 29.1043V28.4909L16.4102 29.5595L16.4113 30.1717ZM31.1928 11.2502L31.9609 10.2681L32.044 9.54321L31.2793 10.523L31.1928 11.2502Z" fill="#7A7B7E"/>
<path fill-rule="evenodd" clip-rule="evenodd" d="M16.4134 30.7202L17.2453 29.6527V29.0394L16.4111 30.1068L16.4134 30.7202ZM31.1152 11.9011L31.8856 10.9144L31.9687 10.1907L31.2017 11.1739L31.1152 11.9011Z" fill="#787A7C"/>
<path fill-rule="evenodd" clip-rule="evenodd" d="M16.4159 31.2703L17.2455 30.2051V29.5917L16.4136 30.6569L16.4159 31.2703ZM31.0391 12.5513L31.8118 11.5613L31.8949 10.842L31.1245 11.8275L31.0391 12.5513Z" fill="#787A7C"/>
<path fill-rule="evenodd" clip-rule="evenodd" d="M16.4181 31.8183L17.2466 30.7577V30.142L16.417 31.2049L16.4181 31.8183ZM30.9618 13.2029L31.7367 12.2094L31.8198 11.4868L31.0471 12.4757L30.9618 13.2029Z" fill="#787A7C"/>
<path fill-rule="evenodd" clip-rule="evenodd" d="M16.4204 32.3693L17.2466 31.311V30.693L16.417 31.7536L16.4204 32.3693ZM30.8855 13.8529L31.6639 12.8572L31.7458 12.1379L30.9709 13.1303L30.8855 13.8529Z" fill="#76787A"/>
<path fill-rule="evenodd" clip-rule="evenodd" d="M16.4227 32.9188L17.2477 31.8627V31.2471L16.4204 32.3054L16.4227 32.9188ZM30.8081 14.5048L31.5888 13.5057L31.6719 12.7842L30.8935 13.7799L30.8081 14.5048Z" fill="#76787A"/>
<path fill-rule="evenodd" clip-rule="evenodd" d="M16.4248 33.465L17.2476 32.4112V31.7978L16.4214 32.8539L16.4248 33.465ZM30.7306 15.1534L31.5147 14.1509L31.5966 13.4316L30.8159 14.4308L30.7306 15.1534Z" fill="#757678"/>
<path fill-rule="evenodd" clip-rule="evenodd" d="M16.4271 34.0147L17.2487 32.9632V32.352L16.4248 33.4058L16.4271 34.0147ZM30.6543 15.8055L31.4396 14.7995L31.5226 14.0803L30.7397 15.0829L30.6543 15.8055Z" fill="#757678"/>
<path fill-rule="evenodd" clip-rule="evenodd" d="M16.4295 34.5631L17.2489 33.5139V32.9028L16.4272 33.9543L16.4295 34.5631ZM30.5783 16.4541L31.3669 15.4436L31.4488 14.7244L30.6636 15.7304L30.5783 16.4541Z" fill="#737476"/>
<path fill-rule="evenodd" clip-rule="evenodd" d="M16.4315 35.1165L17.2497 34.0696L17.2486 33.4516L16.4292 34.5009L16.4315 35.1165ZM30.5006 17.1077L31.2915 16.0937L31.3745 15.3711L30.5859 16.3805L30.5006 17.1077Z" fill="#737476"/>
<path fill-rule="evenodd" clip-rule="evenodd" d="M16.4339 35.6684L17.2499 34.6237V34.0035L16.4316 35.0505L16.4339 35.6684ZM30.4233 17.762L31.2177 16.7446L31.3007 16.0186L30.5098 17.0314L30.4233 17.762Z" fill="#737476"/>
<path fill-rule="evenodd" clip-rule="evenodd" d="M16.78 35.7764L17.2512 35.1744L17.25 34.5542L16.4341 35.6012L16.4352 36.0439L16.78 35.7764ZM30.3461 18.4117L31.1427 17.3909L31.2258 16.666L30.4326 17.6834L30.3461 18.4117Z" fill="#717274"/>
<path fill-rule="evenodd" clip-rule="evenodd" d="M30.2698 19.0603L31.0698 18.0372L31.1529 17.3135L30.3563 18.332L30.2698 19.0603ZM17.2499 35.1061L16.6445 35.8822L17.2511 35.4111L17.2499 35.1061Z" fill="#717274"/>
<path fill-rule="evenodd" clip-rule="evenodd" d="M30.1934 19.7091L30.9957 18.6826L31.0776 17.9634L30.2787 18.9876L30.1934 19.7091Z" fill="#6F7072"/>
<path fill-rule="evenodd" clip-rule="evenodd" d="M30.1162 20.3634L30.9208 19.3312L31.0039 18.6108L30.2016 19.6385L30.1162 20.3634Z" fill="#6F7072"/>
<path fill-rule="evenodd" clip-rule="evenodd" d="M30.0386 21.0143L30.8454 19.981L30.9285 19.2561L30.1251 20.2871L30.0386 21.0143Z" fill="#6D6E70"/>
<path fill-rule="evenodd" clip-rule="evenodd" d="M29.9624 21.6628L30.7715 20.6273L30.8546 19.9023L30.0489 20.9357L29.9624 21.6628Z" fill="#6D6E70"/>
<path fill-rule="evenodd" clip-rule="evenodd" d="M29.8848 22.3142L30.6973 21.2741L30.7804 20.5503L29.9713 21.5882L29.8848 22.3142Z" fill="#6B6C6E"/>
<path fill-rule="evenodd" clip-rule="evenodd" d="M29.8076 22.9658L30.6236 21.9211L30.7066 21.1985L29.8941 22.2386L29.8076 22.9658Z" fill="#6B6C6E"/>
<path fill-rule="evenodd" clip-rule="evenodd" d="M29.7314 23.6168L30.5485 22.5698L30.6316 21.8472L29.8168 22.8896L29.7314 23.6168Z" fill="#696A6C"/>
<path fill-rule="evenodd" clip-rule="evenodd" d="M29.6538 24.2681L30.4743 23.2189L30.5574 22.4951L29.7392 23.5421L29.6538 24.2681Z" fill="#696A6C"/>
<path fill-rule="evenodd" clip-rule="evenodd" d="M29.5776 24.9179L30.4004 23.8642L30.4835 23.1438L29.663 24.193L29.5776 24.9179Z" fill="#67686A"/>
<path fill-rule="evenodd" clip-rule="evenodd" d="M30.4085 23.7874L29.5868 24.8411L29.522 25.3885L30.3447 24.3484L30.4085 23.7874Z" fill="#67686A"/>
<path fill-rule="evenodd" clip-rule="evenodd" d="M4.18876 8.81377L4.65989 8.21063L4.14893 8.42571L4.18876 8.81377ZM4.23769 9.30197L5.30172 7.94092L4.71565 8.18673L4.19217 8.85701L4.23769 9.30197Z" fill="#8B8C8F"/>
<path fill-rule="evenodd" clip-rule="evenodd" d="M4.28933 9.79377L5.94967 7.66912L5.36247 7.91607L4.24268 9.34767L4.28933 9.79377ZM4.33827 10.2831L5.11211 9.29305L5.08138 8.99034L5.48765 8.81168L6.59151 7.39941L6.00657 7.64523L4.29275 9.83814L4.33827 10.2831Z" fill="#898A8D"/>
<path fill-rule="evenodd" clip-rule="evenodd" d="M4.38829 10.7769L5.16213 9.78688L5.11661 9.33851L4.34277 10.3286L4.38829 10.7769ZM6.15219 8.51915L7.24012 7.12624L6.65177 7.37319L5.55019 8.78431L6.15219 8.51915ZM4.43837 11.2651L5.21107 10.2751L5.16555 9.82785L4.39171 10.8179L4.43837 11.2651ZM6.81109 8.22896L7.88309 6.85654L7.29702 7.10234L6.21023 8.49297L6.81109 8.22896ZM4.48844 11.7568L5.26228 10.7667L5.21676 10.3183L4.44406 11.3084L4.48844 11.7568ZM7.47227 7.93763L8.52834 6.58569L7.93999 6.83263L6.86913 8.20393L7.47227 7.93763Z" fill="#87898B"/>
<path fill-rule="evenodd" clip-rule="evenodd" d="M4.5382 12.2484L5.3109 11.2583L5.26538 10.8088L4.49268 11.7989L4.5382 12.2484ZM8.13427 7.64633L9.17554 6.31373L8.58492 6.56068L7.53 7.91149L8.13427 7.64633ZM4.58827 12.7389L5.36097 11.75L5.31545 11.3016L4.54275 12.2905L4.58827 12.7389ZM8.79545 7.355L9.82079 6.04175L9.2313 6.28983L8.19117 7.62015L8.79545 7.355Z" fill="#858789"/>
<path fill-rule="evenodd" clip-rule="evenodd" d="M4.63846 13.2282L5.41002 12.2393L5.3645 11.7909L4.5918 12.7799L4.63846 13.2282ZM9.45219 7.06483L10.4627 5.77206L9.87325 6.01901L8.84905 7.32999L9.45219 7.06483ZM4.68853 13.7187L5.46009 12.7309L5.41457 12.2837L4.64187 13.2726L4.68853 13.7187ZM10.1145 6.77351L11.1091 5.50122L10.5196 5.74931L9.51137 7.03979L10.1145 6.77351Z" fill="#838587"/>
<path fill-rule="evenodd" clip-rule="evenodd" d="M4.73758 14.2089L5.50914 13.2211L5.46362 12.7739L4.69092 13.7617L4.73758 14.2089ZM10.7735 6.48301L11.7522 5.23007L11.1639 5.47702L10.1715 6.74702L10.7735 6.48301ZM4.78765 14.6982L5.55921 13.7116L5.51369 13.2632L4.74213 14.251L4.78765 14.6982ZM11.4347 6.19168L12.3975 4.95923L11.8102 5.20617L10.8338 6.45684L11.4347 6.19168Z" fill="#828385"/>
<path fill-rule="evenodd" clip-rule="evenodd" d="M4.83751 15.1921L5.60908 14.2044L5.56356 13.756L4.79199 14.7438L4.83751 15.1921ZM12.0957 5.90037L13.0425 4.68841L12.4564 4.93421L11.4948 6.16553L12.0957 5.90037ZM4.88758 15.6803L5.65801 14.6937L5.61249 14.2453L4.84093 15.232L4.88758 15.6803ZM12.7546 5.61018L13.6855 4.4187L13.0994 4.6645L12.1526 5.87534L12.7546 5.61018Z" fill="#808183"/>
<path fill-rule="evenodd" clip-rule="evenodd" d="M4.93761 16.1688L5.7069 15.1822L5.66251 14.7383L4.89209 15.725L4.93761 16.1688ZM13.4146 5.31913L14.3307 4.14698L13.7457 4.39279L12.816 5.58314L13.4146 5.31913ZM4.98768 16.6604L5.75811 15.6749L5.71259 15.23L4.94216 16.2155L4.98768 16.6604ZM14.0757 5.02779L14.9759 3.875L14.391 4.12081L13.476 5.29181L14.0757 5.02779Z" fill="#7E7F82"/>
<path fill-rule="evenodd" clip-rule="evenodd" d="M5.03771 17.1497L5.807 16.1642L5.76148 15.717L4.99219 16.7025L5.03771 17.1497ZM14.7346 4.73757L15.0623 4.31879L15.0362 3.85221L15.035 3.85107H15.0339L14.1349 5.00158L14.7346 4.73757ZM5.08778 17.6425L5.85707 16.657L5.81155 16.2097L5.04112 17.1953L5.08778 17.6425ZM15.0646 4.36658L14.7961 4.71026L15.0771 4.58622L15.0646 4.36658ZM5.13785 18.1341L5.90714 17.1497L5.86162 16.6991L5.09233 17.6846L5.13785 18.1341Z" fill="#7C7D80"/>
<path fill-rule="evenodd" clip-rule="evenodd" d="M5.18712 18.6202L5.95641 17.637L5.91089 17.1909L5.1416 18.1764L5.18712 18.6202ZM5.23719 19.1164L6.00648 18.132L5.96096 17.6803L5.19167 18.6646L5.23719 19.1164Z" fill="#7A7B7E"/>
<path fill-rule="evenodd" clip-rule="evenodd" d="M5.28722 19.6057L6.05651 18.6202L6.01099 18.1741L5.2417 19.1584L5.28722 19.6057ZM5.33729 20.0961L6.10544 19.1118L6.06106 18.6645L5.29177 19.6478L5.33729 20.0961Z" fill="#787A7C"/>
<path fill-rule="evenodd" clip-rule="evenodd" d="M5.38732 20.5853L6.15547 19.6032L6.10995 19.156L5.3418 20.1381L5.38732 20.5853ZM5.43739 21.0758L6.20554 20.0937L6.16002 19.6476L5.39187 20.632L5.43739 21.0758ZM5.48746 21.5651L6.25447 20.5831L6.20895 20.1381L5.44194 21.1213L5.48746 21.5651Z" fill="#76787A"/>
<path fill-rule="evenodd" clip-rule="evenodd" d="M5.53771 22.0545L6.30358 21.0724L6.25806 20.6274L5.49219 21.6095L5.53771 22.0545ZM5.58664 22.5461L6.35365 21.5629L6.30813 21.1191L5.54226 22.0989L5.58664 22.5461Z" fill="#757678"/>
<path fill-rule="evenodd" clip-rule="evenodd" d="M5.63748 23.039L6.40335 22.0592L6.35783 21.6074L5.59082 22.5907L5.63748 23.039ZM5.68641 23.5261L6.45229 22.5463L6.4079 22.1013L5.64089 23.0811L5.68641 23.5261Z" fill="#737476"/>
<path fill-rule="evenodd" clip-rule="evenodd" d="M5.73644 24.0188L6.50231 23.039L6.45679 22.5906L5.69092 23.5727L5.73644 24.0188ZM5.78651 24.5104L6.55238 23.5306L6.50686 23.0811L5.74099 24.062L5.78651 24.5104Z" fill="#717274"/>
<path fill-rule="evenodd" clip-rule="evenodd" d="M5.83702 25.0017L6.60176 24.0207L6.55624 23.5701L5.7915 24.5499L5.83702 25.0017ZM5.8871 25.4899L6.65183 24.5123L6.60631 24.064L5.84044 25.0415L5.8871 25.4899ZM5.93603 25.9792L6.7019 25.0017L6.65638 24.5522L5.89051 25.5331L5.93603 25.9792Z" fill="#6F7072"/>
<path fill-rule="evenodd" clip-rule="evenodd" d="M5.98595 26.471L6.75182 25.4923L6.70517 25.0439L5.94043 26.0215L5.98595 26.471ZM6.03602 26.9592L6.80076 25.9839L6.75524 25.539L5.99164 26.5177L6.03602 26.9592Z" fill="#6D6E70"/>
<path fill-rule="evenodd" clip-rule="evenodd" d="M6.08718 27.4511L6.84964 26.4735L6.80526 26.0286L6.04053 27.0061L6.08718 27.4511ZM6.13612 27.9427L6.89972 26.964L6.8542 26.5202L6.0906 27.4954L6.13612 27.9427Z" fill="#6B6C6E"/>
<path fill-rule="evenodd" clip-rule="evenodd" d="M6.40009 28.1597L6.94974 27.4576L6.90422 27.0081L6.14062 27.9867L6.17363 28.3156L6.40009 28.1597ZM6.95316 27.4974L6.47633 28.1085L6.98047 27.766L6.95316 27.4974Z" fill="#696A6C"/>
<path fill-rule="evenodd" clip-rule="evenodd" d="M11.6659 23.1719L10.9683 23.9195L11.0422 24.0811L11.1412 24.1745L11.8593 23.5918L11.6659 23.1719Z" fill="#838587"/>
<path fill-rule="evenodd" clip-rule="evenodd" d="M11.4015 22.5959L10.7051 23.3413L10.9805 23.9456L11.6781 23.1968L11.4015 22.5959Z" fill="#838587"/>
<path fill-rule="evenodd" clip-rule="evenodd" d="M11.1387 22.0212L10.4434 22.7655L10.7165 23.3675L11.4129 22.621L11.1387 22.0212Z" fill="#828385"/>
<path fill-rule="evenodd" clip-rule="evenodd" d="M10.8737 21.4458L10.1807 22.1878L10.4538 22.7898L11.1491 22.0455L10.8737 21.4458Z" fill="#828385"/>
<path fill-rule="evenodd" clip-rule="evenodd" d="M10.6094 20.8699L9.91748 21.6096L10.1906 22.2127L10.8848 21.4696L10.6094 20.8699Z" fill="#808183"/>
<path fill-rule="evenodd" clip-rule="evenodd" d="M10.3444 20.2917L9.65479 21.0314L9.92904 21.6346L10.6198 20.8915L10.3444 20.2917Z" fill="#808183"/>
<path fill-rule="evenodd" clip-rule="evenodd" d="M10.0817 19.7183L9.39209 20.4568L9.66635 21.0588L10.356 20.318L10.0817 19.7183Z" fill="#7E7F82"/>
<path fill-rule="evenodd" clip-rule="evenodd" d="M9.81658 19.1401L9.13037 19.8787L9.40349 20.4784L10.092 19.741L9.81658 19.1401Z" fill="#7E7F82"/>
<path fill-rule="evenodd" clip-rule="evenodd" d="M9.55243 18.5642L8.86621 19.3005L9.14161 19.9025L9.82896 19.1673L9.55243 18.5642Z" fill="#7C7D80"/>
<path fill-rule="evenodd" clip-rule="evenodd" d="M9.28957 17.9895L8.60449 18.7224L8.87875 19.3244L9.56496 18.5892L9.28957 17.9895Z" fill="#7C7D80"/>
<path fill-rule="evenodd" clip-rule="evenodd" d="M9.02411 17.4124L8.34131 18.1441L8.61557 18.7472L9.29951 18.0132L9.02411 17.4124Z" fill="#7C7D80"/>
<path fill-rule="evenodd" clip-rule="evenodd" d="M8.76027 16.8367L8.07861 17.5673L8.35173 18.1693L9.03567 17.4375L8.76027 16.8367Z" fill="#7A7B7E"/>
<path fill-rule="evenodd" clip-rule="evenodd" d="M8.49628 16.262L7.81689 16.9903L8.09115 17.5934L8.77168 16.8628L8.49628 16.262Z" fill="#7A7B7E"/>
<path fill-rule="evenodd" clip-rule="evenodd" d="M8.23098 15.686L7.55273 16.4132L7.82813 17.0175L8.50752 16.288L8.23098 15.686Z" fill="#787A7C"/>
<path fill-rule="evenodd" clip-rule="evenodd" d="M7.96699 15.1106L7.29102 15.8366L7.56414 16.4375L8.24352 15.7103L7.96699 15.1106Z" fill="#787A7C"/>
<path fill-rule="evenodd" clip-rule="evenodd" d="M7.70315 14.5334L7.02832 15.2572L7.30144 15.8603L7.97969 15.1354L7.70315 14.5334Z" fill="#787A7C"/>
<path fill-rule="evenodd" clip-rule="evenodd" d="M7.43932 13.9573L6.76562 14.6799L7.03988 15.283L7.71472 14.5581L7.43932 13.9573Z" fill="#76787A"/>
<path fill-rule="evenodd" clip-rule="evenodd" d="M7.175 13.3831L6.50244 14.1034L6.7767 14.7054L7.45039 13.9839L7.175 13.3831Z" fill="#76787A"/>
<path fill-rule="evenodd" clip-rule="evenodd" d="M6.911 12.8071L6.24072 13.5263L6.51384 14.1283L7.1864 13.4069L6.911 12.8071Z" fill="#76787A"/>
<path fill-rule="evenodd" clip-rule="evenodd" d="M6.64717 12.2312L5.97803 12.9481L6.25229 13.5524L6.92257 12.8332L6.64717 12.2312Z" fill="#757678"/>
<path fill-rule="evenodd" clip-rule="evenodd" d="M6.38187 11.6543L5.71387 12.3701L5.98926 12.9732L6.65841 12.2563L6.38187 11.6543Z" fill="#757678"/>
<path fill-rule="evenodd" clip-rule="evenodd" d="M6.11902 11.0796L5.45215 11.7931L5.72641 12.3974L6.39441 11.6805L6.11902 11.0796Z" fill="#737476"/>
<path fill-rule="evenodd" clip-rule="evenodd" d="M5.85518 10.5037L5.18945 11.216L5.46371 11.8169L6.12944 11.1022L5.85518 10.5037Z" fill="#737476"/>
<path fill-rule="evenodd" clip-rule="evenodd" d="M5.58972 9.92676L4.92627 10.638L5.20053 11.24L5.86626 10.5288L5.58972 9.92676Z" fill="#737476"/>
<path fill-rule="evenodd" clip-rule="evenodd" d="M5.32589 9.34961L4.66357 10.0597L4.93783 10.664L5.60129 9.95161L5.32589 9.34961Z" fill="#717274"/>
<path fill-rule="evenodd" clip-rule="evenodd" d="M4.7205 9.14254L4.40186 9.4828L4.67611 10.0859L5.33729 9.37583L5.15862 8.98435L5.13928 8.96729L4.7205 9.14254Z" fill="#717274"/>
<path fill-rule="evenodd" clip-rule="evenodd" d="M4.41331 9.50899L4.77747 9.11865L4.32227 9.3087L4.41331 9.50899Z" fill="#6F7072"/>
<path fill-rule="evenodd" clip-rule="evenodd" d="M16.3484 15.373L16.3496 15.3741L16.3826 23.4585L10.894 14.6993L10.8428 12.322L16.3484 15.373Z" fill="black"/>
<path fill-rule="evenodd" clip-rule="evenodd" d="M3.003 25.8927L2.47383 25.046L2.5387 25.5388L3.003 25.8927ZM3.77457 26.481L2.36572 24.2278L2.467 24.9948L3.0508 25.9279L3.77457 26.481Z" fill="#4E4E50"/>
<path fill-rule="evenodd" clip-rule="evenodd" d="M4.54393 27.0684L2.25655 23.4098L2.35897 24.1791L3.81902 26.5176L4.54393 27.0684ZM5.31663 27.6602L2.14844 22.5881L2.25086 23.3608L4.58831 27.1037L5.31663 27.6602Z" fill="#4C4C4E"/>
<path fill-rule="evenodd" clip-rule="evenodd" d="M6.08586 28.2461L2.03914 21.772L2.14156 22.5413L5.36096 27.693L6.08586 28.2461ZM6.11204 27.6441L1.93103 20.9515L2.03345 21.7231L6.13024 28.2825L6.17349 28.3155L6.11204 27.6441ZM6.04375 26.8885L1.82178 20.1333L1.9242 20.9071L6.10976 27.6043L6.04375 26.8885Z" fill="#4A494B"/>
<path fill-rule="evenodd" clip-rule="evenodd" d="M5.97701 26.1373L1.71407 19.3161L1.81649 20.0865L6.04074 26.8485L5.97701 26.1373ZM5.90759 25.3816L1.60596 18.4956L1.70724 19.2694L5.97246 26.0929L5.90759 25.3816Z" fill="#474749"/>
<path fill-rule="evenodd" clip-rule="evenodd" d="M5.83926 24.6262L1.49665 17.6741L1.59907 18.4468L5.90413 25.3374L5.83926 24.6262ZM5.77098 23.8728L1.38741 16.8582L1.48983 17.6286L5.83471 24.5818L5.77098 23.8728ZM5.70156 23.116L1.2793 16.0388L1.38172 16.8104L5.76643 23.8296L5.70156 23.116Z" fill="#454546"/>
<path fill-rule="evenodd" clip-rule="evenodd" d="M12.2207 32.9027L10.7357 30.5266L11.6608 32.4873L12.2207 32.9027ZM5.63287 22.3626L1.17077 15.2205L1.27319 15.992L5.69887 23.075L5.63287 22.3626ZM12.973 33.4649L9.48727 27.8864L10.664 30.3775L12.2629 32.9357L12.973 33.4649ZM5.56459 21.6092L1.06152 14.4011L1.16394 15.1727L5.62945 22.3182L5.56459 21.6092Z" fill="#434244"/>
<path fill-rule="evenodd" clip-rule="evenodd" d="M13.7311 34.0295L8.23347 25.2305L9.41016 27.7216L13.021 33.5003L13.7311 34.0295ZM5.49544 20.8515L0.952548 13.5796L1.05497 14.3535L5.56031 21.5627L5.49544 20.8515ZM14.4845 34.5905L6.98736 22.5949L8.16746 25.0928L13.771 34.0591L14.4845 34.5905ZM5.42716 20.0981L0.844438 12.7637L0.946858 13.5375L5.49203 20.8116L5.42716 20.0981ZM15.239 35.1527L5.7367 19.9479L6.91567 22.4435L14.5266 34.6212L15.239 35.1527ZM5.35888 19.3425L0.736328 11.9443L0.838748 12.717L5.42375 20.0571L5.35888 19.3425Z" fill="#3F3F40"/>
<path fill-rule="evenodd" clip-rule="evenodd" d="M15.991 35.7129L0.626827 11.1241L0.730384 11.9002L5.35521 19.3029L5.33701 19.1004L5.6693 19.8025L15.2797 35.1837L15.991 35.7129ZM16.4348 35.7766L0.517578 10.3059L0.621137 11.0775L16.0365 35.7482L16.4348 36.044V35.7766Z" fill="#3B3B3C"/>
<path fill-rule="evenodd" clip-rule="evenodd" d="M16.4318 35.1253L0.409903 9.48621L0.51346 10.2612L16.4341 35.7364L16.4318 35.1253ZM16.4284 34.4812L0.301792 8.67141L0.404212 9.44297L16.4318 35.0923L16.4284 34.4812ZM16.4261 33.8303L0.191406 7.84521L0.296102 8.62475L16.4284 34.4437L16.4261 33.8303Z" fill="#363637"/>
<path fill-rule="evenodd" clip-rule="evenodd" d="M16.4236 33.1806L0.0842124 7.03051L0.185494 7.80094L16.4259 33.7872L16.4236 33.1806ZM16.4213 32.5319L11.0932 24.006L11.0966 24.1836L10.8064 23.5452L0.127456 6.45581L0.00341429 6.39551L0 6.39665L0.0773838 6.98271L16.4236 33.1408L16.4213 32.5319Z" fill="#323132"/>
<path fill-rule="evenodd" clip-rule="evenodd" d="M16.4179 31.883L11.0796 23.3389L11.0932 23.9683L16.4214 32.4964L16.4179 31.883ZM9.72537 21.1711L0.707861 6.74008L0.161621 6.47266L10.745 23.4118L9.72537 21.1711ZM16.4157 31.231L11.0648 22.6698L11.0785 23.2968L16.4179 31.8432L16.4157 31.231ZM8.64199 18.7915L1.28938 7.02458L0.743138 6.75716L9.6605 21.0299L8.64199 18.7915ZM16.4123 30.5823L11.05 22.0007L11.0637 22.63L16.4157 31.1957L16.4123 30.5823ZM7.55976 16.4154L1.86976 7.30908L1.32352 7.04166L8.5794 18.6538L7.55976 16.4154Z" fill="#2D2C2D"/>
<path fill-rule="evenodd" clip-rule="evenodd" d="M16.4097 29.9316L11.0361 21.3318L11.0497 21.9611L16.4131 30.545L16.4097 29.9316ZM6.47385 14.0315L2.45102 7.59384L1.90479 7.32642L7.4935 16.2711L6.47385 14.0315ZM16.4074 29.2841L11.0213 20.6649L11.035 21.2942L16.4097 29.8941L16.4074 29.2841ZM5.39503 11.6611L3.0314 7.87834L2.48516 7.61092L6.41354 13.8972L5.39503 11.6611ZM16.404 28.6355L11.0065 19.998L11.0202 20.6296L16.4063 29.2488L16.404 28.6355ZM4.32417 9.30084L3.61292 8.1617L3.06327 7.89199L5.33699 11.5325L4.32759 9.31449L4.32417 9.30084Z" fill="#272728"/>
<path fill-rule="evenodd" clip-rule="evenodd" d="M16.4022 27.9847L10.9944 19.3302L11.0069 19.9573L16.4056 28.5969L16.4022 27.9847ZM3.64746 8.17896L4.31205 9.24299L4.14818 8.42477L3.64746 8.17896ZM16.3999 27.3349L10.9785 18.6599L10.9921 19.2915L16.4022 27.9517L16.3999 27.3349Z" fill="#212122"/>
<path fill-rule="evenodd" clip-rule="evenodd" d="M16.3962 26.686L10.9633 17.994L10.977 18.6199L16.3996 27.2948L16.3962 26.686ZM16.3939 26.0373L10.9497 17.3248L10.9633 17.9553L16.3962 26.6507L16.3939 26.0373ZM16.3905 25.3887L10.936 16.658L10.9486 17.2884L16.3939 26.0021L16.3905 25.3887Z" fill="#1B1B1B"/>
<path fill-rule="evenodd" clip-rule="evenodd" d="M16.3885 24.7365L10.9215 15.9864L10.9352 16.6169L16.3908 25.3476L16.3885 24.7365ZM16.3862 24.0879L10.9067 15.3196L10.9204 15.9489L16.3885 24.699L16.3862 24.0879Z" fill="#131313"/>
<path fill-rule="evenodd" clip-rule="evenodd" d="M16.3839 23.4393L10.8919 14.6517L10.9056 15.2833L16.3862 24.0527L16.3839 23.4393ZM10.8919 14.613L16.3828 23.4007L16.3805 22.8191L10.8794 14.0383L10.8919 14.613Z" fill="black"/>
<path fill-rule="evenodd" clip-rule="evenodd" d="M7.03076 8.94449V8.93652L9.95428 10.4171L8.12097 10.3033L7.12863 9.77068L7.03076 8.94449Z" fill="#67686A"/>
<path fill-rule="evenodd" clip-rule="evenodd" d="M10.3615 11.4925L10.333 11.4902L10.3615 11.5062V11.4925Z" fill="#7C7D80"/>
<path fill-rule="evenodd" clip-rule="evenodd" d="M10.3686 11.1443L9.58789 11.0908L10.2855 11.4652L10.3629 11.4698L10.3686 11.1443Z" fill="#787A7C"/>
<path fill-rule="evenodd" clip-rule="evenodd" d="M10.3742 10.7996L8.84473 10.6926L9.54118 11.0659L10.3685 11.1239L10.3742 10.7996Z" fill="#737476"/>
<path fill-rule="evenodd" clip-rule="evenodd" d="M9.96414 10.4216L8.09668 10.2908L8.79541 10.6663L10.375 10.7767L10.3772 10.631L9.96414 10.4216Z" fill="#6D6E70"/>
<path fill-rule="evenodd" clip-rule="evenodd" d="M8.05377 10.2679L9.91554 10.3976L9.19177 10.0312L7.40625 9.91968L8.05377 10.2679Z" fill="#67686A"/>
<path fill-rule="evenodd" clip-rule="evenodd" d="M10.9724 11.2147L10.367 11.1726L10.3613 11.506L10.9724 11.2147Z" fill="#898A8D"/>
<path fill-rule="evenodd" clip-rule="evenodd" d="M11.5894 10.9227L10.374 10.8374L10.3672 11.1913L10.9407 11.2312L11.5894 10.9227Z" fill="#87898B"/>
<path fill-rule="evenodd" clip-rule="evenodd" d="M12.2016 10.6311L10.621 10.5208L10.3774 10.6311L10.374 10.8542L11.5587 10.9373L12.2016 10.6311Z" fill="#858789"/>
<path fill-rule="evenodd" clip-rule="evenodd" d="M12.8128 10.34L11.2595 10.2319L10.5903 10.5346L12.171 10.6462L12.8128 10.34Z" fill="#838587"/>
<path fill-rule="evenodd" clip-rule="evenodd" d="M13.4286 10.0476L11.9025 9.94067L11.23 10.2445L12.7833 10.3538L13.4286 10.0476Z" fill="#828385"/>
<path fill-rule="evenodd" clip-rule="evenodd" d="M14.0429 9.755L12.5453 9.64917L11.8716 9.95529L13.3976 10.0611L14.0429 9.755Z" fill="#808183"/>
<path fill-rule="evenodd" clip-rule="evenodd" d="M14.6586 9.46131L13.1883 9.35889L12.5146 9.66387L14.0134 9.76857L14.6586 9.46131Z" fill="#7E7F82"/>
<path fill-rule="evenodd" clip-rule="evenodd" d="M15.2718 9.17013L13.8288 9.06885L13.1562 9.37269L14.6277 9.47625L15.2718 9.17013Z" fill="#7C7D80"/>
<path fill-rule="evenodd" clip-rule="evenodd" d="M15.884 8.87871L14.4683 8.77856L13.7969 9.08242L15.2421 9.1837L15.884 8.87871Z" fill="#7C7D80"/>
<path fill-rule="evenodd" clip-rule="evenodd" d="M16.4966 8.58623L15.1083 8.4895L14.4346 8.79448L15.8525 8.8935L16.4966 8.58623Z" fill="#787A7C"/>
<path fill-rule="evenodd" clip-rule="evenodd" d="M17.1111 8.29505L15.75 8.19946L15.0786 8.50331L16.4681 8.60117L17.1111 8.29505Z" fill="#787A7C"/>
<path fill-rule="evenodd" clip-rule="evenodd" d="M17.7291 8.00006L16.3954 7.90674L15.7217 8.21173L17.0839 8.30732L17.7291 8.00006Z" fill="#76787A"/>
<path fill-rule="evenodd" clip-rule="evenodd" d="M18.3377 7.70994L17.0313 7.6189L16.3633 7.9216L17.6982 8.01492L18.3377 7.70994Z" fill="#757678"/>
<path fill-rule="evenodd" clip-rule="evenodd" d="M18.9533 7.41875L17.6742 7.32886L17.0039 7.6327L18.3115 7.72374L18.9533 7.41875Z" fill="#737476"/>
<path fill-rule="evenodd" clip-rule="evenodd" d="M19.5679 7.12523L18.3161 7.0376L17.6436 7.34259L18.9238 7.43248L19.5679 7.12523Z" fill="#717274"/>
<path fill-rule="evenodd" clip-rule="evenodd" d="M20.1822 6.83242L18.9589 6.74707L18.2852 7.05205L19.537 7.13854L20.1822 6.83242Z" fill="#6F7072"/>
<path fill-rule="evenodd" clip-rule="evenodd" d="M20.2107 6.49792L19.6019 6.45581L18.9282 6.7608L20.1527 6.84615L20.2176 6.81656L20.2187 6.80632L20.2107 6.49792Z" fill="#6D6E70"/>
<path fill-rule="evenodd" clip-rule="evenodd" d="M19.5645 6.47281L20.212 6.51832L20.2051 6.18262L19.5645 6.47281Z" fill="#6B6C6E"/>
<path fill-rule="evenodd" clip-rule="evenodd" d="M17.0008 15.009L15.7319 15.0318L16.3112 15.3538L16.3886 15.3516L17.0008 15.009Z" fill="#525355"/>
<path fill-rule="evenodd" clip-rule="evenodd" d="M17.6459 14.6496L15.1207 14.6939L15.6976 15.0137L17.0359 14.9898L17.6459 14.6496ZM18.2866 14.2911L14.5141 14.3571L15.0854 14.6735L17.6823 14.6279L18.2866 14.2911ZM18.9352 13.9292L13.8984 14.0157L14.472 14.3343L18.3298 14.2661L18.9352 13.9292Z" fill="#505052"/>
<path fill-rule="evenodd" clip-rule="evenodd" d="M19.5806 13.5661L13.2863 13.6765L13.8644 13.9963L18.9706 13.9075L19.5806 13.5661ZM20.2247 13.2065L12.6752 13.3374L13.2522 13.6572L19.617 13.5468L20.2247 13.2065ZM20.8677 12.8469L12.0664 13.0006L12.64 13.3192L20.2623 13.1849L20.8677 12.8469Z" fill="#4E4E50"/>
<path fill-rule="evenodd" clip-rule="evenodd" d="M21.5138 12.485L11.4539 12.6603L12.0286 12.98L20.9061 12.8253L21.5138 12.485ZM22.1602 12.1243L10.8439 12.3223H10.8428L11.4197 12.6421L21.5479 12.4668L22.1602 12.1243Z" fill="#4C4C4E"/>
<path fill-rule="evenodd" clip-rule="evenodd" d="M22.8032 11.7645L11.5609 11.9591L10.8838 12.3016L22.1955 12.1036L22.8032 11.7645ZM23.445 11.4049L12.2756 11.5994L11.6019 11.9397L22.8407 11.7428L23.445 11.4049ZM24.0925 11.043L12.9971 11.2364L12.3234 11.5755L23.4883 11.3798L24.0925 11.043Z" fill="#4A494B"/>
<path fill-rule="evenodd" clip-rule="evenodd" d="M24.7392 10.6815L13.7165 10.8749L13.0383 11.2152L24.1304 11.0229L24.7392 10.6815ZM25.3867 10.3196L14.438 10.5108L13.7575 10.8533L24.7756 10.661L25.3867 10.3196ZM10.4915 10.5802L10.2832 10.5836L10.3777 10.6314L10.4915 10.5802Z" fill="#474749"/>
<path fill-rule="evenodd" clip-rule="evenodd" d="M26.0318 9.95749L15.157 10.1475L14.4765 10.4901L25.4207 10.2989L26.0318 9.95749ZM11.2958 10.2158L9.61385 10.2454L10.2466 10.5652L10.5368 10.5606L11.2958 10.2158ZM26.6725 9.60016L15.8706 9.78907L15.1957 10.1293L26.067 9.93929L26.6725 9.60016ZM12.0935 9.85393L8.95039 9.9097L9.57629 10.2261L11.3391 10.1953L12.0935 9.85393ZM27.3188 9.23828L16.5909 9.42604L15.9127 9.76858L26.7089 9.58081L27.3188 9.23828ZM12.8981 9.48977L8.28125 9.57058L8.9117 9.88922L12.1391 9.83345L12.8981 9.48977Z" fill="#454546"/>
<path fill-rule="evenodd" clip-rule="evenodd" d="M27.9651 8.87637L17.3111 9.063L16.6306 9.40554L27.354 9.21777L27.9651 8.87637ZM13.7025 9.12559L7.61309 9.23256L8.24468 9.55234L12.9423 9.4704L13.7025 9.12559ZM28.6115 8.51562L18.0303 8.69998L17.3487 9.04365L27.9981 8.85816L28.6115 8.51562ZM14.5071 8.76143L7.13286 8.89002L7.0293 8.93668L7.57667 9.21435L13.7446 9.10624L14.5071 8.76143Z" fill="#434244"/>
<path fill-rule="evenodd" clip-rule="evenodd" d="M29.2558 8.15509L18.7498 8.33831L18.0716 8.6797L28.6481 8.49421L29.2558 8.15509ZM15.3119 8.39748L7.94677 8.52607L7.17749 8.86975L14.5529 8.74116L15.3119 8.39748ZM29.8965 7.79662L19.4633 7.9787L18.7908 8.31782L29.2934 8.13347L29.8965 7.79662ZM16.1096 8.03673L8.75475 8.1642L7.99116 8.50559L15.3574 8.377L16.1096 8.03673ZM4.5965 8.23702L3.77373 8.25182L4.14927 8.42593L4.5965 8.23702ZM30.5452 7.43359L20.1848 7.61454L19.5043 7.95707L29.9341 7.775L30.5452 7.43359ZM16.9165 7.67257L9.56956 7.80004L8.80027 8.14484L16.1563 8.01625L16.9165 7.67257ZM5.46707 7.87173L3.04541 7.91383L3.7339 8.23247L4.64544 8.21654L5.46707 7.87173Z" fill="#3F3F40"/>
<path fill-rule="evenodd" clip-rule="evenodd" d="M31.1926 7.07176L20.9051 7.25157L20.2257 7.5941L30.5815 7.41316L31.1926 7.07176ZM17.7198 7.30733L10.3832 7.43592L9.61501 7.7796L16.9608 7.651L17.7198 7.30733ZM6.33416 7.50762L2.3193 7.57817L3.00551 7.89568L5.51594 7.85243L6.33416 7.50762ZM31.8356 6.71216L21.6232 6.88968L20.9449 7.23222L31.2279 7.05242L31.8356 6.71216ZM18.5244 6.9443L11.198 7.07062L10.4298 7.41544L17.7654 7.28798L18.5244 6.9443ZM7.20473 7.14118L1.58643 7.23905L2.27492 7.55769L6.38196 7.486L7.20473 7.14118Z" fill="#3B3B3C"/>
<path fill-rule="evenodd" clip-rule="evenodd" d="M32.3069 6.3546L21.1146 6.55034L21.7701 6.81549L21.6643 6.86785L31.8733 6.69031L32.4047 6.3933L32.3069 6.3546ZM19.3234 6.5822L12.0061 6.70966L11.2448 7.05106L18.5712 6.9236L19.3234 6.5822ZM8.0686 6.77908L0.866207 6.90426L1.54787 7.22062L7.25493 7.12162L8.0686 6.77908ZM31.4522 6.02003L20.2839 6.21463L21.0623 6.52872L32.2534 6.33412L31.4522 6.02003ZM20.1291 6.2169L12.822 6.34436L12.0596 6.68576L19.3758 6.55831L20.1291 6.2169ZM8.93804 6.41265L0.136749 6.56627L0.819549 6.8815L8.12437 6.75404L8.93804 6.41265ZM30.5964 5.68433L13.6368 5.98134L12.8698 6.32502L20.1746 6.19756L20.2054 6.1839L20.2372 6.19642L31.4056 6.00183L30.5964 5.68433ZM9.80747 6.04735L0.458802 6.21122L0.0229492 6.38419L0.0252251 6.47181L0.041157 6.52189L0.0935055 6.54579L8.98925 6.39102L9.80747 6.04735Z" fill="#363637"/>
<path fill-rule="evenodd" clip-rule="evenodd" d="M29.745 5.35078L14.4503 5.61706L13.6821 5.96074L30.5495 5.666L29.745 5.35078ZM10.6755 5.68307L1.38034 5.84467L0.509766 6.19062L9.85502 6.02674L10.6755 5.68307ZM28.8937 5.01733L15.2582 5.25518L14.4946 5.59658L29.6972 5.33256L28.8937 5.01733ZM11.5393 5.32005L2.29529 5.48164L1.43268 5.82418L10.7244 5.66258L11.5393 5.32005Z" fill="#323132"/>
<path fill-rule="evenodd" clip-rule="evenodd" d="M28.039 4.68167L16.0729 4.89106L15.3105 5.23246L28.839 4.99576L28.039 4.68167ZM12.4086 4.9548L3.21693 5.11639L2.35547 5.45892L11.5949 5.29733L12.4086 4.9548ZM27.1878 4.34824L16.511 4.53373L16.6886 4.61567L16.1207 4.86944L27.9923 4.66346L27.1878 4.34824ZM13.2757 4.58949L4.13871 4.74881L3.27156 5.09362L12.4586 4.93317L13.2757 4.58949ZM26.3286 4.01025L15.7793 4.1946L16.4678 4.51325L27.1365 4.32775L26.3286 4.01025ZM14.1474 4.22306L5.06163 4.38238L4.19106 4.72833L13.3258 4.56901L14.1474 4.22306Z" fill="#2D2C2D"/>
<path fill-rule="evenodd" clip-rule="evenodd" d="M25.4807 3.6781L15.0555 3.86131L15.7383 4.17654L26.2807 3.99219L25.4807 3.6781ZM15.01 3.86131L5.97653 4.01949L5.11279 4.36203L14.1963 4.20385L15.01 3.86131ZM24.6261 3.34238L6.89831 3.65192L6.03571 3.9956L25.4261 3.65647L24.6261 3.34238ZM23.7703 3.00781L7.82009 3.28663L6.9518 3.63144L24.5771 3.32418L23.7703 3.00781Z" fill="#272728"/>
<path fill-rule="evenodd" clip-rule="evenodd" d="M22.9148 2.67311L8.74329 2.92006L7.87158 3.26601L23.7239 2.98947L22.9148 2.67311ZM22.059 2.3374L9.66621 2.55362L8.79336 2.89957L22.8681 2.6549L22.059 2.3374Z" fill="#212122"/>
<path fill-rule="evenodd" clip-rule="evenodd" d="M21.2067 2.00273L10.5857 2.18822L9.71631 2.53303L22.0124 2.31909L21.2067 2.00273ZM20.3555 1.6693L11.5041 1.82292L10.6335 2.16887L21.1634 1.98566L20.3555 1.6693ZM19.502 1.33472L12.4236 1.45762L11.5519 1.80358L20.3099 1.65108L19.502 1.33472Z" fill="#1B1B1B"/>
<path fill-rule="evenodd" clip-rule="evenodd" d="M18.6483 0.999121L13.344 1.0913L12.4746 1.43725L19.454 1.31548L18.6483 0.999121ZM17.7925 0.664551L14.267 0.726004L13.3964 1.07082L18.5982 0.980914L17.7925 0.664551Z" fill="#131313"/>
<path fill-rule="evenodd" clip-rule="evenodd" d="M16.9437 0.331158L15.1832 0.361885L14.3184 0.705563L17.7437 0.645247L16.9437 0.331158ZM15.2413 0.337983L16.888 0.309539L16.0959 0L15.2413 0.337983ZM49.0774 25.3148H45.7374V18.8623C45.7374 17.4979 45.6623 16.6137 45.52 16.2119C45.3906 15.8338 45.1448 15.5064 44.8179 15.2765C44.4924 15.0557 44.1032 14.9476 43.6469 14.9476C43.0585 14.9476 42.5351 15.1035 42.0707 15.4222C41.6188 15.7223 41.2824 16.1674 41.1171 16.6842C40.943 17.21 40.8565 18.175 40.8565 19.5884V25.3137H37.5131V12.6534H40.613V14.5106C41.7214 13.0938 43.1177 12.3837 44.8042 12.3837C45.5462 12.3837 46.2256 12.5169 46.839 12.782C47.4546 13.0483 47.9178 13.3886 48.2364 13.8005C48.5505 14.2147 48.7702 14.6836 48.8942 15.2082C49.0171 15.7317 49.0786 16.4805 49.0786 17.4569V25.3148H49.0774ZM59.7837 21.3136L63.1272 21.8735C62.7004 23.1003 62.021 24.0311 61.0958 24.6696C60.1706 25.3137 59.0133 25.6323 57.6238 25.6323C55.4252 25.6323 53.7978 24.9119 52.7406 23.4724C51.9042 22.3184 51.4877 20.8607 51.4877 19.1047C51.4877 17.0051 52.0351 15.3596 53.131 14.1681C54.2246 12.9777 55.6118 12.3837 57.2869 12.3837C59.1658 12.3837 60.652 13.0062 61.7399 14.2512C62.8267 15.4961 63.3445 17.4046 63.299 19.9719H54.9301C54.9552 20.9654 55.2226 21.7392 55.737 22.29C55.979 22.5578 56.2758 22.7705 56.6073 22.9136C56.9387 23.0568 57.297 23.127 57.6579 23.1196C58.1825 23.1196 58.623 22.9796 58.978 22.6951C59.3331 22.4049 59.6016 21.9475 59.7837 21.3136ZM59.9783 17.9224C59.9556 16.9505 59.7052 16.2097 59.2295 15.7067C59.0121 15.4631 58.7448 15.2692 58.4457 15.1382C58.1466 15.0072 57.8228 14.9422 57.4963 14.9476C56.7657 14.9476 56.166 15.2128 55.6903 15.7465C55.2146 16.2802 54.9802 17.0074 54.987 17.9224H59.9783ZM65.2746 18.8293C65.2746 17.7152 65.5477 16.6376 66.0951 15.5963C66.6135 14.5841 67.4254 13.752 68.4245 13.2088C69.4271 12.6602 70.5515 12.3837 71.7896 12.3837C73.7037 12.3837 75.2696 13.0062 76.4918 14.2534C77.7186 15.4961 78.3297 17.0734 78.3297 18.9716C78.3297 20.8903 77.7118 22.4789 76.4759 23.7387C75.2412 25.0007 73.6855 25.6323 71.8124 25.6323C70.6606 25.6339 69.5246 25.3645 68.4962 24.8459C67.4723 24.3477 66.632 23.5388 66.0951 22.5347C65.5488 21.5207 65.2746 20.2871 65.2746 18.8293ZM68.7159 19.0069C68.7159 20.2666 69.0117 21.2271 69.6069 21.8962C70.1998 22.5654 70.9338 22.9034 71.8078 22.9034C72.6795 22.9034 73.4101 22.5654 74.0019 21.8962C74.5936 21.2271 74.8884 20.2587 74.8884 18.9841C74.8884 17.7437 74.5925 16.7878 74.0019 16.1186C73.4113 15.4495 72.6795 15.116 71.8078 15.116C70.9338 15.116 70.201 15.4495 69.6069 16.1186C69.0117 16.7878 68.7159 17.7517 68.7159 19.0069ZM92.4727 25.3148H89.1293V18.8623C89.1293 17.4979 89.0588 16.6137 88.9119 16.2119C88.7845 15.8328 88.5383 15.5048 88.2098 15.2765C87.8866 15.0557 87.494 14.9476 87.0377 14.9476C86.455 14.9476 85.9304 15.1035 85.4638 15.4222C85.0122 15.7232 84.6753 16.1679 84.5079 16.6842C84.3372 17.21 84.2496 18.175 84.2496 19.5884V25.3137H80.9073V12.6534H84.006V14.5106C85.1167 13.0938 86.513 12.3837 88.1996 12.3837C88.9415 12.3837 89.6209 12.5169 90.2343 12.782C90.85 13.0483 91.3154 13.3886 91.6284 13.8005C91.9447 14.2147 92.1655 14.6836 92.2884 15.2082C92.4124 15.7317 92.4739 16.4805 92.4739 17.4569V25.3148H92.4727Z" fill="black"/>
</svg>
