<svg width="134" height="32" viewBox="0 0 134 32" fill="none" xmlns="http://www.w3.org/2000/svg">
<path fill-rule="evenodd" clip-rule="evenodd" d="M0 0H4.74894C8.05205 0.0702432 12.2683 2.51621 14.6081 4.71382C16.947 6.91143 19.2943 9.64674 22.8692 10.2037V0H30.3158V19.5803H25.173C20.9032 19.3336 19.1087 17.4671 16.4444 15.3849C13.781 13.3027 10.8501 9.37413 7.42571 9.35406V19.5803H0V0ZM40.7586 0.00334946H64.6965V5.05501H42.7965V7.30696H62.4964V12.4238H42.7965V14.7352H65.2392V19.6096H40.9827C38.1471 19.6438 35.3123 17.1134 35.3131 14.5838V5.08929C35.3273 2.53879 37.2322 0.0342899 40.7586 0.00334946ZM90.3344 14.7185H70.0266V19.7375H92.8222C96.1705 19.6539 98.8765 16.8993 98.8765 13.5318C98.8765 10.3157 96.5234 7.39895 93.2696 7.35379H69.555C70.1512 10.1552 72.629 12.275 75.5951 12.3176V12.3728H90.3487C90.9925 12.3829 91.9049 12.5694 91.8907 13.5051C91.8764 14.4408 91.0553 14.7101 90.3344 14.7185ZM107.541 0.0234143H129.087C131.88 0.0234143 133.921 2.39162 133.998 5.04831V14.7519C134.075 17.2547 131.784 19.4691 129.03 19.4883H107.598C105.384 19.5268 102.88 17.5432 102.862 14.7519V5.04915C102.862 2.21768 104.998 0.0234143 107.541 0.0234143ZM112.22 4.93291H124.234C125.634 4.93877 126.604 6.20565 126.633 7.35881V12.3268C126.567 13.679 125.472 14.5161 124.293 14.5788H112.219C111.161 14.5495 110.254 13.4892 110.225 12.3837V7.06948C110.289 6.05513 111.218 4.99229 112.22 4.93291Z" fill="#2A8BC6"/>
<path fill-rule="evenodd" clip-rule="evenodd" d="M98.2662 0.0468242H75.3886C72.5496 0.0100302 70.1003 2.29879 69.54 5.06587H98.2662V0.0468242Z" fill="#D77B37"/>
<path fill-rule="evenodd" clip-rule="evenodd" d="M82.4477 30.0399C81.8858 30.0399 81.4468 29.9253 81.1332 29.697C80.8179 29.4688 80.6616 29.1067 80.6616 28.6125V26.1866H79.9658V25.5753H80.6616V24.3167H81.6918V25.5753H83.5884V26.1866H81.6918V28.2679C81.6918 28.4904 81.6985 28.661 81.7094 28.7814C81.7208 28.9025 81.7634 29.0186 81.8331 29.1184C81.9082 29.2186 82.0144 29.2912 82.135 29.3249C82.2738 29.3701 82.4636 29.3927 82.7003 29.3927C82.8667 29.3927 83.0306 29.3751 83.187 29.3408C83.3442 29.3049 83.4579 29.2756 83.5265 29.253H83.5867V29.9145C83.3944 29.9546 83.1978 29.9855 82.9971 30.0064C82.7998 30.0299 82.6175 30.0399 82.4477 30.0399ZM87.0077 30.0566C86.0343 30.0566 85.2767 29.8593 84.7373 29.4662C84.1971 29.0724 83.927 28.5138 83.927 27.7896C83.927 27.0763 84.1896 26.5077 84.7122 26.0862C85.2332 25.6639 85.9173 25.4523 86.7618 25.4523C87.1423 25.4523 87.4768 25.4917 87.7712 25.5711C88.0622 25.6489 88.3181 25.7718 88.5372 25.9382C88.7579 26.1054 88.926 26.3103 89.0406 26.5528C89.1602 26.7937 89.2187 27.0914 89.2187 27.4401V27.8406H84.9757C84.9757 28.3507 85.1555 28.7396 85.5134 29.0088C85.8713 29.2773 86.3671 29.4127 86.9977 29.4127C87.2243 29.4127 87.4467 29.3943 87.6625 29.3575C88.0276 29.295 88.3838 29.1889 88.7236 29.0414C88.8322 28.9949 88.938 28.9421 89.0406 28.8834H89.1024V29.6878L88.6517 29.8141C88.4928 29.8604 88.3321 29.9003 88.1701 29.9337C87.9694 29.973 87.7879 30.0039 87.6248 30.0248C87.42 30.0483 87.2139 30.0589 87.0077 30.0566ZM88.2144 27.2762C88.2121 27.1003 88.1789 26.9263 88.1165 26.7619C88.0609 26.6231 87.9749 26.4985 87.8648 26.3973C87.7307 26.2802 87.5722 26.1945 87.4007 26.1464C87.1737 26.084 86.9387 26.0549 86.7033 26.0603C86.429 26.0603 86.1957 26.0896 86.0025 26.1473C85.815 26.2047 85.638 26.2919 85.4782 26.4056C85.3375 26.5079 85.2187 26.6373 85.1287 26.7861C85.0455 26.9374 84.9932 27.1037 84.9748 27.2753H88.2144V27.2762ZM92.6932 30.0524C92.3033 30.0556 91.9147 30.0086 91.5367 29.9128C91.2112 29.8323 90.9044 29.6891 90.6336 29.4913C90.3829 29.3049 90.1812 29.0604 90.0457 28.7789C89.9069 28.492 89.8383 28.1567 89.8383 27.7695C89.8383 27.3857 89.9102 27.0529 90.0541 26.7736C90.195 26.4997 90.3925 26.2588 90.6336 26.067C90.902 25.8621 91.2084 25.7126 91.535 25.6271C91.8946 25.5234 92.2818 25.4707 92.6932 25.4707C93.031 25.4707 93.3547 25.5042 93.6649 25.5728C93.9785 25.6413 94.2578 25.7199 94.5028 25.8086V26.6356H94.4426C94.2204 26.5028 93.9857 26.3922 93.7418 26.3053C93.5766 26.2478 93.4076 26.202 93.2359 26.1682C93.052 26.131 92.865 26.1117 92.6773 26.1105C92.143 26.1105 91.7157 26.2551 91.392 26.5445C91.0667 26.8321 90.907 27.2402 90.907 27.7695C90.907 28.2855 91.0642 28.6911 91.3762 28.9779C91.6897 29.2672 92.1212 29.4119 92.6782 29.4119C93.306 29.41 93.9196 29.2245 94.4434 28.8784H94.5036V29.7062C94.4008 29.7414 94.2737 29.7823 94.1198 29.83C93.9828 29.8747 93.8432 29.9107 93.7017 29.9379C93.546 29.9711 93.3892 29.9995 93.2317 30.0232C93.0531 30.0447 92.8732 30.0545 92.6932 30.0524ZM100.254 29.9546H99.2242V27.461C99.2242 27.2594 99.2108 27.0713 99.1815 26.8973C99.1637 26.7479 99.1103 26.6048 99.026 26.4801C98.9353 26.3657 98.8133 26.2803 98.6748 26.2342C98.5242 26.1815 98.3185 26.1539 98.061 26.1539C97.8042 26.1539 97.5417 26.2041 97.2691 26.3011C96.9965 26.399 96.7297 26.5269 96.4705 26.6849V29.9546H95.4402V23.8518H96.4705V26.0611C96.7774 25.8654 97.0809 25.7132 97.3803 25.6096C97.6856 25.5042 98.0064 25.4511 98.3294 25.4523C98.934 25.4523 99.4056 25.5945 99.7435 25.8788C100.083 26.1623 100.254 26.5729 100.254 27.1114V29.9546ZM106.515 29.9546H105.484V27.461C105.484 27.2594 105.471 27.0713 105.442 26.8973C105.424 26.748 105.371 26.6049 105.288 26.4801C105.196 26.3656 105.074 26.2802 104.935 26.2342C104.784 26.1815 104.58 26.1539 104.323 26.1539C104.065 26.1539 103.802 26.2041 103.529 26.3011C103.256 26.399 102.991 26.5269 102.73 26.6849V29.9546H101.702V25.5753H102.73V26.0611C103.037 25.8654 103.341 25.7132 103.64 25.6096C103.942 25.505 104.259 25.4523 104.589 25.4523C105.194 25.4523 105.666 25.5945 106.003 25.8788C106.345 26.1623 106.514 26.5729 106.514 27.1114V29.9546H106.515ZM113.001 27.7662C113.001 28.5037 112.753 29.0732 112.256 29.4738C111.758 29.8752 111.096 30.0767 110.27 30.0767C109.419 30.0767 108.75 29.8693 108.261 29.4562C107.773 29.0406 107.53 28.4787 107.53 27.7662C107.53 27.0353 107.781 26.4659 108.284 26.0611C108.786 25.6556 109.449 25.4523 110.27 25.4523C111.096 25.4523 111.758 25.6547 112.256 26.0594C112.753 26.4617 113.001 27.0328 113.001 27.7662ZM111.937 27.7662C111.937 27.1992 111.794 26.7778 111.504 26.5018C111.215 26.2267 110.803 26.0887 110.269 26.0887C109.733 26.0887 109.317 26.2267 109.028 26.5018C108.737 26.7778 108.592 27.1992 108.592 27.7662C108.592 28.3148 108.738 28.7312 109.028 29.0147C109.317 29.299 109.734 29.4412 110.269 29.4412C110.8 29.4412 111.211 29.3015 111.501 29.023C111.792 28.7446 111.937 28.3256 111.937 27.7662ZM115.111 29.9546H114.081V23.8518H115.111V29.9546ZM121.664 27.7662C121.664 28.5037 121.413 29.0732 120.917 29.4738C120.42 29.8752 119.757 30.0767 118.932 30.0767C118.079 30.0767 117.412 29.8693 116.922 29.4562C116.434 29.0406 116.19 28.4787 116.19 27.7662C116.19 27.0353 116.442 26.4659 116.945 26.0611C117.446 25.6556 118.108 25.4523 118.932 25.4523C119.757 25.4523 120.42 25.6547 120.917 26.0594C121.413 26.4617 121.664 27.0328 121.664 27.7662ZM120.599 27.7662C120.599 27.1992 120.457 26.7778 120.166 26.5018C119.876 26.2267 119.465 26.0887 118.932 26.0887C118.395 26.0887 117.978 26.2267 117.69 26.5018C117.4 26.7778 117.254 27.1992 117.254 27.7662C117.254 28.3148 117.401 28.7312 117.69 29.0147C117.979 29.299 118.396 29.4412 118.932 29.4412C119.462 29.4412 119.873 29.3015 120.164 29.023C120.453 28.7446 120.599 28.3256 120.599 27.7662ZM126.403 28.7663V26.363C126.172 26.2803 125.935 26.2165 125.694 26.1723C125.479 26.1344 125.261 26.1154 125.043 26.1155C124.52 26.1155 124.11 26.2526 123.811 26.5277C123.511 26.8012 123.362 27.1942 123.362 27.7068C123.362 28.1927 123.476 28.5631 123.703 28.8157C123.931 29.069 124.303 29.1961 124.812 29.1961C125.08 29.1961 125.355 29.1593 125.638 29.0824C125.923 29.008 126.177 28.901 126.403 28.7663ZM122.939 30.6562C123.191 30.7317 123.446 30.7933 123.705 30.841C123.896 30.8745 124.072 30.9029 124.234 30.9246C124.394 30.9439 124.567 30.9556 124.758 30.9556C125.077 30.9556 125.346 30.9263 125.567 30.8661C125.788 30.8059 125.963 30.7206 126.085 30.6136C126.204 30.5073 126.285 30.3828 126.333 30.2423C126.382 30.0858 126.405 29.9227 126.403 29.7589V29.3751C126.149 29.5363 125.875 29.6647 125.588 29.7573C125.32 29.8392 124.985 29.8802 124.585 29.8802C123.888 29.8802 123.331 29.6937 122.918 29.3232C122.505 28.9528 122.299 28.4184 122.299 27.7235C122.299 27.3606 122.369 27.0387 122.511 26.7577C122.655 26.4759 122.846 26.2384 123.089 26.0419C123.318 25.8537 123.589 25.7091 123.905 25.6062C124.22 25.504 124.55 25.4524 124.881 25.4532C125.2 25.4532 125.474 25.4799 125.706 25.5335C125.937 25.587 126.17 25.6639 126.403 25.7626L126.463 25.5753H127.435V29.457C127.435 30.2005 127.209 30.7448 126.754 31.091C126.302 31.4397 125.608 31.6137 124.677 31.6137C124.075 31.612 123.473 31.5487 122.884 31.4247V30.6562H122.939ZM133.737 25.5753L130.444 31.571H129.342L130.438 29.743L128.214 25.5753H129.328L131 28.819L132.664 25.5753H133.737Z" fill="#272725"/>
</svg>
