<svg width="139" height="51" viewBox="0 0 139 51" fill="none" xmlns="http://www.w3.org/2000/svg">
<path fill-rule="evenodd" clip-rule="evenodd" d="M48.9908 15.7065C48.9908 9.26232 43.7671 4.03783 37.3229 4.03783C30.8795 4.03783 25.6558 9.26153 25.6558 15.7065C25.6558 22.1491 30.8795 27.3736 37.3229 27.3736C43.7671 27.3736 48.9908 22.1491 48.9908 15.7065H53.0294C53.0294 24.3802 45.9966 31.4114 37.3229 31.4114C28.6492 31.4114 21.6172 24.3794 21.6172 15.7065C21.6172 7.03201 28.65 0 37.3229 0C45.9974 0 53.0294 7.03201 53.0294 15.7065H48.9908ZM24.2624 39.135C24.2624 39.8784 24.2727 39.946 23.2872 39.9932V40.2792C23.7485 40.2517 24.231 40.2321 24.734 40.2321C25.2377 40.2321 25.7187 40.2509 26.213 40.2792V39.9932C25.2267 39.946 25.2377 39.8784 25.2377 39.135V35.054C25.2479 34.6924 25.2479 34.3867 25.2786 34.1007L26.8802 34.1486C27.0955 34.1573 27.2189 34.1871 27.2393 34.4339C27.281 34.6626 27.3423 34.9101 27.3533 35.1687H27.6598C27.6598 34.9879 27.6598 34.8166 27.67 34.6351C27.681 34.3003 27.6912 33.9671 27.7211 33.6142C26.7254 33.6425 25.7509 33.6622 24.7552 33.6622C23.7485 33.6622 22.774 33.6433 21.7987 33.6142C21.8302 33.9671 21.8404 34.3003 21.8498 34.6351C21.86 34.8158 21.86 34.9871 21.86 35.1687H22.1681C22.1783 34.9109 22.2396 34.6626 22.2812 34.4339C22.3009 34.1871 22.4251 34.1565 22.6404 34.1486L24.2208 34.1007C24.2514 34.3867 24.2514 34.6924 24.2624 35.054V39.135ZM34.4969 37.1326C36.8168 37.0564 36.8883 37.0006 36.8883 38.0772H37.227V35.8736H36.8883C36.8781 36.808 36.7343 36.6949 34.4969 36.676V34.8913C34.4969 34.5581 34.5071 34.3388 34.548 34.1007C34.8867 34.052 35.3692 34.052 35.8203 34.052C36.3343 34.052 36.8569 34.0708 37.3496 34.2138C37.4219 34.5101 37.4832 34.7773 37.4934 35.1483H37.8117C37.8117 34.9479 37.8424 34.786 37.8424 34.5848C37.8534 34.2806 37.8934 33.9765 38.0074 33.6606C37.6577 33.6127 36.9496 33.6221 36.3028 33.6127C35.6875 33.6409 35.0611 33.6606 34.4254 33.6606C33.7888 33.6606 33.1719 33.6417 32.5463 33.6127V33.8987C33.5318 33.9467 33.5216 34.0127 33.5216 34.7569V39.1334C33.5216 39.7716 33.1523 39.9727 32.6391 39.9916V40.2777C33.2646 40.2502 33.8698 40.2305 34.4969 40.2305C35.1224 40.2305 35.7394 40.2494 36.3445 40.2777C36.981 40.2682 37.6687 40.2777 38.0475 40.2305V39.4383C38.0475 39.1326 38.1088 38.8662 38.1496 38.6658H37.8109L37.719 39.1908C37.6962 39.3571 37.6548 39.5202 37.5956 39.6772C37.062 39.8211 36.4977 39.8391 35.9437 39.8391C35.4502 39.8391 34.9268 39.8391 34.5472 39.7904C34.5067 39.5192 34.4896 39.2449 34.4961 38.9707V37.1326H34.4969ZM49.8348 39.4313L49.7421 39.3362C49.1166 39.7248 48.3958 39.9326 47.6595 39.9366C45.5966 39.9366 44.2614 38.621 44.2614 36.7137C44.2614 34.9872 45.4323 33.8704 47.1259 33.8704C47.8638 33.8704 48.3566 34.0331 48.7778 34.2241C49.3837 34.5007 49.2195 34.72 49.2501 35.3306H49.5472C49.6085 34.8543 49.6713 34.3757 49.7735 33.9003C48.9114 33.6716 48.0077 33.4712 47.1047 33.4712C45.0724 33.4712 43.1533 34.7105 43.1533 36.9235C43.1533 39.1829 45.041 40.423 47.3098 40.423C47.9566 40.423 48.9829 40.2038 49.6297 39.8611L49.8348 39.4313ZM61.8705 34.7585C61.8705 34.0142 61.8603 33.9482 62.845 33.9003V33.6142C62.3522 33.6425 61.8705 33.6622 61.3675 33.6622C60.8653 33.6622 60.3828 33.6433 59.9199 33.6142V33.9003C60.9046 33.9482 60.8952 34.0142 60.8952 34.7585V36.5227H56.7898V34.7585C56.7898 34.0142 56.7788 33.9482 57.7651 33.9003V33.6142C57.2715 33.6425 56.7898 33.6622 56.2861 33.6622C55.7831 33.6622 55.3006 33.6433 54.8393 33.6142V33.9003C55.8247 33.9482 55.8145 34.0142 55.8145 34.7585V39.135C55.8145 39.8784 55.8247 39.946 54.8393 39.9932V40.2792C55.3006 40.2517 55.7831 40.2321 56.2861 40.2321C56.7898 40.2321 57.2708 40.2509 57.7651 40.2792V39.9932C56.7788 39.946 56.7898 39.8784 56.7898 39.135V36.9235H60.8952V39.135C60.8952 39.8784 60.9054 39.946 59.9199 39.9932V40.2792C60.382 40.2517 60.8653 40.2321 61.3675 40.2321C61.8705 40.2321 62.3522 40.2509 62.845 40.2792V39.9932C61.8603 39.946 61.8705 39.8784 61.8705 39.135V34.7585ZM69.4542 33.6142C69.1563 33.6425 68.8687 33.6622 68.5709 33.6622C68.2636 33.6622 67.9752 33.6433 67.6781 33.6142V33.9003H67.8211C68.3964 33.9097 68.5606 33.9954 68.5606 34.5486V39.3448C68.5606 39.8981 68.3759 39.9845 67.7496 39.9845L67.5854 39.9932V40.2792C67.9956 40.2517 68.4058 40.2321 68.8176 40.2321C69.2271 40.2321 69.6381 40.2509 70.0373 40.2792V39.9932L69.873 39.9845C69.2271 39.9845 69.0329 39.8981 69.0329 39.3448V34.6924L73.9902 40.2894L74.802 40.423L74.7714 40.0702V34.5494C74.7714 33.9962 74.9647 33.9105 75.6123 33.9105L75.7765 33.9011V33.615C75.3757 33.6433 74.9647 33.6629 74.5545 33.6629C74.1443 33.6629 73.7333 33.6441 73.3238 33.615V33.9011L73.4881 33.9105C74.1128 33.9105 74.2983 33.9962 74.2983 34.5494V39.289L69.4542 33.6142ZM84.4495 33.4712C82.0675 33.4421 80.5908 34.9675 80.5908 36.9133C80.5908 39.0878 82.1484 40.423 84.2333 40.423C86.4817 40.423 88.2059 38.7829 88.2059 36.7318C88.2051 34.6154 86.646 33.4712 84.4495 33.4712ZM84.5611 40.0136C82.5288 40.0136 81.6879 38.2682 81.6879 36.599C81.6879 35.0343 82.4981 33.8814 84.2852 33.8814C86.1949 33.8814 87.1081 35.1396 87.1081 37.0281C87.1081 38.7829 86.2758 39.9083 84.5611 40.0136ZM95.014 34.7585C95.014 34.0142 95.003 33.9482 95.9884 33.9003V33.6142C95.4957 33.6425 95.014 33.6622 94.5102 33.6622C94.0065 33.6622 93.5247 33.6433 93.0626 33.6142V33.9003C94.0481 33.9482 94.0371 34.0142 94.0371 34.7585V38.8772C94.0371 39.6411 93.9664 39.9169 93.4831 39.9932V40.2792C94.0788 40.2517 94.654 40.2321 95.2497 40.2321C95.8454 40.2321 96.4285 40.2509 97.0038 40.2792C97.6089 40.2698 98.2651 40.2792 98.5936 40.2321L98.7076 39.2309C98.7492 38.9731 98.7799 38.7248 98.8105 38.592L98.482 38.5739L98.2455 39.3755C98.2203 39.48 98.1858 39.582 98.1425 39.6804C97.6081 39.8242 97.0455 39.8423 96.4891 39.8423C95.9963 39.8423 95.4745 39.8423 95.043 39.7936L95.0124 39.4415V34.7585H95.014ZM107.528 33.4712C105.146 33.4421 103.668 34.9675 103.668 36.9133C103.668 39.0878 105.229 40.423 107.312 40.423C109.559 40.423 111.285 38.7829 111.285 36.7318C111.284 34.6154 109.723 33.4712 107.528 33.4712ZM107.641 40.0136C105.608 40.0136 104.767 38.2682 104.767 36.599C104.767 35.0343 105.578 33.8814 107.365 33.8814C109.273 33.8814 110.188 35.1396 110.188 37.0281C110.187 38.7829 109.355 39.9083 107.641 40.0136ZM120.791 37.6481V37.9334C121.521 37.9625 121.93 37.9523 121.962 38.1534C121.982 38.3051 122.044 39.3448 121.951 39.6309C121.869 39.8698 121.294 40.0128 120.504 40.0128C118.391 40.0128 117.199 38.6588 117.199 36.742C117.199 35.0539 118.358 33.8704 120.33 33.8704C121.068 33.8704 121.561 34.0331 121.982 34.2241C122.587 34.5007 122.423 34.72 122.455 35.3306H122.751C122.814 34.8543 122.876 34.3757 122.979 33.9003C122.116 33.6716 121.212 33.4712 120.31 33.4712C117.846 33.4712 116.101 34.797 116.101 36.9613C116.101 39.3165 117.95 40.4223 120.238 40.4223C120.916 40.4223 121.828 40.2415 122.476 40.0592C122.641 40.0207 122.794 39.9743 122.958 39.9358L122.916 39.0383C122.887 38.4293 122.794 37.9617 123.297 37.8847V37.6465H120.791V37.6481ZM130.333 34.492C130.193 34.2771 130.043 34.0696 129.882 33.8704C129.706 33.6716 129.553 33.5089 129.255 33.5569L128.167 33.7573V34.0339C128.896 33.9584 129.521 34.8921 129.86 35.4359L131.092 37.4383C131.142 37.5436 131.142 37.6576 131.142 37.7338V39.1358C131.142 39.8792 131.153 39.9468 130.168 39.994V40.28C130.63 40.2525 131.112 40.2329 131.615 40.2329C132.117 40.2329 132.601 40.2517 133.094 40.28V39.994C132.108 39.9468 132.117 39.8792 132.117 39.1358V37.8587C132.117 37.6293 132.139 37.3911 132.262 37.1436C132.683 36.2948 133.924 34.6822 134.787 33.7573V33.6142H133.966C133.628 34.2241 133.248 34.8158 132.858 35.4257L131.8 36.9809L130.333 34.492ZM123.533 25.7586C123.528 25.594 123.557 25.4303 123.617 25.277C123.677 25.1237 123.767 24.9839 123.882 24.866C123.997 24.7481 124.135 24.6544 124.286 24.5903C124.438 24.5263 124.601 24.4933 124.766 24.4933C124.93 24.4932 125.093 24.5261 125.245 24.59C125.397 24.654 125.534 24.7476 125.649 24.8654C125.764 24.9833 125.854 25.123 125.914 25.2762C125.975 25.4295 126.004 25.5932 125.999 25.7578C125.991 26.0796 125.858 26.3854 125.628 26.6102C125.397 26.835 125.088 26.9608 124.766 26.9609C124.445 26.961 124.135 26.8354 123.905 26.6108C123.674 26.3861 123.541 26.0804 123.533 25.7586ZM57.4602 27.5913C57.4602 29.5237 57.4853 29.6982 55.1049 29.8216V30.565C56.2216 30.4896 57.3855 30.4409 58.6005 30.4409C59.8154 30.4409 60.9793 30.4896 62.1707 30.565V29.8216C59.7903 29.6982 59.8154 29.5237 59.8154 27.5913V16.2181C59.8154 15.4495 59.8154 14.9285 59.9639 14.5072C60.7569 14.3595 61.575 14.1607 62.4182 14.1607C64.8961 14.1607 66.4584 15.3505 66.4584 17.9266C66.4584 20.0335 64.8961 21.5699 62.8638 21.4952C62.3287 21.4752 61.797 21.4002 61.2771 21.2713L61.5491 22.1892C61.8964 22.2874 62.4921 22.3621 63.1609 22.3369C66.2596 22.2127 68.9371 20.1805 68.9371 17.0833C68.9371 14.2841 66.2101 13.2436 63.8053 13.2436C62.3679 13.3182 60.929 13.3677 59.4665 13.3677C57.9796 13.3677 56.5423 13.3182 55.1033 13.2436V13.987C57.4837 14.1112 57.4586 14.2841 57.4586 16.2173V27.5913H57.4602ZM75.7231 27.5913C75.7231 29.5237 75.7475 29.6982 73.3686 29.8216V30.565C74.4846 30.4896 75.6477 30.4409 76.8634 30.4409C78.0776 30.4409 79.2422 30.4896 80.4336 30.565V29.8216C78.0532 29.6982 78.0776 29.5237 78.0776 27.5913V16.9859C78.1035 16.0436 78.1035 15.2515 78.1774 14.508L82.0439 14.6314C82.5657 14.6566 82.862 14.7312 82.9115 15.3749C83.0113 15.9706 83.1598 16.6142 83.185 17.283H83.9292C83.9292 16.8122 83.9292 16.3658 83.9536 15.8959C83.9779 15.0283 84.0023 14.1607 84.0777 13.2443C81.6903 13.323 79.3017 13.3644 76.9129 13.3685C74.4846 13.3685 72.1285 13.319 69.774 13.2443C69.8495 14.1615 69.8738 15.0283 69.8982 15.8959C69.9226 16.3658 69.9226 16.8122 69.9226 17.283H70.6652C70.6911 16.6142 70.8389 15.9706 70.9387 15.3749C70.9874 14.7312 71.2853 14.6566 71.8063 14.6314L75.6249 14.508C75.6987 15.2515 75.6987 16.0444 75.7231 16.9859V27.5913ZM89.7667 16.2181C89.7667 14.2848 89.7423 14.1112 92.1212 13.9878V13.2443C90.9327 13.3235 89.742 13.3649 88.5509 13.3685C87.3368 13.3685 86.1721 13.319 85.0577 13.2443V13.9878C87.4366 14.112 87.4106 14.2848 87.4106 16.2181V27.5913C87.4106 29.5237 87.4366 29.6982 85.0577 29.8216V30.565C86.1721 30.4896 87.3368 30.4409 88.5509 30.4409C89.7667 30.4409 90.9313 30.4896 92.1212 30.565V29.8216C89.7423 29.6982 89.7667 29.5237 89.7667 27.5913V16.2181ZM110.85 16.2181V27.5913C110.85 29.5237 110.874 29.6982 108.496 29.8216V30.565C109.612 30.4896 110.775 30.4409 111.99 30.4409C113.206 30.4409 114.369 30.4896 115.561 30.565V29.8216C113.18 29.6982 113.206 29.5237 113.206 27.5913V15.6727C113.206 14.2361 113.651 14.0122 115.139 13.9878H115.51V13.2443C114.743 13.319 113.95 13.3685 113.156 13.3685C112.362 13.3685 111.57 13.319 110.801 13.2443C110.479 14.3344 110.008 15.4 109.463 16.5395L104.356 27.0467L97.8117 13.2451C97.0439 13.3198 96.2509 13.3693 95.4572 13.3693C94.6635 13.3693 93.8713 13.3198 93.1027 13.2451V13.9886L93.4988 14.0129C95.0108 14.0129 95.4572 14.2369 95.4572 15.6735V28.1375C95.4572 29.5748 95.0108 29.798 93.4988 29.798L93.1027 29.8224V30.5658C94.0945 30.4904 95.0855 30.4416 96.0773 30.4416C97.069 30.4416 98.06 30.4904 99.0274 30.5658V29.8224L98.6298 29.798C97.069 29.798 96.5975 29.5748 96.5975 28.1375V16.2181L103.514 30.7623H104.008L110.85 16.2181Z" fill="black"/>
<path fill-rule="evenodd" clip-rule="evenodd" d="M116.334 30.5655V29.749C116.959 29.749 117.344 29.7246 117.511 29.6767C117.668 29.6279 117.812 29.5446 117.944 29.4244C118.076 29.3042 118.27 28.9804 118.521 28.4515C118.666 28.1639 119.181 27.0463 120.083 25.0754L123.087 18.3003C123.412 17.5545 124.109 15.8963 125.192 13.3258H125.971L131.104 25.3756C131.934 27.323 132.487 28.5481 132.763 29.0527C132.907 29.3293 133.064 29.5093 133.255 29.6051C133.436 29.6892 133.845 29.7372 134.482 29.7498V30.5663C133.609 30.513 132.736 30.4732 131.862 30.4468L127.991 30.5663V29.7498C128.881 29.7372 129.421 29.7128 129.625 29.6657C129.817 29.6295 129.938 29.5816 130.009 29.4975C130.046 29.4597 130.075 29.4146 130.094 29.3651C130.113 29.3156 130.121 29.2627 130.118 29.2099C130.118 29.0417 130.07 28.813 129.951 28.5254L124.987 16.5824L120.204 27.9352C119.974 28.4884 119.866 28.8861 119.855 29.1493C119.855 29.2578 119.879 29.3419 119.951 29.426C120.034 29.5226 120.167 29.5941 120.36 29.6421C120.648 29.7026 121.166 29.738 121.922 29.7505V30.5671C120.576 30.4955 119.566 30.4594 118.882 30.4594C118.112 30.4578 117.271 30.494 116.334 30.5655ZM131.335 13.2063V13.4656H130.602V15.3816H130.304V13.4656H129.571V13.2063H131.335ZM131.597 13.2063H132.019L132.642 15.0452L133.264 13.2063H133.681V15.3816H133.401V14.0983L133.404 13.8782C133.406 13.7753 133.407 13.6652 133.407 13.5482L132.787 15.3824H132.496L131.871 13.5482V13.6142L131.874 13.8594C131.877 13.967 131.879 14.0472 131.879 14.0991V15.3824H131.598V13.2063H131.597Z" fill="black"/>
<path fill-rule="evenodd" clip-rule="evenodd" d="M31.8829 15.7188C31.8829 9.27773 27.882 4.05559 22.9467 4.05559C18.0114 4.05559 14.0097 9.27773 14.0097 15.7188C14.0097 22.1598 18.0114 27.3811 22.9467 27.3811C27.882 27.3811 31.8829 22.159 31.8829 15.7188H34.9761C34.9761 24.3885 29.5897 31.4182 22.9467 31.4182C16.3037 31.4182 10.9165 24.3893 10.9165 15.7188C10.9165 7.0482 16.3029 0.0185547 22.9467 0.0185547C29.5905 0.0185547 34.9761 7.04742 34.9761 15.7188H31.8829Z" fill="#1879BF"/>
<path fill-rule="evenodd" clip-rule="evenodd" d="M16.8985 15.7188C16.8985 9.27773 14.489 4.05638 11.1616 4.05638C7.83343 4.05638 5.42472 9.27773 5.42472 15.7188C5.42472 22.1598 7.83264 27.3811 11.1616 27.3811C14.4882 27.3804 16.8985 22.159 16.8985 15.7188H19.2726C19.2726 24.3885 15.6411 31.4182 11.1616 31.4182C6.68212 31.4182 3.0498 24.3893 3.0498 15.7188C3.0498 7.0482 6.68212 0.0185547 11.1616 0.0185547C15.6419 0.0185547 19.2726 7.04742 19.2726 15.7188H16.8985Z" fill="#CF4044"/>
<path fill-rule="evenodd" clip-rule="evenodd" d="M8.056 15.7581C8.056 9.30209 6.90548 4.06581 4.896 4.06581C2.8873 4.06581 1.73678 9.30209 1.73678 15.7581C1.73678 22.2156 2.8873 27.4479 4.896 27.4479C6.90548 27.4479 8.056 22.2156 8.056 15.7581L9.79279 15.7565C9.79279 24.449 7.60098 31.496 4.896 31.496C2.19259 31.496 0 24.449 0 15.7565C0 7.06471 2.19259 0.0185547 4.896 0.0185547C7.60098 0.0185547 9.79279 7.06471 9.79279 15.7565L8.056 15.7581Z" fill="#F6D33C"/>
<path fill-rule="evenodd" clip-rule="evenodd" d="M21.6108 49.4449L22.9225 43.8338H23.7767L22.4659 49.4449H21.6108ZM25.5685 46.1183H25.585C25.9732 45.6287 26.6184 45.4275 27.0467 45.4275C27.3462 45.4275 28.6546 45.4975 28.3623 46.7478L27.732 49.4449H26.9194L27.4939 46.9891C27.6448 46.3447 27.4271 45.9949 26.7418 45.9949C26.7418 45.9949 26.3033 45.9722 25.8884 46.2818C25.743 46.391 25.4805 46.5608 25.3037 47.3231L24.8078 49.4441H23.9952L24.9068 45.5431H25.7021L25.5685 46.1183ZM30.7922 46.1183H30.8087C31.1969 45.6287 31.8421 45.4275 32.2689 45.4275C32.5699 45.4275 33.8776 45.4975 33.586 46.7478L32.9557 49.4449H32.1431L32.7176 46.9891C32.8677 46.3447 32.65 45.9949 31.9655 45.9949C31.9655 45.9949 31.5262 45.9722 31.1113 46.2818C30.9659 46.391 30.7042 46.5608 30.5258 47.3231L30.0307 49.4441H29.2189L30.1305 45.5431H30.925L30.7922 46.1183ZM38.8844 47.4944C38.5999 48.7062 37.6741 49.562 36.2635 49.562C34.8528 49.562 34.3255 48.7062 34.6084 47.4944C34.8921 46.2818 35.8179 45.4275 37.2293 45.4275C38.6392 45.4275 39.1673 46.2818 38.8844 47.4944ZM36.3876 49.0253C37.3551 49.0253 37.8344 48.3251 38.0293 47.4944C38.2234 46.6621 38.0702 45.9635 37.1044 45.9635C36.137 45.9635 35.6576 46.6629 35.4635 47.4944C35.2686 48.3258 35.4226 49.0253 36.3876 49.0253ZM40.8302 49.4449L39.9461 45.5439H40.8436L41.4895 48.6371L43.5454 45.5439H44.435L41.6428 49.4449H40.8302ZM47.4889 47.0362C47.6469 46.3596 47.6972 45.9635 46.8335 45.9635C46.4241 45.9635 45.9871 46.1812 45.8842 46.5851H45.0291C45.272 45.7309 46.0775 45.4275 46.9247 45.4275C47.8056 45.4275 48.6214 45.668 48.3667 46.7557L47.9306 48.6206C47.8684 48.8932 47.8155 49.1679 47.7718 49.4441H47.2249C47.1471 49.4441 46.993 49.4834 47.0064 49.3899C47.0315 49.2115 47.0535 49.041 47.0873 48.8626H47.0708C46.692 49.3514 46.1631 49.562 45.5737 49.562C44.8295 49.562 44.1584 49.2123 44.3368 48.4508C44.593 47.3545 45.7364 47.0362 46.7533 47.0362H47.4889ZM46.5577 47.5494C46.0563 47.5722 45.36 47.7357 45.2272 48.3031C45.114 48.784 45.4268 49.0261 45.9054 49.0261C46.8634 49.0261 47.2186 48.2716 47.3702 47.5494H46.5577ZM50.1295 45.5439L50.3244 44.7124L51.1912 44.479L50.9428 45.5431L51.9401 45.5203L51.8112 46.072L50.8218 46.0633L50.2332 48.582C50.168 48.8618 50.3762 48.9938 50.6662 48.9938C50.7959 48.9938 50.9696 48.9773 51.1055 48.9459L50.9727 49.5141C50.7825 49.5219 50.5939 49.5612 50.4053 49.5612C50.2088 49.5612 50.0572 49.5526 49.8678 49.5219C49.7452 49.4984 49.5456 49.4363 49.4481 49.2658C49.3467 49.0795 49.3074 49.063 49.4292 48.5427L50.0084 46.0633L49.2713 46.072L49.4009 45.5203L50.1295 45.5439ZM52.0383 49.4449L52.9492 45.5439H53.7618L52.8509 49.4449H52.0383ZM53.2722 43.8338H54.238L54.051 44.6354H53.0851L53.2722 43.8338ZM58.8369 47.4944C58.554 48.7062 57.6275 49.562 56.2176 49.562C54.8062 49.562 54.2797 48.7062 54.5626 47.4944C54.8455 46.2818 55.7728 45.4275 57.1835 45.4275C58.5933 45.4275 59.1199 46.2818 58.8369 47.4944ZM56.3418 49.0253C57.3076 49.0253 57.787 48.3251 57.9819 47.4944C58.176 46.6621 58.0236 45.9635 57.0569 45.9635C56.0903 45.9635 55.6117 46.6629 55.4168 47.4944C55.2227 48.3258 55.3752 49.0253 56.3418 49.0253ZM61.193 46.1183H61.2103C61.5977 45.6287 62.2437 45.4275 62.6704 45.4275C62.9699 45.4275 64.2791 45.4975 63.9876 46.7478L63.3565 49.4449H62.5447L63.1176 46.9891C63.2685 46.3447 63.0516 45.9949 62.3671 45.9949C62.3671 45.9949 61.9278 45.9722 61.5129 46.2818C61.3675 46.391 61.1058 46.5608 60.9274 47.3231L60.4315 49.4441H59.6197L60.5313 45.5431H61.3258L61.193 46.1183ZM67.1507 45.4275C67.9641 45.4275 68.8058 45.738 68.5394 46.6236H67.6843C67.8352 46.1262 67.4541 45.9627 66.9841 45.9627C66.548 45.9627 66.1527 46.149 66.0513 46.5843C65.9507 47.0197 66.6776 47.0512 66.966 47.136C67.6419 47.3537 68.4616 47.4307 68.2564 48.3101C68.034 49.2658 66.9377 49.5612 66.0576 49.5612C65.1601 49.5612 64.4937 49.188 64.7137 48.2866H65.5688C65.4729 48.7683 65.7723 49.0245 66.2682 49.0245C66.7476 49.0245 67.2749 48.8532 67.3928 48.3479C67.5963 47.4779 64.8363 48.131 65.1915 46.6071C65.3817 45.7922 66.3727 45.4275 67.1507 45.4275ZM71.5131 49.4449L72.4247 45.5439H73.2365L72.3249 49.4449H71.5131ZM72.7469 43.8338H73.7136L73.5249 44.6354H72.5591L72.7469 43.8338ZM75.4441 46.1183H75.4606C75.8488 45.6287 76.4948 45.4275 76.9231 45.4275C77.2225 45.4275 78.5302 45.4975 78.2386 46.7478L77.6091 49.4449H76.7958L77.3694 46.9891C77.5196 46.3447 77.3019 45.9949 76.6189 45.9949C76.6189 45.9949 76.1781 45.9722 75.7655 46.2818C75.6193 46.391 75.3568 46.5608 75.1792 47.3231L74.6833 49.4441H73.8715L74.7831 45.5431H75.5784L75.4441 46.1183ZM82.7653 43.8338H84.8172C85.3869 43.8503 85.985 43.888 86.4133 44.1764C87.1897 44.6975 87.3956 45.5745 87.1473 46.6401C86.8974 47.7042 86.2813 48.5836 85.2628 49.1039C84.6993 49.3907 84.084 49.4308 83.5071 49.4457H81.4552L82.7653 43.8338ZM82.4658 48.7769H83.7138C84.5783 48.7769 85.1135 48.4579 85.4286 48.1388C85.9088 47.6579 86.1272 47.1596 86.2498 46.6394C86.3693 46.1183 86.385 45.6217 86.1288 45.1391C85.9646 44.8208 85.5763 44.5026 84.7135 44.5026H83.4655L82.4658 48.7769ZM90.7136 47.0362C90.8716 46.3596 90.9226 45.9635 90.0582 45.9635C89.6487 45.9635 89.2126 46.1812 89.1096 46.5851H88.2546C88.4974 45.7309 89.303 45.4275 90.1486 45.4275C91.0295 45.4275 91.846 45.668 91.5914 46.7557L91.1568 48.6206C91.1152 48.7919 91.0476 49.118 90.9973 49.4441H90.4495C90.3741 49.4441 90.2193 49.4834 90.2334 49.3899C90.2562 49.2115 90.2814 49.041 90.3136 48.8626H90.2971C89.9183 49.3514 89.3902 49.562 88.7992 49.562C88.0566 49.562 87.3854 49.2123 87.5638 48.4508C87.82 47.3545 88.9619 47.0362 89.9796 47.0362H90.7136ZM89.7816 47.5494C89.2794 47.5722 88.5831 47.7357 88.4511 48.3031C88.3387 48.784 88.6507 49.0261 89.1293 49.0261C90.0873 49.0261 90.4417 48.2716 90.5934 47.5494H89.7816ZM93.3549 45.5439L93.5483 44.7124L94.4159 44.479L94.1659 45.5431L95.164 45.5203L95.0351 46.072L94.0449 46.0633L93.4571 48.582C93.3911 48.8618 93.6001 48.9938 93.8917 48.9938C94.019 48.9938 94.1942 48.9773 94.3294 48.9459L94.1974 49.5141C94.0072 49.5219 93.8186 49.5612 93.6308 49.5612C93.4503 49.5636 93.2699 49.5505 93.0917 49.5219C92.9691 49.4984 92.7695 49.4363 92.6728 49.2658C92.5714 49.0795 92.5313 49.063 92.6547 48.5427L93.2331 46.0633L92.496 46.072L92.6248 45.5203L93.3549 45.5439ZM98.3138 47.0362C98.4718 46.3596 98.5213 45.9635 97.6568 45.9635C97.2474 45.9635 96.8112 46.1812 96.7083 46.5851H95.8532C96.0961 45.7309 96.9016 45.4275 97.7488 45.4275C98.6297 45.4275 99.4447 45.668 99.19 46.7557L98.7555 48.6206C98.7154 48.7919 98.6462 49.118 98.5975 49.4441H98.0497C97.9727 49.4441 97.8179 49.4834 97.8321 49.3899C97.8549 49.2115 97.88 49.041 97.9122 48.8626H97.8957C97.5169 49.3514 96.9888 49.562 96.3994 49.562C95.6552 49.562 94.984 49.2123 95.1624 48.4508C95.4186 47.3545 96.5621 47.0362 97.5782 47.0362H98.3138ZM97.381 47.5494C96.8804 47.5722 96.1841 47.7357 96.0521 48.3031C95.9381 48.784 96.2501 49.0261 96.7287 49.0261C97.6867 49.0261 98.0427 48.2716 98.1928 47.5494H97.381ZM103.365 47.8048C103.196 48.5985 103.633 48.8933 104.462 48.8933C105.163 48.8933 106.063 48.707 106.246 47.9227C106.373 47.3789 105.93 47.1533 105.439 47.0598C104.469 46.8571 102.825 46.648 103.118 45.389C103.403 44.1686 104.733 43.7183 105.886 43.7183C106.938 43.7183 107.872 44.1458 107.618 45.2334H106.72C106.833 44.6039 106.302 44.3863 105.687 44.3863C105.079 44.3863 104.202 44.589 104.048 45.257C103.897 45.8943 104.385 45.9321 104.887 46.0877C105.946 46.4225 107.493 46.4225 107.163 47.837C106.866 49.1117 105.504 49.5628 104.254 49.5628C102.963 49.5628 102.139 49.0646 102.468 47.8056H103.365V47.8048ZM109.034 45.5439L109.227 44.7124L110.095 44.479L109.847 45.5431L110.843 45.5203L110.716 46.072L109.724 46.0633L109.136 48.582C109.072 48.8618 109.281 48.9938 109.571 48.9938C109.698 48.9938 109.875 48.9773 110.008 48.9459L109.878 49.5141C109.686 49.5219 109.499 49.5612 109.31 49.5612C109.113 49.5612 108.962 49.5526 108.772 49.5219C108.648 49.4984 108.45 49.4363 108.352 49.2658C108.25 49.0795 108.212 49.063 108.334 48.5427L108.912 46.0633L108.175 46.072L108.304 45.5203L109.034 45.5439ZM115.366 47.4944C115.082 48.7062 114.155 49.562 112.746 49.562C111.333 49.562 110.807 48.7062 111.09 47.4944C111.373 46.2818 112.301 45.4275 113.711 45.4275C115.122 45.4275 115.649 46.2818 115.366 47.4944ZM112.87 49.0253C113.836 49.0253 114.316 48.3251 114.511 47.4944C114.704 46.6621 114.552 45.9635 113.585 45.9635C112.619 45.9635 112.139 46.6629 111.946 47.4944C111.751 48.3258 111.904 49.0253 112.87 49.0253ZM116.986 49.4449H116.174L117.086 45.5439H117.898L117.721 46.2983H117.739C117.983 45.7608 118.594 45.4896 119.183 45.4896C119.286 45.4896 119.371 45.4983 119.464 45.4983L119.3 46.1969C119.198 46.1584 119.071 46.1584 118.959 46.1584C117.926 46.1898 117.63 46.6865 117.437 47.5109L116.986 49.4449ZM122.543 47.0362C122.701 46.3596 122.752 45.9635 121.886 45.9635C121.477 45.9635 121.042 46.1812 120.938 46.5851H120.084C120.325 45.7309 121.131 45.4275 121.978 45.4275C122.859 45.4275 123.674 45.668 123.421 46.7557L122.985 48.6206C122.945 48.7919 122.877 49.118 122.827 49.4441H122.279C122.202 49.4441 122.049 49.4834 122.061 49.3899C122.086 49.2115 122.109 49.041 122.143 48.8626H122.125C121.748 49.3514 121.22 49.562 120.629 49.562C119.884 49.562 119.215 49.2123 119.392 48.4508C119.648 47.3545 120.791 47.0362 121.809 47.0362H122.543ZM121.611 47.5494C121.109 47.5722 120.413 47.7357 120.281 48.3031C120.168 48.784 120.48 49.0261 120.957 49.0261C121.917 49.0261 122.271 48.2716 122.423 47.5494H121.611ZM128.099 45.5439H128.937C128.853 45.7733 128.781 46.0071 128.721 46.2441L128.081 48.9868C127.746 50.4163 126.927 51.0002 125.353 51.0002C124.431 51.0002 123.856 50.6426 124.058 49.7404H124.912C124.826 50.2607 125.171 50.4634 125.744 50.4634C126.9 50.4634 127.103 49.5935 127.334 48.7149H127.306C126.942 49.1817 126.272 49.375 125.742 49.375C124.435 49.375 124.109 48.5365 124.364 47.441C124.628 46.3124 125.527 45.4275 126.826 45.4275C127.245 45.4275 127.672 45.5824 127.853 45.9399C127.867 45.9557 127.926 46.1812 127.937 46.1262L128.099 45.5439ZM126.098 48.8382C126.977 48.8382 127.463 48.1553 127.639 47.4009C127.816 46.6472 127.65 45.9635 126.77 45.9635C125.82 45.9635 125.372 46.7879 125.228 47.4009C125.085 48.0154 125.149 48.8382 126.098 48.8382ZM130.397 47.6343C130.178 48.3188 130.32 49.0261 131.149 49.0261C131.782 49.0261 132.151 48.8005 132.378 48.2331H133.232C132.899 49.1188 132.042 49.562 131.016 49.562C129.639 49.562 129.299 48.6748 129.568 47.5258C129.835 46.3832 130.69 45.4275 132.05 45.4275C133.327 45.4503 133.761 46.1891 133.509 47.2688L133.424 47.6343H130.397ZM132.689 47.1211C132.859 46.468 132.652 45.9635 131.864 45.9635C131.189 45.9635 130.666 46.4845 130.517 47.1211H132.689ZM134.697 44.0232H134.022L134.073 43.8055H135.703L135.651 44.0232H134.976L134.601 45.6374H134.322L134.697 44.0232ZM137.795 43.9878H137.789L136.76 45.6374H136.498L136.239 43.9878H136.234L135.849 45.6374H135.571L135.996 43.8055H136.496L136.723 45.3152H136.73L137.651 43.8055H138.116L137.689 45.6374H137.411L137.795 43.9878Z" fill="black"/>
</svg>
