<svg width="134" height="39" viewBox="0 0 134 39" fill="none" xmlns="http://www.w3.org/2000/svg">
<path fill-rule="evenodd" clip-rule="evenodd" d="M3.4876 29.8678L1.88931 29.9395C1.30818 29.9395 1.01721 30.0129 0.871321 30.2305C0.798782 30.3756 0.726243 30.5215 0.726243 30.5932C0.653704 30.6665 0.653705 30.7383 0.580351 30.7383C0.507812 30.7383 0.507813 30.6665 0.507813 30.5932C0.507813 30.3748 0.726243 29.4309 0.726243 29.3576C0.726243 29.2125 0.798782 29.1392 0.871321 29.1392C0.943859 29.1392 1.0164 29.2859 1.30737 29.2859C1.59752 29.2859 2.03438 29.3576 2.32454 29.3576H6.53911C7.19278 29.3576 7.48374 29.2125 7.55628 29.2125C7.62882 29.2125 7.62882 29.2859 7.62882 29.4309V30.6665C7.55628 30.7383 7.55628 30.8116 7.48375 30.8116C7.41039 30.8116 7.41039 30.8116 7.41039 30.5932V30.5215C7.33785 30.2305 7.0477 29.9387 6.10307 29.9387L4.79493 29.867V34.2275C4.79493 35.1713 4.79493 36.0442 4.86746 36.4802C4.86746 36.7696 4.94 36.988 5.23097 37.0614H5.8121C5.95717 37.0614 5.95717 37.1347 5.95717 37.1347C5.95717 37.2064 5.88464 37.2798 5.73874 37.2798C5.08508 37.2798 4.4306 37.2064 4.14045 37.2064C3.85029 37.2064 3.19582 37.2798 2.75977 37.2798C2.61469 37.2798 2.54215 37.2064 2.54215 37.1347C2.54215 37.1347 2.61469 37.0614 2.75977 37.0614H3.12328C3.34171 36.988 3.41343 36.7704 3.41343 36.4802C3.48597 36.0442 3.48597 35.1721 3.48597 34.2275V29.8678H3.4876ZM11.0455 32.3382C11.0455 30.7383 11.0455 30.4489 10.9729 30.0854C10.9729 29.7945 10.9004 29.576 10.5369 29.5027H10.1008C10.0631 29.5004 10.0275 29.4843 10.0008 29.4576C9.97411 29.4309 9.95808 29.3953 9.95576 29.3576C9.95576 29.2859 10.0283 29.2859 10.1742 29.2859C10.7553 29.2859 11.4098 29.3576 11.6999 29.3576C12.0635 29.3576 14.1703 29.3576 14.3162 29.2859H14.8248C14.8248 29.2125 14.8974 29.2125 14.9699 29.2125C15.0424 29.2125 15.0424 29.2859 15.0424 29.2859C15.0424 29.3576 14.9699 29.5027 14.9699 30.0121C14.9699 30.0854 14.8974 30.5215 14.8974 30.6665C14.8974 30.7383 14.8974 30.8116 14.8248 30.8116C14.7523 30.8116 14.6797 30.7383 14.6797 30.6665C14.6797 30.5932 14.6797 30.3756 14.6072 30.3039C14.5347 30.0854 14.4621 29.9395 13.9527 29.8678H12.427C12.3544 29.8678 12.3544 29.8678 12.3544 29.9395V32.6283C12.3544 32.7017 12.3544 32.7017 12.427 32.7017H14.0986C14.3888 32.7017 14.5347 32.6283 14.6072 32.5566C14.6797 32.4833 14.7523 32.4099 14.8256 32.4099C14.8256 32.4099 14.8982 32.4099 14.8982 32.4833C14.8982 32.5566 14.8256 32.7017 14.7531 33.282V34.0098C14.7531 34.0816 14.7531 34.1549 14.608 34.1549C14.5355 34.1549 14.5355 34.1549 14.5355 34.0816V33.7189C14.4629 33.5004 14.317 33.3562 13.881 33.2828H12.4278C12.3552 33.2828 12.3552 33.2828 12.3552 33.3562V35.8266C12.3552 36.5528 12.5729 36.6987 13.5908 36.6987C13.881 36.6987 14.3179 36.6987 14.608 36.6253C14.8982 36.4802 15.0441 36.2626 15.1166 35.8266C15.1166 35.6815 15.1166 35.6815 15.1891 35.6815C15.2617 35.6815 15.2617 35.7532 15.2617 35.8266C15.2617 36.1175 15.1891 36.8437 15.1891 36.9888C15.1166 37.2798 14.9707 37.2798 14.608 37.2798C13.0097 37.2798 12.2827 37.2064 11.6282 37.2064C11.4106 37.2064 10.7561 37.2798 10.3209 37.2798C10.1758 37.2798 10.1025 37.2064 10.1025 37.1347C10.1025 37.1347 10.175 37.0614 10.2475 37.0614H10.6836C10.902 36.988 10.902 36.7704 10.9737 36.4802C11.0463 36.0442 11.0463 35.1721 11.0463 34.2275V32.3382H11.0455ZM19.3295 36.2618C18.2398 35.3897 18.0214 34.1541 18.0214 33.1369C18.0214 32.4091 18.2398 31.1743 19.257 30.2305C19.984 29.576 21.0012 29.14 22.6003 29.14C23.2548 29.14 23.6175 29.2133 24.1261 29.2133C24.4896 29.2867 24.8531 29.3584 25.144 29.4318C25.2891 29.4318 25.2891 29.5035 25.2891 29.5768V30.158C25.2166 30.4489 25.2166 31.0301 25.2166 31.2485C25.2166 31.4669 25.2166 31.5395 25.0715 31.5395C24.999 31.5395 24.999 31.4661 24.999 31.321C24.999 30.9567 24.8531 30.5932 24.5629 30.3039C24.2728 29.9395 23.3999 29.6494 22.456 29.6494C21.5114 29.6494 20.9295 29.8678 20.4209 30.3039C19.6939 31.0301 19.4763 32.0472 19.4763 33.0644C19.4763 35.5348 21.3655 36.8437 22.8195 36.8437C23.7642 36.8437 24.3453 36.6987 24.7088 36.1893C24.9272 36.0442 25.0723 35.6815 25.0723 35.5348C25.1449 35.3164 25.1449 35.3164 25.2174 35.3164C25.2899 35.3164 25.3625 35.3897 25.3625 35.4631C25.3625 35.6081 25.2174 36.4802 25.0723 36.8429C25.0723 37.0614 24.9998 37.1339 24.8539 37.2056C24.4178 37.3523 23.6183 37.424 22.8921 37.424C21.509 37.424 20.2742 37.1347 19.3295 36.2618ZM34.4445 32.6275C34.4445 32.6275 34.517 32.6275 34.517 32.5558V32.3374V30.0846C34.4445 29.7936 34.3711 29.5752 34.0084 29.5019H33.6449C33.4998 29.5019 33.4265 29.4301 33.4265 29.3568C33.4265 29.2851 33.4998 29.2851 33.6449 29.2851H36.4788C36.6972 29.2851 36.769 29.2851 36.769 29.3568C36.769 29.4301 36.6964 29.5019 36.5505 29.5019H36.2604C35.9702 29.5752 35.8977 29.7203 35.8243 30.0846V34.2266C35.8243 35.1705 35.8243 36.0434 35.8977 36.4794C35.8977 36.7688 35.9702 36.9872 36.2604 37.0605H36.8415C36.914 37.0605 36.9866 37.1339 36.9866 37.1339C36.9866 37.2056 36.914 37.279 36.7682 37.279C36.1145 37.279 35.4608 37.2056 35.1699 37.2056C34.8797 37.2056 34.2252 37.279 33.7892 37.279C33.6441 37.279 33.5707 37.2056 33.5707 37.1339C33.5707 37.1339 33.6433 37.0605 33.7892 37.0605H34.1527C34.3703 36.9872 34.4437 36.7696 34.4437 36.4794C34.5162 36.0434 34.5162 35.1713 34.5162 34.2266V33.2812C34.5162 33.2095 34.4437 33.2095 34.4437 33.2095H30.3742V36.4794C30.4467 36.7688 30.5192 36.9872 30.8102 37.0605H31.3196C31.4647 37.0605 31.538 37.1339 31.538 37.1339C31.538 37.2056 31.4655 37.279 31.3196 37.279C30.5926 37.279 29.9389 37.2056 29.648 37.2056C29.4295 37.2056 28.7759 37.279 28.3398 37.279C28.1947 37.279 28.1222 37.2056 28.1222 37.1339C28.1222 37.1339 28.1947 37.0605 28.2673 37.0605H28.7033C28.8484 36.9872 28.9218 36.7696 28.9935 36.4794V32.3374V30.0846C28.9935 29.7936 28.9209 29.5752 28.5574 29.5019H28.1214C28.0488 29.5019 27.9755 29.4301 27.9755 29.3568C27.9755 29.2851 28.048 29.2851 28.1939 29.2851H31.0278C31.1729 29.2851 31.2463 29.2851 31.2463 29.3568C31.2463 29.4301 31.1737 29.5019 31.0278 29.5019H30.7377C30.4467 29.5752 30.3742 29.7203 30.3742 30.0846V32.6275H34.4445ZM41.3479 35.8258C41.3479 36.6245 41.4938 36.9163 41.7114 36.988C41.8564 37.0614 42.0749 37.0614 42.22 37.0614C42.365 37.0614 42.4384 37.0614 42.4384 37.1347C42.4384 37.2798 42.2933 37.2798 42.1474 37.2798C41.4938 37.2798 41.0577 37.2064 40.8401 37.2064C40.7676 37.2064 40.259 37.2798 39.7504 37.2798C39.6053 37.2798 39.532 37.2798 39.532 37.1347C39.532 37.0614 39.532 37.0614 39.677 37.0614C39.8221 37.0614 39.9672 37.0614 40.1131 36.988C40.4032 36.9163 40.4766 36.6253 40.4766 35.6807L40.5491 29.5027C40.5491 29.2859 40.6217 29.14 40.6942 29.14C40.8393 29.14 40.9118 29.2867 41.0577 29.4309C41.2028 29.576 42.8019 31.3202 44.4002 32.8451C45.0547 33.573 46.5079 35.0262 46.7255 35.2438L46.653 30.5207C46.653 29.8662 46.5079 29.6486 46.2895 29.5752C46.1444 29.5018 45.8534 29.5019 45.7083 29.5019C45.5633 29.5019 45.5633 29.4301 45.5633 29.3568C45.5633 29.2851 45.6358 29.2851 45.8542 29.2851H48.107C48.2521 29.2851 48.3972 29.2851 48.3972 29.3568C48.3972 29.4301 48.3246 29.5019 48.1787 29.5019H47.8886C47.5984 29.5752 47.5251 29.7928 47.4525 30.4473L47.38 37.0597C47.38 37.2782 47.3074 37.4224 47.2341 37.4224C47.089 37.4224 47.0157 37.2773 46.8714 37.1331C46.2169 36.5503 44.8362 35.1705 43.7465 34.0799C42.5835 32.9177 41.4204 31.6095 41.2761 31.3911H41.2036L41.3479 35.8258ZM55.6632 36.9163C53.6281 36.9163 52.4658 35.1713 52.4658 32.9193C52.4658 30.3039 53.8465 29.6494 55.0088 29.6494C56.753 29.6494 58.1336 31.1026 58.1336 33.5004C58.1336 36.552 56.3903 36.9163 55.6632 36.9163ZM55.2272 37.424C57.916 37.424 59.5877 35.5348 59.5877 33.0636C59.5877 30.6665 57.9894 29.14 55.3731 29.14C52.1757 29.14 51.0126 31.4661 51.0126 33.282C51.0126 35.1713 52.1749 37.424 55.2272 37.424ZM64.6018 34.2275C64.6018 35.5348 64.6018 36.2618 64.8202 36.4802C64.9653 36.6253 65.2563 36.6987 66.0558 36.6987C66.6369 36.6987 67.073 36.6987 67.2914 36.4077C67.4365 36.2626 67.5824 35.9716 67.5824 35.7532C67.5824 35.6815 67.5824 35.6081 67.7275 35.6081C67.8008 35.6081 67.8008 35.6815 67.8008 35.8266C67.8008 35.8999 67.7275 36.6987 67.6541 36.9888C67.5824 37.2798 67.509 37.2798 66.9279 37.2798C65.4747 37.2798 64.7477 37.2064 63.8764 37.2064C63.658 37.2064 63.0043 37.2798 62.5683 37.2798C62.4232 37.2798 62.3507 37.2064 62.3507 37.1347C62.3507 37.1347 62.4232 37.0614 62.4957 37.0614H62.9318C63.0769 36.988 63.1502 36.7704 63.2219 36.4802V32.3382V30.0854C63.2219 29.7945 63.1494 29.576 62.7859 29.5027H62.4224C62.3847 29.5004 62.3491 29.4843 62.3224 29.4576C62.2956 29.4309 62.2796 29.3953 62.2773 29.3576C62.2773 29.2859 62.3498 29.2859 62.4957 29.2859H65.4022C65.5472 29.2859 65.6206 29.2859 65.6206 29.3576C65.6206 29.4309 65.548 29.5027 65.4022 29.5027H64.9661C64.676 29.576 64.6026 29.7211 64.6026 30.0854V34.2275H64.6018ZM74.5567 36.9163C72.5957 36.9163 71.3601 35.1713 71.3601 32.9193C71.3601 30.3039 72.74 29.6494 73.9756 29.6494C75.6472 29.6494 77.0271 31.1026 77.0271 33.5004C77.0279 36.552 75.3563 36.9163 74.5567 36.9163ZM74.1207 37.424C76.8095 37.424 78.4811 35.5348 78.4811 33.0636C78.4811 30.6665 76.8828 29.14 74.2657 29.14C71.0691 29.14 69.9069 31.4661 69.9069 33.282C69.9069 35.1713 71.1425 37.424 74.1207 37.424ZM88.6545 36.552C88.6545 36.8429 88.6545 36.8429 88.5811 36.9163C87.8549 37.279 86.8377 37.424 86.039 37.424C83.4219 37.424 81.0982 36.1884 81.0982 33.282C81.0982 31.6104 81.9687 30.4481 82.9858 29.8678C84.0046 29.2133 84.9485 29.14 85.8214 29.14C86.5476 29.14 87.493 29.2867 87.6381 29.2867C87.9291 29.3584 88.2926 29.4318 88.5102 29.4318C88.6553 29.4318 88.6553 29.5035 88.6553 29.5768C88.6553 29.6502 88.5819 29.9395 88.5819 31.3218C88.5819 31.4669 88.5102 31.5403 88.4368 31.5403C88.3651 31.5403 88.3651 31.4669 88.3651 31.3936C88.3651 31.1042 88.2918 30.8124 88.0008 30.5231C87.7114 30.1588 86.8385 29.651 85.6747 29.651C85.0935 29.651 84.2948 29.7227 83.5686 30.3055C82.9858 30.8133 82.5514 31.6128 82.5514 32.9209C82.5514 35.1737 84.0046 36.9179 86.2574 36.9179C86.5468 36.9179 86.9119 36.9179 87.1295 36.7712C87.3463 36.6995 87.3463 36.5528 87.3463 36.4085V35.3913V34.1557C87.3463 33.793 87.2746 33.5746 86.9119 33.5013H86.4759C86.4025 33.5013 86.3291 33.5013 86.3291 33.4279C86.3291 33.3562 86.4025 33.2828 86.5476 33.2828C87.1303 33.2828 87.7832 33.3562 88.0741 33.3562C88.4368 33.3562 88.9462 33.2828 89.3097 33.2828C89.4548 33.2828 89.5282 33.3562 89.5282 33.4279C89.5282 33.5013 89.4548 33.5013 89.3831 33.5013H89.0921C88.8012 33.5746 88.7294 33.7922 88.7294 34.1557C88.6561 34.4467 88.6561 34.8836 88.6561 35.3913V36.552H88.6545ZM94.2497 34.5176C94.2497 33.9365 94.178 33.7189 94.0313 33.4271C93.9596 33.282 92.5063 30.9567 92.142 30.3756C91.9236 30.0129 91.6342 29.7211 91.4158 29.6494C91.2691 29.576 91.1248 29.5027 90.9798 29.5027C90.942 29.5004 90.9065 29.4843 90.8798 29.4576C90.853 29.4309 90.837 29.3953 90.8347 29.3576C90.8347 29.3576 90.9064 29.2859 91.0531 29.2859H93.5243C93.596 29.2859 93.6694 29.3576 93.6694 29.3576C93.6694 29.4309 93.596 29.4309 93.451 29.5027C93.3059 29.5027 93.3059 29.6494 93.3059 29.7211C93.3059 29.7945 93.3059 29.9395 93.3776 30.0854C93.5243 30.3748 95.0493 32.9193 95.1952 33.2103C95.2669 32.9919 96.6484 30.6665 96.7934 30.3039C96.8652 30.0854 96.9385 29.8678 96.9385 29.7945C96.9385 29.6494 96.8652 29.5035 96.7201 29.5035C96.575 29.5035 96.5017 29.4318 96.5017 29.3584C96.5017 29.2867 96.575 29.2867 96.7201 29.2867H98.8278C98.9011 29.2867 98.9729 29.2867 98.9729 29.3584C98.9706 29.3961 98.9545 29.4317 98.9278 29.4584C98.9011 29.4851 98.8655 29.5012 98.8278 29.5035C98.6827 29.5035 98.4651 29.5035 98.32 29.6502C98.1 29.7219 98.0291 29.8686 97.7373 30.158C97.4479 30.5223 95.9205 33.0644 95.7763 33.5013C95.5578 33.8639 95.5579 34.1557 95.5579 34.5184V35.3905C95.5579 35.5356 95.5579 36.045 95.6296 36.481C95.6296 36.7704 95.7763 36.9888 96.0656 37.0622H96.575C96.7201 37.0622 96.7201 37.1355 96.7201 37.1355C96.7201 37.2072 96.6484 37.2806 96.5017 37.2806C95.8472 37.2806 95.1943 37.2072 94.9034 37.2072C94.6849 37.2072 93.9596 37.2806 93.5952 37.2806C93.4502 37.2806 93.3768 37.2806 93.3768 37.1355C93.3768 37.1355 93.4502 37.0622 93.5235 37.0622H93.8862C94.1046 36.9888 94.1772 36.7712 94.2489 36.481V34.5176H94.2497ZM98.8286 35.7524C98.902 35.7524 98.902 35.8258 99.047 36.0434C99.2655 36.2618 99.2655 36.4794 99.2655 36.5511C99.2655 36.6978 99.2655 36.9155 99.1921 37.0605C98.9675 37.5813 98.6748 38.07 98.3216 38.5138C98.2483 38.5138 98.1749 38.5871 98.1749 38.5871C98.1016 38.5871 98.0299 38.5871 98.0299 38.5138C98.0299 38.4404 98.1016 38.3687 98.1749 38.2953C98.3934 37.9326 98.4659 37.6408 98.4659 37.4232C98.4659 36.7688 98.0299 36.6245 98.0299 36.4794C98.029 36.1175 98.4651 35.7524 98.8286 35.7524ZM107.766 32.3382V30.0854C107.693 29.7211 107.621 29.576 107.404 29.5027H107.039C106.894 29.5027 106.821 29.4309 106.821 29.3576C106.821 29.2859 106.894 29.2859 107.112 29.2859H109.729C109.874 29.2859 109.946 29.2859 109.946 29.3576C109.943 29.3953 109.927 29.4309 109.901 29.4576C109.874 29.4843 109.838 29.5004 109.801 29.5027H109.51C109.22 29.576 109.147 29.7211 109.075 30.0854V34.2275C109.075 35.2446 109.075 36.0442 109.147 36.552C109.147 36.7704 109.22 36.988 109.51 37.0614H110.092C110.164 37.0614 110.238 37.1347 110.238 37.1347C110.238 37.2064 110.164 37.2798 110.019 37.2798C109.365 37.2798 108.711 37.2064 108.421 37.2064C108.13 37.2064 107.475 37.2798 107.039 37.2798C106.968 37.2798 106.821 37.2064 106.821 37.1347C106.821 37.1347 106.894 37.0614 107.039 37.0614H107.404C107.622 36.988 107.693 36.8429 107.693 36.4802C107.766 36.0442 107.766 35.2446 107.766 34.2275V32.3382ZM114.597 35.8258C114.597 36.6245 114.742 36.9163 114.96 36.988C115.107 37.0614 115.324 37.0614 115.469 37.0614C115.614 37.0614 115.688 37.0614 115.688 37.1347C115.688 37.2798 115.541 37.2798 115.397 37.2798C114.742 37.2798 114.306 37.2064 114.089 37.2064C114.017 37.2064 113.507 37.2798 113 37.2798C112.853 37.2798 112.709 37.2798 112.709 37.1347C112.709 37.0614 112.782 37.0614 112.927 37.0614C113.072 37.0614 113.218 37.0614 113.363 36.988C113.654 36.9163 113.726 36.6253 113.726 35.6807L113.799 29.5027C113.799 29.2859 113.871 29.14 113.944 29.14C114.089 29.14 114.163 29.2867 114.307 29.4309C114.454 29.576 116.052 31.3202 117.579 32.8451C118.305 33.573 119.758 35.0262 119.903 35.2438H119.976L119.903 30.5207C119.903 29.8662 119.758 29.6486 119.54 29.5752C119.395 29.5018 119.104 29.5019 118.959 29.5019C118.814 29.5019 118.814 29.4301 118.814 29.3568C118.814 29.2851 118.886 29.2851 119.104 29.2851H121.356C121.503 29.2851 121.647 29.2851 121.647 29.3568C121.647 29.4301 121.574 29.5019 121.429 29.5019H121.14C120.849 29.5752 120.703 29.7928 120.703 30.4473L120.63 37.0597C120.63 37.2782 120.557 37.4224 120.485 37.4224C120.338 37.4224 120.194 37.2773 120.121 37.1331C119.466 36.5503 118.086 35.1705 116.996 34.0799C115.834 32.9177 114.671 31.6095 114.454 31.3911L114.597 35.8258ZM125.497 36.2618C124.48 35.3897 124.189 34.1541 124.189 33.1369C124.189 32.4091 124.408 31.1743 125.425 30.2305C126.224 29.576 127.242 29.14 128.768 29.14C129.421 29.14 129.857 29.2133 130.293 29.2133C130.729 29.2867 131.092 29.3584 131.384 29.4318C131.529 29.4318 131.529 29.5035 131.529 29.5768C131.529 29.6502 131.529 29.7953 131.457 30.158V31.2485C131.457 31.4669 131.457 31.5395 131.31 31.5395C131.239 31.5395 131.239 31.4661 131.239 31.321C131.239 30.9567 131.092 30.5932 130.803 30.3039C130.44 29.9395 129.639 29.6494 128.695 29.6494C127.751 29.6494 127.168 29.8678 126.661 30.3039C125.933 31.0301 125.715 32.0472 125.715 33.0644C125.715 35.5348 127.604 36.8437 129.058 36.8437C130.004 36.8437 130.512 36.6987 130.948 36.1893C131.166 36.0442 131.31 35.6815 131.31 35.5348C131.384 35.3164 131.384 35.3164 131.457 35.3164C131.529 35.3164 131.529 35.3897 131.529 35.4631C131.529 35.6081 131.457 36.4802 131.31 36.8429C131.239 37.0614 131.239 37.1339 131.021 37.2056C130.657 37.3523 129.857 37.424 129.132 37.424C127.678 37.424 126.516 37.1347 125.497 36.2618ZM132.693 36.6253C132.693 36.3343 132.911 35.9708 133.347 35.9708C133.71 35.9708 134 36.1893 134 36.552C134 36.9163 133.782 37.2064 133.347 37.2064C132.91 37.2056 132.693 36.9163 132.693 36.6253Z" fill="#7A7F84"/>
<path fill-rule="evenodd" clip-rule="evenodd" d="M39.8213 10.3193C39.8213 5.30513 39.8213 4.3605 39.7487 3.27079C39.6762 2.10773 39.3127 1.59915 38.5857 1.38153C38.2221 1.30899 37.7861 1.30899 37.4234 1.30899C37.0599 1.30899 36.8423 1.23645 36.8423 0.94548C36.8423 0.799588 37.1333 0.727051 37.6418 0.727051C38.9492 0.727051 40.9843 0.799587 42.0015 0.799587C42.801 0.799587 44.7628 0.727051 46.071 0.727051C46.4345 0.727051 46.7246 0.799588 46.7246 0.94548C46.7246 1.23563 46.507 1.30899 46.2161 1.30899C45.8534 1.30899 45.6349 1.30899 45.1989 1.38153C44.3268 1.59996 44.0358 2.10855 43.9633 3.27079C43.8908 4.3605 43.8908 5.30595 43.8908 10.3918V16.2055C43.8908 19.4762 43.8908 22.0917 44.0358 23.5449C44.1084 24.417 44.3993 24.9981 45.344 25.1432C45.8534 25.2166 46.5796 25.2899 47.0882 25.2899C47.4508 25.2899 47.5967 25.3617 47.5967 25.5084C47.5967 25.7977 47.3058 25.7268 46.9423 25.7268C44.762 25.7268 42.6552 25.7985 41.7831 25.7985C41.056 25.7985 40.7651 25.3625 39.4577 25.3625C39.0217 25.3625 37.7136 25.2907 37.7136 25.0731C37.7136 24.9281 38.0771 24.8547 38.4406 24.8547C38.9492 24.8547 38.368 25.2174 38.659 25.144C39.3135 24.999 39.5311 24.4912 39.6036 23.474C39.8213 22.0925 39.8213 19.4771 39.8213 16.2063V10.3193ZM3.41502 10.3918C3.41502 5.30513 3.41502 4.3605 3.34248 3.27079C3.26994 2.18108 2.97897 1.6725 1.88926 1.38153C1.5983 1.30899 1.08971 1.30899 0.581124 1.30899C0.218431 1.30899 0 1.23645 0 1.01802C0 0.799591 0.290155 0.727865 0.79874 0.727865C2.54293 0.727865 4.65062 0.800408 5.59525 0.800408C6.90339 0.800408 8.8652 0.727865 10.391 0.727865C14.5338 0.727865 16.0596 2.10854 16.5681 2.61713C17.2952 3.27079 18.2398 4.79655 18.2398 6.54074C18.2398 11.2639 14.8248 14.6064 10.0283 14.6064C9.88318 14.6064 9.51967 14.6064 9.3746 14.5338C9.22952 14.5338 8.93855 14.5338 8.93855 14.2429C8.93855 14.0253 9.2287 13.8794 9.88318 13.8794C11.7716 13.8794 14.3879 11.7717 14.3879 8.42918C14.3879 7.33866 14.2428 5.08589 12.4261 3.41506C11.1905 2.32535 9.80983 2.10691 9.08363 2.10691C8.57423 2.10691 8.06564 2.17945 7.77549 2.25281C7.63041 2.32535 7.48533 2.54296 7.48533 2.90647V16.2047C7.48533 19.257 7.48533 21.9458 7.63041 23.3257C7.77549 24.2711 7.99392 24.9973 8.93855 25.1424C9.44714 25.2158 10.1742 25.2891 10.6827 25.2891C11.0462 25.2891 11.1913 25.3608 11.1913 25.5075C11.1913 25.7969 10.9012 25.8702 10.5368 25.8702C8.35661 25.8702 6.24973 25.7969 5.37764 25.7969C4.65062 25.7969 2.54374 25.8702 1.2356 25.8702C0.799555 25.8702 0.508586 25.7969 0.508586 25.5075C0.508586 25.3608 0.654478 25.2891 1.08971 25.2891C1.59829 25.2891 1.9618 25.2158 2.25277 25.1424C2.90643 24.9973 3.12487 24.2719 3.1974 23.3257C3.41584 21.9458 3.41584 19.3295 3.41584 16.2047V10.3918H3.41502Z" fill="#2A74BA"/>
<path fill-rule="evenodd" clip-rule="evenodd" d="M24.9248 2.83471C24.9248 2.61628 24.9973 2.4712 25.2149 2.39866C25.5784 2.32613 26.1596 2.25359 26.9591 2.25359C28.9209 2.25359 32.0458 3.63426 32.0458 8.35742C32.0458 11.1196 31.1012 12.6454 30.084 13.3716C29.5029 13.8076 29.066 13.9527 27.7579 13.9527C26.8858 13.9527 25.9411 13.8801 25.2141 13.59C24.9965 13.5174 24.924 13.3716 24.924 13.0089V2.83471H24.9248ZM21.0004 16.2054C21.0004 19.3303 21.0004 21.9466 20.8553 23.3265C20.7094 24.2719 20.5643 24.9981 19.9106 25.1432C19.5471 25.2165 19.1836 25.2899 18.675 25.2899C18.3115 25.2899 18.1656 25.3616 18.1656 25.5083C18.1656 25.7977 18.3841 25.871 18.8193 25.871C20.1274 25.871 22.2351 25.7977 22.8888 25.7977C23.3249 25.7977 25.7952 25.871 27.7579 25.871C28.1939 25.871 28.4123 25.7977 28.4123 25.5083C28.4123 25.3616 28.2673 25.2899 27.9763 25.2899C27.6128 25.2899 26.8866 25.2165 26.378 25.1432C25.36 24.9981 25.2149 24.2727 25.0699 23.3265C24.9248 21.9466 24.9248 19.2578 24.9248 16.2054V15.6969C24.9248 15.5518 24.9973 15.4792 25.2149 15.4792L28.0496 15.5518C28.3398 15.5518 28.4857 15.5518 28.7033 15.7702C29.1394 16.2788 30.52 18.3131 31.9007 20.2024C33.7174 22.7461 35.0256 24.2727 36.4063 25.0723C37.2783 25.5083 38.5139 25.7268 40.9843 25.871H43.7457C43.5273 25.6526 43.7457 25.6526 43.7457 25.3616C43.7457 25.2165 43.6732 25.0723 43.3822 25.0723C43.0912 25.0723 42.8011 25.0723 42.4376 24.9989C41.929 24.8538 40.5483 24.6362 38.7316 22.7461C36.7698 20.6385 34.5895 17.8771 31.6106 14.1711C34.9539 11.4098 35.971 9.15698 35.971 6.68659C35.971 4.43382 34.6637 2.76217 33.7182 2.10851C31.9741 0.872907 29.7213 0.727829 27.6136 0.727829C26.5956 0.727829 24.0527 0.800372 22.963 0.800372C22.236 0.800372 20.1291 0.727829 18.3849 0.727829C17.8763 0.727829 17.6587 0.80037 17.6587 1.01799C17.6587 1.2356 17.8763 1.30895 18.2398 1.30895C18.6759 1.30895 19.257 1.30895 19.4754 1.38149C20.6385 1.67246 20.8561 2.18105 20.9286 3.27076C21.0012 4.36047 21.0012 5.30591 21.0012 10.3918V16.2054H21.0004ZM98.3925 2.83471C98.3925 2.61628 98.4659 2.4712 98.6835 2.39866C99.0462 2.32613 99.6273 2.25359 100.5 2.25359C102.461 2.25359 105.586 3.63426 105.586 8.35742C105.586 11.1196 104.569 12.6454 103.625 13.3716C102.971 13.8076 102.535 13.9527 101.226 13.9527C100.428 13.9527 99.4097 13.8801 98.6843 13.59C98.4659 13.5174 98.3933 13.3716 98.3933 13.0089V2.83471H98.3925ZM94.4681 16.2054C94.4681 19.3303 94.4681 21.9466 94.323 23.3265C94.178 24.2719 94.0321 24.9981 93.3776 25.1432C92.9732 25.2418 92.5583 25.291 92.142 25.2899C91.7793 25.2899 91.6342 25.3616 91.6342 25.5083C91.6342 25.7977 91.8526 25.871 92.2887 25.871C93.6685 25.871 95.7029 25.7977 96.3574 25.7977C96.8651 25.7977 99.3372 25.871 101.226 25.871C101.662 25.871 101.88 25.7977 101.88 25.5083C101.88 25.3616 101.808 25.2899 101.517 25.2899C101.081 25.2899 100.355 25.2165 99.8457 25.1432C98.9019 24.9981 98.6835 24.2727 98.6102 23.3265C98.3917 21.9466 98.3917 19.2578 98.3917 16.2054V15.6969C98.3917 15.5518 98.5384 15.4792 98.6827 15.4792L101.589 15.5518C101.808 15.5518 102.025 15.5518 102.17 15.7702C102.606 16.2788 104.06 18.3131 105.368 20.2024C107.256 22.7461 109.074 24.7088 110.528 25.435C111.398 25.9444 112.199 26.0894 114.087 26.0894H117.285C117.648 26.0894 117.866 26.0161 117.866 25.7268C117.866 25.58 117.721 25.5083 117.504 25.5083C117.213 25.5083 116.922 25.435 116.56 25.3616C116.05 25.2899 114.671 25.0723 112.852 23.1088C110.891 21.0745 108.056 17.8771 105.077 14.1711C108.421 11.4098 109.438 9.15698 109.438 6.68659C109.438 4.43382 108.13 2.76217 107.257 2.10851C105.44 0.872907 103.188 0.727829 101.081 0.727829C100.063 0.727829 97.5196 0.800372 96.4307 0.800372C95.7029 0.800372 93.6686 0.727829 91.8527 0.727829C91.3432 0.727829 91.1248 0.80037 91.1248 1.01799C91.1248 1.2356 91.3432 1.30895 91.7059 1.30895C92.142 1.30895 92.7247 1.30895 93.0141 1.38149C94.1046 1.67246 94.3939 2.18105 94.4673 3.27076V16.2054H94.4681ZM50.213 0.872093C50.2856 0.290969 50.504 0 50.7942 0C51.0126 0 51.2302 0.145078 51.6663 1.01717L60.7499 19.7655L69.8335 0.799551C70.0519 0.290966 70.2696 0.000814593 70.5597 0.000814593C70.8507 0.000814593 71.0691 0.29097 71.1425 1.01799L74.194 21.5839C74.4833 23.6916 74.7751 24.6354 75.7923 24.9272C76.7377 25.2899 77.4639 25.2899 77.9 25.2899C78.1909 25.2899 78.4094 25.3616 78.4094 25.5083C78.4094 25.7977 77.9733 25.871 77.5373 25.871C76.7385 25.871 72.0863 25.7977 70.7781 25.7259C69.9794 25.6526 69.8343 25.5075 69.8343 25.3616C69.8343 25.1432 69.9794 25.0723 70.197 24.9272C70.3437 24.9272 70.488 24.4912 70.3437 23.5457L68.3811 8.86682H68.236L60.9683 23.9817C60.1688 25.58 60.0237 25.871 59.7327 25.871C59.4417 25.871 59.0782 25.2165 58.5697 24.1994C57.7701 22.6728 55.1546 17.5861 54.7178 16.6423C54.4276 15.9153 52.465 11.7733 51.2294 9.23033H51.1569L49.4127 22.5285C49.3401 23.1097 49.2676 23.5457 49.2676 24.0551C49.2676 24.7096 49.7036 24.9989 50.2848 25.144C50.8659 25.2907 51.3745 25.2907 51.6654 25.2907C51.9564 25.2907 52.174 25.3624 52.174 25.5091C52.174 25.7985 51.8839 25.8718 51.3745 25.8718H44.617C44.2535 25.8718 44.0359 25.7985 44.0359 25.5091C44.0359 25.3624 44.2543 25.2907 44.5444 25.2907C44.8346 25.2907 45.0538 25.2907 45.5624 25.2174C46.507 24.9989 46.7247 23.6924 46.9431 22.5285L50.213 0.872093Z" fill="#2A74BA"/>
<path fill-rule="evenodd" clip-rule="evenodd" d="M77.6089 10.3918V3.27078C77.5372 2.18107 77.2462 1.67249 76.1557 1.38152C75.8664 1.30898 75.2852 1.30897 74.8484 1.30897C74.4841 1.30897 74.2656 1.23644 74.2656 1.01801C74.2656 0.799579 74.4841 0.727853 74.9935 0.727853C76.8102 0.727853 78.8445 0.800395 79.79 0.800395H88.1474C88.7285 0.727856 89.3096 0.655313 89.5273 0.582774C89.6723 0.510236 89.89 0.437696 90.035 0.437696C90.2535 0.437696 90.2535 0.582776 90.2535 0.727853C90.2535 0.946284 90.1084 1.38152 89.9641 2.90809C89.9641 3.2716 89.8908 4.72481 89.819 5.08832C89.819 5.2334 89.7457 5.45183 89.5281 5.45183C89.3105 5.45183 89.2371 5.30675 89.2371 5.01578C89.2371 4.79735 89.1654 4.21704 89.0187 3.78018C88.8002 3.19906 88.4376 2.83555 86.7659 2.61793C86.1848 2.54539 82.6972 2.47204 82.0427 2.47204C81.8977 2.47204 81.8243 2.54458 81.8243 2.83555V11.1922C81.8243 11.4106 81.8243 11.5557 82.0427 11.5557C82.7706 11.5557 86.6208 11.5557 87.4204 11.4831C88.2191 11.4106 88.7285 11.338 89.0187 10.9745C89.2371 10.7561 89.383 10.5385 89.5281 10.5385C89.6732 10.5385 89.7465 10.6118 89.7465 10.8295C89.7465 11.0479 89.6014 11.5565 89.5281 13.3007C89.4547 13.9543 89.383 15.2625 89.383 15.4809C89.383 15.7711 89.383 16.1346 89.092 16.1346C88.8011 16.1346 88.7293 15.9895 88.7293 15.8444C88.7293 15.4817 88.7293 15.0457 88.656 14.6088C88.4376 13.9543 88.0015 13.4466 86.7667 13.3015C86.1122 13.3015 82.8431 13.2289 82.0436 13.2289C81.8251 13.2289 81.8251 13.374 81.8251 13.5925V16.2079C81.8251 17.3702 81.7518 20.4225 81.8251 21.3679C81.8985 23.6941 82.4063 24.2018 85.8221 24.2018C86.6942 24.2018 88.0749 24.2018 88.947 23.7658C89.819 23.4031 90.1826 22.6753 90.4002 21.2954C90.4719 20.9327 90.5452 20.8594 90.7629 20.786C91.0538 20.786 91.0538 21.077 91.0538 21.3688C91.0538 22.1675 90.7629 24.4203 90.6178 25.0747C90.3994 25.9468 90.1084 25.9468 88.8728 25.9468C83.7869 25.9468 81.6059 25.8001 79.6449 25.8001C78.8445 25.8001 76.8094 25.8735 75.4295 25.8735C74.9935 25.8735 74.775 25.8001 74.775 25.5108C74.775 25.3641 74.9201 25.2924 75.2844 25.2924C75.7922 25.2924 76.2282 25.219 76.52 25.1457C77.1745 25.0006 77.3188 24.2752 77.4638 23.3289C77.6089 21.8757 77.6089 19.2602 77.6089 16.2079V10.3918ZM114.742 15.6243C114.597 15.6243 114.597 15.5518 114.597 15.4059L117.722 7.26774C117.722 7.12185 117.795 6.90423 117.867 6.90423C118.014 6.90423 118.014 7.12185 118.085 7.26774L121.065 15.4793C121.065 15.5518 121.065 15.6243 120.919 15.6243H114.742ZM121.501 17.2952C121.72 17.2952 121.791 17.3677 121.864 17.5853L124.553 24.6346C124.698 24.9973 124.479 25.2891 124.19 25.3608C123.899 25.4342 123.754 25.5075 123.754 25.6518C123.754 25.8702 124.117 25.8702 124.771 25.9428C127.387 26.0145 129.857 26.0145 131.021 26.0145C132.257 26.0145 132.546 25.9428 132.546 25.6518C132.546 25.4334 132.401 25.4334 132.112 25.4334C131.747 25.4334 131.239 25.36 130.73 25.2883C130.076 25.0699 129.058 24.6338 127.824 21.654C125.716 16.5674 120.338 2.97818 119.54 1.16227C119.25 0.435257 119.032 0.144287 118.741 0.144287C118.378 0.144287 118.16 0.507792 117.797 1.45242L109.44 22.381C108.785 23.9793 108.131 25.1416 106.606 25.3592C106.315 25.3592 105.878 25.4326 105.587 25.4326C105.297 25.4326 105.152 25.5059 105.152 25.651C105.152 25.9419 105.371 26.0137 105.805 26.0137C107.55 26.0137 109.366 25.942 109.73 25.942C110.748 25.942 112.201 26.0137 113.29 26.0137C113.654 26.0137 113.799 25.9419 113.799 25.651C113.799 25.5059 113.726 25.4326 113.363 25.4326H112.854C111.837 25.4326 111.474 24.9965 111.474 24.342C111.474 23.9793 111.692 23.1798 111.983 22.381L113.8 17.5845C113.872 17.3661 113.945 17.2944 114.089 17.2944H121.501V17.2952Z" fill="#2A74BA"/>
</svg>
