<svg width="111" height="31" viewBox="0 0 111 31" fill="none" xmlns="http://www.w3.org/2000/svg">
<path fill-rule="evenodd" clip-rule="evenodd" d="M84.8537 20.9327V17.6025H76.1924L77.8504 20.9327H84.8537Z" fill="black"/>
<path fill-rule="evenodd" clip-rule="evenodd" d="M51.2355 19.8569C51.1175 19.9937 51.0059 20.1318 50.8834 20.266C46.2259 25.3923 44.4331 26.7092 41.7915 27.7978C39.1486 28.8865 36.461 29.2943 35.2524 27.5255C34.0425 25.756 34.3109 21.5369 36.4163 18.2242C38.521 14.9122 42.9256 9.87537 45.9867 8.51502C45.9867 8.51502 43.3892 11.4782 42.6429 13.1427C42.6429 13.1427 44.0149 11.4179 44.6724 10.9647C44.6724 10.9647 44.3138 11.6299 44.1057 12.4463C44.1057 12.4463 44.9116 11.1456 45.7474 10.7228C45.7474 10.7228 44.8513 11.3278 44.4636 12.6577C44.4636 12.6577 46.3141 10.5108 48.6438 8.7867C50.9735 7.06195 53.7052 6.10945 55.4974 7.37967C56.813 8.31272 56.2139 12.0585 53.9627 16.0118L55.4287 20.3166C56.4175 18.5471 57.1748 16.7406 57.7513 15.0477C59.6621 9.42148 58.6467 6.09389 57.0348 5.06552C55.4216 4.0378 51.7795 5.42862 51.7795 5.42862C52.6159 4.21806 56.079 4.09745 56.6172 4.0378C57.1554 3.97685 55.6608 1.55702 54.2285 0.407399C52.7949 -0.740921 48.1951 0.528652 42.8205 4.33866C37.4446 8.15062 31.0553 15.5923 31.5928 22.6087C32.1303 29.6257 36.072 32.6518 44.0149 30.11C47.7438 28.917 50.5696 26.7597 52.7242 24.229L51.2355 19.8569ZM41.5678 6.21643C41.5678 6.21643 39.2556 8.61617 37.0271 10.8441C37.0277 10.8441 38.462 8.18238 41.5678 6.21643Z" fill="#008B98"/>
<path fill-rule="evenodd" clip-rule="evenodd" d="M71.9376 10.9957V29.1426H85.7615V25.8137H76.1775V14.3279H85.7615V10.9957H71.9376ZM105.806 10.9951L103.32 21.7482L100.834 10.9951H95.5576L93.0703 21.7482L90.5856 10.9951H86.3457L90.5396 29.1426H95.6016L98.1953 17.922L100.79 29.1426H105.852L110.047 10.9951H105.806ZM60.7526 10.9951L56.5555 23.3134L52.3597 10.9951H48.1192L54.3023 29.1426H58.81L64.9912 10.9951H60.7526ZM65.6066 10.9951H69.8452V29.1426H65.6066V10.9951ZM14.8257 17.271C14.8257 12.3263 11.2044 10.9873 8.91941 10.9873C8.84939 10.9873 8.71906 10.9918 8.71906 10.9918L0 10.9957V29.1432H4.2399V14.322H8.28722C8.28722 14.322 10.4821 14.322 10.4821 16.6355C10.4821 18.4433 9.20147 18.8647 8.63866 18.9639H4.25546L6.13647 22.2935H9.35709L9.36162 22.3071L9.71954 22.2825C10.9353 22.1612 14.8257 21.4434 14.8257 17.271ZM31.7723 29.1426L27.5623 22.0451C29.1729 21.6049 31.3989 20.4274 31.3989 17.271C31.3989 12.3263 27.7769 10.9873 25.4926 10.9873C25.4238 10.9873 25.2929 10.9918 25.2929 10.9918L16.5731 10.9957V29.1432H20.8137V14.322H24.8597C24.8597 14.322 27.0546 14.322 27.0546 16.6355C27.0546 18.4433 25.7753 18.8647 25.2125 18.9639H20.8286L21.429 19.9949H21.4193L21.9808 20.9396L22.7693 22.2935H22.7829L26.8458 29.1426H31.7723Z" fill="black"/>
</svg>
