<svg width="130" height="32" viewBox="0 0 130 32" fill="none" xmlns="http://www.w3.org/2000/svg">
<path fill-rule="evenodd" clip-rule="evenodd" d="M0 0H28.5175V24.6546H0V0Z" fill="white"/>
<path fill-rule="evenodd" clip-rule="evenodd" d="M37.7306 13.3486H42.4671V11.1398H37.7306V13.3486ZM31.5652 20.4978V8.62229H48.6333V15.8425H37.7306V18.067H48.6333V20.4978H31.5652ZM54.8224 20.4978V11.2351H51.3698V8.62229H54.8224V6.38992H61.0358V8.62229H64.5096V11.2351H61.0358V20.4978H54.8224ZM67.3682 20.4978V18.067H76.2946V15.9378H67.3682V8.62229H82.4364V11.2351H73.5809V13.3722H82.4364V20.4978H67.3682ZM86.1024 20.4978V8.62229H101.217V11.2351H92.2426V18.067H101.217V20.4978H86.1024ZM114.978 20.4978V11.2351H110.334V20.4978H104.194V4.44191H110.334L110.36 8.62229H121.023V20.4978H114.978ZM28.5159 24.6577H36.9389V31.9134H28.5159V24.6577ZM112.587 24.6577H121.022V31.9134H112.587V24.6577ZM42.8413 31.9102V25.7763H40.6128V24.6546H46.6948V25.7763H44.4663V31.9102H42.8413ZM47.87 31.9102V26.215H52.1071V27.0642H49.0555V28.612H51.5053V29.4352H49.0555V31.0335H52.1465V31.9102H47.87ZM59.1311 30.041C59.0217 30.6577 58.8736 30.9657 58.4884 31.3336C58.015 31.7873 57.4305 32 56.6404 32C55.8401 32 55.2375 31.7692 54.8058 31.2926C54.2844 30.7263 54.0087 29.9559 54.0087 29.0555C54.0087 27.2737 55.0516 26.126 56.6806 26.126C58.0236 26.126 58.8838 26.8295 59.1311 28.1386L58.0339 28.2434C57.9055 27.7708 57.8165 27.5738 57.6298 27.3509C57.4202 27.1036 57.0658 26.9476 56.6908 26.9476C55.792 26.9476 55.2879 27.7015 55.2879 29.0311C55.2879 30.3663 55.8228 31.139 56.731 31.139C57.4132 31.139 57.9362 30.6499 58.0347 29.9299L59.1311 30.041ZM64.9712 31.9102V29.4368H62.4506V31.9102H61.2643V26.215H62.4506V28.5593H64.9712V26.215H66.1575V31.9102H64.9712ZM72.861 31.9102L70.2899 28.2718C70.2513 28.2119 70.2024 28.1426 70.1717 28.0654L70.1119 27.9638C70.0551 27.8606 69.9953 27.7503 69.9346 27.6558V31.9094H68.9775V26.2143H70.2899L72.5947 29.5715C72.653 29.6731 72.7129 29.7763 72.7916 29.8866C72.861 30.0236 72.9319 30.1434 73.0083 30.2544V26.2143H73.9496V31.9094H72.861V31.9102ZM78.8562 26.9468C79.859 26.9468 80.3655 27.6857 80.3655 29.1272C80.3655 29.7015 80.2655 30.1733 80.0685 30.5167C79.8393 30.9106 79.3533 31.1768 78.8271 31.1768C77.8535 31.1768 77.3178 30.4395 77.3178 29.0752C77.3178 28.4663 77.436 27.9165 77.6636 27.54C77.8842 27.1627 78.3214 26.9468 78.8562 26.9468ZM78.8673 26.1252C77.1997 26.1252 76.0394 27.3249 76.0394 29.0406C76.0394 29.8637 76.2946 30.6002 76.7672 31.1587C77.2304 31.7015 77.9535 31.9984 78.8168 31.9984C80.5049 31.9984 81.6447 30.8326 81.6447 29.1091C81.6439 27.2903 80.5608 26.1252 78.8673 26.1252ZM83.7274 31.9102V26.215H84.9815V30.9823H87.7763V31.9102H83.7274ZM91.7093 26.9468C92.7105 26.9468 93.2186 27.6857 93.2186 29.1272C93.2186 29.7015 93.1185 30.1733 92.92 30.5167C92.6924 30.9106 92.2048 31.1768 91.6786 31.1768C90.7066 31.1768 90.1709 30.4395 90.1709 29.0752C90.1709 28.4663 90.2891 27.9165 90.5167 27.54C90.7349 27.1627 91.1721 26.9468 91.7093 26.9468ZM91.718 26.1252C90.052 26.1252 88.8901 27.3249 88.8901 29.0406C88.8901 29.8637 89.1469 30.6002 89.6195 31.1587C90.0811 31.7015 90.8058 31.9984 91.6691 31.9984C93.3556 31.9984 94.4986 30.8326 94.4986 29.1091C94.4986 27.2903 93.4155 26.1252 91.718 26.1252ZM101.574 31.9134H101.051L100.683 31.1422C100.26 31.733 99.7148 31.9992 98.9074 31.9992C98.0276 31.9992 97.3549 31.707 96.9011 31.1256C96.4687 30.5672 96.23 29.8212 96.23 29.05C96.23 28.2607 96.4868 27.5297 96.9515 26.9902C97.4439 26.4135 98.1544 26.1252 99.0437 26.1252C99.844 26.1252 100.447 26.3529 100.93 26.8452C101.238 27.1453 101.366 27.3942 101.493 27.8653L100.458 28.0205C100.368 27.7109 100.299 27.5652 100.163 27.4116C99.9031 27.1359 99.5108 26.9728 99.0752 26.9728C98.0567 26.9728 97.484 27.7022 97.484 28.9988C97.484 30.4206 98.0165 31.1493 99.0437 31.1493C99.8944 31.1493 100.458 30.6168 100.458 29.8196H99.0933V28.998H101.573V31.9134H101.574ZM105.085 31.9102V28.8531L102.226 24.6562H104.053L106.042 27.6471L107.942 24.6562H109.404L106.683 28.8531V31.9102H105.085ZM126.233 11.6605C128.041 11.6605 129.507 10.1071 129.507 8.17645C129.507 6.27412 128.041 4.71209 126.233 4.71209C124.425 4.71209 122.95 6.27412 122.95 8.17645C122.95 10.1063 124.425 11.6605 126.233 11.6605ZM126.233 11.1839C124.641 11.1839 123.426 9.87318 123.426 8.17645C123.426 6.55218 124.641 5.18787 126.233 5.18787C127.815 5.18787 129.032 6.5514 129.032 8.17645C129.031 9.87318 127.815 11.1839 126.233 11.1839ZM126.693 8.36549C127.376 8.34738 127.907 8.03308 127.907 7.27058C127.907 6.94761 127.762 6.59708 127.475 6.4356C127.189 6.256 126.864 6.23789 126.539 6.23789H124.865V10.1252H125.377V8.36549H126.15L127.249 10.1252H127.851L126.693 8.36549ZM125.378 7.9614V6.64198H126.432C126.864 6.64198 127.376 6.71366 127.376 7.26033C127.376 7.87081 126.998 7.9614 126.054 7.9614H125.378ZM10.8547 11.2115L11.6881 7.37456H18.7806L17.8527 11.2115H10.8547ZM0 0H28.5175V24.6546H0V0ZM16.4726 20.4931H24.9216L18.9232 14.6191H24.946L27.3501 4.44112H4.30878L0.785348 20.4923H8.7113L10.0929 14.4647L16.4726 20.4931Z" fill="#377BBF"/>
</svg>
