<svg width="76" height="39" viewBox="0 0 76 39" fill="none" xmlns="http://www.w3.org/2000/svg">
<path fill-rule="evenodd" clip-rule="evenodd" d="M40.1057 0H0V32.8222C3.20088 28.9757 12.9527 20.449 30.0551 23.5461C30.0551 23.5461 31.3437 23.8899 33.3412 24.4084L40.1057 0Z" fill="black"/>
<path fill-rule="evenodd" clip-rule="evenodd" d="M33.3413 24.4084C38.4064 25.7234 48.0264 28.1666 52.7399 29.0021C52.7399 29.0021 66.1 31.1972 75.9993 28.1636V0H40.1055L33.3413 24.4084Z" fill="#929496"/>
<path fill-rule="evenodd" clip-rule="evenodd" d="M52.7402 32.7354C44.3168 31.2837 30.0556 26.418 30.0556 26.418C13.9906 22.0651 3.35489 31.0753 0.000488281 34.9391V38.1914C12.0611 23.6422 30.1516 30.8206 30.1516 30.8206C44.3173 36.4686 52.7407 37.8079 52.7407 37.8079C65.376 39.8178 76.0001 38.2866 76.0001 38.2866V32.6692C67.2861 35.3715 52.7402 32.7354 52.7402 32.7354Z" fill="black"/>
<path fill-rule="evenodd" clip-rule="evenodd" d="M48.296 7.65745L47.9523 8.75152C47.0825 8.10133 46.0254 7.75081 44.9395 7.75259C44.2679 7.7519 43.6029 7.88583 42.9839 8.14645C42.3649 8.40708 41.8044 8.78912 41.3356 9.27L42.594 4.5703H38.8616L34.0274 21.8712H44.7955L45.6569 18.3299H38.9087L40.0547 14.0497C40.613 16.2266 42.5883 17.8361 44.9391 17.8361C45.5725 17.8364 46.2003 17.7169 46.7894 17.4841V17.7721H48.927L51.9 7.65788H48.296V7.65745ZM68.8527 4.53052L67.5269 8.75152C66.6571 8.10147 65.5999 7.75097 64.5141 7.75259C63.6798 7.75216 62.8584 7.95904 62.1238 8.35463C61.3892 8.75023 60.7645 9.32214 60.3056 10.019C60.1141 9.22417 59.1977 6.6395 55.564 8.2313L55.7075 7.68124H52.3315L49.3585 17.7712H53.0654L54.7808 11.4516C54.8105 11.3425 54.8613 11.2403 54.9304 11.1508C54.9995 11.0613 55.0856 10.9864 55.1837 10.9301C55.2818 10.8739 55.39 10.8376 55.5021 10.8232C55.6143 10.8088 55.7282 10.8166 55.8373 10.8462C55.9464 10.8758 56.0486 10.9267 56.1381 10.9958C56.2276 11.0649 56.3026 11.151 56.3588 11.2491C56.415 11.3472 56.4513 11.4554 56.4657 11.5675C56.4801 11.6797 56.4723 11.7935 56.4427 11.9027L54.8496 17.7712H58.4349L59.5221 13.4979C59.8641 15.9485 61.9679 17.8357 64.5137 17.8357C65.1666 17.8357 65.7906 17.7098 66.364 17.4837V17.7717H68.5016L72.3935 4.53052H68.8527ZM33.4596 7.65745L33.1158 8.75152C32.2463 8.10133 31.1893 7.75081 30.1035 7.75259C28.4317 7.75259 26.9511 8.56643 26.0339 9.81919C25.5529 9.12195 24.9097 8.55201 24.1597 8.15842C23.4096 7.76482 22.5752 7.55936 21.7281 7.55972C18.8373 7.55972 16.4939 9.90309 16.4939 12.7939C16.4939 12.8904 16.4974 12.9859 16.5026 13.0811C16.125 12.6875 15.6394 12.3377 15.012 12.0761C15.012 12.0761 13.1616 11.5654 11.7579 11.3582C11.7579 11.3582 9.8595 11.0071 10.0826 9.44384C10.0826 9.44384 10.0826 8.13573 12.2842 8.11973H17.9478L19.0483 4.54608H10.768C10.768 4.54608 6.74813 4.83322 6.36499 9.23627C6.36499 9.23627 5.99786 13.1131 9.09279 14.3092C9.09279 14.3092 10.4329 14.7559 11.773 15.027C11.773 15.027 13.6394 15.3457 13.4483 16.9414C13.4483 16.9414 13.4483 18.2495 11.2468 18.2655H4.88131L3.78076 21.8387H13.3367C13.3367 21.8387 17.3566 21.5516 17.7398 17.149C17.7398 17.149 17.7934 16.7676 17.7601 16.205C18.6063 17.192 19.7902 17.8279 21.0803 17.9883H25.198L25.7446 15.3254C26.6181 16.8259 28.2423 17.8357 30.1039 17.8357C30.7374 17.8359 31.3652 17.7165 31.9543 17.4837V17.7717H34.0919L37.0648 7.65745H33.4596Z" fill="white"/>
<path fill-rule="evenodd" clip-rule="evenodd" d="M21.1775 14.956C21.1775 14.956 20.5072 14.9287 20.4834 14.354H25.3085C25.3755 14.5607 25.4555 14.7618 25.5476 14.956H21.1775Z" fill="black"/>
<path fill-rule="evenodd" clip-rule="evenodd" d="M46.6275 21.3131H46.2828V20.1655H45.7847V19.9185H47.1257V20.1655H46.6275V21.3131ZM48.7265 20.1655H47.8513V20.4582H48.6556V20.7051H47.8513V21.0667H48.765V21.3131H47.5144V19.9185H48.7265V20.1655ZM50.282 20.3748C50.2543 20.2913 50.2007 20.1339 49.9162 20.1339C49.7514 20.1339 49.5075 20.2269 49.5075 20.6212C49.5075 20.8721 49.6247 21.0978 49.9162 21.0978C50.1069 21.0978 50.2405 21.0065 50.282 20.8353H50.6258C50.5575 21.1384 50.3226 21.3503 49.9097 21.3503C49.4712 21.3503 49.1572 21.0995 49.1572 20.6182C49.1572 20.13 49.4902 19.8818 49.9149 19.8818C50.4083 19.8818 50.6085 20.1689 50.6262 20.3752H50.282V20.3748ZM51.4055 20.6874V21.3131H51.0608V19.9185H51.4055V20.4465H52.0481V19.9185H52.3927V21.3131H52.0481V20.6874H51.4055ZM53.9205 19.9185H54.2418V21.3131H53.8972L53.2247 20.3181H53.2195V21.3131H52.8987V19.9185H53.261L53.9157 20.8898H53.9205V19.9185ZM55.4755 19.8813C55.6935 19.8813 56.2678 19.9609 56.2678 20.6152C56.2678 21.2708 55.6935 21.3499 55.4755 21.3499C55.2576 21.3499 54.6833 21.2703 54.6833 20.6152C54.6833 19.9609 55.2576 19.8813 55.4755 19.8813Z" fill="white"/>
<path fill-rule="evenodd" clip-rule="evenodd" d="M55.4759 21.104C55.6618 21.104 55.9235 21.0067 55.9235 20.6158C55.9235 20.2257 55.6618 20.1284 55.4759 20.1284C55.2899 20.1284 55.0283 20.2257 55.0283 20.6158C55.0283 21.0067 55.2899 21.104 55.4759 21.104Z" fill="#929496"/>
<path fill-rule="evenodd" clip-rule="evenodd" d="M57.0718 21.0606H57.8912V21.3131H56.7275V19.9185H57.0718V21.0606ZM59.0333 19.8813C59.2512 19.8813 59.8255 19.9609 59.8255 20.6152C59.8255 21.2708 59.2512 21.3499 59.0333 21.3499C58.8153 21.3499 58.2411 21.2703 58.2411 20.6152C58.2411 19.9609 58.8153 19.8813 59.0333 19.8813Z" fill="white"/>
<path fill-rule="evenodd" clip-rule="evenodd" d="M59.0335 21.104C59.2195 21.104 59.4811 21.0067 59.4811 20.6158C59.4811 20.2257 59.2195 20.1284 59.0335 20.1284C58.8476 20.1284 58.5859 20.2257 58.5859 20.6158C58.5855 21.0067 58.8476 21.104 59.0335 21.104Z" fill="#929496"/>
<path fill-rule="evenodd" clip-rule="evenodd" d="M61.0586 20.5616H61.7479V21.3132H61.5183L61.4837 21.1385C61.3968 21.2237 61.2709 21.3504 60.9695 21.3504C60.5726 21.3504 60.2119 21.1095 60.2119 20.62C60.2119 20.239 60.4627 19.8801 61.0184 19.8818C61.5235 19.8818 61.7228 20.1599 61.7414 20.3515H61.3968C61.3968 20.2974 61.28 20.1227 61.0361 20.1227C60.7905 20.1227 60.563 20.2663 60.563 20.6235C60.563 21.0044 60.8087 21.1039 61.0435 21.1039C61.1187 21.1039 61.3713 21.0784 61.4422 20.7964H61.0586V20.5616ZM63.0301 21.3132H62.6854V20.7869L62.1159 19.9186H62.5224L62.8645 20.5244L63.1905 19.9186H63.5806L63.0301 20.7904V21.3132ZM64.0597 21.2743C64.0597 21.5134 63.9127 21.6012 63.7177 21.6401H63.7151V21.5372C63.8029 21.5117 63.8967 21.4762 63.9084 21.3132H63.7151V21.0295H64.0597V21.2743ZM65.421 21.3132H65.0764V19.9186H65.421V21.3132ZM66.9311 19.9186H67.2528V21.3132H66.9086L66.2362 20.3182H66.231V21.3132H65.9101V19.9186H66.2725L66.9268 20.8898H66.9311V19.9186ZM68.8195 20.3748C68.7919 20.2914 68.7391 20.134 68.4546 20.134C68.2889 20.134 68.0459 20.2269 68.0459 20.6213C68.0459 20.8721 68.1627 21.0978 68.4546 21.0978C68.6444 21.0978 68.778 21.0066 68.8195 20.8354H69.1642C69.095 21.1385 68.861 21.3504 68.4481 21.3504C68.0087 21.3504 67.6948 21.0996 67.6948 20.6183C67.6948 20.1301 68.0277 19.8818 68.4524 19.8818C68.9458 19.8818 69.146 20.169 69.1642 20.3752H68.8195V20.3748ZM69.927 21.3132H69.5823V21.0295H69.927V21.3132Z" fill="white"/>
<path fill-rule="evenodd" clip-rule="evenodd" d="M44.9395 11.0366C44.7087 11.0366 44.4802 11.082 44.2669 11.1703C44.0537 11.2586 43.8599 11.388 43.6967 11.5512C43.5335 11.7144 43.4041 11.9082 43.3158 12.1214C43.2275 12.3347 43.1821 12.5632 43.1821 12.794C43.1821 13.2601 43.3673 13.7071 43.6969 14.0367C44.0264 14.3663 44.4734 14.5515 44.9395 14.5515C45.4056 14.5515 45.8526 14.3663 46.1822 14.0367C46.5118 13.7071 46.697 13.2601 46.697 12.794C46.6968 12.328 46.5117 11.881 46.1821 11.5515C45.8525 11.2219 45.4056 11.0367 44.9395 11.0366ZM64.5137 11.0366C64.2829 11.0366 64.0543 11.082 63.841 11.1703C63.6277 11.2586 63.4339 11.388 63.2706 11.5512C63.1073 11.7144 62.9778 11.9081 62.8894 12.1214C62.801 12.3346 62.7555 12.5632 62.7554 12.794C62.7554 13.0249 62.8008 13.2535 62.8891 13.4668C62.9774 13.6801 63.1068 13.8739 63.27 14.0371C63.4332 14.2004 63.6269 14.33 63.8402 14.4183C64.0534 14.5067 64.282 14.5523 64.5128 14.5523C64.9791 14.5524 65.4262 14.3673 65.756 14.0378C66.0857 13.7082 66.271 13.2611 66.2711 12.7949C66.2712 12.3287 66.0861 11.8815 65.7566 11.5518C65.427 11.222 64.9799 11.0367 64.5137 11.0366Z" fill="#929496"/>
<path fill-rule="evenodd" clip-rule="evenodd" d="M30.1029 11.0367C29.8721 11.0367 29.6435 11.0822 29.4302 11.1705C29.2169 11.2589 29.0232 11.3883 28.8599 11.5516C28.6967 11.7148 28.5672 11.9086 28.4789 12.1219C28.3905 12.3351 28.3451 12.5637 28.3451 12.7946C28.3451 13.0254 28.3905 13.254 28.4789 13.4673C28.5672 13.6805 28.6967 13.8743 28.8599 14.0375C29.0232 14.2008 29.2169 14.3303 29.4302 14.4186C29.6435 14.5069 29.8721 14.5524 30.1029 14.5524C30.5691 14.5524 31.0162 14.3672 31.3459 14.0375C31.6756 13.7079 31.8608 13.2608 31.8608 12.7946C31.8608 12.3283 31.6756 11.8812 31.3459 11.5516C31.0162 11.2219 30.5691 11.0367 30.1029 11.0367ZM23.4469 11.6793C23.301 11.3848 23.0756 11.137 22.7961 10.9641C22.5166 10.7912 22.1942 10.7001 21.8656 10.7012C21.537 10.7022 21.2152 10.7953 20.9368 10.97C20.6584 11.1446 20.4345 11.3938 20.2905 11.6893L23.4469 11.6793Z" fill="black"/>
</svg>
