<svg width="98" height="24" viewBox="0 0 98 24" fill="none" xmlns="http://www.w3.org/2000/svg">
<path d="M25.7379 7.8291L35.5581 7.8291V9.68946H31.6915L31.6915 20.1766H29.5721L29.5721 9.68946H25.7217L25.7379 7.8291ZM35.1375 11.237L36.9495 11.237V12.9657H36.9818C37.0465 12.7187 37.1598 12.4882 37.3216 12.2577C37.4834 12.0273 37.6775 11.8132 37.9202 11.6321C38.1467 11.4346 38.4055 11.2864 38.6967 11.1712C38.9718 11.0559 39.263 10.9901 39.5542 10.9901C39.7807 10.9901 39.9425 11.0065 40.0234 11.0065C40.1043 11.023 40.2013 11.0395 40.2822 11.0395V12.9327C40.1528 12.8998 40.0072 12.8833 39.8616 12.8669C39.716 12.8504 39.5865 12.834 39.4409 12.834C39.1174 12.834 38.81 12.8998 38.5188 13.0315C38.2276 13.1632 37.9849 13.3608 37.7584 13.6077C37.5481 13.8711 37.3701 14.1839 37.2407 14.5626C37.1113 14.9413 37.0465 15.3858 37.0465 15.8797V20.1272L35.1051 20.1272L35.1375 11.237ZM49.1803 20.1766H47.2713V18.9254H47.2389C46.9963 19.3864 46.6403 19.7321 46.1712 20.012C45.702 20.2918 45.2166 20.4236 44.7313 20.4236C43.5826 20.4236 42.7413 20.1437 42.2236 19.551C41.7059 18.9748 41.4471 18.0858 41.4471 16.9169V11.237H43.3885V16.7193C43.3885 17.5095 43.5341 18.0693 43.8415 18.3821C44.1327 18.7114 44.5533 18.876 45.0872 18.876C45.4917 18.876 45.8314 18.8101 46.1064 18.6784C46.3815 18.5467 46.608 18.3821 46.7698 18.1681C46.9477 17.954 47.061 17.6906 47.1419 17.3943C47.2227 17.098 47.2551 16.7687 47.2551 16.423V11.237H49.1965V20.1766H49.1803ZM52.4807 17.312C52.5454 17.8882 52.7558 18.2833 53.1279 18.5303C53.5 18.7608 53.9529 18.876 54.4707 18.876C54.6486 18.876 54.8589 18.8595 55.0854 18.8266C55.3119 18.7937 55.5384 18.7443 55.7326 18.662C55.9429 18.5797 56.1047 18.4644 56.2341 18.2998C56.3635 18.1351 56.4282 17.9376 56.4121 17.6906C56.3959 17.4437 56.315 17.2297 56.137 17.065C55.9591 16.9004 55.7488 16.7852 55.4899 16.6699C55.231 16.5711 54.9237 16.4888 54.5839 16.423C54.2442 16.3571 53.9044 16.2748 53.5485 16.1925C53.1926 16.1102 52.8366 16.0114 52.4969 15.8961C52.1572 15.7809 51.8659 15.6327 51.5909 15.4187C51.3321 15.2211 51.1056 14.9742 50.96 14.6614C50.7982 14.3486 50.7173 13.9864 50.7173 13.5254C50.7173 13.0315 50.8305 12.6364 51.0732 12.3071C51.2997 11.9779 51.6071 11.7144 51.963 11.5169C52.3189 11.3193 52.7234 11.1712 53.1602 11.0888C53.597 11.0065 54.0177 10.9736 54.4059 10.9736C54.8589 10.9736 55.2958 11.023 55.7002 11.1218C56.1047 11.2205 56.493 11.3687 56.8165 11.5992C57.1563 11.8132 57.4313 12.1096 57.6416 12.4553C57.8681 12.801 57.9975 13.2291 58.0623 13.723H56.04C55.9429 13.2455 55.7326 12.9327 55.409 12.7681C55.0693 12.6035 54.6972 12.5212 54.2603 12.5212C54.1309 12.5212 53.953 12.5376 53.775 12.5541C53.5808 12.587 53.4191 12.6199 53.2411 12.6858C53.0793 12.7516 52.9337 12.8504 52.8205 12.9657C52.7072 13.0809 52.6425 13.2455 52.6425 13.4431C52.6425 13.69 52.7234 13.8711 52.8852 14.0193C53.047 14.1675 53.2573 14.2827 53.5323 14.398C53.7912 14.4968 54.0986 14.5791 54.4383 14.6449C54.778 14.7108 55.134 14.7931 55.4899 14.8754C55.8458 14.9577 56.1856 15.0565 56.5253 15.1717C56.8651 15.287 57.1725 15.4352 57.4313 15.6492C57.6902 15.8467 57.9167 16.0937 58.0784 16.39C58.2402 16.6864 58.3211 17.065 58.3211 17.4931C58.3211 18.0199 58.2079 18.4644 57.9652 18.8431C57.7225 19.2053 57.4151 19.5181 57.043 19.7486C56.6709 19.979 56.2341 20.1437 55.7811 20.2589C55.3119 20.3577 54.8589 20.4236 54.4059 20.4236C53.8559 20.4236 53.3382 20.3577 52.869 20.226C52.3998 20.0943 51.9792 19.8967 51.6394 19.6498C51.2997 19.3864 51.0247 19.0736 50.8305 18.6784C50.6364 18.2998 50.5231 17.8388 50.507 17.2955H52.4645V17.312H52.4807ZM58.8712 11.237H60.3434V8.53702H62.2848V11.2205L64.0321 11.2205V12.6858L62.2848 12.6858V17.4602C62.2848 17.6742 62.301 17.8388 62.3172 18.0034C62.3334 18.1516 62.3819 18.2833 62.4304 18.3821C62.4951 18.4809 62.5922 18.5632 62.7055 18.6126C62.8349 18.662 62.9967 18.6949 63.2232 18.6949C63.3526 18.6949 63.4982 18.6949 63.6276 18.6784C63.757 18.662 63.9027 18.6455 64.0321 18.6126V20.1437C63.8218 20.1766 63.6114 20.1931 63.4011 20.2095C63.1908 20.2425 62.9967 20.2425 62.7702 20.2425C62.2525 20.2425 61.848 20.1931 61.5406 20.0943C61.2332 19.9955 60.9905 19.8473 60.8126 19.6662C60.6346 19.4687 60.5214 19.2382 60.4567 18.9583C60.3919 18.6784 60.3596 18.3327 60.3434 17.9705V12.7022L58.8712 12.7022V11.2041V11.237ZM65.3911 11.237H67.2192V12.4553H67.2516C67.5266 11.9285 67.8987 11.5663 68.3841 11.3358C68.8694 11.1053 69.3871 10.9901 69.9695 10.9901C70.6652 10.9901 71.2638 11.1053 71.7815 11.3687C72.2992 11.6157 72.7199 11.9449 73.0596 12.3894C73.3994 12.8175 73.6582 13.3279 73.82 13.9041C73.9818 14.4803 74.0789 15.1059 74.0789 15.748C74.0789 16.3571 73.998 16.9333 73.8524 17.4931C73.6906 18.0528 73.4641 18.5632 73.1567 18.9912C72.8493 19.4193 72.461 19.765 71.9757 20.0284C71.4903 20.2918 70.9403 20.4236 70.2931 20.4236C70.0181 20.4236 69.7269 20.3906 69.4518 20.3412C69.1768 20.2918 68.9018 20.2095 68.6429 20.0943C68.3841 19.979 68.1414 19.8309 67.9311 19.6498C67.7046 19.4687 67.5266 19.2547 67.381 19.0242H67.3486V23.4857H65.4072V11.237H65.3911ZM72.1698 15.715C72.1698 15.3199 72.1213 14.9248 72.008 14.5461C71.911 14.1675 71.7492 13.8382 71.5388 13.5419C71.3285 13.2455 71.0697 13.0151 70.7785 12.834C70.4711 12.6529 70.1152 12.5705 69.7269 12.5705C68.918 12.5705 68.3032 12.8504 67.8825 13.4266C67.4781 14.0029 67.2678 14.7766 67.2678 15.7315C67.2678 16.1925 67.3163 16.6041 67.4295 16.9827C67.5428 17.3614 67.6884 17.6906 67.9149 17.9705C68.1252 18.2504 68.3841 18.4644 68.6915 18.629C68.9988 18.7937 69.3386 18.876 69.7431 18.876C70.196 18.876 70.552 18.7772 70.8594 18.5961C71.1667 18.415 71.4094 18.1681 71.6197 17.8882C71.8139 17.5919 71.9595 17.2626 72.0404 16.8839C72.1213 16.4888 72.1698 16.1102 72.1698 15.715ZM75.5834 7.8291L77.5248 7.8291V9.68946H75.5834V7.8291ZM75.5834 11.237H77.5248V20.1766H75.5834V11.237ZM79.2559 7.8291L81.1973 7.8291V20.1766H79.2559V7.8291ZM87.1186 20.4236C86.423 20.4236 85.792 20.3083 85.2419 20.0614C84.6919 19.8144 84.2389 19.5016 83.8506 19.09C83.4785 18.6784 83.1873 18.1681 82.9931 17.5919C82.799 17.0156 82.6858 16.3736 82.6858 15.6986C82.6858 15.0236 82.7828 14.398 82.9931 13.8218C83.1873 13.2455 83.4785 12.7516 83.8506 12.3236C84.2227 11.912 84.6919 11.5827 85.2419 11.3523C85.792 11.1218 86.423 10.9901 87.1186 10.9901C87.8143 10.9901 88.4453 11.1053 88.9953 11.3523C89.5454 11.5827 89.9984 11.912 90.3867 12.3236C90.7588 12.7352 91.05 13.2455 91.2441 13.8218C91.4383 14.398 91.5515 15.0236 91.5515 15.6986C91.5515 16.39 91.4544 17.0156 91.2441 17.5919C91.0338 18.1681 90.7588 18.662 90.3867 19.09C90.0146 19.5016 89.5454 19.8309 88.9953 20.0614C88.4453 20.2918 87.8305 20.4236 87.1186 20.4236ZM87.1186 18.8595C87.5393 18.8595 87.9276 18.7608 88.2349 18.5797C88.5585 18.3986 88.8012 18.1516 89.0115 17.8553C89.2218 17.5589 89.3674 17.2132 89.4645 16.851C89.5616 16.4723 89.6101 16.0937 89.6101 15.6986C89.6101 15.3199 89.5616 14.9413 89.4645 14.5626C89.3674 14.1839 89.2218 13.8547 89.0115 13.5583C88.8012 13.262 88.5423 13.0315 88.2349 12.8504C87.9114 12.6693 87.5393 12.5705 87.1186 12.5705C86.698 12.5705 86.3097 12.6693 86.0023 12.8504C85.6788 13.0315 85.4361 13.2785 85.2258 13.5583C85.0154 13.8547 84.8698 14.1839 84.7728 14.5626C84.6757 14.9413 84.6272 15.3199 84.6272 15.6986C84.6272 16.0937 84.6757 16.4723 84.7728 16.851C84.8698 17.2297 85.0154 17.5589 85.2258 17.8553C85.4361 18.1516 85.6949 18.3986 86.0023 18.5797C86.3259 18.7772 86.698 18.8595 87.1186 18.8595ZM92.1339 11.237L93.6062 11.237V8.53702H95.5476V11.2205H97.2948V12.6858H95.5476V17.4602C95.5476 17.6742 95.5638 17.8388 95.5799 18.0034C95.5961 18.1516 95.6446 18.2833 95.6932 18.3821C95.7579 18.4809 95.855 18.5632 95.9682 18.6126C96.0976 18.662 96.2594 18.6949 96.4859 18.6949C96.6153 18.6949 96.7609 18.6949 96.8904 18.6784C97.0198 18.662 97.1654 18.6455 97.2948 18.6126V20.1437C97.0845 20.1766 96.8742 20.1931 96.6639 20.2095C96.4536 20.2425 96.2594 20.2425 96.0329 20.2425C95.5152 20.2425 95.1107 20.1931 94.8034 20.0943C94.496 19.9955 94.2533 19.8473 94.0753 19.6662C93.8974 19.4687 93.7841 19.2382 93.7194 18.9583C93.6547 18.6784 93.6223 18.3327 93.6062 17.9705V12.7022H92.1339V11.2041V11.237Z" fill="white"/>
<path d="M23.4849 8.54712L14.5126 8.54712L11.7506 0L8.97233 8.54712L0 8.53075L7.25631 13.8195L4.47799 22.3666L11.7343 17.0779L18.9906 22.3666L16.2286 13.8195L23.4849 8.54712Z" fill="#00B67A"/>
<path d="M16.7752 15.8653L16.0942 14.5391L11.1836 16.7757L16.7752 15.8653Z" fill="#005128"/>
</svg>
