<svg width="131" height="35" viewBox="0 0 131 35" fill="none" xmlns="http://www.w3.org/2000/svg">
<path fill-rule="evenodd" clip-rule="evenodd" d="M0.00140032 0V4.81814H6.53645V0H0.00140032ZM0.00140032 5.84255V6.56516H6.53645V5.84255H0.00140032ZM0.00140032 7.61897V12.2873H6.53645V7.61897H0.00140032ZM0.00140032 13.3411C0.00140032 13.582 0.0014003 13.8228 0.0315093 14.0336H6.7171C6.64956 13.8069 6.59923 13.5754 6.56656 13.3411H0.00140032ZM0.182054 15.0874C1.02581 18.8818 4.27828 20.9299 9.66849 20.9299C15.0888 20.9299 18.3112 18.8818 19.1241 15.0874H12.017C11.5352 15.5691 10.7825 15.7799 9.66849 15.7799C8.58456 15.7799 7.83114 15.5691 7.31998 15.0874H0.182054ZM19.2754 14.0336C19.3055 13.8228 19.3055 13.5813 19.3055 13.3411H12.7403C12.7102 13.582 12.65 13.8228 12.6199 14.0336H19.2754ZM19.3055 12.2873V7.61897H12.7704V12.2873H19.3055ZM19.3055 6.56516V5.84255H12.7704V6.56516H19.3055ZM19.3055 4.81884V0.000699824H12.7704V4.81884H19.3055ZM24.2741 20.3579H30.478V15.0881H24.2741V20.3579ZM30.478 14.0336V13.3411H24.2741V14.0336H30.478ZM30.478 12.2873V10.8119C30.478 9.99899 30.478 9.06491 30.3275 8.0412C30.7791 9.45632 31.2006 10.4499 31.5017 10.9618L32.3146 12.2873H37.3744C36.9521 10.9023 36.5614 9.96817 36.2302 9.45702L35.1162 7.61967H24.2741V12.288H30.478V12.2873ZM32.977 13.3411L33.3986 14.0336H43.4872V13.3411H32.977ZM34.0316 15.0874L37.2238 20.3572H43.4872V15.0874H34.0316ZM43.4872 12.2873V7.61897H37.2238V9.60687C37.2238 10.5402 37.2532 11.4442 37.4045 12.2873H43.4872ZM43.4872 6.56516V5.84255H37.2238V6.56516H43.4872ZM43.4872 4.81884V0.000699824H37.2238V4.81884H43.4872ZM34.4531 6.56516L34.0316 5.84255H24.2741V6.56516H34.4531ZM33.3986 4.81884L30.478 0.000699824H24.2741V4.81884H33.3986ZM47.944 20.3579H54.3887V15.0881H47.944V20.3579ZM54.3887 14.0336V13.3411H47.944V14.0336H54.3887ZM57.3702 13.3411C58.3337 13.3712 59.0269 13.582 59.508 14.0336H66.0129C65.9828 13.7927 65.9233 13.5518 65.8932 13.3411H57.3702ZM60.0499 15.0874C60.1402 15.4186 60.1704 15.7799 60.1704 16.2021C60.1704 17.7076 60.2005 18.8818 60.5625 20.3579H67.157C66.5857 19.3041 66.7355 19.575 66.5556 18.2797L66.223 15.4193C66.1929 15.329 66.1929 15.2085 66.1627 15.0881H60.0499V15.0874ZM65.501 12.2873C65.1096 11.5646 64.4773 11.1431 63.3626 10.9023C65.0193 10.1789 66.1627 9.12512 66.6452 7.61967H60.0198C59.7488 8.49353 58.8757 8.73441 57.3695 8.73441H54.3887V7.61967H47.944V12.288H65.501V12.2873ZM66.856 6.56516C66.8861 6.32429 66.8861 6.11283 66.8861 5.84255H59.9295C60.0198 6.05331 60.08 6.29418 60.1101 6.56516H66.856ZM66.8258 4.81884C66.3441 1.23517 63.3626 0.000699824 58.0319 0.000699824H47.944V4.81884H66.8258ZM47.944 5.84255V6.56516H54.3887V5.84255H47.944ZM70.9823 20.3579H88.7186V15.4193H77.5166V15.0881H70.9823V20.3579ZM77.5166 14.0336V13.3411H70.9823V14.0336H77.5166ZM77.5166 12.2873V12.2572H86.8217V10.5402H70.9823V12.2873H77.5166ZM86.8217 9.48643V7.61897H70.9823V9.48643H86.8217ZM77.5166 6.56516V5.84255H70.9823V6.56516H77.5166ZM88.3279 4.81884V0.000699824H70.983V4.81884H88.3279ZM91.2785 20.3579H97.724L98.5061 17.6782H105.01L105.764 20.3579H112.268L108.805 10.5402H102.993L103.805 13.4013H99.7105L100.523 10.5402H94.7404L91.2785 20.3579ZM108.415 9.48643L105.071 0H98.4466L95.1045 9.48643H100.857L101.759 6.32429L102.693 9.48643H108.415ZM115.551 20.3579H131V14.9376H122.086V10.5402H115.551V20.3579ZM122.086 9.48643V0H115.551V9.48643H122.086ZM3.13344 34.3011V26.7123H5.21236V25.8993H0V26.7123H2.10903V34.3011H3.13344ZM11.8104 29.6637V26.7123H16.2392V25.8993H10.786V34.3011H16.2392V33.4882H11.8104V30.5067H16.2392V29.6637H11.8104ZM30.3387 28.0672H31.5738C30.6103 26.5617 28.8626 25.7187 26.7536 25.7187C25.3077 25.7187 24.0718 26.1409 23.0481 26.9531C21.9635 27.7969 21.4208 28.8808 21.4208 30.0551C21.4208 32.5548 23.7105 34.4517 26.8138 34.4517C28.8626 34.4517 30.5193 33.6688 31.4835 32.2229H30.2483C29.3745 33.2165 28.1995 33.6983 26.7536 33.6983C24.4639 33.6983 22.5054 32.1326 22.5054 30.0544C22.5054 28.1876 24.3729 26.5316 26.7536 26.5316C28.3802 26.5316 29.4648 27.1338 30.3387 28.0672ZM38.4422 34.3011V30.4766H43.4431V34.3011H44.4675V25.8993H43.4431V29.6637H38.4422V25.8993H37.4178V34.3011H38.4422ZM57.9045 33.3075L52.1502 25.8993H50.915V34.3011H51.9093L51.7889 26.8929L57.5733 34.3011H58.8084V25.8993H57.784L57.9045 33.3075ZM64.7434 30.0544C64.7434 32.5541 67.0625 34.451 70.0755 34.451C71.6727 34.451 73.0283 33.9993 74.0828 33.0653C75.0169 32.2523 75.4685 31.2587 75.4685 30.0537C75.4685 28.8493 74.9273 27.7955 73.8727 26.9517C72.8483 26.1395 71.5824 25.7173 70.1063 25.7173C68.6611 25.7173 67.4245 26.1395 66.4001 26.9517C65.3155 27.7969 64.7434 28.8801 64.7434 30.0544ZM65.8273 30.0544C65.8273 29.0307 66.4596 27.9769 67.4539 27.3145C68.2074 26.8026 69.1113 26.5316 70.0755 26.5316C72.515 26.5316 74.4133 28.1575 74.4133 30.0243C74.4133 32.1025 72.515 33.6983 70.1658 33.6983C67.7564 33.6983 65.8273 32.1326 65.8273 30.0544ZM85.9822 34.3011V33.4882H82.3075V25.8993H81.2529V34.3011H85.9822ZM91.3444 30.0544C91.3444 32.5541 93.6649 34.451 96.6779 34.451C98.2736 34.451 99.6306 33.9993 100.685 33.0653C101.618 32.2523 102.1 31.2587 102.1 30.0537C102.1 28.8493 101.528 27.7955 100.473 26.9517C99.4486 26.1395 98.1833 25.7173 96.708 25.7173C95.2613 25.7173 94.0262 26.1395 93.0018 26.9517C91.9171 27.7969 91.3444 28.8801 91.3444 30.0544ZM92.4304 30.0544C92.4304 29.0307 93.062 27.9769 94.0563 27.3145C94.8097 26.8026 95.7137 26.5316 96.6779 26.5316C99.1174 26.5316 101.016 28.1575 101.016 30.0243C101.016 32.1025 99.1174 33.6983 96.7682 33.6983C94.3574 33.6983 92.4304 32.1326 92.4304 30.0544ZM112.134 30.2658V31.0186H117.436C116.953 32.6444 115.236 33.6983 113.338 33.6983C110.929 33.6983 109.03 32.1627 109.03 30.0544C109.03 28.1876 110.837 26.5316 113.338 26.5316C114.753 26.5316 115.838 27.0134 116.832 28.007H118.097C117.103 26.5617 115.447 25.718 113.398 25.718C111.831 25.718 110.596 26.1402 109.571 26.9524C108.487 27.7962 107.916 28.8801 107.916 30.0544C107.916 32.5842 110.235 34.451 113.248 34.451C116.17 34.451 118.489 32.7649 118.64 30.2651H112.134V30.2658ZM127.619 31.2293L130.992 25.8993H129.847L127.136 30.2658L124.424 25.8993H123.249L126.594 31.1992V34.3011H127.618V31.2293H127.619Z" fill="black"/>
</svg>
