<svg width="102" height="38" viewBox="0 0 102 38" fill="none" xmlns="http://www.w3.org/2000/svg">
<rect width="102" height="37.4131" rx="8" fill="white"/>
<path d="M32.6542 22.3644C31.3665 22.3644 30.1598 21.8152 29.0635 20.9212L29.3304 19.6591L29.342 19.6124C29.5798 18.2686 30.3339 16.0131 32.6542 16.0131C34.3943 16.0131 35.8098 17.4389 35.8098 19.1916C35.8039 20.9387 34.3886 22.3644 32.6542 22.3644ZM32.6542 12.7938C29.6899 12.7938 27.393 14.7336 26.4592 17.9238C25.0321 15.7678 23.9531 13.1794 23.3209 11H20.1306V19.3611C20.1306 21.0088 18.7964 22.3525 17.1606 22.3525C15.5248 22.3525 14.1907 21.0088 14.1907 19.3611V11H11V19.3611C10.9884 22.7851 13.7554 25.5954 17.1545 25.5954C20.5538 25.5954 23.3208 22.7851 23.3208 19.3611V17.9589C23.9414 19.2618 24.7013 20.5764 25.6236 21.7451L23.6687 31H26.9346L28.3499 24.2866C29.5912 25.0871 31.0183 25.5897 32.6541 25.5897C36.1518 25.5897 39 22.7033 39 19.18C39 15.6625 36.1518 12.7938 32.6541 12.7938H32.6542Z" fill="#6FDA44"/>
<path d="M48.7966 12.7467L50.8929 20.9865L53.2019 12.7467H55.9535L52.4047 24.6545H49.6529L47.474 16.3627L45.3008 24.6487H42.5492L39 12.741H41.7518L44.0607 20.9808L46.1569 12.741H48.7964V12.7468L48.7966 12.7467ZM62.5377 12.3896C58.9652 12.3896 56.0717 15.2168 56.0717 18.6947C56.0717 22.1785 58.971 25 62.5377 25C66.1103 25 69.0096 22.1785 69.0096 18.6947C69.0096 15.2111 66.1103 12.3896 62.5377 12.3896ZM62.5377 22.4088C60.4355 22.4088 58.7348 20.7504 58.7348 18.7006C58.7348 16.6506 60.4414 14.9924 62.5377 14.9924C64.6399 14.9924 66.3405 16.6506 66.3405 18.7006C66.3405 20.7447 64.6399 22.4088 62.5377 22.4088ZM76.8692 15.4127C75.021 15.4127 73.527 16.8752 73.527 18.6717V24.6487H70.7574V12.7467H73.527V14.5777C73.527 14.5777 74.708 12.7408 77.135 12.7408H77.9852V15.4127H76.8692ZM86.1638 18.2342C88.13 17.1516 89.4647 15.0959 89.4647 12.7408H86.6951C86.6951 14.7274 85.0418 16.3397 83.0046 16.3397H82.6325V7H79.8632V24.6485H82.6325V19.0402H82.9633C83.2349 19.0402 83.5893 19.2131 83.7487 19.426L87.6813 24.6487H91L86.1638 18.2342Z" fill="black"/>
</svg>
