<svg width="661" height="310" viewBox="0 0 661 310" fill="none" xmlns="http://www.w3.org/2000/svg">
<path d="M192.012 72.0866C124.412 -61.5134 90.1789 47.7533 81.5122 119.087C75.5122 131.087 84.0122 207.753 89.0122 244.587M192.012 72.0866C240.179 64.2533 317.412 70.0867 241.012 156.087M192.012 72.0866C132.812 80.4866 65.6789 131.587 39.5122 156.087M241.012 156.087C271.346 195.587 304.012 268.587 192.012 244.587M241.012 156.087C213.812 193.687 128.346 230.753 89.0122 244.587M241.012 156.087C214.012 130.587 145.812 77.0867 89.0122 67.0867C41.1789 58.5867 -35.6878 64.4867 39.5122 156.087M192.012 244.587C173.846 289.753 127.812 352.987 89.0122 244.587M192.012 244.587C123.212 232.187 61.6789 180.42 39.5122 156.087M89.0122 244.587C-22.5878 261.387 9.51222 192.587 39.5122 156.087" stroke="white" stroke-width="10"/>
<path d="M191.512 244.087C198.512 202.42 208.312 109.687 191.512 72.0867" stroke="white" stroke-width="10"/>
<circle cx="166.5" cy="29.5" r="29.5" fill="#303030"/>
<circle cx="166.5" cy="29.5" r="16" fill="#40BF8E" stroke="white" stroke-width="5"/>
<circle cx="141" cy="157" r="23" fill="#40BF8E" stroke="white" stroke-width="8"/>
<circle cx="230" cy="248" r="22" fill="#303030"/>
<circle cx="230" cy="248" r="11.6026" fill="#40BF8E" stroke="white" stroke-width="5"/>
<circle cx="19.5" cy="191.5" r="19.5" fill="#303030"/>
<circle cx="19.5" cy="191.5" r="10" fill="#40BF8E" stroke="white" stroke-width="5"/>
<path d="M312.112 191L338.208 120.664C339.477 117.453 341.307 115.101 343.696 113.608C346.085 112.04 348.811 111.256 351.872 111.256C355.008 111.256 357.771 112.003 360.16 113.496C362.624 114.989 364.453 117.341 365.648 120.552L391.856 191H377.184L371.136 173.64H332.384L326.112 191H312.112ZM336.416 161.768H367.104L354.56 125.144C354.261 124.397 353.888 123.837 353.44 123.464C353.067 123.091 352.581 122.904 351.984 122.904C351.387 122.904 350.901 123.128 350.528 123.576C350.155 123.949 349.856 124.472 349.632 125.144L336.416 161.768ZM428.913 132.536C433.542 132.536 437.686 133.283 441.345 134.776C445.004 136.195 448.102 138.285 450.641 141.048C453.254 143.811 455.233 147.096 456.577 150.904C457.996 154.637 458.705 158.781 458.705 163.336C458.705 169.085 457.51 174.163 455.121 178.568C452.806 182.899 449.558 186.296 445.377 188.76C441.27 191.149 436.492 192.344 431.041 192.344C428.353 192.344 425.814 191.933 423.425 191.112C421.036 190.291 418.87 189.133 416.929 187.64C414.988 186.147 413.42 184.392 412.225 182.376H412.113V215.64H399.233V163.112C399.233 156.765 400.465 151.315 402.929 146.76C405.468 142.205 408.977 138.696 413.457 136.232C417.937 133.768 423.089 132.536 428.913 132.536ZM428.913 143.512C425.702 143.512 422.828 144.333 420.289 145.976C417.75 147.544 415.772 149.747 414.353 152.584C412.934 155.421 412.225 158.707 412.225 162.44C412.225 166.099 412.934 169.384 414.353 172.296C415.772 175.133 417.75 177.373 420.289 179.016C422.828 180.584 425.74 181.368 429.025 181.368C432.31 181.368 435.185 180.547 437.649 178.904C440.188 177.261 442.166 175.021 443.585 172.184C445.004 169.347 445.713 166.099 445.713 162.44C445.713 158.707 445.004 155.421 443.585 152.584C442.166 149.747 440.188 147.544 437.649 145.976C435.11 144.333 432.198 143.512 428.913 143.512ZM500.116 132.536C504.746 132.536 508.89 133.283 512.548 134.776C516.207 136.195 519.306 138.285 521.844 141.048C524.458 143.811 526.436 147.096 527.78 150.904C529.199 154.637 529.908 158.781 529.908 163.336C529.908 169.085 528.714 174.163 526.324 178.568C524.01 182.899 520.762 186.296 516.58 188.76C512.474 191.149 507.695 192.344 502.244 192.344C499.556 192.344 497.018 191.933 494.628 191.112C492.239 190.291 490.074 189.133 488.132 187.64C486.191 186.147 484.623 184.392 483.428 182.376H483.316V215.64H470.436V163.112C470.436 156.765 471.668 151.315 474.132 146.76C476.671 142.205 480.18 138.696 484.66 136.232C489.14 133.768 494.292 132.536 500.116 132.536ZM500.116 143.512C496.906 143.512 494.031 144.333 491.492 145.976C488.954 147.544 486.975 149.747 485.556 152.584C484.138 155.421 483.428 158.707 483.428 162.44C483.428 166.099 484.138 169.384 485.556 172.296C486.975 175.133 488.954 177.373 491.492 179.016C494.031 180.584 496.943 181.368 500.228 181.368C503.514 181.368 506.388 180.547 508.852 178.904C511.391 177.261 513.37 175.021 514.788 172.184C516.207 169.347 516.916 166.099 516.916 162.44C516.916 158.707 516.207 155.421 514.788 152.584C513.37 149.747 511.391 147.544 508.852 145.976C506.314 144.333 503.402 143.512 500.116 143.512ZM542.087 191V109.24H554.967V191H542.087ZM570.416 191V133.88H583.296V191H570.416ZM576.8 125.928C574.56 125.928 572.618 125.107 570.976 123.464C569.333 121.821 568.512 119.88 568.512 117.64C568.512 115.4 569.333 113.459 570.976 111.816C572.618 110.173 574.56 109.352 576.8 109.352C579.114 109.352 581.056 110.173 582.624 111.816C584.266 113.459 585.088 115.4 585.088 117.64C585.088 119.88 584.266 121.821 582.624 123.464C581.056 125.107 579.114 125.928 576.8 125.928ZM625.96 192.344C620.061 192.344 614.834 191.037 610.28 188.424C605.725 185.736 602.104 182.152 599.416 177.672C596.802 173.117 595.496 168.04 595.496 162.44C595.496 156.84 596.802 151.8 599.416 147.32C602.104 142.765 605.725 139.181 610.28 136.568C614.834 133.88 620.061 132.536 625.96 132.536C631.784 132.536 636.973 133.88 641.528 136.568C646.082 139.181 649.666 142.728 652.28 147.208C654.968 151.688 656.312 156.765 656.312 162.44C656.312 168.04 654.968 173.117 652.28 177.672C649.666 182.152 646.082 185.736 641.528 188.424C636.973 191.037 631.784 192.344 625.96 192.344ZM625.96 181.368C629.469 181.368 632.53 180.547 635.144 178.904C637.757 177.187 639.773 174.909 641.192 172.072C642.61 169.235 643.32 166.024 643.32 162.44C643.32 158.931 642.61 155.757 641.192 152.92C639.773 150.008 637.757 147.731 635.144 146.088C632.53 144.371 629.469 143.512 625.96 143.512C622.376 143.512 619.277 144.371 616.664 146.088C614.125 147.731 612.109 149.971 610.616 152.808C609.197 155.645 608.488 158.856 608.488 162.44C608.488 165.949 609.197 169.16 610.616 172.072C612.109 174.909 614.125 177.187 616.664 178.904C619.277 180.547 622.376 181.368 625.96 181.368Z" fill="white"/>
</svg>
